<?xml version="1.0" encoding="UTF-8" standalone="no"?>
<!DOCTYPE svg PUBLIC "-//W3C//DTD SVG 1.1//EN" "http://www.w3.org/Graphics/SVG/1.1/DTD/svg11.dtd">
<svg width="100%" height="100%" viewBox="0 0 111 69" version="1.1" xmlns="http://www.w3.org/2000/svg" xmlns:xlink="http://www.w3.org/1999/xlink" xml:space="preserve" xmlns:serif="http://www.serif.com/" style="fill-rule:evenodd;clip-rule:evenodd;stroke-linejoin:round;stroke-miterlimit:2;">
    <rect id="Arcade" x="0" y="0" width="111" height="69" style="fill:none;"/>
    <clipPath id="_clip1">
        <rect x="0" y="0" width="111" height="69"/>
    </clipPath>
    <g clip-path="url(#_clip1)">
        <g id="Joystick">
            <path id="back" d="M61,29l-0,1l-2,0l-0,21l-8,0l0,-21l-2,0l-0,-1l-1,0l-0,-1l-2,0l-0,-1l-1,0l-0,-1l-1,0l-0,-1l-1,0l-0,-2l-1,0l-0,-1l-1,0l-0,-3l-1,0l-0,-7l1,0l-0,-3l1,0l-0,-1l1,0l0,-2l1,0l0,-1l1,0l0,-1l1,0l0,-1l2,0l0,-1l1,0l0,-1l3,0l0,-1l6,0l0,1l3,0l0,1l1,0l0,1l2,0l0,1l1,0l0,1l1,0l0,1l1,0l0,2l1,0l-0,1l1,0l-0,3l1,0l-0,7l-1,0l-0,3l-1,0l-0,1l-1,0l0,2l-1,0l-0,1l-1,0l0,1l-1,0l-0,1l-2,0l0,1l-1,0Z"/>
            <g id="rod">
                <rect x="52" y="30" width="6" height="20" style="fill:#5d5d5d;"/>
                <rect x="53" y="31" width="4" height="18" style="fill:#999;"/>
                <path d="M54,35l1,0l0,3l1,0l-0,1l1,0l0,7l-1,0l-0,-2l-1,0l-0,-2l-2,0l-0,-11l1,0l-0,4Zm3,-1l-1,0l-0,-2l-1,0l-0,-1l2,0l0,3Z" style="fill:#828282;"/>
            </g>
            <g id="ball">
                <path d="M53,30l-1,0l-0,-1l1,0l-0,1Zm4,0l-0,-1l1,0l-0,1l-1,0Zm-4,0l4,0l0,1l-4,0l-0,-1Z" style="fill:#7d1515;"/>
                <path d="M48,27l-2,0l-0,-1l-1,0l0,-1l-1,0l-0,-2l-1,0l-0,-1l-1,0l0,-3l-1,0l-0,-6l1,0l-0,-3l1,0l-0,-1l1,0l0,-2l1,0l0,-1l1,0l0,-1l2,0l0,-1l1,0l0,-1l3,0l0,-1l6,0l0,1l3,0l0,1l1,0l0,1l2,0l0,1l1,0l0,1l1,0l-0,2l1,0l-0,1l1,0l0,3l1,0l0,6l-1,0l0,3l-1,0l-0,1l-1,0l0,2l-1,0l-0,1l-1,0l0,1l-2,0l-0,1l-1,0l0,1l-4,0l0,1l-4,0l0,-1l-4,0l-0,-1l-1,0l-0,-1Z" style="fill:#cc2f2f;"/>
                <path d="M43,13l-0,-3l1,0l-0,-1l1,0l0,-2l1,0l0,-1l2,0l0,-1l1,0l0,-1l3,0l0,-1l5,0l0,1l2,0l0,1l2,0l0,1l1,0l0,1l1,0l0,1l1,0l-0,1l1,0l-0,2l1,0l0,9l-1,0l-0,2l-1,0l-0,1l-1,0l-0,1l-1,0l0,1l-1,0l-0,1l-3,0l0,1l-8,0l0,-1l-2,0l-0,-1l-1,0l0,-1l-1,0l-0,-1l-1,0l-0,-1l-1,0l-0,-2l-1,0l-0,-2l-1,0l-0,-5l1,0Z" style="fill:#f13a3a;"/>
                <path d="M65,7l-1,0l0,-1l1,0l0,1Zm-1,-1l-1,0l0,-1l1,0l0,1Zm2,3l-1,0l0,-2l1,0l-0,2Zm-17,19l9,0l-0,-1l3,0l0,-1l1,0l-0,-1l2,0l-0,-2l1,0l-0,-1l1,0l-0,-2l1,0l-0,-10l1,0l-0,3l1,0l-0,6l-1,0l-0,3l-1,0l-0,1l-1,0l0,2l-1,0l-0,1l-1,0l0,1l-2,0l-0,1l-1,0l0,1l-4,0l-0,1l-4,0l-0,-1l-4,0l-0,-1Zm-1,-1l1,0l-0,1l-1,0l-0,-1Zm-2,-1l2,0l-0,1l-2,0l-0,-1Zm-1,-1l1,0l-0,1l-1,0l-0,-1Zm-0,0l-1,0l0,-1l1,0l-0,1Zm22,-15l-1,0l-0,-1l1,0l-0,1Z" style="fill:#b92121;"/>
                <path d="M47,11l-0,-2l1,0l-0,-1l1,0l0,-1l2,0l0,-1l5,0l0,1l2,0l-0,2l-3,0l-0,1l-2,0l-0,1l-1,0l-0,1l-1,0l-0,1l-1,0l-0,2l-1,0l0,3l-2,0l-0,-2l-1,0l-0,-5l1,0Z" style="fill:#f1c33a;"/>
            </g>
        </g>
        <g id="Arcade1" serif:id="Arcade">
            <path id="back1" serif:id="back" d="M41,37l29,0l0,1l1,0l-0,1l1,0l-0,2l1,0l0,1l1,0l-0,-4l1,0l0,-1l13,0l0,1l1,0l-0,1l1,0l-0,1l1,0l-0,1l1,0l0,1l1,0l0,1l1,0l-0,-5l1,0l0,-1l11,0l0,1l1,0l-0,1l3,0l-0,1l1,0l-0,5l-1,0l0,1l-1,0l0,1l-3,0l0,2l1,0l0,1l1,0l0,6l-1,0l0,1l-3,0l0,3l1,0l0,1l2,0l0,1l1,0l0,4l-1,0l-0,2l-1,0l0,1l-12,0l-0,-1l-1,0l-0,-1l-1,0l-0,-1l-1,0l-0,-1l-1,0l0,1l-1,0l0,1l-1,0l0,1l-1,0l0,1l-12,0l0,-1l-1,0l-0,1l-7,0l-0,-1l-1,0l-0,-1l-1,0l-0,1l-1,0l-0,1l-7,0l-0,-1l-1,0l-0,-1l-2,0l-0,1l-2,0l-0,1l-7,0l-0,-1l-1,0l-0,-1l-1,0l-0,-1l-1,0l-0,-1l-1,0l-0,1l-1,0l-0,1l-1,0l-0,1l-1,0l-0,1l-7,0l-0,-1l-1,0l-0,1l-7,0l-0,-1l-1,0l-0,-1l-1,0l-0,1l-1,0l-0,1l-7,0l-0,-1l-1,0l-0,-1l-1,0l-0,1l-1,0l-0,1l-7,0l-0,-1l-1,0l-0,-8l-1,0l-0,-16l-1,0l-0,-4l1,0l-0,-1l2,0l-0,-1l1,0l0,-1l9,0l0,1l1,0l-0,1l1,0l-0,1l1,0l-0,1l1,0l0,1l1,0l-0,-2l1,0l-0,-1l1,0l-0,-1l1,0l0,-1l11,0l0,1l1,0l-0,1l1,0l-0,1l1,0l-0,1l1,0l0,1l1,0l0,1l1,0l-0,-3l1,0l-0,-1l1,0l-0,-1l1,0l0,-1Z"/>
            <path id="middle" d="M4,40l-0,-1l8,0l-0,1l1,0l-0,1l1,0l0,2l1,0l-0,5l1,0l0,2l1,0l0,4l1,0l0,1l1,0l0,4l1,0l-0,3l1,0l-0,4l-1,0l-0,-1l-1,0l0,-2l-1,0l-0,-3l-1,0l-0,-4l-1,0l-0,-1l-1,0l-0,-4l-1,0l0,-2l-1,0l-0,-5l-1,0l0,-2l-1,0l0,-1l-8,0l-0,-1l1,0Zm17,0l-0,-1l10,0l-0,1l1,0l-0,1l1,0l0,1l1,0l0,1l1,0l-0,1l1,0l-0,1l1,0l0,9l-1,0l0,1l1,0l-0,1l1,0l0,2l1,0l-0,4l-1,0l0,2l-1,0l0,-5l-1,0l0,-2l-1,0l-0,-1l-1,0l-0,-1l-1,0l0,-1l1,0l0,-1l1,0l0,-8l-1,0l-0,-1l-1,0l-0,-1l-1,0l0,-1l-2,0l0,-1l-10,0l-0,-1l1,0Zm19,1l-0,-1l1,0l-0,-1l10,0l-0,1l1,0l-0,1l1,0l0,1l1,0l0,4l-1,0l-0,-2l-1,0l-0,-1l-1,0l0,-1l-1,0l0,-1l-9,0l0,1l-1,0l0,1l-1,0l0,-2l1,0Zm17,15l-0,-4l1,0l-0,-5l1,0l-0,-8l11,0l-0,1l1,0l-0,1l-10,0l-0,7l-1,0l-0,5l-1,0l-0,4l-1,0l-0,5l-1,0l0,1l-1,0l-0,-7l1,0Zm18,-3l0,-8l1,0l-0,-6l12,0l-0,1l1,0l-0,1l-11,0l0,5l-1,0l0,8l-1,0l0,9l-1,0l0,-1l-1,0l0,-9l1,0Zm19,4l0,-7l1,0l-0,-6l1,0l-0,-5l10,0l-0,1l1,0l-0,1l-9,0l-0,4l-1,0l0,6l-1,0l0,7l-1,0l0,6l-1,0l0,-2l-1,0l0,-5l1,0Zm-45,-1l-0,-1l5,0l-0,1l1,0l-0,1l-7,0l-0,-1l1,0Z" style="fill:#f1c33a;"/>
            <path id="front" d="M11,42l1,0l-0,2l1,0l-0,5l1,0l0,2l1,0l0,4l1,0l-0,1l1,0l0,4l1,0l0,3l1,0l0,2l1,0l-0,3l-7,0l-0,-3l-1,0l0,-2l-3,0l0,2l1,0l-0,3l-7,0l-0,-8l-1,0l-0,-16l-1,0l0,-3l10,0l0,1Zm-4,6l-0,1l1,0l-0,7l1,0l0,3l1,0l-0,-4l-1,0l0,-6l-1,0l-0,-1l-1,0Zm23,-6l2,0l0,1l1,0l-0,1l1,0l-0,1l1,0l-0,8l-1,0l0,1l-1,0l0,1l1,0l-0,1l1,0l-0,1l1,0l0,2l1,0l0,5l1,0l-0,4l-7,0l0,-4l-1,0l0,-5l-1,0l0,-2l-1,0l0,2l1,0l0,5l1,0l-0,4l-7,0l0,-4l-1,0l0,-6l-1,0l-0,-7l-1,0l0,-6l-1,0l0,-4l11,0l0,1Zm-3,4l-0,6l2,0l-0,-1l-1,0l0,-5l-1,0Zm31,16l0,-5l1,0l0,-4l1,0l-0,-5l1,0l0,-7l10,0l0,1l1,0l-0,7l1,0l0,14l1,0l-0,5l-7,0l0,-5l-3,0l-0,5l-7,0l0,-6l1,0Zm8,-3l0,-5l1,0l-0,-6l-1,0l0,6l-1,0l0,4l-1,0l0,1l2,0Zm10,4l0,-9l1,0l0,-8l1,0l0,-5l12,0l0,1l1,0l0,1l1,0l-0,1l1,0l0,10l-1,0l0,9l-1,0l0,1l-1,0l0,1l-1,0l-0,1l-1,0l-0,1l-1,0l-0,1l-12,0l0,-5l1,0Zm9,0l0,-9l1,0l0,-8l-2,0l0,8l-1,0l0,9l2,0Zm10,1l0,-6l1,0l-0,-7l1,0l0,-6l1,0l0,-4l12,0l-0,4l-1,0l0,1l-5,0l0,5l3,0l-0,5l-4,0l0,2l-1,0l0,5l5,0l-0,3l-1,0l-0,2l-12,0l0,-4l1,0Zm-55,-21l0,-1l1,0l0,-1l9,0l0,1l1,0l0,1l1,0l-0,1l1,0l0,2l1,0l0,5l-7,0l0,-5l-1,0l0,8l1,0l0,9l1,0l0,-6l7,0l-0,9l-1,0l-0,1l-2,0l-0,1l-7,0l-0,-1l-1,0l-0,-1l-1,0l-0,-1l-1,0l0,-1l-1,0l0,-1l-1,0l0,-9l-1,0l-0,-11l1,0Z" style="fill:#f13a3a;"/>
        </g>
    </g>
</svg>
