<svg xmlns="http://www.w3.org/2000/svg" viewBox="0 0 397 132">
    <path fill="#f90" d="M190.07 64.04v-3.08h3.08v-3.08h-3.08V36.33h3.08v-3.07h3.08v-3.08h6.16V27.1h21.55v3.08h6.15v3.07h3.08v3.08h3.08v21.55h-3.08v3.08h3.08v6.16h3.08v18.47h-3.08v6.15h-3.08v3.08h-9.23v3.08H199.3v-3.08h-6.16v-3.08h-3.08V85.6H187V64.04h3.08Zm0 3.08V82.5h3.08v6.16h3.08v3.07h6.16v3.08h18.47v-3.08h9.23v-3.07h3.08V82.5h3.08V70.2h-3.08v-6.16h-3.08v-3.08h-3.08v-3.08h3.08V54.8h3.08V39.41h-3.08v-3.08h-3.08v-3.08h-6.15v-3.07h-15.4v3.07h-6.15v3.08h-3.08v3.08h-3.08v15.4h3.08v3.07h3.08v3.08h-3.08v3.08h-3.08v3.08h-3.08Zm15.4 3.08v-3.08h15.39v3.08h3.07v9.23h-3.07v3.08h-15.4v-3.08h-3.07V70.2h3.07Zm0 3.07v3.08h3.07v3.08h9.24v-3.08h3.08v-3.07h-3.08V70.2h-9.24v3.07h-3.08Zm3.07-27.7v-3.08h9.24v3.08h3.08v6.15h-3.08v3.08h-9.24v-3.08h-3.08v-6.15h3.08Zm3.08 6.15h3.08v-6.15h-3.08v6.15Zm33.86-12.31v-6.15h3.08v-3.08h6.16V27.1h24.63v3.08h6.15v3.07h3.08v6.16h3.08V85.6h-3.08v6.15h-3.08v3.08h-6.15v3.08h-24.63v-3.08h-6.16v-3.08h-3.08V85.6h-3.08V39.4h3.08Zm0 3.08v40.02h3.08v6.16h3.08v3.07h6.16v3.08h18.47v-3.07h6.16v-3.08h3.07V82.5h3.08V42.49h-3.08v-6.16h-3.08v-3.07h-6.15v-3.08H257.8v3.07h-6.16v3.08h-3.08v6.16h-3.08Zm15.4 3.08v-3.08h12.3v3.08h3.09v33.86h-3.08v3.08h-12.31v-3.08h-3.08V45.57h3.08Zm0 3.08v27.7h3.07v3.08h6.16v-3.08h3.08v-27.7h-3.08v-3.08h-6.16v3.08h-3.07Zm36.94-9.24v-6.15h3.08v-3.08h6.15V27.1h24.63v3.08h6.16v3.07h3.07v6.16H344V85.6h-3.08v6.15h-3.07v3.08h-6.16v3.08h-24.63v-3.08h-6.16v-3.08h-3.07V85.6h-3.08V39.4h3.08Zm0 3.08v40.02h3.08v6.16h3.07v3.07h6.16v3.08h18.47v-3.07h6.16v-3.08h3.08V82.5h3.07V42.49h-3.07v-6.16h-3.08v-3.07h-6.16v-3.08h-18.47v3.07h-6.16v3.08h-3.08v6.16h-3.07Zm15.39 3.08v-3.08h12.31v3.08h3.08v33.86h-3.08v3.08h-12.31v-3.08h-3.08V45.57h3.08Zm0 3.08v27.7h3.08v3.08h6.15v-3.08h3.08v-27.7h-3.08v-3.08h-6.15v3.08h-3.08Zm-247.6 3.84H52.5V32.8h13.1v19.68Zm26.25 0H72.17V32.8h19.69v19.68Zm19.68 0H98.42V32.8h13.12v19.68Z"/>
    <path fill="#e20" d="M65.61 19.68H52.5V0h13.1v19.68Zm26.25 0H72.17V0h19.69v19.68Zm19.68 0H98.42V0h13.12v19.68Z"/>
    <path fill="#ff6634" d="M65.61 32.8H52.5V19.69h13.1v13.13Zm26.25 0H72.17V19.69h19.69v13.13Zm19.68 0H98.42V19.69h13.12v13.13Z"/>
    <path fill="#fc0" d="M52.49 59.05V52.5H65.6v13.1H45.93v-6.56h6.56Zm39.37 6.56H72.17V52.5h19.69v13.1Zm19.68-6.56h6.56v6.56H98.42V52.5h13.12v6.56Z"/>
    <path fill="#fffb01" d="M59.05 72.17H45.93v-6.56h13.12v6.56Zm32.8 0H72.18v-6.56h19.69v6.56Zm26.25 0h-13.12v-6.56h13.12v6.56Z"/>
    <path fill="#ccfb66" d="M45.93 78.73v-6.56h13.12V85.3H39.37v-6.57h6.56Zm45.93 6.56H72.17V72.17h19.69V85.3Zm26.24-6.56h6.56v6.56h-19.68V72.17h13.12v6.56Z"/>
    <path fill="#02fdff" d="M39.37 118.1H0v-6.56h39.37v6.56Zm52.49 0H72.17v-6.56h19.69v6.56Zm72.17 0h-39.37v-6.56h39.37v6.56Z"/>
    <path fill="#99fa66" d="M59.05 91.86H39.37v-6.57h19.68v6.57Zm32.8 0H72.18v-6.57h19.69v6.57Zm32.81 0h-19.68v-6.57h19.68v6.57Z"/>
    <path fill="#07f900" d="M32.8 98.42v-6.56h19.7v13.12H26.24v-6.56h6.57Zm59.06 6.56H72.17V91.86h19.69v13.12Zm39.36-6.56h6.56v6.56h-26.24V91.86h19.68v6.56Z"/>
    <path fill="#0cf" d="M32.8 124.66H0v-6.56h32.8v6.56Zm59.06 0H72.17v-6.56h19.69v6.56Zm72.17 0h-32.8v-6.56h32.8v6.56Z"/>
    <path fill="#34fbcc" d="M45.93 111.54H19.68v-6.56h26.25v6.56Zm45.93 0H72.17v-6.56h19.69v6.56Zm52.49 0H118.1v-6.56h26.25v6.56Z"/>
    <path fill="#0199ff" d="M19.68 131.22H0v-6.56h19.68v6.56Zm72.18 0H72.17v-6.56h19.69v6.56Zm72.17 0h-19.68v-6.56h19.68v6.56Z"/>
</svg>
