<svg xmlns="http://www.w3.org/2000/svg" viewBox="0 0 397 132">
    <path fill="#e20" d="M226.99 30.84h3.33v13.33h-3.33v6.67h-16.67V47.5h3.34v-6.66h-26.67V27.5h40v3.33Zm16.66 6.67v-3.34h3.33v-3.33h6.67v-3.33h16.66v3.33h6.67v3.33h3.33v3.34h3.33v13.33h-13.33v-6.67h-3.33v-3.33h-10v3.33h-3.33v6.67h-13.33V37.5h3.33Zm53.32 3.33v-6.67h3.33v-3.33h6.67v-3.33h20v3.33h6.66v3.33h3.33v6.67h3.34v10h-13.33v-6.67h-3.34v-3.33H310.3v3.33h-3.33v6.67h-13.33v-10h3.33Zm56.66 0v-6.67h3.33v-3.33h6.66v-3.33h20v3.33h6.67v3.33h3.33v6.67h3.33v10h-13.33v-6.67h-3.33v-3.33h-13.33v3.33h-3.34v6.67H350.3v-10h3.34ZM197 94.16v-10h3.32V77.5h3.34v-3.34h13.33v10h-3.33v10h-3.34v3.33h-16.66v-3.33h3.33Zm53.31-13.33h3.34v3.33h16.66v-3.33h3.33v-6.67h13.33v10h-3.33v6.67h-3.33v3.33h-10v3.33h-20v-3.33h-6.66v-3.33h-3.33v-6.67h-3.34v-10h13.33v6.67Zm56.66 0h3.33v3.33h13.33v-3.33h3.34v-6.67h13.33v10h-3.34v6.67h-3.33v3.33h-6.66v3.33h-20v-3.33h-6.67v-3.33h-3.33v-6.67h-3.33v-10h13.33v6.67Zm56.65 0h3.34v3.33h13.33v-3.33h3.33v-6.67h13.33v10h-3.33v6.67h-3.33v3.33h-6.67v3.33h-20v-3.33h-6.66v-3.33h-3.33v-6.67h-3.34v-10h13.33v6.67Z"/>
    <path fill="#ff6634" d="M206.99 67.5v-10h3.33v-6.66H227v3.33h-3.34v10h-3.33v10h-16.66V67.5H207Zm33.33 0v-3.33h3.33v-3.34h3.33V57.5h-3.33v-3.33h-3.33v-3.33h16.66v3.33h10v-3.33h16.66v3.33h-3.33v3.33h-3.34v3.33h3.34v3.34h3.33v6.66h3.33v3.33h-13.33v-3.33h-3.33V67.5h-16.66v3.33h-3.34v3.33h-13.33V67.5h3.34Zm66.65 6.66h-13.33V50.84h13.33v23.32Zm33.33 0h-13.34V50.84h13.34v23.32Zm23.32 0H350.3V50.84h13.33v23.32Zm33.33 0h-13.33V50.84h13.33v23.32Z"/>
    <path fill="#f90" d="M65.61 52.49H52.5V32.8h13.1v19.68Zm26.25 0H72.17V32.8h19.69v19.68Zm19.68 0H98.42V32.8h13.12v19.68Z"/>
    <path fill="#e20" d="M65.61 19.68H52.5V0h13.1v19.68Zm26.25 0H72.17V0h19.69v19.68Zm19.68 0H98.42V0h13.12v19.68Z"/>
    <path fill="#ff6634" d="M65.61 32.8H52.5V19.69h13.1v13.13Zm26.25 0H72.17V19.69h19.69v13.13Zm19.68 0H98.42V19.69h13.12v13.13Z"/>
    <path fill="#fc0" d="M52.49 59.05V52.5H65.6v13.1H45.93v-6.56h6.56Zm39.37 6.56H72.17V52.5h19.69v13.1Zm19.68-6.56h6.56v6.56H98.42V52.5h13.12v6.56Z"/>
    <path fill="#fffb01" d="M59.05 72.17H45.93v-6.56h13.12v6.56Zm32.8 0H72.18v-6.56h19.69v6.56Zm26.25 0h-13.12v-6.56h13.12v6.56Z"/>
    <path fill="#ccfb66" d="M45.93 78.73v-6.56h13.12V85.3H39.37v-6.57h6.56Zm45.93 6.56H72.17V72.17h19.69V85.3Zm26.24-6.56h6.56v6.56h-19.68V72.17h13.12v6.56Z"/>
    <path fill="#02fdff" d="M39.37 118.1H0v-6.56h39.37v6.56Zm52.49 0H72.17v-6.56h19.69v6.56Zm72.17 0h-39.37v-6.56h39.37v6.56Z"/>
    <path fill="#99fa66" d="M59.05 91.86H39.37v-6.57h19.68v6.57Zm32.8 0H72.18v-6.57h19.69v6.57Zm32.81 0h-19.68v-6.57h19.68v6.57Z"/>
    <path fill="#07f900" d="M32.8 98.42v-6.56h19.7v13.12H26.24v-6.56h6.57Zm59.06 6.56H72.17V91.86h19.69v13.12Zm39.36-6.56h6.56v6.56h-26.24V91.86h19.68v6.56Z"/>
    <path fill="#0cf" d="M32.8 124.66H0v-6.56h32.8v6.56Zm59.06 0H72.17v-6.56h19.69v6.56Zm72.17 0h-32.8v-6.56h32.8v6.56Z"/>
    <path fill="#34fbcc" d="M45.93 111.54H19.68v-6.56h26.25v6.56Zm45.93 0H72.17v-6.56h19.69v6.56Zm52.49 0H118.1v-6.56h26.25v6.56Z"/>
    <path fill="#0199ff" d="M19.68 131.22H0v-6.56h19.68v6.56Zm72.18 0H72.17v-6.56h19.69v6.56Zm72.17 0h-19.68v-6.56h19.68v6.56Z"/>
</svg>
