<svg xmlns="http://www.w3.org/2000/svg" viewBox="0 0 397 132">
    <path fill="#f90" d="M190.27 39.37V32.8h6.56v-3.29h6.57v-3.28h16.4v3.28h6.56v3.29h3.28v6.56h3.28v9.84H219.8v-6.56h-3.28v-3.28H203.4v3.28h-3.28v6.56h-13.13v-9.84h3.28Zm62.33 3.28v-3.28h3.29V32.8h3.28v-6.57h16.4v6.57h-3.28v3.28H269v6.56h-3.28v3.28h-3.28v3.28h-13.13v-6.56h3.29Zm45.93-3.28V32.8h3.28v-3.29h6.57v-3.28h19.68v3.28h6.56v3.29h3.28v6.56h3.28v9.84h-13.12v-6.56h-3.28v-3.28h-13.12v3.28h-3.29v6.56h-13.12v-9.84h3.28Zm55.77 0V32.8h3.28v-3.29h6.57v-3.28h19.68v3.28h6.56v3.29h3.28v6.56h3.28v9.84h-13.12v-6.56h-3.28v-3.28h-13.12v3.28h-3.29v6.56h-13.12v-9.84h3.28Z"/>
    <path fill="#ff6634" d="M203.4 52.49h3.28v6.56h-3.28v3.28h-9.85v-3.28h-3.28v-3.28H187v-6.56h16.4v3.28Zm0 16.4v-3.28h3.28v-3.28h3.28v-3.28h3.28v-3.28h3.28v-3.28h3.28V49.2h13.12v6.56h-3.28v3.28h-3.28v3.28h-3.28v3.28h-3.28v3.28h-3.28v3.28h-16.4V68.9h3.28Zm39.36-6.56v-6.56h3.28v-6.56h16.4v3.28h-3.27v6.56h-3.28v6.56h-3.28v6.56h-13.13v-9.84h3.28Zm22.97-3.28V52.5H269v-3.3h6.56v3.28h3.28v3.28h3.28v3.28h3.28v6.56h3.28v6.56h-13.12V65.6h-3.28v-3.28h-9.84v-3.28h3.28Zm42.64 13.12h-13.12V49.21h13.12v22.96Zm32.81 0h-13.12V49.21h13.12v22.96Zm22.96 0h-13.12V49.21h13.12v22.96Zm32.81 0h-13.12V49.21h13.12v22.96Z"/>
    <path fill="#ff2028" d="M190.27 82.02v-3.29h3.28v-3.28h3.28v-3.28h16.4v3.28h-3.27v3.28h-3.28v3.28h29.52v13.13h-45.93v-3.28H187V82h3.28Zm62.33-6.57h3.29v3.28h3.28v3.29h13.12v-3.29h3.28v-6.56h13.12v9.85h-3.28v3.28h-3.28v3.28h-3.28v3.28h-6.56v3.28h-16.4v-3.28h-6.57v-3.28h-3.28V85.3h-3.28v-6.57h-3.28v-6.56h13.12v3.28Zm55.78 3.28h3.28v3.29h13.12v-3.29h3.28v-6.56h13.12v9.85h-3.28v6.56h-3.28v3.28h-6.56v3.28h-19.68v-3.28h-6.57v-3.28h-3.28V82h-3.28v-9.84h13.13v6.56Zm55.77 0h3.28v3.29h13.12v-3.29h3.28v-6.56h13.12v9.85h-3.28v6.56h-3.28v3.28h-6.56v3.28h-19.69v-3.28h-6.56v-3.28h-3.28V82h-3.28v-9.84h13.13v6.56Z"/>
    <path fill="#f90" d="M65.61 52.49H52.5V32.8h13.1v19.68Zm26.25 0H72.17V32.8h19.69v19.68Zm19.68 0H98.42V32.8h13.12v19.68Z"/>
    <path fill="#e20" d="M65.61 19.68H52.5V0h13.1v19.68Zm26.25 0H72.17V0h19.69v19.68Zm19.68 0H98.42V0h13.12v19.68Z"/>
    <path fill="#ff6634" d="M65.61 32.8H52.5V19.69h13.1v13.13Zm26.25 0H72.17V19.69h19.69v13.13Zm19.68 0H98.42V19.69h13.12v13.13Z"/>
    <path fill="#fc0" d="M52.49 59.05V52.5H65.6v13.1H45.93v-6.56h6.56Zm39.37 6.56H72.17V52.5h19.69v13.1Zm19.68-6.56h6.56v6.56H98.42V52.5h13.12v6.56Z"/>
    <path fill="#fffb01" d="M59.05 72.17H45.93v-6.56h13.12v6.56Zm32.8 0H72.18v-6.56h19.69v6.56Zm26.25 0h-13.12v-6.56h13.12v6.56Z"/>
    <path fill="#ccfb66" d="M45.93 78.73v-6.56h13.12V85.3H39.37v-6.57h6.56Zm45.93 6.56H72.17V72.17h19.69V85.3Zm26.24-6.56h6.56v6.56h-19.68V72.17h13.12v6.56Z"/>
    <path fill="#02fdff" d="M39.37 118.1H0v-6.56h39.37v6.56Zm52.49 0H72.17v-6.56h19.69v6.56Zm72.17 0h-39.37v-6.56h39.37v6.56Z"/>
    <path fill="#99fa66" d="M59.05 91.86H39.37v-6.57h19.68v6.57Zm32.8 0H72.18v-6.57h19.69v6.57Zm32.81 0h-19.68v-6.57h19.68v6.57Z"/>
    <path fill="#07f900" d="M32.8 98.42v-6.56h19.7v13.12H26.24v-6.56h6.57Zm59.06 6.56H72.17V91.86h19.69v13.12Zm39.36-6.56h6.56v6.56h-26.24V91.86h19.68v6.56Z"/>
    <path fill="#0cf" d="M32.8 124.66H0v-6.56h32.8v6.56Zm59.06 0H72.17v-6.56h19.69v6.56Zm72.17 0h-32.8v-6.56h32.8v6.56Z"/>
    <path fill="#34fbcc" d="M45.93 111.54H19.68v-6.56h26.25v6.56Zm45.93 0H72.17v-6.56h19.69v6.56Zm52.49 0H118.1v-6.56h26.25v6.56Z"/>
    <path fill="#0199ff" d="M19.68 131.22H0v-6.56h19.68v6.56Zm72.18 0H72.17v-6.56h19.69v6.56Zm72.17 0h-19.68v-6.56h19.68v6.56Z"/>
</svg>
