<svg xmlns="http://www.w3.org/2000/svg" viewBox="0 0 397 116">
    <path fill="#ff2028" d="M393.4 10.83h3.6v14.44h-3.6V10.83Zm-21.66 0v14.44h-3.61V10.83h3.6Zm18.04-3.6h3.61v3.6h-3.6v-3.6Zm-14.43 0V3.6h14.43v3.61h-14.43Zm-3.61 3.6v-3.6h3.6v3.6h-3.6Z"/>
    <path fill="#f8111a" d="M375.35 28.88h14.43v3.61h-14.43v-3.6Zm0 0h-3.61v-3.6h3.6v3.6Zm14.43 0v-3.6h3.61v3.6h-3.6Zm-14.43 14.44v-3.6h14.43v3.6h-14.43Z"/>
    <path fill="#f21720" d="M371.74 46.93v14.44h-3.61V46.93h3.6Zm0 0v-3.6h3.6v3.6h-3.6Zm21.65 0h-3.6v-3.6h3.6v3.6Zm0 0H397v14.44h-3.6V46.93Z"/>
    <path fill="#ed1c24" d="M375.35 64.98h14.43v3.61h-14.43V65Zm0 0h-3.61v-3.6h3.6v3.6Zm14.43 0v-3.6h3.61v3.6h-3.6Zm-18.04 10.83v-3.6h3.6v3.6h-3.6Zm0 0v3.62h-3.61V75.8h3.6Zm21.65 0H397v3.62h-3.6V75.8Zm-10.83 0v-3.6h10.83v3.6h-10.83Zm0 0v3.62h-3.6V75.8h3.6Z"/>
    <path fill="#e21b22" d="M371.74 86.65h7.21v-7.22h3.61v7.22h10.83v3.6h-21.65v-3.6Zm0 0h-3.61v-7.22h3.6v7.22Zm21.65 0v-7.22H397v7.22h-3.6Z"/>
    <path fill="#d61920" d="M371.74 111.92h3.6v3.6h-3.6v-3.6Zm0-10.83v10.83h-3.61v-10.83h3.6Zm18.04 10.83h3.61V97.48H397v18.05h-7.22v-3.61Zm-3.6-3.61h3.6v3.6h-3.6v-3.6Zm-3.62-3.61h3.61v3.6h-3.6v-3.6Zm-3.6-3.61h3.6v3.6h-3.6v-3.6Zm-7.22 0v-3.61h7.22v3.6h-7.22Z"/>
    <path fill="#ff2028" d="M32.48 14.44V7.22h3.61V3.61h3.61V0h10.83v3.61h3.6v3.61h3.62v10.83h3.6v7.22H28.88V14.44h3.61Zm119.1 3.61h-25.26v7.22h-18.05v-7.22H79.4V0h72.18v18.05Zm25.26 0V7.22h3.61V3.61h3.61V0h10.83v3.61h3.61v3.61h3.6v10.83h3.62v7.22h-32.48v-7.22h3.6Zm68.58-3.6V3.6h7.22V0h36.09v3.61h7.21v3.61h3.61v7.22h3.61v7.22h3.61v3.61h-18.04v-3.6h-3.61v-3.62h-21.66v3.61h-3.6v3.61H241.8V14.44h3.6Zm101.05 10.82h-18.04V0h18.04v25.27Z"/>
    <path fill="#f8111a" d="M25.26 39.71V25.27h18.05v7.22H39.7v10.83H21.65v-3.6h3.61Zm36.1-10.83h3.6v10.83h3.61v3.61H50.53v-3.6h-3.61V25.26h14.43v3.61Zm64.96 14.44h-18.05V25.27h18.05v18.05Zm43.3-3.6V28.87h3.62v-3.6h14.43V36.1h-3.6v7.22h-18.05v-3.6h3.6Zm36.1-10.84h3.6v10.83h3.62v3.61h-18.05v-3.6h-3.6V25.26h14.43v3.61Zm54.14 14.44H241.8V25.27h18.05v18.05Zm46.91 0h-14.43V25.27h14.43v18.05Zm39.7 0h-18.04V25.27h18.04v18.05Z"/>
    <path fill="#f21720" d="M21.66 54.15V43.32H39.7v3.61h-3.6v14.44H18.04v-7.22h3.6Zm46.91 0h3.61v7.22H54.14v-7.22h-3.61V43.32h18.04v10.83Zm57.75 7.22h-18.05V43.32h18.05v18.05Zm39.7-7.22V43.32h18.04v7.22h-3.6v10.83H162.4v-7.22h3.6Zm46.92 0h3.6v7.22H198.5v-7.22h-3.6V43.32h18.04v10.83Zm46.92 7.22H241.8V43.32h18.05v18.05Zm14.43-3.6v-3.62h7.22v-3.6h3.6v-3.62h3.62v-3.6h18.04v7.21h-3.6v7.22h-3.62v3.61h-28.87v-3.6h3.61Zm72.18 3.6h-18.04V43.32h18.04v18.05Z"/>
    <path fill="#ed1c24" d="M14.44 75.81V61.38h18.04V72.2h25.27v-7.22h-3.61v-3.6h18.04v3.6h3.61v14.45H10.83V75.8h3.6Zm111.88 3.62h-18.05V61.37h18.05v18.06Zm32.48-3.62V64.98h3.6v-3.6h18.06v3.6h-3.61v7.22h25.26v-7.22h-3.61v-3.6h18.05v3.6h3.6v10.83h3.61v3.62H155.2V75.8h3.61Zm101.06 3.62H241.8V61.37h18.05v18.06Zm32.48-14.45v3.61h-3.61v7.22h3.6v3.62h-21.65V61.37h25.27V65h-3.61Zm54.13 14.45h-18.04V61.37h18.04v18.06Z"/>
    <path fill="#e21b22" d="M10.83 90.26V79.43H79.4v7.22H83v10.83H64.97v-7.22h-3.6v-3.61h-36.1v10.83H7.22v-7.22h3.6Zm115.49 7.22h-18.05V79.43h18.05v18.05Zm28.87-7.22V79.43h68.57v7.22h3.61v10.83h-18.04V86.65h-39.7v10.83h-18.05v-7.22h3.61Zm104.67 7.22H241.8V79.43h18.05v18.05Zm32.48-14.44h3.6v3.6h3.61v7.23h3.61v3.6h-21.65v-7.21h-3.61v-3.61h-3.6v-7.22h18.04v3.6Zm54.13 14.44h-18.04V79.43h18.04v18.05Z"/>
    <path fill="#d61920" d="M3.6 111.92v-10.83h3.62v-3.61h18.04v3.6h-3.6v14.45H0v-3.61h3.6ZM83 101.09h3.62v10.83h3.6v3.6H68.58V101.1h-3.6v-3.61H83v3.6Zm43.32 14.44h-18.05V97.48h18.05v18.05Zm21.65-3.61v-10.83h3.61v-3.61h18.05v3.6h-3.61v14.45h-21.66v-3.61h3.61Zm79.4-10.83h3.61v10.83h3.61v3.6h-21.65V101.1h-3.61v-3.61h18.04v3.6Zm32.49 14.44H241.8V97.48h18.05v18.05Zm43.3-14.44h3.61v3.6h3.61v7.23H314v3.6h-21.65v-7.21h-3.61v-7.22h-3.61v-3.61h18.04v3.6Zm43.31 14.44h-18.04V97.48h18.04v18.05Z"/>
</svg>
