<svg xmlns="http://www.w3.org/2000/svg" viewBox="0 0 397 116">
    <path fill="#3b6fc6" d="M25.26 86.66v14.44h-3.6v14.44H0v-3.61h3.6V101.1h3.62V90.27h3.6V75.84h3.62V61.4h3.6v-7.22h3.62V39.75h3.6V25.3h3.61V14.48h3.61V7.26h3.61v-3.6h3.61V.05h10.83v3.6h3.6v3.61h3.62V18.1h3.6v10.83h3.61v10.83h3.61v14.43h3.61v10.83h3.61v14.44h3.61v7.21H83v14.44h3.62v10.83h3.6v3.6H68.58V101.1h-3.6V90.27h-3.62v-3.6h-36.1Zm7.22-25.26v10.83h25.27V65h-3.61V54.18h-3.61V39.75h-3.61V25.3H43.3v7.22h-3.6v14.43h-3.6V61.4h-3.62Zm75.8 54.14V18.09H79.4V.05h72.18v18.04h-25.26v97.45h-18.05Zm61.35-28.88v14.44h-3.61v14.44h-21.66v-3.61h3.61V101.1h3.61V90.27h3.61V75.84h3.61V65h3.6V54.18h3.62V39.75h3.6V28.92h3.62V18.09h3.6V7.26h3.62v-3.6h3.6V.05h10.83v3.6h3.61v3.61h3.6V18.1h3.62v10.83h3.6v10.83h3.62v14.43h3.6v10.83h3.62v10.83h3.6v10.82h3.61v14.44h3.61v10.83h3.61v3.6h-21.65V101.1h-3.61V86.66h-39.7Zm10.83-36.09v14.44h-3.61v7.22h25.26V65h-3.61V54.18h-3.6V39.75h-3.62V25.3h-3.6v10.83h-3.62v14.43h-3.6Zm61.35 64.97V14.48h3.6V3.65h7.23V.05h36.09v3.6h7.22v3.61h3.6v7.22h3.61v7.22h3.61v28.87h-3.6v7.22h-3.61v3.61h-3.61V65h-3.61v3.62h-3.61v7.22h3.6v7.21h3.62v3.61h3.6v7.22h3.61v7.22h3.61v3.6h3.61v7.23H314v3.6h-21.65v-7.21h-3.61v-7.22h-3.61v-3.6h-3.61v-7.23h-3.61v-3.6h-3.6v-7.23h-3.62V57.8h3.61v-3.6h7.22v-3.62h3.6v-3.6h3.62v-3.62h3.6V25.31h-3.6V21.7h-3.61v-3.6h-21.66v3.6h-3.6v93.84H241.8Zm86.62 0V.04h18.04v115.5h-18.04Zm43.31-101.06v-3.6h3.6V7.25h14.44v3.61h3.61v3.61H397v14.44h-3.6v3.6h-3.62v3.62h-14.43v-3.61h-3.61v-3.61h-3.61V14.48h3.6Zm0 3.61v7.22h3.6v3.6h3.61v3.62h7.22v-3.61h3.61V25.3h3.61v-7.22h-3.6v-3.6h-3.62v-3.62h-7.22v3.61h-3.6v3.61h-3.61Zm0 28.87v-3.6h3.6v-3.62h14.44v3.61h3.61v3.61H397V61.4h-3.6V65h-3.62v3.62h-14.43V65h-3.61v-3.6h-3.61V46.96h3.6Zm0 3.61v7.22h3.6v3.61h3.61V65h7.22v-3.6h3.61v-3.6h3.61v-7.23h-3.6v-3.6h-3.62v-3.62h-7.22v3.61h-3.6v3.61h-3.61Zm0 25.27v-3.61h10.82v3.6h3.61v7.23h3.61v3.6h3.61V72.23H397v21.65h-7.22v-3.6h-3.6v-3.62h-3.62v-7.21h-3.6v-3.61h-3.62v3.6h-3.6v7.22h3.6v3.61h3.61v3.61h-7.21v-3.6h-3.61V75.83h3.6Zm0 36.09h7.21V101.1h3.61v-3.6h10.83v3.6H397v14.44h-7.22v-3.61h3.61v-7.22h-3.6v-3.61h-3.62v3.6h-3.6v10.84h-14.44V101.1h3.6v10.83Z"/>
</svg>
