<?xml version="1.0" encoding="UTF-8" standalone="no"?>
<!DOCTYPE svg PUBLIC "-//W3C//DTD SVG 1.1//EN" "http://www.w3.org/Graphics/SVG/1.1/DTD/svg11.dtd">
<svg width="100%" height="100%" viewBox="0 0 115 29" version="1.1" xmlns="http://www.w3.org/2000/svg" xmlns:xlink="http://www.w3.org/1999/xlink" xml:space="preserve" xmlns:serif="http://www.serif.com/" style="fill-rule:evenodd;clip-rule:evenodd;stroke-linejoin:round;stroke-miterlimit:2;">
    <rect id="CPS1" x="0" y="0" width="115" height="29" style="fill:none;"/>
    <clipPath id="_clip1">
        <rect x="0" y="0" width="115" height="29"/>
    </clipPath>
    <g clip-path="url(#_clip1)">
        <g id="Roman-I">
            <g id="Roman-I-Background" serif:id="Roman-I Background">
                <path d="M97,25l0,-1l1,0l-0,-1l15,0l-0,1l1,0l0,1l1,0l-0,3l-1,0l0,1l-17,0l0,-1l-1,0l-0,-3l1,0Z" style="fill:#315a94;"/>
                <rect x="101" y="14" width="9" height="9" style="fill:#29528c;"/>
                <rect x="101" y="6" width="9" height="8" style="fill:#214a84;"/>
                <path d="M97,1l0,-1l17,0l0,1l1,0l0,3l-1,0l0,1l-1,0l0,1l-15,0l0,-1l-1,0l0,-1l-1,0l0,-3l1,0Z" style="fill:#18427b;"/>
            </g>
            <g id="Roman-I-Text" serif:id="Roman-I Text">
                <path d="M99,26l-0,-1l3,0l-0,1l-1,0l0,1l-3,0l0,-1l1,0Zm3,-1l0,-1l1,0l0,1l-1,0Zm1,-1l-0,-2l1,0l-0,1l4,0l-0,1l1,0l0,1l3,0l-0,1l1,0l0,1l-3,0l0,-1l-5,0l-0,-1l-1,0l0,-1l-1,0Z" style="fill:#efcf25;"/>
                <path d="M104,21l4,0l-0,2l-4,0l-0,-1l-1,0l-0,-2l1,0l-0,1Z" style="fill:#dbb500;"/>
                <path d="M104,18l1,0l-0,1l3,0l-0,2l-4,0l-0,-1l-1,0l0,-3l1,0l0,1Z" style="fill:#bf8f00;"/>
                <path d="M108,19l-3,0l-0,-1l-1,0l0,-1l-1,0l-0,-3l5,0l-0,5Z" style="fill:#a27300;"/>
                <path d="M104,9l1,0l-0,1l2,0l-0,-1l1,0l-0,3l-1,0l-0,1l-3,0l-0,-2l-1,0l-0,-3l1,0l-0,1Z" style="fill:#ff2;"/>
                <path d="M104,6l1,0l0,1l2,0l0,-1l1,0l-0,3l-1,0l-0,1l-2,0l-0,-1l-1,0l-0,-1l-1,0l0,-3l1,0l0,1Z" style="fill:#eded15;"/>
                <path d="M103,4l0,-1l3,0l0,1l3,0l0,1l-1,0l0,1l-1,0l0,1l-2,0l0,-1l-1,0l0,-1l-2,0l0,-1l1,0Z" style="fill:#dbdb00;"/>
                <path d="M112,3l0,1l-6,0l0,-1l-3,0l0,1l-4,0l0,-1l-1,0l0,-1l15,0l0,1l-1,0Z" style="fill:#bfbf00;"/>
                <path d="M104,13l3,0l-0,-1l1,0l-0,2l-5,0l-0,-3l1,0l-0,2Zm-2,13l-0,-1l1,0l0,-1l1,0l0,1l1,0l-0,1l5,0l0,1l-9,0l0,-1l1,0Z" style="fill:#fff;"/>
            </g>
        </g>
        <g id="Play-System" serif:id="Play System">
            <path id="Play-System-Background" serif:id="Play System Background" d="M2,23l-0,-1l91,0l-0,1l1,0l-0,5l-1,0l0,1l-91,0l0,-1l-1,0l-0,-5l1,0Z" style="fill:#315a94;"/>
            <path id="Play-System-Text" serif:id="Play System Text" d="M9,24l-1,0l0,1l1,0l-0,1l-1,0l-0,2l-1,0l-0,-5l2,0l-0,1Zm0,1l-0,-1l1,0l0,1l-1,0Zm7,2l2,0l-0,1l-3,0l-0,-5l1,0l0,4Zm8,-3l0,1l1,0l-0,-1l1,0l-0,4l-1,0l0,-2l-1,0l-0,2l-1,0l0,-4l1,0Zm1,0l-1,0l-0,-1l1,0l-0,1Zm7,1l1,0l-0,3l-1,0l-0,-3Zm1,0l-0,-2l1,0l0,2l-1,0Zm-1,0l-1,0l-0,-2l1,0l-0,2Zm13,1l1,0l0,1l-1,0l-0,-1Zm0,1l-0,1l-2,0l-0,-1l2,0Zm-1,-3l-0,-1l2,0l-0,1l-2,0Zm0,0l-0,1l-1,0l0,-1l1,0Zm-0,1l1,0l-0,1l-1,0l-0,-1Zm8,0l1,0l-0,3l-1,0l-0,-3Zm-0,0l-1,0l-0,-2l1,0l-0,2Zm1,0l-0,-2l1,0l0,2l-1,0Zm7,0l1,0l-0,1l-1,0l-0,-1Zm1,1l1,0l0,1l-1,0l-0,-1Zm0,1l-0,1l-2,0l-0,-1l2,0Zm-1,-3l-0,-1l2,0l-0,1l-2,0Zm0,0l-0,1l-1,0l0,-1l1,0Zm9,0l-0,4l-1,0l0,-4l-1,0l-0,-1l3,0l-0,1l-1,0Zm7,0l0,1l1,0l-0,1l-1,0l0,1l2,0l-0,1l-3,0l-0,-5l3,0l-0,1l-2,0Zm11,0l1,0l-0,4l-1,0l-0,-4Zm-0,0l-1,0l-0,4l-1,0l0,-4l-1,0l-0,4l-1,0l-0,-5l4,0l-0,1Z" style="fill:#fff;"/>
        </g>
        <g id="Capcom">
            <g id="Capcop-Background" serif:id="Capcop Background">
                <path d="M3,3l0,-1l1,0l0,-1l2,0l0,-1l7,0l0,1l2,0l0,1l1,0l0,1l1,0l0,2l-15,0l0,-2l1,0Zm18,-1l0,-2l6,0l0,2l1,0l0,3l-8,0l0,-3l1,0Zm22,-1l1,0l0,2l1,0l0,2l-13,0l0,-1l-1,0l0,-4l12,0l0,1Zm4,2l0,-1l1,0l0,-1l2,0l0,-1l7,0l0,1l2,0l0,1l1,0l0,2l1,0l0,-1l1,0l0,-1l1,0l0,-1l2,0l0,-1l7,0l0,1l2,0l0,1l1,0l0,1l1,0l0,1l1,0l0,-4l7,0l0,1l1,0l0,1l1,0l0,-1l1,0l0,-1l7,0l-0,1l1,-0l0,4l-49,0l0,-2l1,0Z" style="fill:#18427b;"/>
                <path d="M12,8l-1,0l0,-2l-2,0l0,1l-1,0l-0,3l-8,0l0,-3l1,0l0,-2l16,0l0,1l-1,0l0,1l-1,0l0,1l-1,0l-0,1l-2,0l-0,-1Zm18,2l-12,0l-0,-2l1,0l0,-3l10,0l0,3l1,0l-0,2Zm64,0l-62,0l0,-5l62,0l0,5Z" style="fill:#214a84;"/>
                <path d="M41,15l-40,0l-0,-1l-1,0l-0,-4l8,0l-0,2l1,0l-0,1l4,0l-0,-1l3,0l-0,2l1,0l-0,-3l1,0l-0,-1l12,0l-0,1l1,0l-0,3l1,0l-0,-4l63,0l0,5l-50,0l-0,-1l-1,0l-0,-2l-1,0l-0,1l-1,0l-0,1l-1,0l-0,1Z" style="fill:#29528c;"/>
                <path d="M1,15l38,0l-0,1l1,0l0,4l-34,0l0,-1l-2,0l-0,-1l-1,0l0,-1l-1,0l-0,-1l-1,0l-0,-1Zm44,0l50,0l0,1l1,0l0,3l-1,-0l0,1l-8,0l0,-3l-3,0l0,3l-8,0l0,-3l-1,0l0,1l-1,0l-0,1l-2,0l0,1l-7,0l0,-1l-2,0l-0,-1l-1,0l0,-1l-1,0l0,3l-11,0l0,-1l-2,0l-0,-1l-1,0l0,-1l-1,0l-0,-1l-1,0l-0,-1Z" style="fill:#315a94;"/>
            </g>
            <g id="Capcom-Text" serif:id="Capcom Text">
                <path d="M65,16l-1,0l-0,-1l1,0l-0,1Zm2,1l3,0l0,1l-3,0l-0,-1Zm-2,-1l2,0l-0,1l-2,0l-0,-1Zm7,0l-0,-1l1,0l-0,1l-1,0Zm-2,1l-0,-1l2,0l-0,1l-2,0Zm17,-8l-0,-1l1,0l-0,1l-1,0Zm-3,0l3,0l-0,1l-3,0l-0,-1Zm-0,0l-1,0l-0,-1l1,0l-0,1Zm-72,8l-0,-1l1,0l-0,-1l1,0l-0,2l-1,0l0,1l-3,0l0,-1l2,0Zm44,0l-0,-1l1,0l-0,-1l1,0l-0,2l-1,0l0,1l-3,0l0,-1l2,0Zm-37,0l1,0l0,1l-2,0l-0,-2l1,0l-0,1Zm10,0l-0,-1l1,0l-0,1l1,0l0,1l-3,0l0,-1l1,0Zm5,0l-0,-1l1,0l-0,1l2,0l0,1l-4,0l0,-1l1,0Zm44,0l-0,-1l1,0l-0,1l2,0l0,1l-4,0l0,-1l1,0Zm13,0l2,0l0,1l-3,0l-0,-2l1,0l-0,1Zm-29,-8l0,-2l1,0l-0,3l-2,0l-0,-1l1,0Zm12,0l1,0l-0,1l-2,0l0,-3l1,0l-0,2Zm6,0l1,0l-0,1l-2,0l0,-3l1,0l-0,2Zm11,0l0,-2l1,0l-0,3l-2,0l-0,-1l1,0Zm-87,0l-0,-1l1,0l-0,2l-2,0l-0,-1l1,0Zm17,0l-0,-1l1,0l-0,2l-2,0l-0,-1l1,0Zm6,0l1,0l-0,1l-2,0l-0,-2l1,0l-0,1Zm8,0l1,0l-0,1l-2,0l-0,-2l1,0l-0,1Zm7,0l-0,-1l1,0l-0,2l-2,0l-0,-1l1,0Zm6,0l-0,-1l1,0l-0,2l-2,0l-0,-1l1,0Z" style="fill:#fff;"/>
                <path d="M86,14l-1,0l-0,-2l1,0l-0,2Zm-67,1l-0,-1l1,0l-0,-1l1,0l-0,4l1,0l0,1l-2,0l0,-1l-1,0l-0,-1l-1,0l-0,-1l1,0Zm9,-1l1,0l-0,1l2,0l-0,2l-1,0l-0,-1l-1,0l-0,1l-1,0l-0,-2l-1,0l-0,-2l1,0l-0,1Zm0,3l0,1l-1,0l0,-1l1,0Zm3,0l1,0l0,1l-1,0l-0,-1Zm4,-3l-0,-1l1,0l-0,4l-1,0l-0,-1l-1,0l-0,-2l1,0Zm46,3l1,0l0,1l-1,0l-0,-1Zm-2,-3l2,0l-0,3l-2,0l-0,-1l-1,0l-0,-3l1,0l-0,1Zm14,3l1,0l0,1l-1,0l-0,-1Zm-2,-3l2,0l-0,3l-2,0l-0,-1l-1,0l-0,-3l1,0l-0,1Zm-77,3l-0,-3l1,0l0,4l-2,0l0,-1l1,0Zm44,0l-0,-3l1,0l0,4l-2,0l0,-1l1,0Zm-50,-1l4,0l-0,1l-2,0l0,1l-1,0l0,-1l-2,0l-0,-1l-1,0l-0,-1l2,0l-0,1Zm44,0l4,0l-0,1l-2,0l0,1l-1,0l0,-1l-2,0l-0,-1l-1,0l-0,-1l2,0l-0,1Zm13,0l-0,1l-1,0l-0,-1l1,0Zm0,0l-0,-1l1,0l-0,1l-1,0Zm7,0l-1,0l-0,-1l1,0l-0,1Zm-0,0l1,0l-0,1l-1,0l-0,-1Zm-2,1l1,0l0,1l-1,0l-0,-1Zm-3,0l-0,-1l3,0l-0,1l-3,0Zm0,0l0,1l-1,0l0,-1l1,0Zm-4,-2l-0,-1l1,0l-0,1l-1,0Zm10,0l-0,-1l1,0l-0,1l-1,0Zm-56,3l0,-1l1,0l0,1l-1,0Zm20,0l0,-1l1,0l0,1l-1,0Zm52,0l0,-1l1,0l0,1l-1,0Z" style="fill:#efcf25;"/>
                <path d="M85,12l-0,2l-1,0l-0,-2l1,0Zm1,0l1,0l-0,2l-1,0l-0,-2Zm-1,0l-0,-1l1,0l-0,1l-1,0Zm-78,5l2,0l0,1l-2,0l-0,-1Zm-1,-1l1,0l-0,1l-1,0l-0,-1Zm-1,-3l1,0l-0,1l1,0l-0,1l-1,0l-0,1l-1,0l-0,-2l-1,0l-0,-2l1,0l-0,1Zm14,1l-0,1l-1,0l-0,-1l1,0Zm0,0l-0,-2l3,0l-0,2l-1,0l-0,-1l-1,0l-0,1l-1,0Zm11,1l-1,0l-0,-1l-1,0l-0,-1l-2,0l-0,-1l4,0l-0,3Zm7,-2l-0,1l-1,0l-0,-1l-1,0l-0,1l-1,0l-0,-2l5,0l-0,1l-2,0Zm14,4l2,0l0,1l-2,0l-0,-1Zm-1,-1l1,0l-0,1l-1,0l-0,-1Zm-1,-3l1,0l-0,1l1,0l-0,1l-1,0l-0,1l-1,0l-0,-2l-1,0l-0,-2l1,0l-0,1Zm17,2l1,0l-0,1l-1,0l-0,-1Zm-3,-2l1,0l-0,1l-1,0l-0,1l-1,0l-0,-3l1,0l-0,1Zm-0,2l1,0l-0,1l-1,0l-0,-1Zm1,0l-0,-1l2,0l-0,1l-2,0Zm7,0l-0,-1l2,0l-0,1l-2,0Zm2,0l1,0l-0,1l-1,0l-0,-1Zm1,0l-0,-1l-1,0l-0,-1l1,0l-0,-1l1,0l-0,3l-1,0Zm-3,0l-0,1l-1,0l-0,-1l1,0Zm10,-1l-2,0l-0,-1l-1,0l-0,-1l3,0l-0,2Zm12,0l-2,0l-0,-1l-1,0l-0,-1l3,0l-0,2Zm-85,2l-0,-1l1,0l-0,1l-1,0Zm4,0l-0,-1l1,0l-0,1l-1,0Zm40,0l-0,-1l1,0l-0,1l-1,0Zm4,0l-0,-1l1,0l-0,1l-1,0Z" style="fill:#dbb500;"/>
                <path d="M5,16l1,0l-0,1l-1,0l-0,-1Zm2,-2l1,0l-0,1l-1,0l-0,-1Zm-1,-2l1,0l-0,2l-1,0l-0,-1l-1,0l-0,-1l-1,0l-0,2l1,0l-0,2l-1,0l-0,-1l-1,0l-0,-2l-1,0l-0,-2l4,0l-0,1Zm16,0l4,0l-0,1l-4,0l-0,-1Zm-0,0l-3,0l-0,-1l3,0l-0,1Zm4,0l-0,-1l3,0l-0,1l-3,0Zm14,0l-0,1l-1,0l-0,-1l-1,0l-0,-1l4,0l-0,1l-2,0Zm11,2l1,0l-0,1l-1,0l-0,-1Zm-1,-2l1,0l-0,2l-1,0l-0,-1l-1,0l-0,-1l-1,0l-0,2l1,0l-0,2l-1,0l-0,-1l-1,0l-0,-2l-1,0l-0,-2l4,0l-0,1Zm-1,4l1,0l-0,1l-1,0l-0,-1Zm14,-4l2,0l-0,2l-1,0l-0,-1l-1,0l-0,-1Zm-0,0l-1,0l-0,1l-1,0l-0,-2l2,0l-0,1Zm11,0l-0,1l-1,0l-0,1l-1,0l-0,-2l2,0Zm0,0l-0,-1l2,0l-0,2l-1,0l-0,-1l-1,0Zm-40,0l-0,-1l2,0l-0,1l-2,0Zm44,0l-0,-1l3,0l-0,1l-3,0Zm5,0l-0,-1l2,0l-0,1l-2,0Zm3,0l-0,-1l2,0l-0,1l-2,0Zm4,0l-0,-1l3,0l-0,1l-3,0Zm-53,2l-0,-1l1,0l-0,1l-1,0Z" style="fill:#bf8f00;"/>
                <path d="M26,11l-0,-1l3,0l-0,1l-3,0Zm-4,0l4,0l-0,1l-4,0l-0,-1Zm-0,0l-2,0l-0,-1l2,0l-0,1Zm42,1l-1,0l-0,-1l-2,0l-0,-1l3,0l-0,2Zm10,-1l-0,1l-1,0l-0,-2l3,0l-0,1l-2,0Zm-72,0l-0,-1l4,0l-0,1l-4,0Zm32,0l-0,-1l2,0l-0,1l-2,0Zm6,0l-0,-1l3,0l-0,1l-3,0Zm6,0l-0,-1l4,0l-0,1l-4,0Zm33,0l-0,-1l2,0l-0,1l-2,0Zm4,0l-0,-1l5,0l-0,1l-5,0Zm7,0l-0,-1l2,0l-0,1l-2,0Z" style="fill:#a27300;"/>
                <path d="M64,5l0,-1l1,0l0,1l-1,0Zm-1,1l0,-1l1,0l-0,5l-1,0l0,-3l-1,0l0,-1l1,0Zm10,-1l-1,0l0,-1l1,0l0,1Zm1,2l1,0l0,1l1,0l-0,2l-1,0l-0,-1l-1,0l0,-2Zm-1,-2l1,0l0,2l-1,0l0,-2Zm-59,1l0,1l-1,0l0,-1l1,0Zm0,0l0,-1l1,0l0,1l-1,0Zm21,1l1,0l-0,2l-1,0l-0,-1l-1,0l0,-3l1,0l0,2Zm7,-1l-1,0l0,-1l1,0l0,1Zm-0,2l-0,1l-1,0l-0,-1l1,0Zm0,-2l1,0l0,1l1,0l0,1l-2,0l0,-2Zm16,0l0,1l-1,0l0,-1l1,0Zm0,0l0,-1l1,0l0,1l-1,0Zm22,1l1,0l-0,2l-1,0l0,-2Zm0,0l-1,0l0,-2l1,0l0,2Zm4,2l-0,1l-1,0l-0,-1l1,0Zm-0,-1l1,0l-0,1l-1,0l-0,-1Zm-2,-2l1,0l0,1l1,0l-0,1l-2,0l0,-2Zm0,0l-1,0l0,-1l1,0l0,1Zm5,3l1,0l-0,1l-1,0l-0,-1Zm-0,-1l-0,1l-1,0l-0,-1l1,0Zm2,-2l0,-1l1,0l0,1l-1,0Zm-2,2l0,-1l1,0l0,-1l1,0l0,2l-2,0Zm4,-1l0,-2l1,0l0,2l-1,0Zm-0,0l-0,2l-1,0l0,-2l1,0Zm-87,1l-0,1l-1,0l-0,-1l1,0Zm-0,0l0,-1l1,0l0,-1l1,0l-0,4l-1,0l-0,-2l-1,0Zm17,0l-0,1l-1,0l-0,-1l1,0Zm6,0l1,0l-0,1l-1,0l-0,-1Zm-6,0l0,-1l1,0l0,-1l4,0l0,1l1,0l-0,1l-1,0l-0,1l-1,0l0,-2l-2,0l-0,2l-1,0l-0,-1l-1,0Zm27,0l-0,1l-1,0l-0,-1l1,0Zm-0,0l0,-1l1,0l0,-1l1,0l-0,4l-1,0l-0,-2l-1,0Zm13,1l-0,-1l1,0l-0,1l-1,0Z" style="fill:#ff2;"/>
                <path d="M63,5l0,-1l1,0l0,1l-1,0Zm2,0l0,-1l1,0l0,1l-1,0Zm-1,0l1,0l0,2l-1,0l0,-2Zm-1,0l0,1l-1,0l0,-1l1,0Zm9,0l1,0l0,2l-1,0l0,-2Zm-1,-1l1,0l0,1l-1,0l0,-1Zm-5,0l0,-1l2,0l0,-1l1,0l0,1l2,0l0,1l-5,0Zm-44,2l0,1l-1,0l0,-1l1,0Zm5,1l1,0l0,1l-1,0l0,-1Zm-1,-1l1,0l0,1l-1,0l0,-1Zm-4,0l0,-1l1,0l0,-1l2,0l0,1l1,0l0,1l-4,0Zm20,-1l-1,0l0,1l-1,0l0,-1l-4,0l0,2l-1,0l0,-2l-1,0l0,-1l8,0l0,1Zm-1,1l1,0l0,2l-1,0l0,-2Zm1,0l0,-1l1,0l0,1l-1,0Zm1,0l1,0l0,1l-1,0l0,-1Zm40,0l1,0l0,1l-1,0l0,-1Zm-3,-1l1,0l0,1l1,0l0,1l-2,0l0,-2Zm2,1l0,-1l1,0l0,1l-1,0Zm0,-1l-1,0l0,-1l1,0l0,1Zm-2,0l-1,0l0,-1l1,0l0,1Zm11,0l0,-1l1,0l0,1l-1,0Zm-3,1l0,-1l1,0l0,1l-1,0Zm1,0l1,0l0,-1l1,0l0,2l-2,0l0,-1Zm1,-1l-1,0l0,-1l1,0l0,1Zm-2,1l0,1l-1,0l0,-1l1,0Zm-84,1l0,1l-1,0l0,-1l1,0Zm-0,0l0,-2l2,0l0,1l-1,0l0,1l-1,0Zm9,-1l0,2l-1,0l0,-3l2,0l0,1l-1,0Zm35,1l0,1l-1,0l0,-1l1,0Zm-0,0l0,-2l2,0l0,1l-1,0l0,1l-1,0Zm9,-1l0,2l-1,0l0,-3l2,0l0,1l-1,0Zm18,1l-1,0l0,-2l1,0l0,2Zm0,0l1,0l0,1l-1,0l0,-1Zm-32,2l-0,-1l1,0l-0,1l-1,0Zm39,0l-0,-1l1,0l-0,1l-1,0Zm6,0l-0,-1l1,0l-0,1l-1,0Zm-60,1l-0,-1l1,0l-0,1l-1,0Z" style="fill:#eded15;"/>
                <path d="M22,5l0,1l-1,0l0,-1l1,0Zm0,0l0,-1l1,0l0,1l-1,0Zm5,1l1,0l0,1l-1,0l0,-1Zm-2,-2l1,0l0,1l-1,0l0,-1Zm1,1l1,0l0,1l-1,0l0,-1Zm-3,-1l0,-1l2,0l0,1l-2,0Zm50,0l1,0l0,1l-1,0l0,-1Zm0,0l-2,0l0,-1l2,0l0,1Zm9,0l-1,0l0,1l-1,0l0,-1l-2,0l0,-1l4,0l0,1Zm0,0l1,0l0,1l-1,0l0,-1Zm7,0l0,-1l4,0l0,1l-2,0l0,1l-1,0l0,-1l-1,0Zm0,0l0,1l-1,0l0,-1l1,0Zm-46,1l-1,0l0,-1l1,0l0,1Zm0,0l1,0l0,1l-1,0l0,-1Zm-40,2l-0,3l-1,0l0,-3l1,0Zm-0,0l0,-1l1,0l0,1l-1,0Zm44,0l0,-1l1,0l0,1l-1,0Zm-0,0l-0,3l-1,0l0,-3l1,0Zm20,-4l0,-1l1,0l0,1l-1,0Zm2,0l0,-1l1,0l0,1l-1,0Zm-36,1l0,-1l8,0l0,1l-8,0Zm31,0l0,-1l2,0l0,1l-2,0Zm-59,1l0,-1l2,0l0,1l-2,0Zm6,0l0,-1l3,0l0,1l-3,0Zm38,0l0,-1l2,0l0,1l-2,0Zm6,0l0,-1l3,0l0,1l-3,0Zm6,3l0,-1l1,0l0,1l-1,0Z" style="fill:#dbdb00;"/>
                <path d="M5,4l0,-1l2,0l0,-1l5,0l0,1l2,0l0,1l-6,0l0,1l-1,0l0,-1l-2,0Zm9,0l1,0l0,1l-1,0l0,-1Zm-7,1l0,2l-1,0l0,-2l1,0Zm-3,0l0,-1l1,0l0,1l-1,0Zm0,0l0,1l-1,0l0,-1l1,0Zm22,-2l1,0l0,2l-1,0l0,-1l-1,0l0,-1l-2,0l0,1l-1,0l0,-2l4,0l0,1Zm17,1l1,0l0,1l-1,0l0,-1Zm-2,-1l2,0l0,1l-2,0l0,-1Zm0,0l-8,0l0,-1l8,0l0,1Zm7,2l0,-1l1,0l0,1l-1,0Zm0,0l0,1l-1,0l0,-1l1,0Zm1,-1l0,-1l2,0l0,-1l5,0l0,1l2,0l0,1l-6,0l0,1l-1,0l0,-1l-2,0Zm2,1l0,2l-1,0l0,-2l1,0Zm7,-1l1,0l0,1l-1,0l0,-1Zm25,0l-1,0l0,-1l-4,0l0,-1l5,0l0,2Zm6,-1l0,1l-1,0l0,-2l5,0l0,1l-4,0Zm-26,1l0,-1l1,0l0,1l-1,0Zm0,0l0,1l-1,0l0,-1l1,0Zm11,0l-1,0l0,-1l1,0l0,1Zm0,0l1,0l0,1l-1,0l0,-1Zm-8,1l0,1l-1,0l0,-1l1,0Zm0,0l0,-1l1,0l0,1l-1,0Zm5,0l-1,0l0,-1l1,0l0,1Zm0,0l1,0l0,1l-1,0l0,-1Zm15,3l0,-1l1,0l0,1l-1,0Zm-1,0l-1,0l0,-1l1,0l-0,1Zm-0,0l1,0l-0,1l-1,0l-0,-1Zm-20,-5l0,-1l2,0l0,1l-2,0Zm5,0l0,-1l2,0l0,1l-2,0Zm13,3l0,-1l1,0l0,1l-1,0Zm4,0l0,-1l1,0l0,1l-1,0Zm-26,1l0,-1l1,0l0,1l-1,0Zm14,0l0,-1l1,0l0,1l-1,0Zm-11,1l0,-1l1,0l0,1l-1,0Zm8,0l0,-1l1,0l0,1l-1,0Z" style="fill:#bfbf00;"/>
            </g>
        </g>
    </g>
</svg>
