<?xml version="1.0" encoding="UTF-8" standalone="no"?>
<!DOCTYPE svg PUBLIC "-//W3C//DTD SVG 1.1//EN" "http://www.w3.org/Graphics/SVG/1.1/DTD/svg11.dtd">
<svg width="100%" height="100%" viewBox="0 0 127 29" version="1.1" xmlns="http://www.w3.org/2000/svg" xmlns:xlink="http://www.w3.org/1999/xlink" xml:space="preserve" xmlns:serif="http://www.serif.com/" style="fill-rule:evenodd;clip-rule:evenodd;stroke-linejoin:round;stroke-miterlimit:2;">
    <rect id="CPS2" x="0" y="0" width="127" height="29" style="fill:none;"/>
    <clipPath id="_clip1">
        <rect x="0" y="0" width="127" height="29"/>
    </clipPath>
    <g clip-path="url(#_clip1)">
        <g id="_2" serif:id="2">
            <path d="M97,1l0,-1l29,0l0,1l1,0l0,3l-1,0l0,1l-1,0l0,1l-5,0l0,-1l1,0l0,-1l3,0l0,-1l1,0l0,-1l-27,0l0,1l1,0l0,1l3,0l0,1l1,0l0,1l-5,0l0,-1l-1,0l0,-1l-1,0l0,-3l1,0Zm12,4l0,-1l5,0l0,1l1,0l0,1l-7,0l0,-1l1,0Z" style="fill:#18427b;"/>
            <path d="M124,3l0,1l-4,0l0,-1l-3,0l0,1l-11,0l0,-1l-3,0l0,1l-4,0l0,-1l-1,0l0,-1l27,0l0,1l-1,0Z" style="fill:#a5a500;"/>
            <path d="M103,4l0,-1l3,0l0,1l3,0l0,1l-1,0l0,1l-1,0l0,1l-2,0l0,-1l-1,0l0,-1l-2,0l0,-1l1,0Zm14,0l0,-1l3,0l0,1l1,0l0,1l-2,0l0,1l-1,0l0,1l-2,0l0,-1l-1,0l0,-1l-1,0l0,-1l3,0Z" style="fill:#bdbd00;"/>
            <path d="M116,7l2,0l0,-1l1,0l0,-1l1,0l0,3l-1,0l-0,1l-1,0l-0,1l-2,0l-0,-1l-1,0l0,-3l1,0l0,1Zm-12,-1l1,0l0,1l2,0l0,-1l1,0l-0,3l-1,0l-0,1l-2,0l-0,-1l-1,0l-0,-1l-1,0l0,-3l1,0l0,1Z" style="fill:#cece10;"/>
            <path d="M103,14l-2,0l0,-8l2,0l-0,8Zm7,0l-2,0l0,-8l2,0l-0,8Zm5,0l-2,0l0,-8l2,0l-0,8Zm7,0l-2,0l0,-8l2,0l-0,8Z" style="fill:#214a84;"/>
            <path d="M116,10l2,0l-0,-1l1,0l-0,-1l1,0l-0,3l-1,0l-0,2l-3,0l-0,-1l-1,0l-0,-3l1,0l-0,1Zm-12,-1l1,0l-0,1l2,0l-0,-1l1,0l-0,3l-1,0l-0,1l-3,0l-0,-2l-1,0l-0,-3l1,0l-0,1Z" style="fill:#e7e729;"/>
            <path d="M116,13l3,0l-0,-2l1,0l-0,3l-5,0l-0,-2l1,0l-0,1Zm-12,0l3,0l-0,-1l1,0l-0,2l-5,0l-0,-3l1,0l-0,2Z" style="fill:#ffffef;"/>
            <path d="M103,23l-2,0l-0,-9l2,0l-0,9Zm7,0l-2,0l-0,-9l2,0l-0,9Zm5,0l-2,0l-0,-9l2,0l-0,9Zm7,0l-2,0l-0,-9l2,0l-0,9Z" style="fill:#29528c;"/>
            <path d="M108,19l-3,0l-0,-1l-1,0l0,-1l-1,0l-0,-3l5,0l-0,5Zm12,-2l-1,0l0,1l-1,0l-0,1l-3,0l-0,-5l5,0l-0,3Z" style="fill:#8c6300;"/>
            <path d="M104,18l1,0l-0,1l3,0l-0,2l-4,0l-0,-1l-1,0l0,-3l1,0l0,1Zm14,1l-0,-1l1,0l0,-1l1,0l0,3l-1,0l-0,1l-4,0l0,-2l3,0Z" style="fill:#a57b00;"/>
            <path d="M104,21l4,0l-0,2l-4,0l-0,-1l-1,0l-0,-2l1,0l-0,1Zm15,0l-0,-1l1,0l-0,2l-1,0l-0,1l-4,0l-0,-2l4,0Z" style="fill:#bd9c00;"/>
            <path d="M99,26l-0,-1l3,0l-0,1l-1,0l0,1l-3,0l0,-1l1,0Zm21,-2l1,0l-0,1l-1,0l-0,-1Zm-18,1l0,-1l1,0l0,1l-1,0Zm1,-1l-0,-2l1,0l-0,1l4,0l-0,1l1,0l0,1l5,0l0,-1l1,0l-0,-1l4,0l-0,-1l1,0l-0,2l-1,0l0,1l-1,0l-0,1l-5,0l0,1l-3,0l0,-1l-5,0l-0,-1l-1,0l0,-1l-1,0Zm18,1l3,0l-0,1l1,0l0,1l-3,0l0,-1l-1,0l-0,-1Z" style="fill:#debd10;"/>
            <path d="M114,24l0,1l-5,0l0,-1l-1,0l-0,-1l7,0l-0,1l-1,0Zm-17,1l0,-1l1,0l-0,-1l5,0l-0,1l-1,0l0,1l-3,0l-0,1l-1,0l0,1l27,0l0,-1l-1,0l-0,-1l-3,0l0,-1l-1,0l-0,-1l5,0l-0,1l1,0l0,1l1,0l-0,3l-1,0l0,1l-29,0l0,-1l-1,0l-0,-3l1,0Z" style="fill:#315a94;"/>
            <path d="M102,26l-0,-1l1,0l0,-1l1,0l0,1l1,0l-0,1l5,0l0,1l-9,0l0,-1l1,0Zm16,0l-0,-1l1,0l0,-1l1,0l0,1l1,0l-0,1l1,0l0,1l-9,0l0,-1l5,0Z" style="fill:#f7e7de;"/>
        </g>
        <g id="CPS">
            <path d="M3,3l0,-1l1,0l0,-1l2,0l0,-1l7,0l0,1l2,0l0,1l1,0l0,1l1,0l0,2l-2,0l0,-1l-1,0l0,-1l-2,0l0,-1l-5,0l0,1l-2,0l0,1l-1,0l0,1l-2,0l0,-2l1,0Zm18,-1l0,-2l6,0l0,2l1,0l0,3l-1,0l0,-2l-1,0l0,-1l-4,0l0,3l-2,0l0,-3l1,0Zm22,-1l1,0l0,2l1,0l0,2l-1,0l0,-1l-1,0l0,-1l-2,0l0,-1l-8,0l0,2l1,0l0,1l-2,0l0,-1l-1,0l0,-4l12,0l0,1Zm4,2l0,-1l1,0l0,-1l2,0l0,-1l7,0l0,1l2,0l0,1l1,0l0,2l1,0l0,-1l1,0l0,-1l1,0l0,-1l2,0l0,-1l7,0l0,1l2,0l0,1l1,0l0,1l1,0l0,1l1,0l0,-4l7,0l0,1l1,0l0,1l1,0l0,-1l1,0l0,-1l7,0l0,5l-2,0l0,-1l1,0l0,-2l-5,0l0,3l-5,0l0,-3l-5,0l0,2l1,0l0,1l-4,0l0,-1l-1,0l0,-1l-2,0l0,-1l-7,0l0,1l-2,0l0,1l-1,0l0,1l-3,0l0,-1l-1,0l0,-1l-2,0l0,-1l-5,0l0,1l-2,0l0,1l-1,0l0,1l-2,0l0,-2l1,0Zm-39,2l0,-1l3,0l0,1l-3,0Zm44,0l0,-1l3,0l0,1l-3,0Zm15,0l0,-1l3,0l0,1l-3,0Z" style="fill:#18427b;"/>
            <path d="M5,4l0,-1l2,0l0,-1l5,0l0,1l2,0l0,1l-6,0l0,1l-1,0l0,-1l-2,0Zm9,0l1,0l0,1l-1,0l0,-1Zm-7,1l0,2l-1,0l0,-2l1,0Zm-3,0l0,-1l1,0l0,1l-1,0Zm0,0l0,1l-1,0l0,-1l1,0Zm22,-2l1,0l0,2l-1,0l0,-1l-1,0l0,-1l-2,0l0,1l-1,0l0,-2l4,0l0,1Zm17,1l1,0l0,1l-1,0l0,-1Zm-2,-1l2,0l0,1l-2,0l0,-1Zm0,0l-8,0l0,-1l8,0l0,1Zm7,2l0,-1l1,0l0,1l-1,0Zm0,0l0,1l-1,0l0,-1l1,0Zm1,-1l0,-1l2,0l0,-1l5,0l0,1l2,0l0,1l-6,0l0,1l-1,0l0,-1l-2,0Zm2,1l0,2l-1,0l0,-2l1,0Zm7,-1l1,0l0,1l-1,0l0,-1Zm25,0l-1,0l0,-1l-4,0l0,-1l5,0l0,2Zm6,-1l0,1l-1,0l0,-2l5,0l0,1l-4,0Zm-26,1l0,-1l1,0l0,1l-1,0Zm0,0l0,1l-1,0l0,-1l1,0Zm11,0l-1,0l0,-1l1,0l0,1Zm0,0l1,0l0,1l-1,0l0,-1Zm-8,1l0,1l-1,0l0,-1l1,0Zm0,0l0,-1l1,0l0,1l-1,0Zm5,0l-1,0l0,-1l1,0l0,1Zm0,0l1,0l0,1l-1,0l0,-1Zm15,3l0,-1l1,0l0,1l-1,0Zm-1,0l-1,0l0,-1l1,0l-0,1Zm-0,0l1,0l-0,1l-1,0l-0,-1Zm-20,-5l0,-1l2,0l0,1l-2,0Zm5,0l0,-1l2,0l0,1l-2,0Zm13,3l0,-1l1,0l0,1l-1,0Zm4,0l0,-1l1,0l0,1l-1,0Zm-26,1l0,-1l1,0l0,1l-1,0Zm14,0l0,-1l1,0l0,1l-1,0Zm-11,1l0,-1l1,0l0,1l-1,0Zm8,0l0,-1l1,0l0,1l-1,0Z" style="fill:#a5a500;"/>
            <path d="M22,5l0,1l-1,0l0,-1l1,0Zm0,0l0,-1l1,0l0,1l-1,0Zm5,1l1,0l0,1l-1,0l0,-1Zm-2,-2l1,0l0,1l-1,0l0,-1Zm1,1l1,0l0,1l-1,0l0,-1Zm-3,-1l0,-1l2,0l0,1l-2,0Zm50,0l1,0l0,1l-1,0l0,-1Zm0,0l-2,0l0,-1l2,0l0,1Zm9,0l-1,0l0,1l-1,0l0,-1l-2,0l0,-1l4,0l0,1Zm0,0l1,0l0,1l-1,0l0,-1Zm7,0l0,-1l4,0l0,1l-2,0l0,1l-1,0l0,-1l-1,0Zm0,0l0,1l-1,0l0,-1l1,0Zm-46,1l-1,0l0,-1l1,0l0,1Zm0,0l1,0l0,1l-1,0l0,-1Zm-40,2l-0,3l-1,0l0,-3l1,0Zm-0,0l0,-1l1,0l0,1l-1,0Zm44,0l0,-1l1,0l0,1l-1,0Zm-0,0l-0,3l-1,0l0,-3l1,0Zm20,-4l0,-1l1,0l0,1l-1,0Zm2,0l0,-1l1,0l0,1l-1,0Zm-36,1l0,-1l8,0l0,1l-8,0Zm31,0l0,-1l2,0l0,1l-2,0Zm-59,1l0,-1l2,0l0,1l-2,0Zm6,0l0,-1l3,0l0,1l-3,0Zm38,0l0,-1l2,0l0,1l-2,0Zm6,0l0,-1l3,0l0,1l-3,0Zm6,3l0,-1l1,0l0,1l-1,0Z" style="fill:#bdbd00;"/>
            <path d="M63,5l0,-1l1,0l0,1l-1,0Zm2,0l0,-1l1,0l0,1l-1,0Zm-1,0l1,0l0,2l-1,0l0,-2Zm-1,0l0,1l-1,0l0,-1l1,0Zm9,0l1,0l0,2l-1,0l0,-2Zm-1,-1l1,0l0,1l-1,0l0,-1Zm-5,0l0,-1l2,0l0,-1l1,0l0,1l2,0l0,1l-5,0Zm-44,2l0,1l-1,0l0,-1l1,0Zm5,1l1,0l0,1l-1,0l0,-1Zm-1,-1l1,0l0,1l-1,0l0,-1Zm-4,0l0,-1l1,0l0,-1l2,0l0,1l1,0l0,1l-4,0Zm20,-1l-1,0l0,1l-1,0l0,-1l-4,0l0,2l-1,0l0,-2l-1,0l0,-1l8,0l0,1Zm-1,1l1,0l0,2l-1,0l0,-2Zm1,0l0,-1l1,0l0,1l-1,0Zm1,0l1,0l0,1l-1,0l0,-1Zm40,0l1,0l0,1l-1,0l0,-1Zm-3,-1l1,0l0,1l1,0l0,1l-2,0l0,-2Zm2,1l0,-1l1,0l0,1l-1,0Zm0,-1l-1,0l0,-1l1,0l0,1Zm-2,0l-1,0l0,-1l1,0l0,1Zm11,0l0,-1l1,0l0,1l-1,0Zm-3,1l0,-1l1,0l0,1l-1,0Zm1,0l1,0l0,-1l1,0l0,2l-2,0l0,-1Zm1,-1l-1,0l0,-1l1,0l0,1Zm-2,1l0,1l-1,0l0,-1l1,0Zm-84,1l0,1l-1,0l0,-1l1,0Zm-0,0l0,-2l2,0l0,1l-1,0l0,1l-1,0Zm9,-1l0,2l-1,0l0,-3l2,0l0,1l-1,0Zm35,1l0,1l-1,0l0,-1l1,0Zm-0,0l0,-2l2,0l0,1l-1,0l0,1l-1,0Zm9,-1l0,2l-1,0l0,-3l2,0l0,1l-1,0Zm18,1l-1,0l0,-2l1,0l0,2Zm0,0l1,0l0,1l-1,0l0,-1Zm-32,2l-0,-1l1,0l-0,1l-1,0Zm39,0l-0,-1l1,0l-0,1l-1,0Zm6,0l-0,-1l1,0l-0,1l-1,0Zm-60,1l-0,-1l1,0l-0,1l-1,0Z" style="fill:#cece10;"/>
            <path d="M64,5l0,-1l1,0l0,1l-1,0Zm-1,1l0,-1l1,0l-0,5l-1,0l0,-3l-1,0l0,-1l1,0Zm10,-1l-1,0l0,-1l1,0l0,1Zm1,2l1,0l0,1l1,0l-0,2l-1,0l-0,-1l-1,0l0,-2Zm-1,-2l1,0l0,2l-1,0l0,-2Zm-59,1l0,1l-1,0l0,-1l1,0Zm0,0l0,-1l1,0l0,1l-1,0Zm21,1l1,0l-0,2l-1,0l-0,-1l-1,0l0,-3l1,0l0,2Zm7,-1l-1,0l0,-1l1,0l0,1Zm-0,2l-0,1l-1,0l-0,-1l1,0Zm0,-2l1,0l0,1l1,0l0,1l-2,0l0,-2Zm16,0l0,1l-1,0l0,-1l1,0Zm0,0l0,-1l1,0l0,1l-1,0Zm22,1l1,0l-0,2l-1,0l0,-2Zm0,0l-1,0l0,-2l1,0l0,2Zm4,2l-0,1l-1,0l-0,-1l1,0Zm-0,-1l1,0l-0,1l-1,0l-0,-1Zm-2,-2l1,0l0,1l1,0l-0,1l-2,0l0,-2Zm0,0l-1,0l0,-1l1,0l0,1Zm5,3l1,0l-0,1l-1,0l-0,-1Zm-0,-1l-0,1l-1,0l-0,-1l1,0Zm2,-2l0,-1l1,0l0,1l-1,0Zm-2,2l0,-1l1,0l0,-1l1,0l0,2l-2,0Zm4,-1l0,-2l1,0l0,2l-1,0Zm-0,0l-0,2l-1,0l0,-2l1,0Zm-87,1l-0,1l-1,0l-0,-1l1,0Zm-0,0l0,-1l1,0l0,-1l1,0l-0,4l-1,0l-0,-2l-1,0Zm17,0l-0,1l-1,0l-0,-1l1,0Zm6,0l1,0l-0,1l-1,0l-0,-1Zm-6,0l0,-1l1,0l0,-1l4,0l0,1l1,0l-0,1l-1,0l-0,1l-1,0l0,-2l-2,0l-0,2l-1,0l-0,-1l-1,0Zm27,0l-0,1l-1,0l-0,-1l1,0Zm-0,0l0,-1l1,0l0,-1l1,0l-0,4l-1,0l-0,-2l-1,0Zm13,1l-0,-1l1,0l-0,1l-1,0Z" style="fill:#e7e729;"/>
            <path d="M1,7l0,-2l2,0l0,2l-1,0l-0,3l-2,0l0,-3l1,0Zm11,1l1,0l0,-1l1,0l0,-1l1,0l0,-1l2,0l0,1l-1,0l0,1l-1,0l0,1l-1,0l-0,1l-2,0l-0,-1Zm-5,-1l0,-2l5,0l-0,3l-1,0l0,-2l-2,0l0,1l-1,0l-0,3l-2,0l0,-3l1,0Zm12,1l0,-3l2,0l0,3l-1,0l-0,2l-2,0l-0,-2l1,0Zm10,0l1,0l-0,2l-1,0l-0,-1l-1,0l0,-3l-1,0l0,-1l2,0l0,3Zm5,2l-2,0l0,-5l2,0l-0,5Zm6,-4l1,0l-0,4l-5,0l0,-5l4,0l0,1Zm4,3l0,-4l3,0l0,2l-1,0l-0,3l-3,0l-0,-1l1,0Zm7,-2l0,-2l5,0l0,3l1,0l0,-1l1,0l0,-1l1,0l0,-1l3,0l0,1l-1,0l-0,4l-11,0l0,-3l1,0Zm14,1l0,-2l1,0l0,-1l5,0l0,1l1,0l0,2l1,0l-0,2l-9,0l-0,-2l1,0Zm14,2l-3,0l0,-4l-1,0l0,-1l4,0l-0,5Zm8,-3l-1,0l0,1l-1,0l0,-1l-1,0l0,-2l3,0l0,2Zm6,3l-1,0l0,-5l1,0l-0,5Zm-70,-1l0,-2l2,0l-0,2l1,0l-0,1l-4,0l-0,-1l1,0Zm59,0l1,0l-0,1l-2,0l0,-3l1,0l-0,2Zm7,0l0,-2l1,0l-0,3l-2,0l-0,-1l1,0Z" style="fill:#214a84;"/>
            <path d="M62,9l0,-2l1,0l-0,3l-2,0l-0,-1l1,0Zm12,0l1,0l-0,1l-2,0l0,-3l1,0l-0,2Zm6,0l1,0l-0,1l-2,0l0,-3l1,0l-0,2Zm11,0l0,-2l1,0l-0,3l-2,0l-0,-1l1,0Zm-87,0l-0,-1l1,0l-0,2l-2,0l-0,-1l1,0Zm17,0l-0,-1l1,0l-0,2l-2,0l-0,-1l1,0Zm6,0l1,0l-0,1l-2,0l-0,-2l1,0l-0,1Zm8,0l1,0l-0,1l-2,0l-0,-2l1,0l-0,1Zm7,0l-0,-1l1,0l-0,2l-2,0l-0,-1l1,0Zm6,0l-0,-1l1,0l-0,2l-2,0l-0,-1l1,0Zm36,0l-1,0l-0,-1l1,0l-0,1Zm3,0l-0,-1l1,0l-0,1l-1,0Zm-3,0l3,0l-0,1l-3,0l-0,-1Z" style="fill:#ffffef;"/>
            <path d="M2,13l1,0l-0,2l-2,0l-0,-1l-1,0l-0,-4l2,0l-0,3Zm6,-1l1,0l-0,1l4,0l-0,-1l3,0l-0,2l1,0l-0,-3l1,0l-0,-1l2,0l-0,1l-1,0l-0,3l-1,0l-0,1l-3,0l-0,-1l-1,0l-0,1l-6,0l-0,-1l-1,0l-0,-2l-1,0l-0,-2l2,0l-0,2Zm22,-1l1,0l-0,3l1,0l-0,-4l2,0l-0,5l-4,0l-0,-3l-1,0l-0,-2l1,0l-0,1Zm8,0l-0,1l-2,0l-0,-2l4,0l-0,1l-2,0Zm0,3l-0,-1l2,0l-0,-1l2,0l-0,-1l1,0l-0,-1l3,0l-0,3l1,0l-0,2l-2,0l-0,-1l-1,0l-0,-2l-1,0l-0,1l-1,0l-0,1l-1,0l-0,1l-5,0l-0,-1l2,0Zm23,-1l1,0l-0,2l-3,0l-0,-1l-1,0l-0,1l-6,0l-0,-1l-1,0l-0,-2l-1,0l-0,-2l11,0l-0,3Zm12,-1l-1,0l-0,2l-1,0l-0,1l-5,0l-0,-1l-1,0l-0,-2l-1,0l-0,-2l9,0l-0,2Zm3,1l-0,-3l3,0l-0,1l-1,0l-0,4l-3,0l-0,-2l1,0Zm7,-1l1,0l-0,2l1,0l-0,1l-4,0l-0,-5l2,0l-0,2Zm4,2l-0,-2l1,0l-0,-2l2,0l-0,5l-4,0l-0,-1l1,0Zm7,0l1,0l-0,1l-2,0l-0,-4l-1,0l-0,-1l2,0l-0,4Zm-72,0l-0,-1l5,0l-0,2l-6,0l-0,-1l1,0Zm0,-3l-0,-1l4,0l-0,1l-4,0Z" style="fill:#29528c;"/>
            <path d="M26,11l-0,-1l3,0l-0,1l-3,0Zm-4,0l4,0l-0,1l-4,0l-0,-1Zm-0,0l-2,0l-0,-1l2,0l-0,1Zm42,1l-1,0l-0,-1l-2,0l-0,-1l3,0l-0,2Zm10,-1l-0,1l-1,0l-0,-2l3,0l-0,1l-2,0Zm-72,0l-0,-1l4,0l-0,1l-4,0Zm32,0l-0,-1l2,0l-0,1l-2,0Zm6,0l-0,-1l3,0l-0,1l-3,0Zm6,0l-0,-1l4,0l-0,1l-4,0Zm33,0l-0,-1l2,0l-0,1l-2,0Zm4,0l-0,-1l5,0l-0,1l-5,0Zm7,0l-0,-1l2,0l-0,1l-2,0Z" style="fill:#8c6300;"/>
            <path d="M5,16l1,0l-0,1l-1,0l-0,-1Zm2,-2l1,0l-0,1l-1,0l-0,-1Zm-1,-2l1,0l-0,2l-1,0l-0,-1l-1,0l-0,-1l-1,0l-0,2l1,0l-0,2l-1,0l-0,-1l-1,0l-0,-2l-1,0l-0,-2l4,0l-0,1Zm16,0l4,0l-0,1l-4,0l-0,-1Zm-0,0l-3,0l-0,-1l3,0l-0,1Zm4,0l-0,-1l3,0l-0,1l-3,0Zm14,0l-0,1l-1,0l-0,-1l-1,0l-0,-1l4,0l-0,1l-2,0Zm11,2l1,0l-0,1l-1,0l-0,-1Zm-1,-2l1,0l-0,2l-1,0l-0,-1l-1,0l-0,-1l-1,0l-0,2l1,0l-0,2l-1,0l-0,-1l-1,0l-0,-2l-1,0l-0,-2l4,0l-0,1Zm-1,4l1,0l-0,1l-1,0l-0,-1Zm14,-4l2,0l-0,2l-1,0l-0,-1l-1,0l-0,-1Zm-0,0l-1,0l-0,1l-1,0l-0,-2l2,0l-0,1Zm11,0l-0,1l-1,0l-0,1l-1,0l-0,-2l2,0Zm0,0l-0,-1l2,0l-0,2l-1,0l-0,-1l-1,0Zm-40,0l-0,-1l2,0l-0,1l-2,0Zm44,0l-0,-1l3,0l-0,1l-3,0Zm5,0l-0,-1l2,0l-0,1l-2,0Zm3,0l-0,-1l2,0l-0,1l-2,0Zm4,0l-0,-1l3,0l-0,1l-3,0Zm-53,2l-0,-1l1,0l-0,1l-1,0Z" style="fill:#a57b00;"/>
            <path d="M85,12l-0,2l-1,0l-0,-2l1,0Zm1,0l1,0l-0,2l-1,0l-0,-2Zm-1,0l-0,-1l1,0l-0,1l-1,0Zm-78,5l2,0l0,1l-2,0l-0,-1Zm-1,-1l1,0l-0,1l-1,0l-0,-1Zm-1,-3l1,0l-0,1l1,0l-0,1l-1,0l-0,1l-1,0l-0,-2l-1,0l-0,-2l1,0l-0,1Zm14,1l-0,1l-1,0l-0,-1l1,0Zm0,0l-0,-2l3,0l-0,2l-1,0l-0,-1l-1,0l-0,1l-1,0Zm11,1l-1,0l-0,-1l-1,0l-0,-1l-2,0l-0,-1l4,0l-0,3Zm7,-2l-0,1l-1,0l-0,-1l-1,0l-0,1l-1,0l-0,-2l5,0l-0,1l-2,0Zm14,4l2,0l0,1l-2,0l-0,-1Zm-1,-1l1,0l-0,1l-1,0l-0,-1Zm-1,-3l1,0l-0,1l1,0l-0,1l-1,0l-0,1l-1,0l-0,-2l-1,0l-0,-2l1,0l-0,1Zm17,2l1,0l-0,1l-1,0l-0,-1Zm-3,-2l1,0l-0,1l-1,0l-0,1l-1,0l-0,-3l1,0l-0,1Zm-0,2l1,0l-0,1l-1,0l-0,-1Zm1,0l-0,-1l2,0l-0,1l-2,0Zm7,0l-0,-1l2,0l-0,1l-2,0Zm2,0l1,0l-0,1l-1,0l-0,-1Zm1,0l-0,-1l-1,0l-0,-1l1,0l-0,-1l1,0l-0,3l-1,0Zm-3,0l-0,1l-1,0l-0,-1l1,0Zm10,-1l-2,0l-0,-1l-1,0l-0,-1l3,0l-0,2Zm12,0l-2,0l-0,-1l-1,0l-0,-1l3,0l-0,2Zm-85,2l-0,-1l1,0l-0,1l-1,0Zm4,0l-0,-1l1,0l-0,1l-1,0Zm40,0l-0,-1l1,0l-0,1l-1,0Zm4,0l-0,-1l1,0l-0,1l-1,0Z" style="fill:#bd9c00;"/>
            <path d="M86,14l-1,0l-0,-2l1,0l-0,2Zm-67,1l-0,-1l1,0l-0,-1l1,0l-0,4l1,0l0,1l-2,0l0,-1l-1,0l-0,-1l-1,0l-0,-1l1,0Zm9,-1l1,0l-0,1l2,0l-0,2l-1,0l-0,-1l-1,0l-0,1l-1,0l-0,-2l-1,0l-0,-2l1,0l-0,1Zm0,3l0,1l-1,0l0,-1l1,0Zm3,0l1,0l0,1l-1,0l-0,-1Zm4,-3l-0,-1l1,0l-0,4l-1,0l-0,-1l-1,0l-0,-2l1,0Zm46,3l1,0l0,1l-1,0l-0,-1Zm-2,-3l2,0l-0,3l-2,0l-0,-1l-1,0l-0,-3l1,0l-0,1Zm14,3l1,0l0,1l-1,0l-0,-1Zm-2,-3l2,0l-0,3l-2,0l-0,-1l-1,0l-0,-3l1,0l-0,1Zm-77,3l-0,-3l1,0l0,4l-2,0l0,-1l1,0Zm44,0l-0,-3l1,0l0,4l-2,0l0,-1l1,0Zm-50,-1l4,0l-0,1l-2,0l0,1l-1,0l0,-1l-2,0l-0,-1l-1,0l-0,-1l2,0l-0,1Zm44,0l4,0l-0,1l-2,0l0,1l-1,0l0,-1l-2,0l-0,-1l-1,0l-0,-1l2,0l-0,1Zm13,0l-0,1l-1,0l-0,-1l1,0Zm0,0l-0,-1l1,0l-0,1l-1,0Zm7,0l-1,0l-0,-1l1,0l-0,1Zm-0,0l1,0l-0,1l-1,0l-0,-1Zm-2,1l1,0l0,1l-1,0l-0,-1Zm-3,0l-0,-1l3,0l-0,1l-3,0Zm0,0l0,1l-1,0l0,-1l1,0Zm-4,-2l-0,-1l1,0l-0,1l-1,0Zm10,0l-0,-1l1,0l-0,1l-1,0Zm-56,3l0,-1l1,0l0,1l-1,0Zm20,0l0,-1l1,0l0,1l-1,0Zm52,0l0,-1l1,0l0,1l-1,0Z" style="fill:#debd10;"/>
            <path d="M12,17l-0,-1l1,0l-0,-1l1,0l-0,2l-1,0l0,1l-3,0l0,-1l2,0Zm44,0l-0,-1l1,0l-0,-1l1,0l-0,2l-1,0l0,1l-3,0l0,-1l2,0Zm14,0l-0,-1l2,0l-0,1l-2,0Zm-3,0l3,0l0,1l-3,0l-0,-1Zm-2,-1l2,0l-0,1l-2,0l-0,-1Zm7,0l-0,-1l1,0l-0,1l-1,0Zm-7,0l-1,0l-0,-1l1,0l-0,1Zm-46,1l1,0l0,1l-2,0l-0,-2l1,0l-0,1Zm10,0l-0,-1l1,0l-0,1l1,0l0,1l-3,0l0,-1l1,0Zm5,0l-0,-1l1,0l-0,1l2,0l0,1l-4,0l0,-1l1,0Zm44,0l-0,-1l1,0l-0,1l2,0l0,1l-4,0l0,-1l1,0Zm13,0l2,0l0,1l-3,0l-0,-2l1,0l-0,1Zm-6,-2l-0,-1l1,0l-0,1l-1,0Z" style="fill:#f7e7de;"/>
            <path d="M4,16l1,0l-0,1l2,0l0,1l8,0l-0,-3l3,0l-0,2l-1,0l0,1l5,0l0,-1l-1,0l-0,-2l7,0l-0,2l-1,0l0,1l5,0l0,-1l-1,0l-0,-2l3,0l-0,2l-1,0l0,1l5,0l0,-1l-2,0l-0,-2l3,0l-0,1l1,0l0,4l-34,0l0,-1l-2,0l-0,-1l-1,0l0,-1l-1,0l-0,-1l-1,0l-0,-1l3,0l-0,1Zm44,0l1,0l-0,1l2,0l0,1l8,0l-0,-3l4,0l-0,1l1,0l-0,1l2,0l0,1l5,0l0,-1l2,0l-0,-1l1,0l-0,-1l4,0l-0,2l-1,0l0,1l5,0l0,-1l-1,0l-0,-2l9,0l-0,2l-1,0l0,1l5,0l0,-1l-1,0l-0,-2l2,0l0,5l-8,0l0,-3l-3,0l0,3l-8,0l0,-3l-1,0l0,1l-1,0l-0,1l-2,0l0,1l-7,0l0,-1l-2,0l-0,-1l-1,0l0,-1l-1,0l0,3l-11,0l0,-1l-2,0l-0,-1l-1,0l0,-1l-1,0l-0,-1l-1,0l-0,-1l3,0l-0,1Zm-46,7l-0,-1l91,0l-0,1l1,0l-0,5l-1,0l0,1l-91,0l0,-1l-1,0l-0,-5l1,0Zm5,5l1,0l0,-2l1,0l-0,-1l1,0l0,-1l-1,0l-0,-1l-2,0l-0,5Zm81,0l0,-4l-1,0l-0,-1l-4,0l-0,5l1,0l0,-4l1,0l-0,4l1,0l0,-4l1,0l-0,4l1,0Zm-10,0l-0,-1l-2,0l0,-1l1,0l-0,-1l-1,0l0,-1l2,0l-0,-1l-3,0l-0,5l3,0Zm-9,0l0,-4l1,0l-0,-1l-3,0l-0,1l1,0l-0,4l1,0Zm-8,0l-0,-1l1,0l0,-1l-1,0l-0,-1l-1,0l-0,-1l2,0l-0,-1l-2,0l-0,1l-1,0l0,1l1,0l-0,1l1,0l-0,1l-2,0l-0,1l2,0Zm-8,0l-0,-3l1,0l-0,-2l-1,0l-0,2l-1,0l-0,-2l-1,0l0,2l1,0l-0,3l1,0Zm-8,0l-0,-1l1,0l0,-1l-1,0l-0,-1l-1,0l-0,-1l2,0l-0,-1l-2,0l-0,1l-1,0l0,1l1,0l-0,1l1,0l-0,1l-2,0l-0,1l2,0Zm-12,0l-0,-3l1,0l-0,-2l-1,0l-0,2l-1,0l-0,-2l-1,0l0,2l1,0l-0,3l1,0Zm-7,0l0,-4l-1,0l-0,-1l-1,0l-0,1l-1,0l-0,4l1,0l0,-2l1,0l-0,2l1,0Zm-8,0l-0,-1l-2,0l-0,-4l-1,0l-0,5l3,0Zm-9,-4l-0,1l-1,0l0,-1l1,0Zm15,0l1,0l0,1l-1,0l-0,-1Zm-15,-8l-0,-1l3,0l-0,1l-3,0Zm44,0l-0,-1l3,0l-0,1l-3,0Zm14,0l-0,-1l3,0l-0,1l-3,0Z" style="fill:#315a94;"/>
            <path d="M9,24l-1,0l0,1l1,0l-0,1l-1,0l-0,2l-1,0l-0,-5l2,0l-0,1Zm0,1l-0,-1l1,0l0,1l-1,0Zm7,2l2,0l-0,1l-3,0l-0,-5l1,0l0,4Zm8,-3l0,1l1,0l-0,-1l1,0l-0,4l-1,0l0,-2l-1,0l-0,2l-1,0l0,-4l1,0Zm1,0l-1,0l-0,-1l1,0l-0,1Zm7,1l1,0l-0,3l-1,0l-0,-3Zm1,0l-0,-2l1,0l0,2l-1,0Zm-1,0l-1,0l-0,-2l1,0l-0,2Zm13,1l1,0l0,1l-1,0l-0,-1Zm0,1l-0,1l-2,0l-0,-1l2,0Zm-1,-3l-0,-1l2,0l-0,1l-2,0Zm0,0l-0,1l-1,0l0,-1l1,0Zm-0,1l1,0l-0,1l-1,0l-0,-1Zm8,0l1,0l-0,3l-1,0l-0,-3Zm-0,0l-1,0l-0,-2l1,0l-0,2Zm1,0l-0,-2l1,0l0,2l-1,0Zm7,0l1,0l-0,1l-1,0l-0,-1Zm1,1l1,0l0,1l-1,0l-0,-1Zm0,1l-0,1l-2,0l-0,-1l2,0Zm-1,-3l-0,-1l2,0l-0,1l-2,0Zm0,0l-0,1l-1,0l0,-1l1,0Zm9,0l-0,4l-1,0l0,-4l-1,0l-0,-1l3,0l-0,1l-1,0Zm7,0l0,1l1,0l-0,1l-1,0l0,1l2,0l-0,1l-3,0l-0,-5l3,0l-0,1l-2,0Zm11,0l1,0l-0,4l-1,0l-0,-4Zm-0,0l-1,0l-0,4l-1,0l0,-4l-1,0l-0,4l-1,0l-0,-5l4,0l-0,1Z" style="fill:#fff;"/>
        </g>
    </g>
</svg>
