<svg xmlns="http://www.w3.org/2000/svg" viewBox="0 0 397 93">
    <path fill="#cf3006" d="M2.74 38.33V35.6h2.74v-8.21H8.2V21.9h2.74v-2.73h2.74v-2.74h2.74v-2.74h2.74v-2.74h2.73V8.21h5.48V5.48h5.47V2.74h5.48V0H65.7v2.74h8.21v2.74h5.48V8.2h5.48v2.74h2.73v2.74h2.74v2.74h2.74v2.74h2.74v5.47h2.74v5.48h2.73v2.74h2.74v13.69h-2.74v2.73h-5.47V38.33h-2.74v-8.21h-2.74v-5.48H87.6V21.9h-2.73v-2.73h-2.74v-2.74H79.4v-2.74h-2.74v-2.74h-8.21V8.21H57.5V5.48H43.8V8.2h-5.47v2.74h-8.21v2.74h-5.48v2.74H21.9v2.74h-2.73v2.73h-2.74v2.74h-2.74v8.22h-2.74v8.2H8.21v13.7h2.74V65.7h2.74v5.48h2.74v2.73h2.74v2.74h2.73v2.74h2.74v2.74h8.21v2.74h27.38v-2.74h5.48V79.4h2.74v-2.74h5.47V71.2h2.74v-5.5h2.74V49.28h-2.74v-8.21h-2.74v-5.48H71.2v-2.73h-2.74v-5.48h-5.48v-2.74H38.33v2.74H35.6v2.74h-2.74v2.74h-2.73v5.47h-2.74v5.48h-2.74v8.21h2.74v8.21h2.74v5.48h5.47v2.74h19.17V65.7h2.74v-2.74h2.73v-2.74h2.74V49.28h-2.74v-5.47h-5.47v-2.74H43.8v2.74h-2.74v8.21h13.69v5.48h-2.74v2.73H43.8V57.5h-5.48v-2.74H35.6V38.33h2.74V35.6h5.48v-2.73h8.21v2.73h8.21v2.74h5.48v8.22h2.74V65.7H65.7v2.74h-2.74v2.74H57.5v2.73h-5.48v2.74H41.07v-2.74h-8.21V71.2h-5.48v-2.74h-2.74V65.7H21.9V54.76h-2.73V38.33h2.73v-5.47h2.74v-2.74h2.74v-5.48h5.48V21.9h2.73v-2.73h5.48v-2.74H57.5v2.74h10.95v2.73h2.74v2.74h2.73v2.74h2.74v2.74h2.74v5.47h2.74v5.48h2.74v30.12h-2.74v5.47H79.4v5.48h-5.48v2.74h-5.47v2.73h-5.48v2.74h-8.21v2.74H35.59v-2.74H24.64v-2.74h-5.47v-5.47h-2.74V79.4h-2.74v-2.74h-2.74v-2.74H8.21v-5.47H5.48v-8.22H2.74v-5.47H0V38.33h2.74Z"/>
    <path d="M150.59 27.38h5.47v2.74h2.74v2.73h2.74v5.48h2.74v16.43h-2.74v5.47h-2.74v2.74h-2.74v2.74h-5.47v2.74h-24.64v-43.8h24.64v2.73Zm-19.17 0V65.7h16.43v-2.74h5.47v-2.74h2.74v-5.47h2.74V38.33h-2.74v-5.47h-2.74v-2.74h-5.47v-2.74h-16.43Zm251.89 10.95v-5.47h2.74v-2.74h2.74v8.21H397v2.74h-8.21V65.7H397v2.74h-10.95V65.7h-2.74V41.07h-2.74v-2.74h2.74Zm-208.08 2.74h2.74v-2.74h13.69v5.48h-5.48v-2.74h-5.48v2.74h-2.73v24.64h-5.48V41.07h-2.74v-2.74h5.48v2.74Zm52.02 13.69v-2.74h8.21v-2.74h5.48v-5.47h-2.74v-2.74h-8.21v-2.74h13.69v2.74h2.73v27.38h-5.47V65.7h-2.74v-2.74h2.74V52.02h-2.74v2.74h-8.21v8.21h2.73v2.74h5.48v2.74h-10.95V65.7h-2.74V54.76h2.74Zm2.74-13.7v2.75h-2.74v-2.74h2.74Zm27.38 0h2.73v2.75h-2.73v24.64h-5.48V38.33h5.48v2.74Zm2.73 0v-2.73h10.96v2.74h8.2v2.74h-2.73v24.64h-5.47V43.8h-2.74v-2.74h-8.22Zm19.17 0v-2.73h10.95v2.74h2.74v2.74h2.74v24.64h-5.48V43.8h-2.74v-2.74h-8.21Zm54.76 13.7v-2.74h8.21v-2.74h5.48v-5.47h-2.74v-2.74h-8.21v-2.74h13.69v2.74h2.73v27.38h-5.47V65.7h-2.74v-2.74h2.74V52.02h-2.74v2.74h-8.21v8.21h2.73v2.74h5.48v2.74h-10.95V65.7h-2.74V54.76h2.74Zm2.74-13.7v2.75h-2.74v-2.74h2.74Zm27.38 0v8.22h5.47v2.74h5.48v2.74h2.73v8.21h-2.73v2.74h-2.74v2.74h-13.7V65.7h10.96v-2.74h2.74V57.5h-2.74v-2.74h-5.47v-2.74h-2.74v-2.74h-2.74v-8.21h5.48Zm0 0v-2.73h10.95v2.74h-10.95Zm-169.76 5.49V43.8h2.74v2.73h16.43V43.8h-2.74v-2.74h-10.95v-2.74h13.69v2.74h2.74v2.74h2.73v5.47h-21.9v10.95h2.74v2.74h2.74v2.74h10.95v-2.74h2.74v-2.74h2.73v5.48h-2.73v2.74h-16.43V65.7h-5.48v-5.48h-2.73V46.55h2.73Zm5.48-5.48v2.74h-2.74v-2.74h2.74Zm104.04 5.48V43.8h2.74v-2.74h2.74v-2.74h13.69v2.74h-10.96v2.74h-2.73v2.73h-2.74v13.7h2.74v2.73h2.73v2.74h10.96v2.74h-13.7V65.7h-2.73v-2.74h-2.74v-2.74h-2.74V46.55h2.74Zm19.17-5.48h2.73v2.74h-2.73v-2.74Zm0 24.64v-2.74h2.73v2.74h-2.73Z"/>
</svg>
