<?xml version="1.0" encoding="UTF-8" standalone="no"?>
<!DOCTYPE svg PUBLIC "-//W3C//DTD SVG 1.1//EN" "http://www.w3.org/Graphics/SVG/1.1/DTD/svg11.dtd">
<svg width="100%" height="100%" viewBox="0 0 153 27" version="1.1" xmlns="http://www.w3.org/2000/svg" xmlns:xlink="http://www.w3.org/1999/xlink" xml:space="preserve" xmlns:serif="http://www.serif.com/" style="fill-rule:evenodd;clip-rule:evenodd;stroke-linejoin:round;stroke-miterlimit:2;">
    <rect id="FAMICOM" x="0" y="0" width="153" height="27" style="fill:none;"/>
    <clipPath id="_clip1">
        <rect id="FAMICOM1" serif:id="FAMICOM" x="0" y="0" width="153" height="27"/>
    </clipPath>
    <g clip-path="url(#_clip1)">
        <path id="ファミリーコンピュータ" d="M8,25l-0,1l-1,0l-0,-1l1,0Zm1,0l-1,0l-0,-4l-8,0l-0,-1l9,0l0,5Zm-2,1l0,1l-6,0l0,-1l6,0Zm21,-2l-1,0l-0,-4l1,0l-0,4Zm6,2l0,1l-5,0l0,-1l5,0Zm1,-1l-0,-5l1,0l0,5l-1,0Zm-1,1l-0,-1l1,0l-0,1l-1,0Zm25,1l-9,0l0,-1l8,0l-0,-5l-8,0l-0,-1l9,0l0,7Zm9,-2l-0,-5l1,0l0,5l-1,0Zm-1,1l-0,-1l1,0l-0,1l-1,0Zm0,0l0,1l-7,0l0,-1l7,0Zm4,-4l5,0l-0,-1l1,0l-0,1l1,0l-0,1l-7,0l-0,3l-1,0l-0,-6l1,0l-0,2Zm7,0l-0,-1l1,0l-0,1l-1,0Zm-0,-1l-1,0l-0,-1l1,0l-0,1Zm-7,5l8,0l0,1l-8,0l-0,-1Zm26,-3l-0,1l-1,0l-0,-1l1,0Zm6,3l0,1l-6,0l0,-1l6,0Zm1,-1l-0,1l-1,0l-0,-1l1,0Zm-6,-3l-0,-2l7,0l0,5l-1,0l0,-1l-5,0l-0,-1l5,0l-0,-2l-5,0l-0,1l-1,0Zm-1,1l-0,-1l1,0l-0,1l-1,0Zm-75,-1l-4,0l-0,-1l4,0l-0,1Zm-0,4l4,0l0,1l-4,0l-0,-1Zm0,-1l-0,1l-4,0l-0,-1l4,0Zm-0,-1l4,0l0,1l-4,0l-0,-1Zm0,-1l-0,1l-4,0l-0,-1l4,0Zm-0,-1l4,0l-0,1l-4,0l-0,-1Zm-9,4l0,1l-3,0l0,-1l3,0Zm3,-2l0,1l-2,0l-0,1l-1,0l0,-2l3,0Zm1,0l-1,0l-0,-1l-6,0l-0,-1l7,0l-0,2Zm68,2l-0,-3l-4,0l-0,-1l5,0l-0,4l1,0l0,1l-7,0l0,-1l5,0Zm-25,-5l-0,-1l5,0l-0,1l-5,0Zm-23,3l-0,-1l9,0l-0,1l-9,0Zm51,0l-0,-1l7,0l-0,1l-7,0Z" style="fill:#303691;"/>
        <path id="FAMILYCOMPUTER" d="M8,3l-5,0l0,3l5,0l-0,3l-5,0l-0,6l-3,0l0,-15l8,0l0,3Zm-2,11l-0,-2l1,0l-0,-1l1,0l-0,-1l1,0l-0,-2l1,0l0,-1l1,0l0,-2l1,0l0,-1l1,0l0,-1l1,0l0,-2l1,0l0,-1l3,0l-0,15l-3,0l-0,-2l-6,0l-0,1l-1,0l-0,1l-3,0l-0,-1l1,0Zm9,-3l0,-5l-1,0l0,1l-1,0l0,1l-1,0l-0,2l-1,0l-0,1l4,0Zm7,-9l1,0l0,2l1,0l0,2l1,0l0,2l1,0l-0,2l1,0l-0,-2l1,0l0,-2l1,0l0,-2l1,0l0,-2l1,0l0,-2l3,0l-0,15l-3,0l-0,-6l-1,0l-0,2l-1,0l-0,2l-1,0l-0,2l-3,0l-0,-2l-1,0l-0,-2l-1,0l-0,-2l-1,0l-0,6l-3,0l0,-15l3,0l0,2Zm16,13l-3,0l0,-15l3,0l-0,15Zm4,-2l4,0l-0,2l-7,0l0,-15l3,0l-0,13Zm4,-12l1,0l0,2l1,0l0,2l1,0l0,1l1,0l0,-1l1,0l0,-2l1,0l0,-2l1,0l0,-1l3,0l0,2l-1,0l0,2l-1,0l0,2l-1,0l0,2l-1,0l-0,2l-1,0l-0,5l-3,0l-0,-5l-1,0l-0,-2l-1,0l0,-2l-1,0l0,-2l-1,0l0,-2l-1,0l0,-2l3,0l0,1Zm25,4l0,-2l1,0l0,-1l1,0l0,-1l1,0l0,-1l7,0l0,1l1,0l0,1l1,0l0,1l1,0l0,2l1,0l-0,5l-1,0l-0,2l-1,0l-0,1l-1,0l-0,1l-1,0l-0,1l-7,0l-0,-1l-1,0l-0,-1l-1,0l-0,-1l-1,0l-0,-2l-1,0l0,-5l1,0Zm2,5l1,0l-0,1l1,0l-0,1l5,0l-0,-1l1,0l-0,-1l1,0l0,-5l-1,0l0,-1l-1,0l0,-1l-5,0l0,1l-1,0l0,1l-1,0l-0,5Zm16,-8l1,0l0,2l1,0l0,2l1,0l0,2l1,0l-0,2l1,0l-0,-2l1,0l0,-2l1,0l0,-2l1,0l0,-2l1,0l0,-2l3,0l-0,15l-3,0l-0,-6l-1,0l-0,2l-1,0l-0,2l-1,0l-0,2l-3,0l-0,-2l-1,0l-0,-2l-1,0l-0,-2l-1,0l-0,6l-3,0l0,-15l3,0l0,2Zm21,-1l1,0l0,1l1,0l0,6l-1,0l-0,1l-1,0l-0,1l-5,0l-0,5l-3,0l0,-15l8,0l0,1Zm-5,2l0,4l3,0l0,-1l1,0l0,-2l-1,0l0,-1l-3,0Zm11,9l1,0l-0,1l1,0l-0,-1l1,0l0,-12l3,0l-0,13l-1,0l-0,1l-1,0l-0,1l-5,0l-0,-1l-1,0l-0,-1l-1,0l0,-13l3,0l-0,12Zm16,-9l-3,0l-0,12l-3,0l0,-12l-3,0l0,-3l9,0l0,3Zm9,0l-5,0l0,3l5,0l-0,3l-5,0l-0,3l5,0l-0,3l-8,0l0,-15l8,0l0,3Zm10,-2l1,0l0,1l1,0l0,5l-1,0l0,1l-1,0l-0,1l-1,0l-0,1l1,0l-0,2l1,0l-0,1l1,0l-0,2l-4,0l-0,-2l-1,0l-0,-2l-1,0l-0,-2l-2,0l-0,6l-3,0l0,-15l9,0l0,1Zm-6,2l0,4l4,0l0,-1l1,0l0,-2l-1,0l0,-1l-4,0Zm-89,2l0,-2l1,0l0,-1l1,0l0,-1l1,0l0,-1l7,0l0,1l1,0l0,1l1,0l0,1l1,0l0,2l-3,0l0,-1l-1,0l0,-1l-5,0l0,1l-1,0l0,1l-1,0l-0,5l1,0l-0,1l1,0l-0,1l5,0l-0,-1l1,0l-0,-1l3,0l-0,2l-1,0l-0,1l-1,0l-0,1l-1,0l-0,1l-7,0l-0,-1l-1,0l-0,-1l-1,0l-0,-1l-1,0l-0,-2l-1,0l0,-5l1,0Zm-56,13l0,-1l153,0l0,1l-153,0Z" style="fill:#e6361e;"/>
    </g>
</svg>
