<?xml version="1.0" encoding="UTF-8" standalone="no"?>
<!DOCTYPE svg PUBLIC "-//W3C//DTD SVG 1.1//EN" "http://www.w3.org/Graphics/SVG/1.1/DTD/svg11.dtd">
<svg width="100%" height="100%" viewBox="0 0 235 35" version="1.1" xmlns="http://www.w3.org/2000/svg" xmlns:xlink="http://www.w3.org/1999/xlink" xml:space="preserve" xmlns:serif="http://www.serif.com/" style="fill-rule:evenodd;clip-rule:evenodd;stroke-linejoin:round;stroke-miterlimit:2;">
    <rect id="Final-Burn-Alph...-Neo--" serif:id="Final Burn Alph... Neo??" x="0" y="0" width="235" height="35" style="fill:none;"/>
    <clipPath id="_clip1">
        <rect x="0" y="0" width="235" height="35"/>
    </clipPath>
    <g clip-path="url(#_clip1)">
        <g id="BURN">
            <path d="M98,7l-0,-4l1,-0l-0,-1l1,-0l-0,-1l15,0l-0,1l2,-0l-0,1l1,-0l-0,1l1,-0l-0,1l1,-0l-0,1l1,-0l-0,2l-1,-0l-0,-1l-1,-0l-0,-1l-1,-0l-0,-1l-1,-0l-0,-1l-2,-0l-0,-1l-15,-0l-0,4l-1,-0l-0,1l-2,-0l-0,-1l1,-0Zm27,-2l-0,-2l1,-0l-0,-1l1,-0l-0,-1l7,0l-0,1l2,-0l-0,-1l6,0l-0,1l1,-0l-0,1l1,-0l-0,1l1,-0l-0,-1l1,-0l-0,-1l1,-0l-0,-1l15,0l-0,1l2,-0l-0,1l1,-0l-0,1l1,-0l-0,1l1,-0l-0,2l-1,-0l-0,-1l-1,-0l-0,-1l-1,-0l-0,-1l-2,-0l-0,-1l-15,-0l-0,2l-1,-0l-0,1l-1,-0l-0,1l-2,-0l-0,-1l-1,-0l-0,-3l-6,-0l-0,4l-1,-0l-0,-1l-1,-0l-0,1l-1,-0l-0,-2l1,-0l-0,-2l-7,-0l-0,2l-1,-0l-0,1l-1,-0l-0,1l-1,-0l-0,-2l1,-0Zm44,-2l-0,-1l1,-0l-0,-1l6,0l-0,1l1,-0l-0,1l1,-0l-0,1l1,-0l-0,1l2,-0l-0,-2l1,-0l-0,-1l1,-0l-0,-1l6,0l-0,1l1,-0l-0,1l1,-0l-0,5l-1,-0l-0,-1l-1,-0l-0,-4l-6,-0l-0,6l-1,-0l-0,-1l-1,-0l-0,-1l-2,-0l-0,-1l-1,-0l-0,-1l-1,-0l-0,-1l-1,-0l-0,-1l-6,-0l-0,4l-1,-0l-0,1l-1,-0l-0,-5l1,-0Z" style="fill:#0061e9;"/>
            <path d="M120,17l1,-0l-0,-1l1,-0l-0,-2l1,-0l-0,4l-3,-0l-0,1l-1,-0l-0,-2l-1,-0l-0,-2l2,-0l-0,2Zm11,-2l-0,-1l1,-0l-0,3l-1,-0l-0,1l-1,-0l-0,-3l1,-0Zm4,-0l1,-0l-0,3l-1,-0l-0,-1l-1,-0l-0,-3l1,-0l-0,1Zm8,-0l-0,-1l1,-0l-0,3l-1,-0l-0,1l-1,-0l-0,-3l1,-0Zm3,-0l1,-0l-0,3l-1,-0l-0,-1l-1,-0l-0,-3l1,-0l-0,1Zm9,1l-2,-0l-0,-2l2,-0l-0,2Zm11,-1l-0,-1l1,-0l-0,1l-1,-0Zm-2,1l-0,-1l2,-0l-0,1l-1,-0l-0,1l-1,-0l-0,1l-1,-0l-0,-2l1,-0Zm5,-0l1,-0l-0,3l-1,-0l-0,-1l-1,-0l-0,-3l1,-0l-0,1Zm8,-0l-0,-1l1,-0l-0,1l2,-0l-0,3l-1,-0l-0,-1l-2,-0l-0,1l-1,-0l-0,-3l1,-0Zm13,-0l1,-0l-0,3l-1,-0l-0,-1l-1,-0l-0,-3l1,-0l-0,1Zm-91,1l-0,-1l1,-0l-0,2l-1,-0l-0,1l-1,-0l-0,-2l1,-0Zm10,-0l1,-0l-0,2l-1,-0l-0,-1l-2,-0l-0,1l-1,-0l-0,-3l3,-0l-0,1Z" style="fill:#7be6f8;"/>
            <path d="M118,12l-0,1l-1,-0l-0,-1l1,-0Zm-1,-7l1,-0l-0,1l-1,-0l-0,-1Zm-5,5l1,-0l-0,1l-1,-0l-0,-1Zm-3,4l-0,1l-1,-0l-0,-1l1,-0Zm2,-5l1,-0l-0,1l-1,-0l-0,-1Zm-11,-2l-0,-4l15,-0l-0,1l-14,-0l-0,3l-1,-0Zm15,-3l2,-0l-0,1l-2,-0l-0,-1Zm-4,9l-0,1l-2,-0l-0,-1l2,-0Zm7,-7l1,-0l-0,6l-1,-0l-0,-6Zm-6,5l-0,2l-1,-0l-0,-2l1,-0Zm5,2l-0,1l-1,-0l-0,-1l1,-0Zm-1,1l-0,1l-1,-0l-0,-1l1,-0Zm-16,-7l-0,1l11,-0l-0,1l-12,-0l-0,-2l1,-0Zm24,6l-0,1l-1,-0l-0,-1l1,-0Zm6,-1l-0,2l-1,-0l-0,-2l1,-0Zm1,-3l-0,3l-1,-0l-0,-3l1,-0Zm1,-2l-0,2l-1,-0l-0,-2l1,-0Zm1,-2l-0,2l-1,-0l-0,-2l1,-0Zm-6,-0l-0,-2l7,-0l-0,2l-1,-0l-0,-1l-5,-0l-0,1l-1,-0Zm-1,2l-0,-2l1,-0l-0,2l-1,-0Zm-1,2l-0,-2l1,-0l-0,2l-1,-0Zm-1,4l-0,-4l1,-0l-0,4l-1,-0Zm18,1l-1,-0l-0,-10l-4,-0l-0,10l-1,-0l-0,-11l6,-0l-0,11Zm4,-5l-0,1l-1,-0l-0,-1l1,-0Zm12,4l-0,1l-1,-0l-0,-1l1,-0Zm1,-1l-0,1l-1,-0l-0,-1l1,-0Zm-0,-2l1,-0l-0,2l-1,-0l-0,-2Zm-1,-1l1,-0l-0,1l-1,-0l-0,-1Zm7,4l-0,1l-1,-0l-0,-1l1,-0Zm-0,-6l1,-0l-0,6l-1,-0l-0,-6Zm-1,-2l1,-0l-0,2l-1,-0l-0,-2Zm-2,-1l2,-0l-0,1l-2,-0l-0,-1Zm-15,1l-0,-2l15,-0l-0,1l-14,-0l-0,1l-1,-0Zm-1,4l-0,-4l1,-0l-0,3l11,-0l-0,1l-12,-0Zm30,-5l-5,-0l-0,11l-1,-0l-0,-12l6,-0l-0,1Zm7,7l-0,-8l6,-0l-0,12l-1,-0l-0,-11l-4,-0l-0,7l-1,-0Zm-1,-0l1,-0l-0,1l-1,-0l-0,-1Zm-1,-1l1,-0l-0,1l-1,-0l-0,-1Zm-1,-2l1,-0l-0,2l-1,-0l-0,-2Zm-1,-1l1,-0l-0,1l-1,-0l-0,-1Zm-1,-1l1,-0l-0,1l-1,-0l-0,-1Zm-1,-1l1,-0l-0,1l-1,-0l-0,-1Zm-1,-1l1,-0l-0,1l-1,-0l-0,-1Zm-70,11l-1,-0l-0,-4l-4,-0l-0,4l-1,-0l-0,-5l6,-0l-0,5Zm47,-1l-1,-0l-0,-3l-4,-0l-0,3l-1,-0l-0,-4l6,-0l-0,4Zm23,-1l-0,2l-1,-0l-0,-2l1,-0Zm2,1l1,-0l-0,1l-1,-0l-0,-1Zm-1,-1l1,-0l-0,1l-1,-0l-0,-1Zm-1,-0l-0,-1l1,-0l-0,1l-1,-0Z" style="fill:#6ccfdf;"/>
            <path d="M125,7l-0,-1l1,-0l-0,1l-1,-0Zm-2,1l-0,-1l2,-0l-0,2l-2,-0l-0,1l-1,-0l-0,-2l1,-0Zm9,1l-0,-2l2,-0l-0,-1l1,-0l-0,1l1,-0l-0,3l-1,-0l-0,-1l-3,-0Zm0,-0l-0,1l-1,-0l-0,-1l1,-0Zm11,-2l2,-0l-0,-1l1,-0l-0,3l-1,-0l-0,1l-2,-0l-0,-1l-1,-0l-0,-3l1,-0l-0,1Zm-23,1l1,-0l-0,3l-1,-0l-0,-1l-1,-0l-0,-3l1,-0l-0,1Zm46,-1l-1,-0l-0,-1l1,-0l-0,1Zm-0,-0l1,-0l-0,1l2,-0l-0,-1l1,-0l-0,4l-1,-0l-0,-1l-3,-0l-0,-3Zm15,1l-1,-0l-0,-1l1,-0l-0,1Zm-0,-0l1,-0l-0,1l1,-0l-0,2l-1,-0l-0,-1l-1,-0l-0,-2Zm9,-0l1,-0l-0,3l-1,-0l-0,-1l-1,-0l-0,-3l1,-0l-0,1Zm-91,1l12,-0l-0,1l-4,-0l-0,1l-1,-0l-0,-1l-7,-0l-0,1l-1,-0l-0,-2l-1,-0l-0,-1l2,-0l-0,1Zm12,1l1,-0l-0,1l-1,-0l-0,-1Z" style="fill:#0192eb;"/>
            <path d="M123,10l-0,-1l1,-0l-0,3l-1,-0l-0,1l-1,-0l-0,-3l1,-0Zm9,-0l-0,-1l1,-0l-0,2l-1,-0l-0,1l-1,-0l-0,-2l1,-0Zm3,-0l1,-0l-0,2l-1,-0l-0,-1l-1,-0l-0,-2l1,-0l-0,1Zm8,-0l3,-0l-0,-1l12,-0l-0,1l1,-0l-0,1l-2,-0l-0,1l-3,-0l-0,-1l-1,-0l-0,-1l-6,-0l-0,2l-1,-0l-0,-1l-3,-0l-0,1l-1,-0l-0,-3l1,-0l-0,1Zm-44,1l-0,-1l1,-0l-0,3l-1,-0l-0,1l-1,-0l-0,-3l1,-0Zm8,-0l-0,-1l4,-0l-0,3l-1,-0l-0,-1l-3,-0l-0,1l-1,-0l-0,-2l1,-0Zm13,-0l1,-0l-0,2l-1,-0l-0,-1l-1,-0l-0,-2l1,-0l-0,1Zm49,-0l1,-0l-0,2l-1,-0l-0,-1l-3,-0l-0,-2l3,-0l-0,1Zm21,-0l1,-0l-0,3l-1,-0l-0,-1l-1,-0l-0,-3l1,-0l-0,1Z" style="fill:#00b1f4;"/>
            <path d="M135,12l1,-0l-0,3l-1,-0l-0,-1l-1,-0l-0,-3l1,-0l-0,1Zm8,-0l-0,-1l3,-0l-0,1l1,-0l-0,3l-1,-0l-0,-1l-1,-0l-0,-2l-1,-0l-0,2l-1,-0l-0,1l-1,-0l-0,-3l1,-0Zm11,-0l1,-0l-0,1l1,-0l-0,-1l1,-0l-0,-1l2,-0l-0,1l-1,-0l-0,1l-1,-0l-0,1l-1,-0l-0,1l-1,-0l-0,-1l-2,-0l-0,-3l1,-0l-0,1Zm-47,1l-0,-1l3,-0l-0,1l-1,-0l-0,1l-1,-0l-0,1l-1,-0l-0,1l-1,-0l-0,-3l1,-0Zm10,1l-0,-1l1,-0l-0,-1l2,-0l-0,1l-1,-0l-0,1l-1,-0l-0,2l-1,-0l-0,-1l-1,-0l-0,-1l1,-0Zm5,-0l-0,2l-1,-0l-0,-2l1,-0Zm1,-1l-0,-1l1,-0l-0,1l-1,-0Zm-1,1l-0,-1l1,-0l-0,1l-1,-0Zm10,-0l-1,-0l-0,1l-1,-0l-0,-3l2,-0l-0,2Zm34,-1l-0,-1l3,-0l-0,1l1,-0l-0,3l-1,-0l-0,-1l-1,-0l-0,-1l-2,-0l-0,1l-1,-0l-0,-2l1,-0Zm-67,1l-0,-1l1,-0l-0,3l-1,-0l-0,1l-1,-0l-0,-3l1,-0Zm79,1l1,-0l-0,1l-1,-0l-0,-1Zm-1,-1l1,-0l-0,1l-1,-0l-0,1l-1,-0l-0,-3l1,-0l-0,1Zm13,-0l1,-0l-0,2l-1,-0l-0,-1l-1,-0l-0,-2l1,-0l-0,1Z" style="fill:#1ad5f5;"/>
            <path d="M116,27l-15,-0l-0,-16l4,-0l-0,11l1,-0l-0,1l7,-0l-0,-1l1,-0l-0,-2l-1,-0l-0,-2l-1,-0l-0,-1l-2,-0l-0,-1l-1,-0l-0,-2l2,-0l-0,-1l1,-0l-0,-2l1,-0l-0,-1l-1,-0l-0,-1l-1,-0l-0,-1l-11,-0l-0,-1l1,-0l-0,-3l14,-0l-0,1l2,-0l-0,1l1,-0l-0,6l-1,-0l-0,1l-1,-0l-0,1l-1,-0l-0,1l1,-0l-0,1l1,-0l-0,1l1,-0l-0,2l1,-0l-0,6l-1,-0l-0,1l-2,-0l-0,1Zm-3,-5l-7,-0l-0,-1l1,-0l-0,-1l5,-0l-0,1l1,-0l-0,1Zm-13,6l16,-0l-0,-1l3,-0l-0,1l-1,-0l-0,1l-2,-0l-0,1l-16,-0l-0,-1l-1,-0l-0,-1l-1,-0l-0,-1l2,-0l-0,1Zm76,-23l1,-0l-0,1l1,-0l-0,1l1,-0l-0,1l1,-0l-0,2l1,-0l-0,1l1,-0l-0,1l1,-0l-0,-1l1,-0l-0,-7l4,-0l-0,23l-4,-0l-0,-7l-1,-0l-0,-1l-1,-0l-0,-1l-1,-0l-0,-2l-1,-0l-0,-1l-1,-0l-0,-1l-1,-0l-0,-1l-1,-0l-0,-1l-1,-0l-0,1l-1,-0l-0,14l-4,-0l-0,-23l5,-0l-0,1Zm6,14l-0,1l1,-0l-0,3l-2,-0l-0,-4l1,-0Zm-30,-3l1,-0l-0,1l-1,-0l-0,10l-4,-0l-0,-16l4,-0l-0,5Zm-8,7l-2,-0l-0,-4l2,-0l-0,4Zm3,-0l-2,-0l-0,-4l2,-0l-0,4Zm-47,-0l-2,-0l-0,-3l2,-0l-0,3Zm69,-2l1,-0l-0,2l-2,-0l-0,-3l1,-0l-0,1Zm8,-0l-0,-1l1,-0l-0,3l-2,-0l-0,-2l1,-0Zm13,-0l1,-0l-0,2l-2,-0l-0,-3l1,-0l-0,1Zm-61,6l-0,1l13,-0l-0,-1l2,-0l-0,1l-1,-0l-0,1l-1,-0l-0,1l-13,-0l-0,-1l-2,-0l-0,-1l-2,-0l-0,-1l4,-0Zm-5,-5l-0,-9l1,-0l-0,-4l1,-0l-0,-2l1,-0l-0,-2l1,-0l-0,-1l5,-0l-0,1l-1,-0l-0,2l-1,-0l-0,2l-1,-0l-0,3l-1,-0l-0,9l1,-0l-0,1l1,-0l-0,1l2,-0l-0,1l3,-0l-0,-1l1,-0l-0,-19l4,-0l-0,23l-12,-0l-0,-1l-2,-0l-0,-1l-1,-0l-0,-1l-1,-0l-0,-2l-1,-0Zm12,1l-3,-0l-0,-1l-2,-0l-0,-1l-1,-0l-0,-2l2,-0l-0,1l1,-0l-0,1l1,-0l-0,-2l2,-0l-0,4Zm-14,-3l-0,-1l1,-0l-0,3l1,-0l-0,1l-4,-0l-0,-3l2,-0Zm25,8l6,-0l-0,-1l2,-0l-0,1l-1,-0l-0,1l-1,-0l-0,1l-6,-0l-0,-1l-1,-0l-0,-1l-1,-0l-0,-1l2,-0l-0,1Zm1,-23l-0,-1l14,-0l-0,1l2,-0l-0,2l1,-0l-0,6l-1,-0l-0,2l-1,-0l-0,1l-2,-0l-0,1l-1,-0l-0,2l1,-0l-0,1l1,-0l-0,2l1,-0l-0,1l1,-0l-0,2l1,-0l-0,1l1,-0l-0,1l1,-0l-0,1l-1,-0l-0,1l-1,-0l-0,1l-1,-0l-0,1l-1,-0l-0,-1l-1,-0l-0,-1l-1,-0l-0,-1l-1,-0l-0,-2l-1,-0l-0,-1l-1,-0l-0,-2l-1,-0l-0,-2l-1,-0l-0,-2l-1,-0l-0,-3l1,-0l-0,-1l1,-0l-0,-1l1,-0l-0,-1l1,-0l-0,-1l1,-0l-0,-2l-1,-0l-0,-1l-1,-0l-0,-1l-11,-0l-0,-3l1,-0Zm7,14l-0,2l1,-0l-0,2l-3,-0l-0,-4l2,-0Zm5,9l-0,1l1,-0l-0,1l1,-0l-0,1l1,-0l-0,1l1,-0l-0,-1l1,-0l-0,-1l1,-0l-0,-1l1,-0l-0,-1l1,-0l-0,-1l2,-0l-0,1l6,-0l-0,-1l2,-0l-0,1l-1,-0l-0,1l-1,-0l-0,1l-6,-0l-0,-1l-2,-0l-0,1l-1,-0l-0,1l-1,-0l-0,1l-1,-0l-0,1l-2,-0l-0,1l-1,-0l-0,-1l-1,-0l-0,-1l-1,-0l-0,-2l-1,-0l-0,-1l-1,-0l-0,-1l-1,-0l-0,-1l2,-0l-0,1l1,-0Zm4,-5l-0,-1l-1,-0l-0,-2l-1,-0l-0,-1l2,-0l-0,1l1,-0l-0,2l1,-0l-0,1l-2,-0Zm19,5l6,-0l-0,-1l2,-0l-0,1l-1,-0l-0,1l-1,-0l-0,1l-6,-0l-0,-1l-1,-0l-0,-1l-1,-0l-0,-1l2,-0l-0,1Z" style="fill:#fff;"/>
            <path d="M124,22l-1,-0l-0,-8l1,-0l-0,8Zm6,-1l1,-0l-0,1l-1,-0l-0,-1Zm-0,-0l-1,-0l-0,-7l1,-0l-0,7Zm7,1l-1,-0l-0,-8l1,-0l-0,8Zm5,-0l-1,-0l-0,-8l1,-0l-0,8Zm6,-0l-1,-0l-0,-8l1,-0l-0,8Zm5,-5l-0,5l-1,-0l-0,-5l1,-0Zm3,4l1,-0l-0,1l-1,-0l-0,-1Zm-1,-2l1,-0l-0,2l-1,-0l-0,-2Zm1,-4l-0,-1l1,-0l-0,1l-1,-0Zm-1,1l-0,-1l1,-0l-0,1l-1,-0Zm-2,-0l2,-0l-0,3l-1,-0l-0,-2l-1,-0l-0,-1Zm-0,-0l-1,-0l-0,-2l1,-0l-0,2Zm9,4l1,-0l-0,2l-1,-0l-0,-2Zm-1,-1l1,-0l-0,1l-1,-0l-0,-1Zm0,-2l-0,2l-1,-0l-0,-2l1,-0Zm3,-2l-0,-1l1,-0l-0,1l-1,-0Zm-1,1l-0,-1l1,-0l-0,1l-1,-0Zm-2,1l-0,-1l2,-0l-0,1l-2,-0Zm-60,6l-1,-0l-0,-8l1,-0l-0,8Zm8,-7l-2,-0l-0,-1l2,-0l-0,1Zm1,1l-1,-0l-0,-1l1,-0l-0,1Zm2,1l-2,-0l-0,-1l2,-0l-0,1Zm1,2l-1,-0l-0,-2l1,-0l-0,2Zm-0,2l-0,-2l1,-0l-0,2l-1,-0Zm-7,-0l7,-0l-0,1l-7,-0l-0,-1Zm-0,-0l-1,-0l-0,-7l1,-0l-0,7Zm11,-6l-1,-0l-0,-1l1,-0l-0,1Zm2,3l1,-0l-0,4l-1,-0l-0,-4Zm-1,-2l1,-0l-0,2l-1,-0l-0,-2Zm-1,-1l1,-0l-0,1l-1,-0l-0,-1Zm54,7l-1,-0l-0,-8l1,-0l-0,8Zm5,-0l-1,-0l-0,-8l1,-0l-0,8Zm4,-7l-1,-0l-0,-1l1,-0l-0,1Zm3,4l1,-0l-0,3l-1,-0l-0,-3Zm-1,-1l1,-0l-0,1l-1,-0l-0,-1Zm-1,-1l1,-0l-0,1l-1,-0l-0,-1Zm-1,-2l1,-0l-0,2l-1,-0l-0,-2Zm9,7l-1,-0l-0,-8l1,-0l-0,8Z" style="fill:#88acd1;"/>
            <path d="M131,18l-0,-1l1,-0l-0,2l-2,-0l-0,-1l1,-0Zm4,-0l1,-0l-0,1l-2,-0l-0,-2l1,-0l-0,1Zm8,-0l-0,-1l1,-0l-0,2l-2,-0l-0,-1l1,-0Zm3,-0l1,-0l-0,1l-2,-0l-0,-2l1,-0l-0,1Zm8,1l-1,-0l-0,-2l1,-0l-0,2Zm9,-0l-2,-0l-0,-2l2,-0l-0,2Zm-64,-0l-0,-1l1,-0l-0,2l-2,-0l-0,-1l1,-0Zm13,1l1,-0l-0,1l-1,-0l-0,-1Zm-5,-1l-0,-1l2,-0l-0,1l1,-0l-0,-1l2,-0l-0,2l-5,-0l-0,1l-1,-0l-0,-2l1,-0Zm15,-0l-0,1l-2,-0l-0,-2l3,-0l-0,1l-1,-0Zm47,-0l1,-0l-0,2l-1,-0l-0,-1l-1,-0l-0,-2l1,-0l-0,1Zm8,-0l-0,-1l1,-0l-0,2l-1,-0l-0,1l-1,-0l-0,-2l1,-0Zm4,1l-1,-0l-0,-2l1,-0l-0,2Zm9,-1l1,-0l-0,2l-1,-0l-0,-1l-1,-0l-0,-2l1,-0l-0,1Z" style="fill:#bef8fc;"/>
            <path d="M125,24l-1,-0l-0,-2l1,-0l-0,2Zm-0,-0l1,-0l-0,1l1,-0l-0,1l-2,-0l-0,-2Zm2,2l2,-0l-0,1l-2,-0l-0,-1Zm9,-3l-0,-1l1,-0l-0,1l-1,-0Zm-3,-0l-2,-0l-0,-1l2,-0l-0,1Zm-0,-0l3,-0l-0,1l-3,-0l-0,-1Zm9,4l-1,-0l-0,-5l1,-0l-0,5Zm6,-0l-1,-0l-0,-5l1,-0l-0,5Zm5,-0l-1,-0l-0,-5l1,-0l-0,5Zm5,-2l1,-0l-0,1l-1,-0l-0,-1Zm2,3l1,-0l-0,1l-1,-0l-0,-1Zm-1,-2l1,-0l-0,2l-1,-0l-0,-2Zm-2,-3l-1,-0l-0,-1l1,-0l-0,1Zm4,6l1,-0l-0,1l-1,-0l-0,-1Zm1,1l1,-0l-0,1l-1,-0l-0,-1Zm-5,-7l1,-0l-0,2l-1,-0l-0,-2Zm7,-0l-1,-0l-0,-1l1,-0l-0,1Zm1,7l-0,1l-1,-0l-0,-1l1,-0Zm1,-1l-0,1l-1,-0l-0,-1l1,-0Zm1,-1l-0,1l-1,-0l-0,-1l1,-0Zm-0,-1l1,-0l-0,1l-1,-0l-0,-1Zm-1,-1l1,-0l-0,1l-1,-0l-0,-1Zm-1,-1l1,-0l-0,1l-1,-0l-0,-1Zm-1,-2l1,-0l-0,2l-1,-0l-0,-2Zm-63,4l-1,-0l-0,-4l1,-0l-0,4Zm17,-1l-0,1l-2,-0l-0,-1l2,-0Zm1,-1l-0,-2l1,-0l-0,2l-1,-0Zm-1,1l-0,-1l1,-0l-0,1l-1,-0Zm53,1l-1,-0l-0,-4l1,-0l-0,4Zm5,-0l-1,-0l-0,-4l1,-0l-0,4Zm8,-0l-1,-0l-0,-4l1,-0l-0,4Zm5,-0l-1,-0l-0,-4l1,-0l-0,4Z" style="fill:#55a1b9;"/>
            <path d="M100,28l-0,-1l16,-0l-0,1l-16,-0Zm29,-0l-0,-1l13,-0l-0,1l-13,-0Zm18,-0l-0,-1l6,-0l-0,1l-6,-0Zm23,-0l-0,-1l6,-0l-0,1l-6,-0Zm13,-0l-0,-1l6,-0l-0,1l-6,-0Zm-20,4l-0,-1l1,-0l-0,1l-1,-0Z" style="fill:#31bce8;"/>
            <path d="M96,25l-0,-2l-0,2Zm1,-18l-0,2l-1,-0l-0,-2l1,-0Zm-0,2l1,-0l-0,19l-1,-0l-0,-19Zm1,19l1,-0l-0,1l-1,-0l-0,-1Zm1,1l1,-0l-0,1l-1,-0l-0,-1Zm1,1l16,-0l-0,1l-16,-0l-0,-1Zm16,-0l-0,-1l2,-0l-0,1l-2,-0Zm2,-1l-0,-1l1,-0l-0,1l-1,-0Zm1,-1l-0,-1l1,-0l-0,-1l1,-0l-0,-1l1,-0l-0,-1l1,-0l-0,2l1,-0l-0,1l-3,-0l-0,1l-2,-0Zm5,-1l1,-0l-0,1l-1,-0l-0,-1Zm1,1l2,-0l-0,1l-2,-0l-0,-1Zm2,1l2,-0l-0,1l-2,-0l-0,-1Zm2,1l13,-0l-0,1l-13,-0l-0,-1Zm13,-0l-0,-1l1,-0l-0,-1l1,-0l-0,-16l1,-0l-0,16l1,-0l-0,1l1,-0l-0,1l-2,-0l-0,-1l-1,-0l-0,1l-2,-0Zm5,-0l6,-0l-0,1l-6,-0l-0,-1Zm6,-0l-0,-1l1,-0l-0,1l-1,-0Zm1,-1l-0,-1l1,-0l-0,1l-1,-0Zm1,-1l-0,-3l1,-0l-0,1l1,-0l-0,2l-2,-0Zm2,-0l1,-0l-0,1l-1,-0l-0,-1Zm1,1l1,-0l-0,1l-1,-0l-0,-1Zm1,1l1,-0l-0,2l-1,-0l-0,-2Zm1,2l1,-0l-0,1l-1,-0l-0,-1Zm1,1l1,-0l-0,1l-1,-0l-0,-1Zm1,1l1,-0l-0,1l-1,-0l-0,-1Zm1,-0l-0,-1l2,-0l-0,1l-2,-0Zm2,-1l-0,-1l1,-0l-0,1l-1,-0Zm1,-1l-0,-1l1,-0l-0,1l-1,-0Zm1,-1l-0,-1l1,-0l-0,1l-1,-0Zm1,-1l-0,-1l2,-0l-0,1l6,-0l-0,1l-7,-0l-0,-1l-1,-0Zm8,-0l-0,-1l1,-0l-0,1l-1,-0Zm1,-1l-0,-1l1,-0l-0,1l-1,-0Zm1,-1l-0,-10l1,-0l-0,1l1,-0l-0,1l1,-0l-0,8l-1,-0l-0,-7l-1,-0l-0,7l-1,-0Zm3,-0l1,-0l-0,1l-1,-0l-0,-1Zm1,1l1,-0l-0,1l-1,-0l-0,-1Zm1,1l6,-0l-0,1l-6,-0l-0,-1Zm6,-0l-0,-1l1,-0l-0,1l-1,-0Zm1,-1l-0,-1l1,-0l-0,1l-1,-0Zm1,-1l-0,-25l1,-0l-0,25l-1,-0Zm-0,-25l-1,-0l-0,-1l1,-0l-0,1Zm-1,-1l-1,-0l-0,-1l1,0l-0,1Zm-1,-1l-6,0l-0,-1l6,0l-0,1Zm-6,0l-0,1l-1,-0l-0,-1l1,0Zm-1,1l-0,1l-1,-0l-0,-1l1,-0Zm-1,1l-0,2l-2,-0l-0,-1l1,-0l-0,-1l1,-0Zm-2,1l-1,-0l-0,-1l1,-0l-0,1Zm-1,-1l-1,-0l-0,-1l1,-0l-0,1Zm-1,-1l-1,-0l-0,-1l1,0l-0,1Zm-1,-1l-6,0l-0,-1l6,0l-0,1Zm-6,0l-0,1l-1,-0l-0,-1l1,0Zm-1,1l-0,1l-1,-0l-0,-1l1,-0Zm-1,1l-0,5l-1,-0l-0,-3l-1,-0l-0,-1l1,-0l-0,-1l1,-0Zm-2,1l-1,-0l-0,-1l1,-0l-0,1Zm-1,-1l-1,-0l-0,-1l1,-0l-0,1Zm-1,-1l-2,-0l-0,-1l2,0l-0,1Zm-2,-1l-15,0l-0,-1l15,0l-0,1Zm-15,0l-0,1l-1,-0l-0,-1l1,0Zm-1,1l-0,1l-1,-0l-0,-1l1,-0Zm-1,1l-0,1l-1,-0l-0,-1l1,-0Zm-1,-0l-1,-0l-0,-1l1,-0l-0,1Zm-1,-1l-1,-0l-0,-1l1,0l-0,1Zm-1,-1l-6,0l-0,-1l6,0l-0,1Zm-6,0l-0,1l-2,-0l-0,-1l2,0Zm-2,0l-7,0l-0,-1l7,0l-0,1Zm-7,0l-0,1l-1,-0l-0,-1l1,0Zm-1,1l-0,1l-1,-0l-0,-1l1,-0Zm-1,1l-0,2l-1,-0l-0,-2l1,-0Zm-1,2l-0,2l-1,-0l-0,-2l1,-0Zm-1,2l-0,1l-1,-0l-0,6l-1,-0l-0,3l-1,-0l-0,-2l-2,-0l-0,-1l1,-0l-0,-1l2,-0l-0,-7l1,-0l-0,1l1,-0Zm-2,-1l-1,-0l-0,-1l1,-0l-0,1Zm-1,-1l-1,-0l-0,-1l1,-0l-0,1Zm-1,-1l-1,-0l-0,-1l1,-0l-0,1Zm-1,-1l-1,-0l-0,-1l1,-0l-0,1Zm-1,-1l-2,-0l-0,-1l2,0l-0,1Zm-2,-1l-15,0l-0,-1l15,0l-0,1Zm-15,0l-0,1l-1,-0l-0,-1l1,0Zm-1,1l-0,1l-1,-0l-0,-1l1,-0Zm-1,1l-0,4l-1,-0l-0,-4l1,-0Zm57,10l-0,-1l1,-0l-0,1l-1,-0Zm-22,-2l-0,-2l1,-0l-0,12l-1,-0l-0,-1l-1,-0l-0,-9l1,-0Zm31,7l-0,-1l1,-0l-0,-1l1,-0l-0,-1l1,-0l-0,-1l1,-0l-0,11l-1,-0l-0,-2l-1,-0l-0,-1l1,-0l-0,-5l-1,-0l-0,1l-1,-0l-0,2l-1,-0l-0,-1l-1,-0l-0,-1l1,-0Zm1,2l1,-0l-0,2l-1,-0l-0,-2Z"/>
            <path d="M98,24l-0,-1l2,-0l-0,1l-2,-0Zm22,-0l-0,-1l4,-0l-0,1l-4,-0Zm22,-0l-0,-1l2,-0l-0,1l-2,-0Zm3,-0l-0,-1l2,-0l-0,1l-2,-0Zm8,-0l-0,-1l4,-0l-0,1l-4,-0Zm12,-0l-0,-1l2,-0l-0,1l-2,-0Zm3,-0l-0,-1l2,-0l-0,1l-2,-0Zm8,-0l-0,-1l2,-0l-0,1l-2,-0Zm5,-0l-0,-1l2,-0l-0,1l-2,-0Zm8,-0l-0,-1l2,-0l-0,1l-2,-0Zm-91,3l-0,-1l2,-0l-0,1l-2,-0Zm20,-0l-0,-1l2,-0l-0,1l-2,-0Zm6,-0l-0,-1l3,-0l-0,1l-3,-0Zm18,-0l-0,-1l2,-0l-0,1l-2,-0Zm3,-0l-0,-1l2,-0l-0,1l-2,-0Zm8,-0l-0,-1l2,-0l-0,1l-2,-0Zm4,-0l-0,-1l2,-0l-0,1l-2,-0Zm10,-0l-0,-1l3,-0l-0,1l-3,-0Zm9,-0l-0,-1l2,-0l-0,1l-2,-0Zm5,-0l-0,-1l2,-0l-0,1l-2,-0Zm8,-0l-0,-1l2,-0l-0,1l-2,-0Z" style="fill:#f1f1f1;"/>
            <path d="M100,26l-2,-0l-0,-2l2,-0l-0,2Zm20,-1l-0,-1l2,-0l-0,1l-1,-0l-0,1l-2,-0l-0,-1l1,-0Zm5,1l-2,-0l-0,-2l2,-0l-0,2Zm19,-0l-2,-0l-0,-2l2,-0l-0,2Zm3,-0l-2,-0l-0,-2l2,-0l-0,2Zm10,-1l1,-0l-0,1l-2,-0l-0,-1l-1,-0l-0,1l-2,-0l-0,-2l4,-0l-0,1Zm10,-0l1,-0l-0,-1l2,-0l-0,2l-4,-0l-0,-1l-1,-0l-0,-1l2,-0l-0,1Zm11,1l-2,-0l-0,-2l2,-0l-0,2Zm5,-0l-2,-0l-0,-2l2,-0l-0,2Zm8,-0l-2,-0l-0,-2l2,-0l-0,2Z" style="fill:#e3e3e3;"/>
        </g>
        <g id="Alpha">
            <path d="M218,1l1,-0l0,1l-1,-0l0,-1Zm1,1l1,-0l0,1l-1,-0l0,-1Zm5,5l0,-2l1,-0l0,2l-1,-0Zm-2,-2l1,-0l0,2l1,-0l-0,2l-1,-0l-0,-1l-1,-0l0,-3Zm-2,-2l1,-0l0,1l-1,-0l0,-1Zm1,1l1,-0l0,1l-1,-0l0,-1Zm4,1l0,-2l1,-0l0,2l-1,-0Zm1,-2l0,-1l1,-0l0,1l-1,-0Zm1,-1l0,-1l7,-0l0,1l-7,-0Zm-18,-1l0,1l-2,-0l0,-1l2,-0Zm0,-0l0,-1l9,0l0,1l-9,-0Zm9,15l0,-9l1,-0l-0,9l-1,-0Zm-2,2l0,-1l1,-0l0,1l-1,-0Zm-1,1l-0,-1l1,-0l-0,1l-1,-0Zm3,-12l-1,-0l0,-2l1,-0l0,2Zm-1,10l-0,-1l1,-0l-0,1l-1,-0Zm-5,5l-0,-1l1,-0l-0,1l-1,-0Zm1,-1l-0,-1l1,-0l-0,1l-1,-0Zm1,-1l0,-1l1,-0l0,1l-1,-0Zm-3,3l-0,-1l1,-0l-0,1l-1,-0Zm-8,2l-1,-0l0,-1l1,-0l0,1Zm12,-21l-4,-0l0,-1l4,-0l0,1Zm2,1l-2,-0l0,-1l2,-0l0,1Zm-14,20l5,-0l0,1l-5,-0l0,-1Zm5,-0l0,-1l2,-0l0,1l-2,-0Zm2,-1l-0,-1l1,-0l-0,1l-1,-0Zm23,-20l0,-1l1,-0l0,1l-1,-0Zm-1,2l0,-2l1,-0l0,2l-1,-0Zm-1,1l0,-1l1,-0l0,1l-1,-0Zm-1,2l0,-2l1,-0l-0,2l-1,-0Zm-1,1l-0,-1l1,-0l-0,1l-1,-0Zm-1,2l-0,-2l1,-0l-0,2l-1,-0Zm-1,1l-0,-1l1,-0l-0,1l-1,-0Zm-1,1l-0,-1l1,-0l-0,1l-1,-0Zm-0,2l-1,-0l-0,-2l1,-0l-0,2Zm1,2l-1,-0l-0,-2l1,-0l-0,2Zm1,2l-1,-0l-0,-2l1,-0l-0,2Zm1,3l-1,-0l-0,-3l1,-0l-0,3Zm1,1l-1,-0l-0,-1l1,-0l-0,1Zm2,1l-2,-0l-0,-1l2,-0l-0,1Zm0,1l-0,-1l1,-0l-0,1l-1,-0Zm-8,-3l1,-0l-0,1l1,-0l0,1l1,-0l-0,1l1,-0l0,1l3,-0l0,-1l1,-0l0,2l-5,-0l0,-1l-1,-0l0,-1l-1,-0l-0,-1l-1,-0l0,-1l-1,-0l-0,-2l1,-0l-0,1Zm-27,-9l-0,2l-1,-0l-0,-2l1,-0Zm1,-2l-0,-2l1,-0l-0,2l-1,-0Zm-1,2l-0,-2l1,-0l-0,2l-1,-0Zm13,14l0,-1l2,-0l0,-1l1,-0l0,-1l2,-0l0,-1l2,-0l0,-1l2,-0l-0,-1l2,-0l-0,1l-1,-0l0,1l-2,-0l0,1l-2,-0l0,1l-2,-0l0,1l-1,-0l0,1l-3,-0Zm-7,-0l7,-0l0,1l-7,-0l0,-1Zm-2,-1l2,-0l0,1l-2,-0l0,-1Zm-2,-1l2,-0l0,1l-2,-0l-0,-1Zm-1,-1l1,-0l-0,1l-1,-0l-0,-1Zm-1,-2l1,-0l-0,2l-1,-0l-0,-2Zm-0,-0l-1,-0l-0,-2l1,-0l-0,2Z" style="fill:#fed210;"/>
            <path d="M218,1l1,-0l0,1l-1,-0l0,-1Zm1,1l1,-0l0,1l-1,-0l0,-1Zm5,5l0,-2l1,-0l0,2l-1,-0Zm-2,-2l1,-0l0,2l1,-0l-0,2l-1,-0l-0,-1l-1,-0l0,-3Zm-2,-2l1,-0l0,1l-1,-0l0,-1Zm1,1l1,-0l0,1l-1,-0l0,-1Zm4,1l0,-2l1,-0l0,2l-1,-0Zm1,-2l0,-1l1,-0l0,1l-1,-0Zm1,-1l0,-1l7,-0l0,1l-7,-0Zm-18,-1l0,1l-2,-0l0,-1l2,-0Zm0,-0l0,-1l9,0l0,1l-9,-0Zm9,15l0,-9l1,-0l-0,9l-1,-0Zm-2,2l0,-1l1,-0l0,1l-1,-0Zm-1,1l-0,-1l1,-0l-0,1l-1,-0Zm3,-12l-1,-0l0,-2l1,-0l0,2Zm-1,10l-0,-1l1,-0l-0,1l-1,-0Zm-5,5l-0,-1l1,-0l-0,1l-1,-0Zm1,-1l-0,-1l1,-0l-0,1l-1,-0Zm1,-1l0,-1l1,-0l0,1l-1,-0Zm-3,3l-0,-1l1,-0l-0,1l-1,-0Zm-8,2l-1,-0l0,-1l1,-0l0,1Zm12,-21l-4,-0l0,-1l4,-0l0,1Zm2,1l-2,-0l0,-1l2,-0l0,1Zm-14,20l5,-0l0,1l-5,-0l0,-1Zm5,-0l0,-1l2,-0l0,1l-2,-0Zm2,-1l-0,-1l1,-0l-0,1l-1,-0Zm23,-20l0,-1l1,-0l0,1l-1,-0Zm-1,2l0,-2l1,-0l0,2l-1,-0Zm-1,1l0,-1l1,-0l0,1l-1,-0Zm-1,2l0,-2l1,-0l-0,2l-1,-0Zm-1,1l-0,-1l1,-0l-0,1l-1,-0Zm-1,2l-0,-2l1,-0l-0,2l-1,-0Zm-1,1l-0,-1l1,-0l-0,1l-1,-0Zm-1,1l-0,-1l1,-0l-0,1l-1,-0Zm-0,2l-1,-0l-0,-2l1,-0l-0,2Zm1,2l-1,-0l-0,-2l1,-0l-0,2Zm1,2l-1,-0l-0,-2l1,-0l-0,2Zm1,3l-1,-0l-0,-3l1,-0l-0,3Zm1,1l-1,-0l-0,-1l1,-0l-0,1Zm2,1l-2,-0l-0,-1l2,-0l-0,1Zm0,1l-0,-1l1,-0l-0,1l-1,-0Zm-8,-3l1,-0l-0,1l1,-0l0,1l1,-0l-0,1l1,-0l0,1l3,-0l0,-1l1,-0l0,2l-5,-0l0,-1l-1,-0l0,-1l-1,-0l-0,-1l-1,-0l0,-1l-1,-0l-0,-2l1,-0l-0,1Zm-27,-9l-0,2l-1,-0l-0,-2l1,-0Zm1,-2l-0,-2l1,-0l-0,2l-1,-0Zm-1,2l-0,-2l1,-0l-0,2l-1,-0Zm13,14l0,-1l2,-0l0,-1l1,-0l0,-1l2,-0l0,-1l2,-0l0,-1l2,-0l-0,-1l2,-0l-0,1l-1,-0l0,1l-2,-0l0,1l-2,-0l0,1l-2,-0l0,1l-1,-0l0,1l-3,-0Zm-7,-0l7,-0l0,1l-7,-0l0,-1Zm-2,-1l2,-0l0,1l-2,-0l0,-1Zm-2,-1l2,-0l0,1l-2,-0l-0,-1Zm-1,-1l1,-0l-0,1l-1,-0l-0,-1Zm-1,-2l1,-0l-0,2l-1,-0l-0,-2Zm-0,-0l-1,-0l-0,-2l1,-0l-0,2Z" style="fill:#fed210;"/>
            <rect x="234" y="2" width="1" height="1" style="fill:#fff;"/>
            <path d="M209,2l0,-1l9,-0l0,1l1,-0l0,1l1,-0l0,1l1,-0l0,1l1,-0l0,3l1,-0l0,1l1,-0l0,-2l2,-0l0,-1l1,-0l0,-1l3,-0l0,1l-1,-0l0,1l-1,-0l0,1l-1,-0l0,1l-1,-0l0,1l-1,-0l0,1l-3,-0l0,-1l-1,-0l0,-2l-1,-0l0,-2l-1,-0l0,-1l-1,-0l0,-1l-1,-0l0,-1l-1,-0l0,-1l-7,-0Zm0,-0l0,1l-2,-0l0,-1l2,-0Z" style="fill:#ffffd6;"/>
            <path d="M205,3l0,-1l2,-0l0,1l-2,-0Zm9,24l0,-1l2,-0l0,1l-2,-0Zm-1,1l-0,-1l1,-0l-0,1l-1,-0Zm-17,-14l-0,-2l1,-0l-0,2l-1,-0Zm4,-6l0,-1l1,-0l0,1l-1,-0Zm3,-3l0,-1l1,-0l0,1l-1,-0Zm19,19l1,-0l-0,2l-1,-0l0,-2Zm-25,-12l-0,-2l1,-0l-0,2l-1,-0Zm19,14l-0,-1l2,-0l-0,1l-2,-0Zm2,-1l0,-1l2,-0l0,1l-2,-0Zm-20,-15l-0,-1l1,-0l-0,1l-1,-0Zm6,-6l0,-1l1,-0l0,1l-1,-0Zm-2,2l0,-1l1,-0l0,1l-1,-0Zm-1,22l2,-0l0,1l-2,-0l0,-1Zm-2,-19l-0,-1l1,-0l-0,1l-1,-0Zm4,20l7,-0l0,1l-7,-0l0,-1Zm-2,-22l0,-1l1,-0l0,1l-1,-0Zm19,17l-0,-1l1,-0l-0,-1l1,-0l0,2l-2,-0Zm4,3l1,-0l-0,1l-1,-0l-0,-1Zm1,1l1,-0l0,1l-1,-0l-0,-1Zm-2,-2l1,-0l-0,1l-1,-0l-0,-1Zm3,3l6,-0l0,1l-6,-0l0,-1Zm6,-0l0,-1l1,-0l0,1l-1,-0Zm-36,-15l-0,9l-1,-0l-0,-9l1,-0Zm1,11l1,-0l-0,1l-1,-0l-0,-1Zm-1,-2l1,-0l-0,2l-1,-0l-0,-2Zm14,6l0,-1l3,-0l0,1l-3,-0Zm-12,-3l1,-0l0,1l-1,-0l-0,-1Zm1,1l2,-0l0,1l-2,-0l0,-1Zm34,1l0,-2l1,-0l-0,2l-1,-0Z" style="fill:#d19b1b;"/>
            <path d="M228,9l0,-1l1,-0l0,-1l1,-0l0,2l-1,-0l0,1l-2,-0l0,-1l1,-0Zm2,-2l0,-1l1,-0l0,1l-1,-0Zm1,-1l0,-1l1,-0l0,1l-1,-0Zm-30,11l-0,-3l1,-0l-0,3l-1,-0Zm0,-0l-0,7l-1,-0l0,-7l1,-0Zm17,-12l1,-0l0,1l1,-0l0,2l1,-0l0,2l1,-0l0,1l3,-0l-0,-1l1,-0l-0,1l2,-0l0,1l-1,-0l0,1l-2,-0l0,3l1,-0l0,2l-1,-0l0,-1l-1,-0l-0,-1l-1,-0l0,-1l-1,-0l0,1l-2,-0l-0,1l-1,-0l0,1l-1,-0l-0,1l-1,-0l0,-2l1,-0l-0,-1l1,-0l0,-9l-1,-0l0,-2Zm-11,1l0,-1l1,-0l0,1l-1,-0Zm1,-1l0,-1l1,-0l0,1l-1,-0Zm9,-1l1,-0l0,1l-1,-0l0,-1Zm-14,8l-0,-2l1,-0l-0,2l-1,-0Zm-1,2l-0,-2l1,-0l-0,2l-1,-0Zm4,-7l0,-1l1,-0l0,1l-1,-0Zm3,-3l0,-2l7,-0l0,1l1,-0l0,1l-2,-0l0,-1l-4,-0l0,1l-2,-0Zm-5,6l-0,-2l1,-0l-0,2l-1,-0Zm1,-2l0,-1l1,-0l0,1l-1,-0Z" style="fill:#ffffa5;"/>
            <path d="M226,5l0,-2l1,-0l0,-1l6,-0l0,1l-1,-0l0,1l-1,-0l0,1l-4,-0l0,1l-1,-0l0,1l-1,-0l0,-2l1,-0Z" style="fill:#ffffe7;"/>
            <path d="M227,9l-0,-1l1,-0l-0,1l-1,-0Zm1,-1l0,-1l1,-0l0,1l-1,-0Zm4,-4l0,-1l1,-0l0,1l-1,-0Zm-1,1l0,-1l1,-0l0,1l-1,-0Zm-2,2l0,-1l1,-0l0,1l-1,-0Zm1,-1l0,-1l1,-0l0,1l-1,-0Zm3,-3l0,-1l1,-0l0,1l-1,-0Zm-6,6l-0,1l1,-0l0,1l-2,-0l-0,-2l1,-0Zm-26,5l-0,-1l1,-0l-0,1l-1,-0Zm-2,3l0,-2l1,-0l-0,-1l1,-0l-0,3l-1,-0l-0,5l-1,-0l-0,-2l-1,-0l0,-3l1,-0Z" style="fill:#ffffb5;"/>
            <path d="M207,5l0,-1l-2,-0l0,-1l4,-0l0,1l-1,-0l0,1l-1,-0Zm-3,3l0,-1l1,-0l0,1l-1,-0Zm2,-2l0,-1l1,-0l0,1l-1,-0Zm-1,1l0,-1l1,-0l0,1l-1,-0Zm-1,1l-0,2l-1,-0l-0,-2l1,-0Zm-4,6l-0,1l-1,-0l-0,-1l1,-0Zm1,-1l-0,-1l1,-0l-0,1l-1,-0Zm1,-1l-0,-1l1,-0l-0,1l-1,-0Zm-2,2l-0,-1l1,-0l-0,1l-1,-0Zm28,9l1,-0l-0,1l-1,-0l-0,-1Zm-9,-5l0,-1l1,-0l0,-1l2,-0l-0,-1l1,-0l-0,1l1,-0l0,1l1,-0l0,1l2,-0l0,2l1,-0l-0,3l-1,-0l-0,-1l-1,-0l-0,-1l-1,-0l0,-1l-1,-0l0,-1l-1,-0l0,-1l-2,-0l0,1l-3,-0l0,-1l1,-0Zm-6,4l-0,-1l1,-0l-0,1l-1,-0Zm1,-1l-0,-1l1,-0l-0,1l-1,-0Zm-2,2l-0,-1l1,-0l-0,1l-1,-0Zm4,-4l-0,-1l1,-0l-0,1l-1,-0Zm-1,1l0,-1l1,-0l0,1l-1,-0Zm-3,3l-0,1l-1,-0l-0,-1l1,-0Zm-14,-6l-0,-1l1,-0l-0,1l-1,-0Zm0,4l-0,-1l1,-0l-0,1l-1,-0Zm1,2l-0,-1l1,-0l-0,1l-1,-0Z" style="fill:#fffc83;"/>
            <path d="M199,13l0,-2l1,-0l0,-3l1,-0l0,-1l1,-0l0,-1l1,-0l0,-1l1,-0l0,-1l3,-0l0,1l-1,-0l0,1l-1,-0l0,1l-1,-0l0,1l-1,-0l0,3l-1,-0l0,1l-1,-0l0,1l-1,-0l0,1l-1,-0l-0,2l-1,-0l0,-3l1,-0Zm15,9l-0,1l-1,-0l-0,-1l1,-0Zm0,-0l-0,-1l1,-0l0,-1l1,-0l0,-1l4,-0l0,1l-2,-0l0,1l-2,-0l-0,1l-2,-0Zm-4,3l0,-1l1,-0l0,1l-1,-0Z" style="fill:#fcf66f;"/>
            <path d="M202,17l-0,7l-1,-0l0,-7l1,-0Zm6,-11l0,-1l1,-0l0,1l-1,-0Zm1,-1l0,-1l2,-0l0,1l-2,-0Zm-3,3l0,-1l1,-0l0,1l-1,-0Zm1,-1l0,-1l1,-0l0,1l-1,-0Zm-3,5l-0,-2l1,-0l-0,2l-1,-0Zm-1,2l-0,-2l1,-0l-0,2l-1,-0Zm2,-4l-0,-2l1,-0l-0,2l-1,-0Zm-3,7l-0,-3l1,-0l-0,3l-1,-0Zm-2,-6l-1,-0l-0,-2l1,-0l-0,2Zm-3,5l-0,5l-1,-0l-0,-5l1,-0Zm0,-0l-0,-2l1,-0l-0,2l-1,-0Zm-0,5l1,-0l-0,2l-1,-0l-0,-2Zm6,6l6,-0l0,-1l2,-0l-0,-1l1,-0l0,-1l2,-0l0,-1l2,-0l0,-1l2,-0l0,-1l2,-0l0,-1l1,-0l0,-1l2,-0l0,1l1,-0l0,2l-5,-0l0,1l-2,-0l0,1l-2,-0l0,1l-2,-0l-0,1l-1,-0l0,1l-2,-0l0,1l-7,-0l0,-1Zm-5,-4l1,-0l-0,1l1,-0l0,1l1,-0l0,1l-2,-0l-0,-1l-1,-0l-0,-2Zm3,3l2,-0l0,1l-2,-0l0,-1Zm25,-2l2,-0l0,1l1,-0l-0,1l1,-0l-0,-1l2,-0l-0,1l-1,-0l0,1l-3,-0l0,-1l-1,-0l-0,-1l-1,-0l-0,-1Zm-2,-2l2,-0l-0,2l-1,-0l-0,-1l-1,-0l0,-1Zm-26,-9l-0,-1l1,-0l-0,1l-1,-0Z" style="fill:#feda38;"/>
            <path d="M225,14l-0,-1l1,-0l-0,1l-1,-0Zm4,11l0,-1l1,-0l0,1l-1,-0Z" style="fill:#ffff98;"/>
            <path d="M216,22l-0,-1l2,-0l-0,1l-2,-0Zm-2,1l-0,-1l2,-0l-0,1l-2,-0Zm-2,1l-0,-1l2,-0l-0,1l-2,-0Zm-1,1l0,-1l1,-0l0,1l-1,-0Zm-13,-4l-1,-0l-0,-5l1,-0l-0,5Zm2,3l2,-0l0,1l1,-0l0,1l-2,-0l-0,-1l-1,-0l-0,-1Zm-1,-1l1,-0l-0,1l-1,-0l-0,-1Zm4,3l5,-0l0,-1l3,-0l0,1l-2,-0l0,1l-6,-0l0,-1Zm20,-7l1,-0l-0,1l-1,-0l0,-1Zm-2,-0l-0,-1l2,-0l0,1l-2,-0Zm-3,2l-0,-1l2,-0l-0,1l-2,-0Zm2,-1l0,-1l1,-0l0,1l-1,-0Zm6,2l1,-0l-0,1l1,-0l0,1l-2,-0l-0,-2Zm-2,-2l1,-0l-0,1l1,-0l-0,1l-2,-0l-0,-2Zm-26,1l1,-0l-0,2l-1,-0l-0,-2Zm31,4l1,-0l-0,1l-1,-0l-0,-1Zm-1,-1l1,-0l-0,1l-1,-0l0,-1Z" style="fill:#fff447;"/>
            <path d="M223,24l-1,-0l-0,-2l1,-0l-0,2Zm9,4l0,-2l1,-0l-0,2l-1,-0Zm-9,-4l1,-0l0,1l1,-0l-0,1l1,-0l0,1l1,-0l-0,1l5,-0l0,1l-6,-0l0,-1l-1,-0l-0,-1l-1,-0l0,-1l-1,-0l-0,-2Z" style="fill:#fdb815;"/>
        </g>
        <g id="FINAL">
            <path d="M2,3l-0,-1l1,-0l-0,-1l15,-0l-0,1l3,-0l-0,-1l6,-0l-0,1l1,-0l-0,1l2,-0l-0,-1l1,-0l-0,-1l6,-0l-0,1l1,-0l-0,1l1,-0l-0,1l-2,-0l-0,-1l-6,-0l-0,3l-1,-0l-0,-1l-2,-0l-0,1l-1,-0l-0,-3l-6,-0l-0,1l-2,-0l-0,1l-1,-0l-0,-2l-15,-0l-0,2l-1,-0l-0,1l-1,-0l-0,-3l1,-0Zm37,1l1,-0l-0,1l-1,-0l-0,-1Zm4,-1l-0,-1l1,-0l-0,-1l6,-0l-0,1l1,-0l-0,1l1,-0l-0,2l-1,-0l-0,-1l-1,-0l-0,-1l-6,-0l-0,1l-1,-0l-0,1l-1,-0l-0,-2l1,-0Zm16,2l-0,1l-1,-0l-0,-1l1,-0Zm-0,-0l-0,-1l1,-0l-0,-1l2,-0l-0,-1l3,-0l-0,-1l8,-0l-0,1l1,-0l-0,1l1,-0l-0,3l-1,-0l-0,-1l-1,-0l-0,-2l-8,-0l-0,1l-3,-0l-0,1l-3,-0Zm18,-2l-0,-1l1,-0l-0,-1l6,-0l-0,1l1,-0l-0,1l1,-0l-0,3l-1,-0l-0,1l-1,-0l-0,-4l-6,-0l-0,4l-1,-0l-0,-1l-1,-0l-0,-3l1,-0Zm-71,27l-0,1l-3,-0l-0,-1l3,-0Zm3,-2l-0,-1l1,-0l-0,1l-1,-0Zm-2,1l-0,-1l2,-0l-0,1l-2,-0Zm-1,1l-0,-1l1,-0l-0,1l-1,-0Zm56,-2l-0,-1l1,-0l-0,1l-1,-0Zm-1,1l-0,-1l1,-0l-0,1l-1,-0Zm-2,1l-0,-1l2,-0l-0,1l-2,-0Zm-1,-0l1,-0l-0,1l-2,-0l-0,-2l1,-0l-0,1Zm-37,-2l-0,-1l6,-0l-0,1l-6,-0Zm10,-0l-0,-1l6,-0l-0,1l-6,-0Zm13,-0l-0,-1l6,-0l-0,1l-6,-0Zm23,-0l-0,-1l6,-0l-0,1l-6,-0Zm11,-0l-0,-1l14,-0l-0,1l-14,-0Z" style="fill:#e85d31;"/>
            <path d="M18,8l-1,-0l-0,-4l-13,-0l-0,10l-1,-0l-0,-11l15,-0l-0,5Zm-9,4l9,-0l-0,2l-1,-0l-0,-1l-8,-0l-0,-1Zm9,-4l1,-0l-0,2l-10,-0l-0,-1l9,-0l-0,-1Zm-9,2l-0,2l-1,-0l-0,-2l1,-0Zm18,3l-1,-0l-0,-9l-4,-0l-0,9l-1,-0l-0,-10l6,-0l-0,10Zm10,-9l-5,-0l-0,9l-1,-0l-0,-10l6,-0l-0,1Zm7,7l-0,-8l6,-0l-0,10l-1,-0l-0,-9l-4,-0l-0,7l-1,-0Zm-1,-0l1,-0l-0,1l-1,-0l-0,-1Zm-1,-1l1,-0l-0,1l-1,-0l-0,-1Zm-1,-2l1,-0l-0,2l-1,-0l-0,-2Zm-1,-1l1,-0l-0,1l-1,-0l-0,-1Zm-1,-1l1,-0l-0,1l-1,-0l-0,-1Zm-1,-1l1,-0l-0,1l-1,-0l-0,-1Zm-1,-1l1,-0l-0,1l-1,-0l-0,-1Zm19,7l-0,3l-1,-0l-0,-3l1,-0Zm5,2l-0,1l-1,-0l-0,-1l1,-0Zm1,-1l-0,1l-1,-0l-0,-1l1,-0Zm1,-1l-0,1l-1,-0l-0,-1l1,-0Zm1,-1l-0,1l-1,-0l-0,-1l1,-0Zm3,-0l6,-0l-0,4l-1,-0l-0,-3l-4,-0l-0,3l-1,-0l-0,-4Zm0,-1l-0,1l-3,-0l-0,-1l3,-0Zm6,-4l1,-0l-0,4l-7,-0l-0,-1l6,-0l-0,-3Zm-8,-1l-0,-1l8,-0l-0,2l-1,-0l-0,-1l-7,-0Zm-3,1l-0,-1l3,-0l-0,1l-3,-0Zm-2,1l-0,-1l2,-0l-0,1l-2,-0Zm-1,1l-0,-1l1,-0l-0,1l-1,-0Zm-1,1l-0,-1l1,-0l-0,1l-1,-0Zm-1,1l-0,-1l1,-0l-0,1l-1,-0Zm-1,2l-0,-2l1,-0l-0,2l-1,-0Zm28,4l-1,-0l-0,-11l-4,-0l-0,11l-1,-0l-0,-12l6,-0l-0,12Z" style="fill:#df7c6c;"/>
            <path d="M19,5l-0,-1l2,-0l-0,4l-1,-0l-0,-1l-1,-0l-0,1l-1,-0l-0,-3l1,-0Zm20,-0l2,-0l-0,1l1,-0l-0,-1l1,-0l-0,-1l1,-0l-0,4l-1,-0l-0,-1l-1,-0l-0,1l-1,-0l-0,-1l-1,-0l-0,-1l-1,-0l-0,-1Zm-0,-0l-1,-0l-0,-1l1,-0l-0,1Zm12,-0l1,-0l-0,3l-1,-0l-0,-1l-1,-0l-0,-3l1,-0l-0,1Zm-49,1l-0,-1l1,-0l-0,3l-1,-0l-0,1l-1,-0l-0,-3l1,-0Zm26,-0l-0,-1l2,-0l-0,1l1,-0l-0,3l-1,-0l-0,-1l-2,-0l-0,1l-1,-0l-0,-3l1,-0Zm28,2l-0,1l-1,-0l-0,-1l1,-0Zm3,-2l-0,-1l1,-0l-0,1l-1,-0Zm-3,2l-0,-1l1,-0l-0,-1l2,-0l-0,1l-1,-0l-0,1l-2,-0Zm19,-2l-0,-1l1,-0l-0,1l1,-0l-0,1l1,-0l-0,3l-1,-0l-0,-1l-1,-0l-0,-1l-1,-0l-0,1l-1,-0l-0,-3l1,-0Zm10,1l-0,-1l1,-0l-0,4l-1,-0l-0,-1l-1,-0l-0,-2l1,-0Z" style="fill:#fb6100;"/>
            <path d="M19,10l-0,-3l1,-0l-0,1l1,-0l-0,3l-1,-0l-0,-1l-1,-0Zm0,-0l-0,1l-9,-0l-0,1l-1,-0l-0,-2l10,-0Zm24,-2l1,-0l-0,2l-2,-0l-0,-3l1,-0l-0,1Zm8,-0l1,-0l-0,3l-1,-0l-0,-1l-1,-0l-0,-3l1,-0l-0,1Zm-49,1l-0,-1l1,-0l-0,3l-1,-0l-0,1l-1,-0l-0,-3l1,-0Zm26,-0l-0,-1l2,-0l-0,1l1,-0l-0,2l-1,-0l-0,-1l-2,-0l-0,1l-1,-0l-0,-2l1,-0Zm26,2l-0,1l-1,-0l-0,-1l1,-0Zm2,-2l-0,-1l1,-0l-0,1l-1,-0Zm-2,2l-0,-2l2,-0l-0,2l-2,-0Zm9,1l-0,1l-1,-0l-0,-1l1,-0Zm4,-2l-0,-1l8,-0l-0,-1l1,-0l-0,1l1,-0l-0,1l1,-0l-0,2l-1,-0l-0,1l-1,-0l-0,-2l-1,-0l-0,1l-1,-0l-0,-1l-1,-0l-0,-1l-6,-0Zm-3,1l-0,-1l3,-0l-0,2l-1,-0l-0,-1l-2,-0Zm-1,1l-0,-1l1,-0l-0,1l-1,-0Zm22,-2l1,-0l-0,3l-1,-0l-0,-1l-1,-0l-0,-3l1,-0l-0,1Z" style="fill:#fd7b12;"/>
            <path d="M19,11l-0,-1l1,-0l-0,1l1,-0l-0,3l-1,-0l-0,-1l-1,-0l-0,1l-1,-0l-0,-2l-8,-0l-0,-1l9,-0Zm9,-0l-0,-1l2,-0l-0,1l1,-0l-0,3l-1,-0l-0,-1l-2,-0l-0,1l-1,-0l-0,-3l1,-0Zm23,-0l1,-0l-0,2l-1,-0l-0,1l-1,-0l-0,-4l1,-0l-0,1Zm-49,1l-0,-1l1,-0l-0,3l-1,-0l-0,1l-1,-0l-0,-3l1,-0Zm52,-0l-0,-1l1,-0l-0,3l-1,-0l-0,1l-1,-0l-0,-3l1,-0Zm9,1l-0,-1l1,-0l-0,-1l2,-0l-0,1l1,-0l-0,2l-6,-0l-0,-1l2,-0Zm11,-1l1,-0l-0,3l-1,-0l-0,-1l-1,-0l-0,-3l1,-0l-0,1Zm3,1l-0,-1l1,-0l-0,2l-1,-0l-0,1l-1,-0l-0,-2l1,-0Zm8,-0l1,-0l-0,2l-1,-0l-0,-1l-1,-0l-0,-2l1,-0l-0,1Zm-42,-2l-0,-1l1,-0l-0,1l-1,-0Z" style="fill:#fc9f2e;"/>
            <path d="M37,13l-0,9l-1,-0l-0,-9l1,-0Zm6,6l1,-0l-0,1l-1,-0l-0,-1Zm-2,-3l1,-0l-0,2l-1,-0l-0,-2Zm-1,-1l1,-0l-0,1l-1,-0l-0,-1Zm-1,-1l1,-0l-0,1l-1,-0l-0,-1Zm-1,-1l1,-0l-0,1l-1,-0l-0,-1Zm-1,-0l-0,-1l1,-0l-0,1l-1,-0Zm7,7l1,-0l-0,2l-1,-0l-0,-2Zm-2,-2l1,-0l-0,1l-1,-0l-0,-1Zm-20,4l-1,-0l-0,-9l1,-0l-0,9Zm5,-0l-1,-0l-0,-9l1,-0l-0,9Zm5,-0l-1,-0l-0,-9l1,-0l-0,9Zm18,-0l-1,-0l-0,-9l1,-0l-0,9Zm-46,-0l-1,-0l-0,-8l1,-0l-0,8Zm5,-4l-0,4l-1,-0l-0,-4l1,-0Zm8,-3l-0,-1l1,-0l-0,1l-1,-0Zm-8,3l-0,-1l7,-0l-0,-2l1,-0l-0,3l-8,-0Zm46,4l-1,-0l-0,-8l1,-0l-0,8Zm18,-0l-1,-0l-0,-8l1,-0l-0,8Zm6,-0l-1,-0l-0,-7l1,-0l-0,7Zm5,-0l-1,-0l-0,-7l1,-0l-0,7Zm-23,-2l-0,2l-1,-0l-0,-2l1,-0Zm6,-0l1,-0l-0,2l-1,-0l-0,-2Zm-6,-0l-0,-1l6,-0l-0,1l-6,-0Zm0,-5l-0,-1l6,-0l-0,1l-6,-0Z" style="fill:#d1ad88;"/>
            <path d="M18,15l-0,-1l1,-0l-0,-1l1,-0l-0,1l1,-0l-0,2l-2,-0l-0,1l-2,-0l-0,-2l1,-0Zm10,-1l-0,-1l2,-0l-0,1l1,-0l-0,3l-1,-0l-0,-1l-2,-0l-0,1l-1,-0l-0,-3l1,-0Zm12,2l1,-0l-0,1l-1,-0l-0,-1Zm-2,-2l1,-0l-0,1l1,-0l-0,1l-2,-0l-0,1l-1,-0l-0,-4l1,-0l-0,1Zm13,-0l-0,-1l2,-0l-0,2l1,-0l-0,2l-1,-0l-0,-1l-2,-0l-0,1l-1,-0l-0,-3l1,-0Zm-49,1l-0,-1l1,-0l-0,3l-2,-0l-0,-2l1,-0Zm72,-0l1,-0l-0,2l-1,-0l-0,-1l-1,-0l-0,-2l1,-0l-0,1Zm3,-0l-0,-1l1,-0l-0,2l-1,-0l-0,1l-1,-0l-0,-2l1,-0Zm8,-0l1,-0l-0,2l-1,-0l-0,-1l-1,-0l-0,-2l1,-0l-0,1Z" style="fill:#f9dbab;"/>
            <path d="M19,17l-0,-1l2,-0l-0,2l-4,-0l-0,-1l2,-0Zm9,-0l-0,-1l2,-0l-0,1l1,-0l-0,1l-4,-0l-0,-1l1,-0Zm10,-0l-0,-1l2,-0l-0,1l1,-0l-0,1l-4,-0l-0,-1l1,-0Zm13,-0l-0,-1l2,-0l-0,1l1,-0l-0,1l-4,-0l-0,-1l1,-0Zm23,-0l1,-0l-0,1l-2,-0l-0,-2l1,-0l-0,1Zm3,-0l-0,-1l1,-0l-0,2l-2,-0l-0,-1l1,-0Zm8,-0l1,-0l-0,1l-2,-0l-0,-2l1,-0l-0,1Zm-84,1l-0,-1l2,-0l-0,1l-2,-0Z" style="fill:#ffffde;"/>
            <path d="M4,30l-1,-0l-0,-8l1,-0l-0,8Zm5,-4l1,-0l-0,1l-1,-0l-0,-1Zm-0,-0l-1,-0l-0,-4l1,-0l-0,4Zm13,1l-1,-0l-0,-5l1,-0l-0,5Zm5,-0l-1,-0l-0,-5l1,-0l-0,5Zm5,-0l-1,-0l-0,-5l1,-0l-0,5Zm5,-0l-1,-0l-0,-5l1,-0l-0,5Zm8,-0l-1,-0l-0,-5l1,-0l-0,5Zm5,-0l-1,-0l-0,-5l1,-0l-0,5Zm5,-3l1,-0l-0,3l-1,-0l-0,-3Zm-0,-0l-1,-0l-0,-2l1,-0l-0,2Zm1,3l1,-0l-0,2l-1,-0l-0,-2Zm5,-2l1,-0l-0,2l-1,-0l-0,-2Zm-0,-0l-1,-0l-0,-3l1,-0l-0,3Zm7,2l-1,-0l-0,-5l1,-0l-0,5Zm5,-0l-1,-0l-0,-5l1,-0l-0,5Zm6,-0l-1,-0l-0,-5l1,-0l-0,5Zm13,-3l-0,3l-1,-0l-0,-3l1,-0Zm1,-0l-1,-0l-0,-1l-8,-0l-0,-1l9,-0l-0,2Z" style="fill:#b96d55;"/>
            <path d="M1,3l-0,28l-1,-0l-0,-28l1,-0Zm-0,28l1,-0l-0,1l-1,-0l-0,-1Zm1,1l1,-0l-0,1l-1,-0l-0,-1Zm1,1l3,-0l-0,1l-3,-0l-0,-1Zm3,-0l-0,-1l1,-0l-0,1l-1,-0Zm1,-1l-0,-1l2,-0l-0,1l-2,-0Zm2,-1l-0,-1l1,-0l-0,1l-1,-0Zm1,-1l-0,-1l1,-0l-0,1l-1,-0Zm1,-1l-0,-1l1,-0l-0,1l-1,-0Zm1,-1l-0,-2l1,-0l-0,2l-1,-0Zm-0,-2l-1,-0l-0,-6l6,-0l-0,1l-5,-0l-0,5Zm5,-6l-0,-1l1,-0l-0,-1l1,-0l-0,10l1,-0l-0,1l-2,-0l-0,-9l-1,-0Zm3,9l1,-0l-0,1l-1,-0l-0,-1Zm1,1l6,-0l-0,-1l1,-0l-0,-1l2,-0l-0,1l1,-0l-0,1l6,-0l-0,-1l1,-0l-0,-1l1,-0l-0,-10l1,-0l-0,1l1,-0l-0,1l1,-0l-0,8l1,-0l-0,1l1,-0l-0,1l6,-0l-0,-1l1,-0l-0,-1l1,-0l-0,-5l1,-0l-0,4l1,-0l-0,2l1,-0l-0,2l-1,-0l-0,-1l-1,-0l-0,-1l-1,-0l-0,1l-1,-0l-0,1l-8,-0l-0,-1l-1,-0l-0,-1l-1,-0l-0,-8l-1,-0l-0,8l-1,-0l-0,1l-1,-0l-0,1l-8,-0l-0,-1l-2,-0l-0,1l-7,-0l-0,-1Zm34,1l1,-0l-0,1l-1,-0l-0,-1Zm1,1l1,-0l-0,1l-1,-0l-0,-1Zm1,1l2,-0l-0,1l-2,-0l-0,-1Zm2,-0l-0,-1l2,-0l-0,1l-2,-0Zm2,-1l-0,-1l1,-0l-0,1l-1,-0Zm1,-1l-0,-1l1,-0l-0,-1l1,-0l-0,-1l2,-0l-0,1l1,-0l-0,1l6,-0l-0,-1l1,-0l-0,-1l1,-0l-0,-17l1,-0l-0,17l1,-0l-0,1l1,-0l-0,1l14,-0l-0,1l-15,-0l-0,-1l-1,-0l-0,-1l-1,-0l-0,1l-1,-0l-0,1l-8,-0l-0,-1l-2,-0l-0,1l-2,-0Zm30,-1l-0,-1l1,-0l-0,1l-1,-0Zm1,-1l-0,-1l1,-0l-0,1l-1,-0Zm1,-1l-0,-4l1,-0l-0,4l-1,-0Zm1,-4l-0,-2l1,-0l-0,2l-1,-0Zm-0,-2l-1,-0l-0,-1l1,-0l-0,1Zm-1,-1l-1,-0l-0,-1l1,-0l-0,1Zm-1,-1l-7,-0l-0,-17l1,-0l-0,16l6,-0l-0,1Zm-7,-17l-1,-0l-0,-1l1,-0l-0,1Zm-1,-1l-1,-0l-0,-1l1,-0l-0,1Zm-1,-1l-6,-0l-0,-1l6,-0l-0,1Zm-6,-0l-0,1l-1,-0l-0,-1l1,-0Zm-1,1l-0,1l-1,-0l-0,2l-1,-0l-0,-2l-1,-0l-0,-1l3,-0Zm-3,-0l-1,-0l-0,-1l1,-0l-0,1Zm-1,-1l-8,-0l-0,-1l8,-0l-0,1Zm-8,-0l-0,1l-3,-0l-0,-1l3,-0Zm-3,1l-0,1l-2,-0l-0,-1l2,-0Zm-2,1l-0,1l-1,-0l-0,-1l1,-0Zm-1,1l-0,1l-1,-0l-0,-1l1,-0Zm-1,1l-0,1l-1,-0l-0,-1l1,-0Zm-1,1l-0,1l-1,-0l-0,-1l1,-0Zm-1,1l-0,1l-1,-0l-0,-1l1,-0Zm-1,1l-0,1l-1,-0l-0,-1l1,-0Zm-1,1l-0,2l-1,-0l-0,2l-1,-0l-0,-10l1,-0l-0,6l1,-0Zm-2,-6l-1,-0l-0,-1l1,-0l-0,1Zm-1,-1l-1,-0l-0,-1l1,-0l-0,1Zm-1,-1l-6,-0l-0,-1l6,-0l-0,1Zm-6,-0l-0,1l-1,-0l-0,-1l1,-0Zm-1,1l-0,1l-1,-0l-0,-1l1,-0Zm-1,1l-0,3l-1,-0l-0,-1l-1,-0l-0,-1l1,-0l-0,-1l1,-0Zm-2,1l-1,-0l-0,-1l1,-0l-0,1Zm-1,-1l-1,-0l-0,-1l1,-0l-0,1Zm-1,-1l-1,-0l-0,-1l1,-0l-0,1Zm-1,-1l-6,-0l-0,-1l6,-0l-0,1Zm-6,-0l-0,1l-1,-0l-0,-1l1,-0Zm-1,1l-0,1l-2,-0l-0,-1l2,-0Zm-2,-0l-1,-0l-0,-1l1,-0l-0,1Zm-1,-1l-6,-0l-0,-1l6,-0l-0,1Zm-6,-0l-0,1l-3,-0l-0,-1l3,-0Zm-3,-0l-15,-0l-0,-1l15,-0l-0,1Zm-15,-0l-0,1l-1,-0l-0,-1l1,-0Zm-1,1l-0,1l-1,-0l-0,-1l1,-0Zm63,25l-1,-0l-0,-2l-1,-0l-0,-3l2,-0l-0,5Z"/>
            <path d="M3,25l-2,-0l-0,-2l2,-0l-0,2Zm8,-0l-2,-0l-0,-2l2,-0l-0,2Zm10,-0l-2,-0l-0,-2l2,-0l-0,2Zm10,-0l-4,-0l-0,-2l4,-0l-0,2Zm8,-0l-2,-0l-0,-2l2,-0l-0,2Zm5,-0l-2,-0l-0,-2l2,-0l-0,2Zm8,-0l-2,-0l-0,-2l2,-0l-0,2Zm2,-1l1,-0l-0,1l-2,-0l-0,-2l1,-0l-0,1Zm9,1l-2,-0l-0,-2l2,-0l-0,2Zm4,-0l-2,-0l-0,-2l2,-0l-0,2Zm8,-0l-2,-0l-0,-2l2,-0l-0,2Zm3,-0l-2,-0l-0,-2l2,-0l-0,2Zm15,-1l-0,-1l2,-0l-0,1l-1,-0l-0,1l-2,-0l-0,-1l1,-0Z" style="fill:#e3e3e3;"/>
            <path d="M26,27l-4,-0l-0,-23l4,-0l-0,23Zm11,-22l1,-0l-0,1l1,-0l-0,1l1,-0l-0,1l1,-0l-0,2l1,-0l-0,1l1,-0l-0,1l1,-0l-0,-1l1,-0l-0,-7l4,-0l-0,23l-4,-0l-0,-7l-1,-0l-0,-1l-1,-0l-0,-1l-1,-0l-0,-2l-1,-0l-0,-1l-1,-0l-0,-1l-1,-0l-0,-1l-1,-0l-0,-1l-1,-0l-0,1l-1,-0l-0,14l-4,-0l-0,-23l5,-0l-0,1Zm5,13l-0,1l1,-0l-0,1l1,-0l-0,2l-2,-0l-0,-2l-1,-0l-0,-1l-1,-0l-0,-1l2,-0Zm-39,4l-2,-0l-0,-4l2,-0l-0,4Zm18,-0l-2,-0l-0,-4l2,-0l-0,4Zm10,-0l-4,-0l-0,-4l4,-0l-0,4Zm8,-0l-2,-0l-0,-4l2,-0l-0,4Zm15,-0l-4,-0l-0,-4l4,-0l-0,4Zm21,-0l-2,-0l-0,-4l2,-0l-0,4Zm3,-0l-2,-0l-0,-4l2,-0l-0,4Zm6,-0l-0,-4l2,-0l-0,2l7,-0l-0,1l1,-0l-0,1l-10,-0Zm-1,-0l1,-0l-0,1l8,-0l-0,1l-1,-0l-0,3l-12,-0l-0,-23l4,-0l-0,18Zm-74,-4l9,-0l-0,1l-1,-0l-0,1l-6,-0l-0,2l-2,-0l-0,-4Zm-6,13l3,-0l-0,-1l1,-0l-0,-1l2,-0l-0,-1l1,-0l-0,-2l2,-0l-0,2l-1,-0l-0,1l-1,-0l-0,1l-1,-0l-0,1l-2,-0l-0,1l-1,-0l-0,1l-3,-0l-0,-1l-1,-0l-0,-1l-1,-0l-0,-5l2,-0l-0,5Zm6,-3l-2,-0l-0,1l-1,-0l-0,1l-2,-0l-0,-26l13,-0l-0,4l1,-0l-0,1l-9,-0l-0,1l-1,-0l-0,2l1,-0l-0,1l8,-0l-0,2l-1,-0l-0,2l-7,-0l-0,1l-1,-0l-0,8l1,-0l-0,2Zm12,-0l6,-0l-0,-2l4,-0l-0,2l6,-0l-0,-2l2,-0l-0,2l-1,-0l-0,1l-1,-0l-0,1l-6,-0l-0,-1l-1,-0l-0,-1l-2,-0l-0,1l-1,-0l-0,1l-6,-0l-0,-1l-1,-0l-0,-1l-1,-0l-0,-2l2,-0l-0,2Zm23,-0l6,-0l-0,-2l2,-0l-0,2l-1,-0l-0,1l-1,-0l-0,1l-6,-0l-0,-1l-1,-0l-0,-1l-1,-0l-0,-2l2,-0l-0,2Zm11,-1l1,-0l-0,2l1,-0l-0,2l2,-0l-0,-1l2,-0l-0,-1l1,-0l-0,-1l1,-0l-0,-1l-1,-0l-0,-1l2,-0l-0,1l1,-0l-0,-1l2,-0l-0,2l6,-0l-0,-2l2,-0l-0,2l-1,-0l-0,1l-1,-0l-0,1l-6,-0l-0,-1l-1,-0l-0,-1l-2,-0l-0,1l-1,-0l-0,1l-1,-0l-0,1l-1,-0l-0,1l-2,-0l-0,1l-2,-0l-0,-1l-1,-0l-0,-1l-1,-0l-0,-2l-1,-0l-0,-2l-1,-0l-0,-1l2,-0l-0,1Zm7,-0l-0,1l-1,-0l-0,1l-2,-0l-0,1l-1,-0l-0,-1l-1,-0l-0,-2l-1,-0l-0,-3l-1,-0l-0,-10l1,-0l-0,-3l1,-0l-0,-2l1,-0l-0,-1l1,-0l-0,-1l1,-0l-0,-1l2,-0l-0,-1l3,-0l-0,-1l7,-0l-0,1l1,-0l-0,3l-6,-0l-0,1l-3,-0l-0,1l-1,-0l-0,1l-1,-0l-0,1l-1,-0l-0,1l-1,-0l-0,1l1,-0l-0,1l6,-0l-0,-1l1,-0l-0,-3l4,-0l-0,16l-4,-0l-0,-7l-1,-0l-0,-1l-6,-0l-0,1l-1,-0l-0,5l1,-0l-0,2l1,-0Zm-1,-7l6,-0l-0,2l-6,-0l-0,-2Zm17,8l14,-0l-0,-2l2,-0l-0,2l-1,-0l-0,1l-1,-0l-0,1l-14,-0l-0,-1l-1,-0l-0,-1l-1,-0l-0,-2l2,-0l-0,2Z" style="fill:#fff;"/>
        </g>
    </g>
</svg>
