<svg xmlns="http://www.w3.org/2000/svg" viewBox="0 0 397 120">
    <path fill="red" d="M2.78 94.74v-8.12h2.77V81.2h2.78v-8.13h2.78v-5.41h2.77v-2.7h2.78v-2.71h2.77v-2.71h2.78v-5.41h2.78v-5.42h2.77v-2.7h2.78V43.3h2.78v-2.7h2.77v-2.7h2.78v-2.71h2.77v-2.7h2.78v-2.71h2.78v-2.71h2.77v-2.7h5.55v-2.71h5.56v-2.71h2.77v-2.7h2.78v-2.72h2.78v-2.7h8.32V8.12h5.56v-2.7h5.55V2.7h11.1V0h11.1v2.7h5.56v2.71h2.78v5.42h2.77v10.83h-2.77v8.12h-2.78v8.11h-2.78v5.42h-2.77v5.41h-2.78v2.71h-2.77v2.7h-2.78v2.71h-2.78v5.42h-2.77v5.41h-2.78v2.7h-2.78v2.71h-2.77v2.71h-2.78v2.7H83.3v2.71h-2.8v2.71h-2.78v2.7h-2.77v2.71h-2.78v2.71h-5.55v2.7h-5.55v2.71H58.3v2.71h-2.78v2.7h-2.77v2.72H47.2v2.7h-2.78v2.71h-8.33v2.7h-5.55v2.71H22.2v2.71H11.1v-2.7H5.55v-2.71H2.78v-5.42H0V94.74h2.78Z"/>
    <path fill="#0c9" d="M108.27 94.74v-8.12h2.78V81.2h2.77v-8.13h2.78v-5.41h2.78v-2.7h2.77v-2.71h2.78v-2.71h2.78v-5.41h2.77v-5.42h2.78v-2.7h2.77V43.3h2.78v-2.7h2.78v-2.7h2.77v-2.71h2.78v-2.7h2.78v-2.71h2.77v-2.71h2.78v-2.7h5.55v-2.71h5.55v-2.71h2.78v-2.7h2.78v-2.72h2.77v-2.7h8.33V8.12h5.55v-2.7h5.56V2.7h11.1V0h11.1v2.7h5.56v2.71h2.77v5.42h2.78v10.83h-2.78v8.12h-2.77v8.11h-2.78v5.42h-2.77v5.41h-2.78v2.71h-2.78v2.7h-2.77v2.71h-2.78v5.42h-2.78v5.41h-2.77v2.7h-2.78v2.71h-2.77v2.71h-2.78v2.7h-2.78v2.71h-2.77v2.71h-2.78v2.7h-2.78v2.71h-2.77v2.71h-5.55v2.7h-5.56v2.71h-2.77v2.71h-2.78v2.7h-2.78v2.72h-5.55v2.7h-2.77v2.71h-8.33v2.7h-5.56v2.71h-8.32v2.71h-11.1v-2.7h-5.56v-2.71h-2.78v-5.42h-2.77V94.74h2.77Z"/>
    <path fill="#09f" d="M211 94.74v-8.12h2.77V81.2h2.77v-8.13h2.78v-5.41h2.78v-2.7h2.77v-2.71h2.78v-2.71h2.78v-5.41h2.77v-5.42h2.78v-2.7h2.78V43.3h2.77v-2.7h2.78v-2.7h2.77v-2.71h2.78v-2.7h2.78v-2.71h2.77v-2.71h2.78v-2.7h5.55v-2.71h5.55v-2.71h2.78v-2.7h2.78v-2.72h2.77v-2.7h8.33V8.12h5.55v-2.7h5.56V2.7h11.1V0h11.1v2.7h5.56v2.71h2.77v5.42h2.78v10.83h-2.78v8.12h-2.77v8.11h-2.78v5.42h-2.77v5.41h-2.78v2.71h-2.78v2.7h-2.77v2.71h-2.78v5.42h-2.77v5.41h-2.78v2.7h-2.78v2.71h-2.77v2.71h-2.78v2.7h-2.78v2.71h-2.77v2.71h-2.78v2.7h-2.77v2.71h-2.78v2.71h-5.55v2.7h-5.56v2.71h-2.77v2.71h-2.78v2.7h-2.77v2.72h-5.56v2.7h-2.77v2.71h-8.33v2.7h-5.55v2.71h-8.33v2.71h-11.1v-2.7h-5.56v-2.71h-2.78v-5.42h-2.77V94.74h2.77Z"/>
    <path fill="#fff" d="M97.17 37.9h-2.78v-2.71h2.78v2.7Zm0 10.82V37.9h2.77v13.53H86.06v-2.7h11.1ZM94.39 35.2h-2.77v-2.7h2.77v2.7Zm63.86 24.36h2.77v5.41h-2.77v-5.41Zm0 0h-2.78V32.48h2.77v27.07Zm41.64-13.53V43.3h16.66v-5.42h2.77v-5.4h2.78v8.11h-2.78v5.42h-16.66v2.7h-2.77v2.71h-2.78v-5.41h2.78Zm80.5-10.83h-2.77v-2.7h2.78v2.7Zm2.79 2.7h-2.78v-2.7h2.78v2.7Zm0 10.83V37.9h2.77v13.53h-13.88v-2.7h11.1Zm16.65-2.7V43.3h16.66v-5.42h2.78v-5.4h2.77v8.11h-2.77v5.42H302.6v2.7h-2.78v2.71h-2.77v-5.41h2.77Zm94.4-10.83h-2.78v-2.7h2.77v2.7Zm-5.56 32.48h-2.78v-5.41h2.78v-2.71h2.78v-5.41h2.77V35.19H397v21.65h-2.78v5.42h-2.77v2.7h-2.78v2.71Zm2.78 8.12h-2.78v-8.12h2.78v8.12Zm2.77 5.41h-2.77v-5.4h2.77v5.4Zm0 2.71v-2.7H397v5.4h-16.66v-2.7h13.88ZM66.62 67.67h2.79v5.41h-2.78v-5.41ZM83.3 43.31h2.77V46H83.3v-2.7ZM66.63 56.84v-8.12h2.78v-5.41h5.55v-2.7h8.33v2.7h-5.56V46h-5.55v5.42h-2.77v8.12h-2.78v8.12h-2.78V56.84h2.78Zm186 10.83h2.78v5.41h-2.77v-5.41Zm16.66-24.36h2.78V46h-2.78v-2.7Zm-16.65 13.53v-8.12h2.77v-5.41h5.55v-2.7h8.33v2.7h-5.55V46h-5.55v5.42h-2.78v8.12h-2.77v8.12h-2.78V56.84h2.78Zm127.7-13.53h-5.55v10.83h-2.78V40.6h8.33v2.7Zm0 0h5.55V46h-5.55v-2.7Zm-269.3 18.95v-8.12h2.78v-8.12h2.78v10.82h-2.78v8.12h-5.55v-2.7h2.78Zm222.1 0v-8.12h2.78v-8.12h2.78v10.82h-2.78v8.12h-5.55v-2.7h2.78Zm-161.01-5.42v-8.12h2.77v8.12h-2.77Zm-11.1 27.07V75.8h2.77v-5.41h2.77v-8.12h2.78v-5.42h2.78v8.12h-2.78v8.12h-2.78v5.42h-2.77v8.12h-13.88v-2.7h11.1Zm49.96-21.65v-2.71h2.78v-8.12h2.78v10.83h-2.78v2.7H197.1v8.12h-2.77V62.26h16.65Zm99.95 0v-2.71h2.77v-8.12h2.78v10.83h-2.78v2.7h-16.65v8.12h-2.78V62.26h16.66ZM127.7 51.43h-2.78V32.48h2.78v18.95Zm2.77 21.65h-2.77V51.43h2.77v21.65Zm0 10.83V73.08h2.78v10.83h8.33V73.08h2.77V54.14h5.56v2.7h-2.78V75.8h-2.78v10.83h-24.98v-2.7h11.1Zm124.93 2.7h8.33v-2.7h5.55v-2.7h5.56v-5.42h2.77v-2.7h2.78v-8.13h2.78V54.14h2.77v13.53h-2.77v8.12h-2.78v2.7h-2.78v5.42h-5.55v2.7h-5.55v2.71h-11.1v-2.7Zm-5.55-2.7h5.55v2.7h-5.55v-2.7Zm0 0h-5.55v-2.7h5.55v2.7Zm99.94-32.48h-2.77V32.48h2.77v18.95Zm2.78 21.65h-2.78V51.43h2.78v21.65Zm0 10.83V73.08h2.78v10.83h11.1V70.38h2.78v-5.42h5.55v2.71H372v5.41h-2.77v13.54h-27.76v-2.7h11.1Zm-260.96 0h11.1V75.8h2.78v-2.7h13.88v2.7h-11.1v2.7h-2.78v8.13H91.62v-2.7Zm-27.77 0H58.3v-2.7h5.55v2.7Zm33.32-18.95V54.14h2.77v10.82h-2.77Zm-2.78 8.12v-8.12h2.78v8.12h-2.78ZM69.41 86.62h8.32v-2.7h5.56V81.2h5.55v-5.42h2.78v-2.7h2.77v5.4h-2.77v5.42h-5.56v2.7h-5.55v2.72h-11.1v-2.71Zm-5.56-2.7h5.56v2.7h-5.56v-2.7Zm119.38 0H211V73.07h2.78v13.54h-30.54v-2.7Zm-5.55 0V78.5h2.78V62.26h2.77V46.02h2.78V32.48h2.77v18.95h-2.77v16.24h-2.78v16.24h-2.77v2.7h-11.11v-2.7h8.33Zm133.26 0V73.07h2.77V83.9h11.1v-8.1h2.78v-2.7h13.89v2.7h-11.1v2.7h-2.79v8.13h-44.41v-2.7h27.76ZM86.06 32.47v-2.7h2.78v2.7h-2.78Zm186.01 0v-2.7h2.78v2.7h-2.78ZM74.96 67.67v-2.7h11.1v2.7h-11.1Zm186 0v-2.7h11.11v2.7h-11.1Zm-208.21 2.7v-2.7h2.77v2.7h-2.77Zm186 0v-2.7h2.78v2.7h-2.77Zm136.04 2.71v-2.7h2.78v2.7h-2.78ZM72.19 75.8v-2.7h2.77v2.7h-2.78Zm186 0v-2.7h2.78v2.7h-2.78ZM55.52 78.5v-2.7h2.78v2.7h-2.78Zm186.01 0v-2.7h2.78v2.7h-2.78Zm136.04 2.71v-2.7h2.77v2.7h-2.77Z"/>
    <path d="M94.4 73.08h-2.8v2.71h-2.77v5.41h-5.55v2.71h-5.56v2.7H69.4v-2.7h-5.56v-2.7H58.3v-5.42h-2.78v-8.12h-2.77V51.43h2.77v-5.41h2.78V40.6h2.78v-2.7h2.77v-2.71h2.78v-2.7h5.55v-2.72h13.88v2.71h5.55v2.7h2.78v2.72h2.78v10.82h-11.1v-5.41h-2.78v-2.7h-8.33v2.7H69.4v5.41h-2.78v8.12h-2.78v10.83h2.78v5.41h5.55v2.71h5.55v-2.7h5.56v-5.42h2.77v-2.7h-11.1v-5.42h2.77v-5.41h19.44v10.82h-2.78v8.12Zm2.77-8.12h2.77v-5.41h2.78v-8.12h2.78v-5.41h2.77v-8.13h2.78v-5.4h13.88v18.94h2.78v21.65h2.77v10.83h-11.1V73.08H105.5v2.71h-2.78v8.12h-11.1V78.5h2.77v-5.42h2.78v-8.12Zm22.2 0v-5.41h-2.77V46.02h-2.78v8.12h-2.77v8.12h-2.78v2.7h11.1Zm52.76-8.12h-2.78v5.42h-2.78v8.12h-2.77v5.41h-2.78v8.12h-11.1V54.14h-5.56v18.94h-2.77v10.83h-8.33V67.67h2.77V51.43h2.78V35.19h2.78v-2.7h13.88v27.06h2.78v5.41h2.77v-8.12h2.78v-5.41h2.77v-8.12h2.78V37.9h2.78v-5.42H186v13.54h-2.78v16.24h-2.77V78.5h-2.78v5.41h-8.33V73.08h2.78V56.84h2.77v-8.12h-2.77v8.12Zm180.45 16.24v10.83h-11.1V73.08h-13.89v2.71h-2.77v8.12h-11.1V78.5h2.77v-5.42h2.78v-8.12h2.77v-5.41h2.78v-8.12h2.77v-5.41h2.78v-8.13h2.78v-5.4h13.88v18.94h2.77v21.65h2.78Zm-11.1-8.12v-5.41h-2.78V46.02h-2.78v8.12h-2.77v8.12h-2.78v2.7h11.1ZM186 67.67V51.43h2.77V35.19h2.78v-2.7h27.76v5.4h-2.77v5.42h-16.66V46h-2.78v5.42h16.66v8.12h-2.78v2.7h-16.65v10.83h16.65V83.9h-27.76V67.67H186Zm99.94 0V51.43h2.78V35.19h2.77v-2.7h27.77v5.4h-2.78v5.42h-16.66V46h-2.77v5.42h16.65v8.12h-2.77v2.7h-16.66v10.83h16.66V83.9h-27.77V67.67h2.78Zm72.18 8.12V59.55h2.78V43.31h2.78V32.48h27.76v2.7h2.77v18.96h-2.77v5.41h-2.78v2.7h-2.77v5.42h2.77v8.12h2.78v5.41h2.77v2.71h-13.88V78.5h-2.77v-8.12h-2.78v-5.42h-5.55v5.42h-2.78V83.9h-11.1v-8.1h2.77Zm24.99-21.65v-2.71h2.78v-8.12h-5.56v-2.7H372v13.53h11.1Zm-141.59-2.71v-5.41h2.78V40.6h2.77v-2.7h2.78v-2.71h2.78v-2.7h5.55v-2.72h13.88v2.71h5.55v2.7h2.78v2.71h2.78v10.83h-11.11v-5.41h-2.78v-2.7h-8.32v2.7h-5.56v5.41h-2.77v8.12h-2.78v10.83h2.78v5.41h5.55v2.71h5.55v-2.7h5.55v-5.42h2.78v-2.7h-11.1v-5.42h2.77v-5.41h19.44v10.82h-2.78v8.12h-2.78v2.71h-2.77v5.41h-5.56v2.71h-5.55v2.7h-8.33v-2.7h-5.55v-2.7h-5.55v-5.42h-2.78v-8.12h-2.77V51.43h2.77Z"/>
</svg>
