<svg xmlns="http://www.w3.org/2000/svg" xml:space="preserve" fill-rule="evenodd" stroke-linejoin="round" stroke-miterlimit="2" clip-rule="evenodd" viewBox="0 0 397 49">
  <path fill="none" d="M0 0h397v48.6H0z"/>
  <clipPath id="a">
    <path d="M0 0h397v48.6H0z"/>
  </clipPath>
  <g clip-path="url(#a)">
    <path fill="#fff" d="M152.14 6.63h-2.26v-2.2h2.26v2.2Zm0 8.84V6.63h2.27v11.05h-11.33v-2.2h9.06Zm-2.26-11.05h-2.27v-2.2h2.27v2.2Zm52.14 19.9h2.27v4.42h-2.27v-4.42Zm0 0h-2.26V2.22h2.26v22.1Zm34.01-11.06v-2.2h13.6V6.62h2.27V2.21h2.27v6.63h-2.27v4.42h-13.6v2.21h-2.27v2.21h-2.27v-4.42h2.27Zm65.75-8.84h-2.27v-2.2h2.27v2.2Zm2.27 2.21h-2.27v-2.2h2.27v2.2Zm0 8.84V6.63h2.26v11.05h-11.33v-2.2h9.06Zm13.6-2.2v-2.22h13.6V6.63h2.27V2.21h2.27v6.63h-2.27v4.42h-13.6v2.21h-2.27v2.21h-2.27v-4.42h2.27Zm77.08-8.85h-2.26v-2.2h2.26v2.2Zm-4.53 26.53h-2.27v-4.42h2.27v-2.21h2.27v-4.43h2.26V4.42H397V22.1h-2.27v4.43h-2.26v2.2h-2.27v2.22Zm2.27 6.63h-2.27v-6.63h2.27v6.63Zm2.26 4.42h-2.26v-4.42h2.26V42Zm0 2.21V42H397v4.42h-13.6v-2.21h11.33ZM127.2 30.95h2.27v4.42h-2.27v-4.42Zm13.6-19.9h2.27v2.21h-2.26v-2.2ZM127.2 22.1v-6.63h2.27v-4.42h4.54v-2.2h6.8v2.2h-4.54v2.21h-4.53v4.42h-2.27v6.64h-2.27v6.63h-2.26V22.1h2.26Zm151.9 8.85h2.27v4.42h-2.26v-4.42Zm13.61-19.9h2.27v2.21h-2.27v-2.2Zm-13.6 11.05v-6.63h2.26v-4.42h4.54v-2.2h6.8v2.2h-4.54v2.21h-4.53v4.42h-2.27v6.64h-2.26v6.63h-2.27V22.1h2.27ZM383.4 11.05h-4.54v8.84h-2.27V8.84h6.8v2.21Zm0 0h4.53v2.21h-4.53v-2.2ZM163.48 26.53v-6.64h2.27v-6.63H168v8.84h-2.26v6.64h-4.54v-2.21h2.27Zm181.37 0v-6.64h2.27v-6.63h2.27v8.84h-2.27v6.64h-4.53v-2.21h2.26Zm-131.5-4.43v-6.63h2.27v6.63h-2.26Zm-9.06 22.11v-6.63h2.27v-4.42h2.26v-6.63h2.27V22.1h2.27v6.64h-2.27v6.63h-2.27v4.42h-2.26v6.63h-11.34v-2.21h9.07Zm40.8-17.68v-2.21h2.28v-6.64h2.26v8.85h-2.26v2.2h-13.6v6.64h-2.27v-8.84h13.6Zm81.63 0v-2.21h2.26v-6.64h2.27v8.85h-2.27v2.2h-13.6v6.64h-2.27v-8.84h13.6Zm-149.64-8.85h-2.26V2.21h2.26v15.47Zm2.27 17.69h-2.27V17.68h2.27v17.69Zm0 8.84v-8.84h2.27v8.84h6.8v-8.84h2.27V19.89h4.53v2.21h-2.27v15.48h-2.26v8.84h-20.4v-2.21h9.06Zm102.02 2.21h6.8v-2.21h4.54V42h4.53v-4.42h2.27v-2.21h2.27v-6.63h2.26v-8.85h2.27v11.06h-2.27v6.63h-2.26v2.2h-2.27v4.43h-4.53v2.21h-4.54v2.21h-9.07v-2.2Zm-4.53-2.21h4.53v2.21h-4.53v-2.21Zm0 0h-4.54V42h4.54v2.21Zm81.62-26.53h-2.27V2.21h2.27v15.47Zm2.26 17.69h-2.26V17.68h2.26v17.69Zm0 8.84v-8.84H363v8.84h9.07V33.16h2.27v-4.42h4.53v2.2h-2.27v4.43h-2.26v11.05h-22.67v-2.21h9.06Zm-213.11 0h9.07v-6.63h2.27v-2.21h11.33v2.2h-9.07v2.22h-2.26v6.63H147.6v-2.21Zm-22.67 0h-4.54V42h4.54v2.21Zm27.2-15.47v-8.85h2.27v8.85h-2.27Zm-2.26 6.63v-6.63h2.26v6.63h-2.26Zm-20.4 11.05h6.8v-2.21h4.53V42h4.53v-4.42h2.27v-2.21h2.27v4.42h-2.27v4.42h-4.54v2.21h-4.53v2.21h-9.07v-2.2Zm-4.54-2.21h4.53v2.21h-4.53v-2.21Zm97.49 0h22.67v-8.84h2.27v11.05h-24.94v-2.21Zm-4.54 0v-4.42h2.27V26.53h2.27V13.26h2.26V2.21h2.27v15.47h-2.27v13.27h-2.26V44.2h-2.27v2.21h-9.07V44.2h6.8Zm108.83 0v-8.84h2.26v8.84h9.07v-6.63h2.27v-2.21h11.34v2.2h-9.07v2.22h-2.27v6.63h-36.28v-2.21h22.68Zm-183.65-42V0h2.27v2.21h-2.27Zm151.9 0V0h2.27v2.21h-2.26ZM134.02 30.95v-2.21h9.06v2.2h-9.06Zm151.9 0v-2.21h9.07v2.2h-9.07Zm-170.04 2.2v-2.2h2.27v2.2h-2.27Zm151.9 0v-2.2h2.27v2.2h-2.27Zm111.1 2.22v-2.21h2.26v2.2h-2.27Zm-247.13 2.2v-2.2H134v2.2h-2.27Zm151.9 0v-2.2h2.27v2.2h-2.27Zm-165.5 2.22v-2.21h2.26v2.2h-2.26Zm151.9 0v-2.21h2.26v2.2h-2.26ZM381.13 42v-2.21h2.27V42h-2.27Z"/>
    <path d="M149.88 35.37h-2.27v2.2h-2.27V42h-4.53v2.21h-4.54v2.21h-6.8v-2.21h-4.53V42h-4.54v-4.42h-2.26v-6.63h-2.27V17.68h2.27v-4.42h2.26V8.84h2.27v-2.2h2.27V4.41h2.27v-2.2h4.53V0h11.33v2.21h4.54v2.21h2.27v2.21h2.26v8.84h-9.06v-4.42h-2.27v-2.2H134v2.2h-4.54v4.42h-2.26v6.64h-2.27v8.84h2.27v4.42h4.53v2.2h4.53v-2.2h4.54v-4.42h2.27v-2.21H134v-4.42h2.26V19.9h15.87v8.84h-2.26v6.63Zm2.26-6.63h2.27v-4.42h2.27v-6.64h2.27v-4.42h2.26V6.63h2.27V2.21h11.34v15.47h2.26v17.69h2.27v8.84h-9.07v-8.84h-11.33v2.2h-2.27v6.64h-9.07v-4.42h2.27v-4.42h2.26v-6.63Zm18.14 0v-4.42h-2.27V13.26h-2.26v6.64h-2.27v6.63h-2.27v2.2h9.07Zm43.08-6.63h-2.27v4.42h-2.27v6.63h-2.26v4.42h-2.27v6.63h-9.07V19.89h-4.53v15.48h-2.27v8.84h-6.8V30.95h2.27V17.68h2.26V4.42h2.27v-2.2h11.34v22.1h2.26v4.42h2.27V22.1h2.27v-4.43h2.26v-6.63h2.27V6.63h2.27V2.21h11.33v11.05h-2.26v13.27h-2.27v13.26h-2.27v4.42h-6.8v-8.84h2.27V22.1h2.27v-6.64h-2.27v6.64Zm147.36 13.26v8.84h-9.06v-8.84h-11.34v2.2h-2.27v6.64h-9.07v-4.42h2.27v-4.42h2.27v-6.63h2.27v-4.42h2.26v-6.64h2.27v-4.42h2.27V6.63h2.26V2.21h11.34v15.47h2.27v17.69h2.26Zm-9.06-6.63v-4.42h-2.27V13.26h-2.27v6.64h-2.26v6.63h-2.27v2.2h9.07Zm-126.97 2.2V17.69h2.27V4.42h2.27v-2.2h22.67v4.41h-2.27v4.42h-13.6v2.21h-2.27v4.42h13.6v6.64h-2.26v2.2h-13.6v8.85h13.6v8.84h-22.67V30.95h2.26Zm81.62 0V17.69h2.27V4.42h2.27v-2.2h22.67v4.41h-2.27v4.42h-13.6v2.21h-2.27v4.42h13.6v6.64h-2.26v2.2h-13.6v8.85h13.6v8.84h-22.67V30.95h2.26Zm58.95 6.64V24.32h2.27V11.05h2.26V2.21h22.68v2.21h2.26V19.9h-2.26v4.42h-2.27v2.2h-2.27v4.43h2.27v6.63h2.27V42h2.26v2.21H383.4v-4.42h-2.27v-6.63h-2.27v-4.42h-4.53v4.42h-2.27V44.2H363v-6.63h2.27Zm20.4-17.68v-2.22h2.27v-6.63h-4.53v-2.2h-6.8V19.9h9.06Zm-115.62-2.22v-4.42h2.26V8.84h2.27v-2.2h2.27V4.41h2.27v-2.2h4.53V0h11.34v2.21h4.53v2.21h2.27v2.21h2.27v8.84h-9.07v-4.42h-2.27v-2.2h-6.8v2.2h-4.54v4.42h-2.26v6.64h-2.27v8.84h2.27v4.42h4.53v2.2h4.54v-2.2h4.53v-4.42h2.27v-2.21h-9.07v-4.42h2.27V19.9h15.87v8.84h-2.27v6.63h-2.27v2.2h-2.27V42h-4.53v2.21h-4.53v2.21h-6.8v-2.21h-4.54V42h-4.53v-4.42h-2.27v-6.63h-2.27V17.68h2.27Z"/>
    <path fill="red" d="M28.3 5.75h7.73v2.57h2.57v7.72h-2.57v5.15h-2.58v5.14h-2.57v2.58H28.3v2.57h-2.58v2.58h-2.57v2.57h-2.57v2.57h-5.15v2.57h-5.15v2.58H2.57v-2.58H0v-7.72h2.57v-5.14h2.58v-5.15h2.57V21.2h2.57v-2.57h2.58v-2.58h2.57v-2.57h2.57V10.9h5.15V8.32h5.15V5.75Z"/>
    <path fill="#0c9" d="M61.76 5.75h7.72v2.57h2.57v7.72h-2.57v5.15H66.9v5.14h-2.58v2.58h-2.57v2.57h-2.57v2.58H56.6v2.57h-2.57v2.57h-5.15v2.57h-5.14v2.58h-7.72v-2.58h-2.58v-7.72h2.58v-5.14h2.57v-5.15h2.57V21.2h2.58v-2.57h2.57v-2.58h2.57v-2.57h2.58V10.9h5.14V8.32h5.15V5.75Z"/>
    <path fill="#09f" d="M95.21 5.75h7.72v2.57h2.57v7.72h-2.57v5.15h-2.57v5.14h-2.57v2.58H95.2v2.57h-2.57v2.58h-2.57v2.57h-2.58v2.57h-5.14v2.57H77.2v2.58h-7.72v-2.58H66.9v-7.72h2.57v-5.14h2.57v-5.15h2.58V21.2h2.57v-2.57h2.57v-2.58h2.58v-2.57h2.57V10.9h5.14V8.32h5.15V5.75Z"/>
  </g>
</svg>
