<svg xmlns="http://www.w3.org/2000/svg" viewBox="0 0 397 107">
    <path fill="#cb4900" d="M.82 79.38h384.95v18.64H.82z"/>
    <path fill="#fff" d="M12.98 84.27v1.2a1.96 1.96 0 0 0-.86-.24c-.32 0-.6.07-.81.23-.22.16-.42.4-.57.73-.14.32-.25.74-.33 1.24-.07.5-.1 1.1-.1 1.77 0 2.45.62 3.69 1.87 3.69.22 0 .48-.08.79-.21v1.23c-.32.18-.68.27-1.08.27-2 0-3.01-1.64-3.01-4.93 0-1.77.24-3.1.73-3.96.5-.86 1.24-1.3 2.25-1.3.38-.03.75.08 1.12.28Zm9.76 5.04c0 1.77-.2 3-.59 3.75-.39.74-1.04 1.1-1.95 1.1-.96 0-1.64-.39-2.04-1.19-.39-.77-.59-2.15-.59-4.14 0-1.77.2-3.01.58-3.75.4-.74 1.04-1.1 1.98-1.1.83 0 1.45.27 1.85.85.27.39.46.93.58 1.63.12.65.19 1.6.19 2.86Zm-1.4.14c0-1.72-.07-2.86-.23-3.42-.16-.57-.47-.85-.95-.85-.47 0-.78.26-.94.77-.16.53-.23 1.58-.23 3.16 0 1.45.08 2.46.24 3.02.17.53.48.8.93.8.46 0 .77-.24.93-.75.17-.48.25-1.4.25-2.73Zm6.49-5.36h1.34v8.8h2.19v1.14h-3.53V84.1Zm13.08 5.22c0 1.77-.2 3-.59 3.75-.39.74-1.04 1.1-1.95 1.1-.96 0-1.65-.39-2.04-1.19-.4-.77-.59-2.15-.59-4.14 0-1.77.2-3.01.58-3.75.4-.74 1.04-1.1 1.98-1.1.83 0 1.45.27 1.85.85.27.39.46.93.58 1.63.12.65.18 1.6.18 2.86Zm-1.4.14c0-1.72-.07-2.86-.23-3.42-.16-.57-.47-.85-.95-.85s-.78.26-.94.77c-.16.53-.24 1.58-.24 3.16 0 1.45.09 2.46.25 3.02.17.53.48.8.93.8.46 0 .77-.24.92-.75.18-.48.26-1.4.26-2.73ZM46 84.1h1.76c.73 0 1.27.18 1.63.52.45.46.67 1.15.67 2.07 0 .71-.12 1.28-.35 1.71-.24.43-.58.7-1.02.8l1.81 4.84h-1.35l-1.82-4.86v4.86H46V84.1Zm1.36 4.41c.5 0 .87-.12 1.08-.35.2-.24.32-.65.32-1.22 0-.31-.03-.58-.06-.8a1.4 1.4 0 0 0-.21-.52 1 1 0 0 0-.37-.3c-.15-.07-.33-.1-.54-.1h-.22v3.3ZM61.9 84.1h1.75c.85 0 1.46.2 1.85.64.39.43.58 1.12.58 2.05 0 1.32-.4 2.18-1.16 2.56-.4.18-.96.26-1.69.26v4.4H61.9V84.1Zm1.32 4.38c.55 0 .93-.11 1.14-.33.21-.23.32-.63.32-1.21 0-.6-.1-1.02-.3-1.3-.21-.28-.53-.41-.97-.41h-.19v3.25Zm12.65.83c0 1.77-.2 3-.59 3.75-.39.74-1.04 1.1-1.95 1.1-.96 0-1.65-.39-2.04-1.19-.4-.77-.59-2.15-.59-4.14 0-1.77.2-3.01.58-3.75.4-.74 1.04-1.1 1.98-1.1.83 0 1.45.27 1.85.85.27.39.46.93.58 1.63.12.65.18 1.6.18 2.86Zm-1.4.14c0-1.72-.07-2.86-.23-3.42-.16-.57-.47-.85-.95-.85s-.78.26-.94.77c-.16.53-.24 1.58-.24 3.16 0 1.45.09 2.46.25 3.02.17.53.48.8.93.8.46 0 .77-.24.93-.75.17-.48.25-1.4.25-2.73Zm6.51-5.36h1.77c.73 0 1.27.18 1.62.52.46.46.68 1.15.68 2.07a3.5 3.5 0 0 1-.36 1.71c-.23.43-.57.7-1.02.8l1.82 4.84h-1.35l-1.82-4.86v4.86h-1.34V84.1Zm1.37 4.41c.5 0 .87-.12 1.08-.35.2-.25.32-.65.32-1.22 0-.31-.03-.58-.06-.8a1.45 1.45 0 0 0-.21-.52 1 1 0 0 0-.37-.3 1.2 1.2 0 0 0-.54-.1h-.22v3.3Zm7.33-4.4h4.35v1.16h-1.5v8.77h-1.31v-8.77h-1.54V84.1Zm10.11 0h1.04l2.13 9.93h-1.33l-.37-1.93H99.3l-.38 1.93h-1.3l2.17-9.93Zm1.28 6.96-.3-1.59c-.2-1.07-.35-2.22-.48-3.44-.06.59-.13 1.2-.23 1.8-.1.62-.2 1.26-.33 1.95l-.25 1.28h1.59Zm6.48-6.97h1.8c1.4 0 2.12.9 2.12 2.65 0 .68-.08 1.17-.27 1.5-.18.34-.5.58-.97.74.54.21.9.5 1.1.83.2.33.3.82.3 1.49 0 1.82-.77 2.73-2.33 2.73h-1.75V84.1Zm1.26 4.39c.5 0 .86-.13 1.07-.36.2-.26.3-.7.3-1.33 0-1.07-.38-1.61-1.15-1.61h-.16l-.06.01v3.29Zm0 4.42c.54 0 .9-.13 1.13-.36.2-.23.32-.66.32-1.28 0-.64-.12-1.08-.34-1.33-.2-.26-.58-.38-1.11-.38v3.35Zm7.96-8.8h1.32v8.8h2.19v1.13h-3.51V84.1Zm8.14 0h3.55v1.13h-2.21v3.15h1.97v1.13h-1.97v3.4h2.21v1.13h-3.55V84.1Zm156.52 4.71h2.43v.38c0 1.94-.17 3.24-.5 3.92-.33.69-.96 1.04-1.88 1.04-.95 0-1.62-.38-2.03-1.15-.39-.78-.6-2.07-.6-3.9 0-2.07.22-3.47.65-4.16.4-.65 1.05-.97 1.9-.97.65 0 1.15.16 1.52.47.37.32.65.84.86 1.56l-1.24.52a8.1 8.1 0 0 0-.19-.66 2.2 2.2 0 0 0-.22-.42c-.16-.2-.4-.31-.73-.31-.45 0-.75.27-.91.82a13.3 13.3 0 0 0-.25 3.1c0 1.5.09 2.52.25 3.05.15.53.47.8.94.8a.9.9 0 0 0 .9-.57c.17-.4.26-1.05.26-1.94v-.47h-1.16V88.8Zm8.93-4.71h1.05l2.12 9.93h-1.33l-.36-1.93h-1.97l-.38 1.93h-1.29l2.16-9.93Zm1.28 6.96-.3-1.59c-.2-1.07-.35-2.22-.47-3.44-.07.59-.14 1.2-.24 1.8-.1.62-.2 1.26-.33 1.95l-.25 1.28h1.59ZM299 84.1h1.15l.87 4.06a29.81 29.81 0 0 1 .54 3.12l.02-.17.02-.09.18-1.14.16-1.08.15-.72.77-3.99h1.16l.9 9.94h-1.27l-.22-3.37-.03-.45v-.3l-.07-1.34-.04-1.21v-.05l-.01-.11-.04.2c-.03.23-.06.44-.1.6-.02.18-.04.33-.07.45l-.16.91-.06.35-.84 4.33h-.9l-.78-3.74a30.18 30.18 0 0 1-.51-3.1l-.38 6.84h-1.26l.83-9.93Zm11.02 0h3.55v1.14h-2.2v3.15h1.96v1.13h-1.97v3.4h2.21v1.13h-3.55V84.1Zm20.9.2v1.3a1.98 1.98 0 0 0-1.1-.43c-.35 0-.64.12-.86.37-.22.23-.33.55-.33.94 0 .35.09.64.23.9.09.14.22.31.41.52.18.2.43.47.72.76.54.56.91 1.04 1.12 1.44.2.4.3.88.3 1.44 0 .77-.22 1.4-.65 1.9-.43.48-.99.73-1.66.73-.57 0-1.06-.16-1.46-.47v-1.33c.47.34.9.52 1.3.52.37 0 .65-.13.84-.37.21-.25.31-.57.31-.99 0-.36-.08-.69-.23-.97a10.22 10.22 0 0 0-.88-1.06 10.67 10.67 0 0 1-1.34-1.56c-.2-.39-.3-.85-.3-1.43 0-.78.2-1.4.6-1.85.4-.45.95-.69 1.64-.69.45-.01.9.11 1.34.33Zm5.12-.13h1.41l.65 2.17.07.2.07.25c.25.78.4 1.44.5 1.97.08-.53.15-.9.2-1.1l.2-.9.08-.34.55-2.24h1.4l-1.73 5.67v4.27h-1.34v-4.27l-2.06-5.68Zm13.92.13v1.3c-.4-.29-.78-.43-1.1-.43-.35 0-.63.12-.86.37-.22.23-.33.55-.33.94 0 .35.09.64.24.9.08.14.22.31.4.52.19.2.43.47.73.76.54.56.9 1.04 1.11 1.44.2.4.3.88.3 1.44 0 .77-.22 1.4-.65 1.9-.43.48-.98.73-1.66.73-.56 0-1.06-.16-1.46-.47v-1.33c.48.34.9.52 1.3.52.37 0 .65-.13.85-.37.2-.25.3-.57.3-.99 0-.36-.08-.69-.23-.97a10.22 10.22 0 0 0-.88-1.06 10.67 10.67 0 0 1-1.33-1.56c-.2-.39-.3-.85-.3-1.43 0-.78.19-1.4.6-1.85.4-.45.94-.69 1.63-.69.45-.01.9.11 1.34.33Zm4.54-.2h4.35v1.16h-1.5v8.77h-1.31v-8.77h-1.54V84.1Zm10.37 0h3.55v1.13h-2.2v3.15h1.96v1.13h-1.97v3.4h2.21v1.13h-3.55V84.1Zm8.82 0h1.15l.87 4.05a29.81 29.81 0 0 1 .54 3.12l.02-.17.02-.09.18-1.14.16-1.08.15-.72.77-3.99h1.15l.91 9.94h-1.27l-.22-3.37-.03-.45-.01-.3-.06-1.34-.04-1.21v-.05l-.01-.11-.04.2c-.04.23-.06.44-.1.6l-.07.45-.16.91-.06.35-.84 4.33h-.9l-.78-3.74a30.18 30.18 0 0 1-.52-3.1l-.38 6.84h-1.25l.82-9.93Z"/>
    <path d="M60.5 70.8H31l-.54-4.95h-.18c-2.26 5.58-6.67 6.32-11.71 6.32-10.14 0-14.7-4.15-16.76-12.33C.34 53.97.54 17.86 2.22 12.3 4.95 3.3 11.1 0 24.66 0c15.45 0 20.8 8.3 20.8 25.13H28.9c0-3.5-.27-8-.91-9.86-.65-1.95-1.46-3-4.74-2.97-3.46.02-4.58 1.92-4.68 6.06 0 1.66-.08 34.6 0 34.68 0 4.14 1.62 6.88 4.68 6.8 4.79-.14 6.11-2.36 6.21-14.51H23.4V33.06h22.1v27.22l13-58.93h19.74l13.05 60.21V1.35h25.85l4.92 32.78 6.37-32.78h24.95V70.8h-15.79V18.83l-9.16 51.97h-12.17l-8.97-51.97-.22 51.97H76.21l-1.72-12.98H62.22L60.51 70.8Zm7.93-55.25h-.17l-4.29 29.47h8.78l-4.32-29.47Zm226.03 55.23h-35.5V1.35h35.31v13.08h-19.04V29.7h17.74v10.8h-17.74v17.2h19.84v10.21l14.09-66.56h19.77L343 67.75V1.36h25.56c12.48 0 17.21 7.76 17.21 18.47 0 6.06-2.17 14.62-8.6 15.8v.2c7.59 1.1 8.08 8.1 8.18 16.3v18.7h-8.9l-7.41.01-.02-17.92c0-7.88-1.4-11.62-5.36-11.62h-4.31v29.5H326.9l-1.71-12.98H312.9l-1.7 12.98h-16.74v-.01Zm24.68-55.23h-.17l-4.31 29.47h8.79l-4.31-29.47Zm43.45 15.17c6.64 0 6.86-1.61 6.86-8.27 0-7.34-.33-8.07-6.94-8.07h-3.16v16.34h3.24ZM157.12 1.35h35.32v13.08h-19.05V29.7h17.74v10.8h-17.74v17.2h19.85v13.08h-36.12V1.35Zm75.13 31.71h22.1V70.8h-14.5l-.52-4.95h-.19c-2.26 5.58-6.67 6.31-11.71 6.31-17.4 0-18.4-12.23-18.4-36.08 0-27.42 2.55-36.08 24.5-36.08 15.44 0 20.8 8.3 20.8 25.13h-16.56c0-3.5-.27-8-.92-9.86-.64-1.95-1.46-3-4.73-2.97-3.47.02-4.58 1.92-4.69 6.06 0 1.66-.08 34.6 0 34.68 0 4.14 1.63 6.88 4.68 6.8 4.8-.14 6.11-2.36 6.22-14.51h-6.08V33.06Z"/>
    <path fill="#231f20" d="M387.34 3.44V2.28h4.7l-.02 1.17h-.19l-1.64-.01.03 5.44h-1.03V3.44h-1.85Zm9.48-1.14h1v6.5h-.98l-.03-3.45-1.04 3.45h-1.02l-1.08-3.47V8.8h-1V2.3h.98l1.66 4.78 1.51-4.78Z"/>
    <path fill="#17569b" d="M153.84 78.77c7.51 0 13.61 6.2 13.61 13.91 0 7.67-6.1 13.9-13.6 13.9l-18.37.02v-5.97h18.38a7.88 7.88 0 0 0 7.78-7.96c0-4.4-3.48-7.97-7.78-7.97l-4.8-.06a6.51 6.51 0 0 1-6.43-6.59c0-3.63 2.9-6.58 6.44-6.58h18.33v5.9h-18.33a.7.7 0 0 0-.68.72c0 .39.3.7.68.7l4.77-.02Zm-4.77 13.22c-7.51 0-13.6-6.23-13.61-13.9 0-7.68 6.1-13.9 13.6-13.9h18.34v5.91h-18.33a7.86 7.86 0 0 0-7.78 7.95 7.88 7.88 0 0 0 7.78 7.98l4.79.05a6.5 6.5 0 0 1 6.44 6.57 6.51 6.51 0 0 1-6.44 6.59h-18.38v-5.87l18.33-.02c.36 0 .66-.31.66-.68a.66.66 0 0 0-.66-.68h-4.74Zm21.07-16.01c0-6.52 5.16-11.81 11.57-11.81h19.61v5.92h-19.61a5.84 5.84 0 0 0-5.8 5.84v18.83c0 3.3 2.61 5.92 5.8 5.92l19.51-.02v5.9H181.7c-6.39 0-11.55-5.3-11.55-11.82V75.98Zm7.15 0c0-2.5 1.96-4.51 4.39-4.51h19.61v5.92h-16.9c-1.35 0-1.37 1.38-1.37 1.38h14.1v5.88h-19.83v-8.67Zm19.83 10.07v5.89h-14.1c.02 1.38 1.38 1.4 1.38 1.4h16.8v5.86l-19.5.02a4.45 4.45 0 0 1-4.4-4.5v-8.67h19.82ZM264.6 99.3h.01v.02-.02Zm0 0h-13.48l.01-5.24-4.13 12.5h-6.8l11.64-35.17c.26-.77.96-1.3 1.78-1.3.83 0 1.54.55 1.78 1.3l9.2 27.91Zm-11-12.75-2.05 6.2h4.08l-2.02-6.2Zm8.73-16.83 12.14 36.85h-23.34v-5.9h15.34l-9.9-29.93a3.21 3.21 0 0 0-2.96-2.01 3.2 3.2 0 0 0-2.96 2l-11.9 35.82H234l-18.98-.01a11.71 11.71 0 0 1-11.58-11.81V75.96c0-6.52 5.16-11.8 11.53-11.8H234v5.9h-18.98a5.83 5.83 0 0 0-5.76 5.9v18.77c0 3.24 2.6 5.9 5.78 5.9h13.2v-16h-10.55v-5.88H234v23.71l10.9-32.76a8.99 8.99 0 0 1 8.72-6.21 9 9 0 0 1 8.72 6.23Z"/>
    <path fill="#17569b" fill-rule="nonzero" d="M217.72 77.36h16.3l-.03-5.9h-18.98a4.45 4.45 0 0 0-4.4 4.52v18.76c0 2.5 1.97 4.53 4.4 4.53h11.86V86.05h-9.17v5.9h3.41l.02 1.38h-3.4c-.74 0-1.34-.63-1.34-1.38l-.03-13.2c0 .02-.02-1.36 1.35-1.4Z"/>
    <path fill="#fff" d="m264.6 99.3-9.2-27.91a1.89 1.89 0 0 0-1.78-1.3c-.82 0-1.52.53-1.78 1.3l-11.65 35.16h-1.44l11.9-35.81a3.2 3.2 0 0 1 2.96-2.01c1.32 0 2.47.82 2.96 2l9.9 29.93h-15.34v5.9H247l4.13-12.5-.01 5.24h13.49v.02-.02Zm-11-12.75 2.03 6.2h-4.08l2.06-6.2ZM135.52 99.24h18.35a6.51 6.51 0 0 0 6.44-6.59 6.5 6.5 0 0 0-6.44-6.57l-4.8-.05a7.88 7.88 0 0 1-7.78-7.98c0-4.4 3.48-7.95 7.79-7.95h18.29v1.37h-18.3a6.53 6.53 0 0 0-6.43 6.58 6.51 6.51 0 0 0 6.44 6.59l4.79.06c4.3 0 7.78 3.57 7.78 7.97s-3.5 7.96-7.78 7.96H135.5v-1.4Zm65.66 1.42-19.46.02a5.84 5.84 0 0 1-5.8-5.92V75.93c0-3.2 2.61-5.84 5.8-5.84h19.58v1.38h-19.61a4.44 4.44 0 0 0-4.39 4.5v8.68h19.78v1.4H177.3v8.68a4.45 4.45 0 0 0 4.4 4.49l19.48-.02v1.46ZM234 78.75h-16.3v5.89h10.54v16h-13.2a5.87 5.87 0 0 1-5.78-5.91V75.96c0-3.26 2.57-5.9 5.76-5.9H234v1.4h-19a4.45 4.45 0 0 0-4.4 4.52v18.76c0 2.5 1.97 4.53 4.4 4.53h11.86V86.05h-9.17v5.9h3.41l.02 1.38h-3.4c-.74 0-1.34-.63-1.34-1.38l-.03-13.2c0-.02 0-1.36 1.35-1.4H234v1.4Z"/>
</svg>
