<svg viewBox="0 0 2242 388" xmlns="http://www.w3.org/2000/svg">
    <path style="fill:#306230;" d="M303.118,281.971l14.099,-0l-0,-35.247l21.148,0l-0,-35.246l14.098,-0l0,-35.246l21.148,-0l0,-35.247l14.099,0l-0,-35.246l21.147,-0l0,-35.246l14.099,-0l-0,-35.247l21.148,0l-0,-35.246l84.591,0l-0,70.493l21.148,-0l-0,105.739l14.098,-0l0,140.985l21.148,-0l0,-35.246l14.099,-0l-0,-70.493l21.147,-0l0,-35.246l14.099,-0l-0,-70.493l21.148,-0l-0,-70.493l14.098,0l0,-35.246l91.641,-0l-0,70.493l14.098,-0l0,105.739l21.148,-0l0,35.246l14.099,-0l-0,-35.246l21.147,-0l0,-35.247l14.099,0l-0,-35.246l21.148,-0l-0,-35.246l14.098,-0l0,-35.247l21.148,0l0,-35.246l70.493,0l-0,211.478l14.098,-0l0,105.739l21.148,-0l0,-35.246l14.099,-0l-0,-105.739l21.147,-0l0,-105.739l14.099,-0l-0,-70.493l211.478,0l-0,70.493l-140.985,-0l-0,70.492l91.64,0l0,70.493l-105.739,-0l0,35.246l-21.148,0l0,70.493l126.887,-0l0,70.493l-303.118,-0l-0,-105.739l-14.099,-0l0,-105.739l-21.148,-0l0,70.492l-14.098,0l-0,35.247l-21.148,-0l-0,35.246l-14.099,-0l0,35.246l-21.147,0l-0,35.247l-49.345,-0l-0,-35.247l-21.148,0l-0,-70.492l-14.099,-0l0,-70.493l-21.147,-0l-0,-35.246l-14.099,-0l0,70.492l-21.148,0l0,70.493l-14.098,-0l-0,70.493l-162.133,-0l-0,-70.493l-14.099,-0l0,-35.246l-91.64,-0l-0,35.246l-14.099,-0l0,35.246l-21.148,0l0,35.247l-70.492,-0l-0,-35.247l-14.099,0l0,35.247l-176.232,-0l0,-35.247l-35.246,0l0,-35.246l-35.246,-0l-0,-35.246l-21.148,-0l-0,-140.986l21.148,0l-0,-35.246l14.098,-0l0,-35.246l35.247,-0l-0,-35.247l56.394,0l-0,-35.246l190.33,0l-0,35.246l35.246,0l0,70.493l-70.492,-0l-0,-35.246l-105.739,-0l-0,35.246l-49.345,-0l-0,35.246l-35.247,0l0,35.247l-21.147,-0l-0,70.492l21.147,0l0,35.247l14.099,-0l-0,35.246l105.739,-0l-0,-35.246l-49.345,-0l0,-70.493l140.985,-0l0,70.493l-21.147,-0l-0,35.246l21.147,-0l0,-35.246Zm140.986,-140.986l-0,35.247l-21.148,-0l-0,35.246l56.394,-0l0,-70.493l-35.246,0Zm1515.59,-70.492l0,70.492l14.099,0l-0,70.493l-14.099,-0l0,70.493l-21.148,-0l0,35.246l-35.246,-0l-0,35.246l-35.246,0l-0,35.247l-155.084,-0l-0,-35.247l-35.247,0l0,-35.246l-21.147,-0l-0,-70.493l-14.099,0l0,-70.492l14.099,-0l-0,-70.493l21.147,-0l0,-35.246l35.247,-0l-0,-35.247l35.246,0l0,-35.246l155.084,0l-0,35.246l35.246,0l0,35.247l21.148,-0Zm-21.148,-35.247l0,-35.246l91.641,0l-0,35.246l14.098,0l0,35.247l21.148,-0l0,35.246l35.246,-0l0,-35.246l35.247,-0l-0,-35.247l14.098,0l0,-35.246l91.641,0l-0,35.246l-21.148,0l-0,35.247l-14.099,-0l0,35.246l-35.246,-0l0,35.246l-35.246,0l-0,35.247l-21.148,-0l-0,35.246l-14.099,-0l0,105.739l-21.147,-0l-0,70.493l-84.592,-0l0,-70.493l14.099,-0l-0,-112.788l21.148,-0l-0,-28.197l-21.148,-0l-0,-35.247l-14.099,0l0,-35.246l-21.147,-0l-0,-35.246l-14.099,-0l0,-35.247l-21.148,0Zm-211.478,246.725l21.148,-0l0,35.246l84.591,-0l0,-35.246l35.247,-0l-0,-42.296l21.147,0l0,-133.936l-21.147,-0l-0,-35.246l-84.592,-0l0,35.246l-35.246,-0l0,35.246l-21.148,0l0,140.986Zm-387.709,105.739l-0,-70.493l21.147,-0l0,-105.739l14.099,-0l-0,-105.739l21.148,-0l-0,-105.739l190.33,0l-0,35.246l35.246,0l0,35.247l21.148,-0l0,70.492l-21.148,0l0,35.247l-14.098,-0l-0,35.246l14.098,-0l0,105.739l-14.098,-0l-0,35.246l-35.247,0l0,35.247l-232.625,-0Zm91.64,-70.493l105.739,-0l0,-35.246l14.099,-0l-0,-35.247l-14.099,0l0,-35.246l-91.64,-0l-0,70.493l-14.099,-0l0,35.246Zm35.246,-176.232l84.592,0l-0,-35.246l-14.099,-0l0,-35.246l-70.493,-0l0,70.492Z"/>
</svg>