<svg width="100%" height="100%" viewBox="0 0 377 111" xmlns="http://www.w3.org/2000/svg">
        <g id="GAMEBOY">
            <g id="gb-aliasing">
                <path style="fill:#ed55ff;" d="M60.135,9.252l-2.313,-0l0,-6.939l2.313,-0l-0,6.939Zm-39.319,-2.313l-0,2.313l-2.313,-0l0,-2.313l2.313,-0Zm-0,-0l-0,-2.313l2.313,-0l-0,2.313l-2.313,-0Zm-9.252,6.938l0,-2.313l2.313,0l0,2.313l-2.313,0Zm-2.312,2.313l-0,-2.313l2.312,0l0,2.313l-2.312,0Zm-0,0l-0,2.313l-2.313,0l-0,-2.313l2.313,0Zm4.625,-4.626l0,-2.312l2.313,-0l0,2.312l-2.313,0Zm39.319,4.626l-4.625,0l-0,-2.313l4.625,0l0,2.313Zm0,0l4.626,0l0,2.313l-4.626,0l0,-2.313Zm-32.38,6.939l-0,-2.313l2.313,-0l-0,2.313l-2.313,-0Zm-0,-0l-0,2.313l-2.313,-0l0,-2.313l2.313,-0Zm-18.503,23.129l-2.313,-0l-0,-13.878l2.313,0l-0,13.878Zm27.754,-4.626l-2.312,-0l-0,-6.939l2.312,0l0,6.939Zm-13.877,4.626l-2.313,-0l0,-4.626l2.313,-0l0,4.626Zm37.006,2.313l-2.313,-0l0,-6.939l2.313,-0l0,6.939Zm-25.441,-2.313l9.251,-0l0,2.313l-11.564,-0l-0,-4.626l2.313,-0l-0,2.313Zm6.938,-43.945l0,-2.313l16.19,0l0,2.313l-16.19,-0Zm-6.938,2.313l-0,-2.313l2.312,-0l0,2.313l-2.312,-0Zm6.938,11.564l0,-2.313l6.939,0l-0,2.313l-6.939,0Zm-6.938,2.313l-0,-2.313l2.312,0l0,2.313l-2.312,0Zm-25.442,9.252l-0,-2.313l2.313,-0l-0,2.313l-2.313,-0Zm11.564,6.938l0,-2.313l2.313,0l0,2.313l-2.313,0Zm-11.564,18.503l-0,-2.313l2.313,0l-0,2.313l-2.313,0Zm23.129,2.313l-0,-2.313l11.564,0l0,2.313l-11.564,0Zm-11.565,9.252l0,-2.313l2.313,-0l0,2.313l-2.313,-0Zm30.068,-0l-0,-2.313l2.313,-0l-0,2.313l-2.313,-0Zm-23.129,2.313l-0,-2.313l2.313,-0l-0,2.313l-2.313,-0Zm16.19,-0l0,-2.313l4.626,-0l-0,2.313l-4.626,-0Z"/>
                <path style="fill:#c555ff;" d="M92.515,9.252l-2.313,-0l0,-6.939l2.313,-0l0,6.939Zm2.313,13.877l-2.313,-0l0,-6.939l2.313,0l0,6.939Zm-16.19,2.313l0,2.313l-2.313,-0l0,-2.313l2.313,-0Zm0,-0l0,-2.313l2.313,-0l-0,2.313l-2.313,-0Zm-13.877,4.625l-2.313,0l-0,-4.625l2.313,-0l-0,4.625Zm32.38,6.939l-2.313,0l0,-6.939l2.313,0l0,6.939Zm2.313,13.877l-2.313,0l0,-6.938l2.313,-0l-0,6.938Zm-30.067,-2.312l-0,2.312l-2.313,0l-0,-2.312l2.313,-0Zm13.877,-0l2.313,-0l-0,4.625l-2.313,0l-0,-4.625Zm-13.877,-0l-0,-2.313l13.877,-0l-0,2.313l-13.877,-0Zm18.503,16.19l-2.313,-0l-0,-4.626l2.313,-0l-0,4.626Zm-16.191,-57.822l0,-2.313l2.313,-0l0,2.313l-2.313,-0Zm-2.312,6.938l-0,-2.313l2.312,0l0,2.313l-2.312,0Zm-2.313,4.626l-0,-2.313l2.313,0l-0,2.313l-2.313,0Zm-2.313,4.626l-0,-2.313l2.313,-0l-0,2.313l-2.313,-0Zm-4.626,11.564l-0,-2.313l2.313,0l-0,2.313l-2.313,0Zm13.877,0l0,-2.313l2.313,0l0,2.313l-2.313,0Zm6.939,0l-0,-2.313l2.313,0l-0,2.313l-2.313,0Zm-23.129,4.626l0,-2.313l2.313,0l-0,2.313l-2.313,0Zm-2.313,4.626l0,-2.313l2.313,-0l0,2.313l-2.313,-0Zm-2.313,6.938l0,-2.312l2.313,-0l0,2.312l-2.313,0Zm-2.313,4.626l0,-2.313l2.313,0l0,2.313l-2.313,0Zm13.878,0l-0,-2.313l2.313,0l-0,2.313l-2.313,0Zm-2.313,4.626l-0,-2.313l2.313,0l-0,2.313l-2.313,-0Zm-2.313,4.626l-0,-2.313l2.313,-0l-0,2.313l-2.313,-0Z"/>
                <path style="fill:#b44dff;" d="M115.644,9.252l-2.313,-0l0,-4.626l2.313,-0l0,4.626Zm16.19,6.938l-2.313,0l0,-6.938l2.313,-0l0,6.938Zm-18.503,0l-2.313,0l0,-4.626l2.313,0l0,4.626Zm-2.313,6.939l-2.312,-0l-0,-4.626l2.312,0l0,4.626Zm23.129,4.626l-2.313,-0l0,-4.626l2.313,-0l0,4.626Zm34.693,13.877l-2.312,-0l-0,-18.503l2.312,-0l0,18.503Zm-16.19,-11.565l0,-2.312l2.313,-0l0,16.19l-2.313,-0l0,-9.252l-2.313,0l0,-4.626l2.313,0Zm-32.38,4.626l-0,-2.313l2.313,0l-0,4.626l-4.626,0l0,-2.313l2.313,0Zm4.626,13.878l-2.313,-0l-0,-4.626l2.313,-0l-0,4.626Zm2.313,11.564l-2.313,-0l-0,-4.626l2.313,0l-0,4.626Zm-0,-55.509l-0,-2.313l2.312,-0l0,2.313l-2.312,-0Zm20.816,2.313l-0,-2.313l2.312,-0l0,2.313l-2.312,-0Zm-2.313,4.625l-0,-2.312l2.313,-0l-0,2.312l-2.313,0Zm-2.313,4.626l-0,-2.313l2.313,0l-0,2.313l-2.313,0Zm-2.313,6.939l-0,-2.313l2.313,-0l-0,2.313l-2.313,-0Zm-2.313,4.626l0,-2.313l2.313,-0l-0,2.313l-2.313,-0Zm-32.38,2.312l-0,-2.312l2.313,-0l-0,2.312l-2.313,0Zm30.067,2.313l0,-2.313l2.313,0l0,2.313l-2.313,0Zm-32.38,4.626l-0,-2.313l2.313,0l-0,2.313l-2.313,0Zm30.067,0l0,-2.313l2.313,0l0,2.313l-2.313,0Zm13.878,2.313l-0,-2.313l2.312,0l0,2.313l-2.312,0Zm-46.258,4.626l-0,-2.313l2.313,-0l-0,2.313l-2.313,-0Zm13.877,-0l0,-2.313l2.313,-0l0,2.313l-2.313,-0Zm30.068,-0l-0,-2.313l2.313,-0l-0,2.313l-2.313,-0Zm-2.313,4.626l-0,-2.313l2.313,-0l-0,2.313l-2.313,-0Zm-43.945,2.312l-0,-2.312l2.313,-0l-0,2.312l-2.313,0Zm13.877,0l0,-2.312l2.313,-0l0,2.312l-2.313,0Zm27.755,4.626l-0,-2.313l2.313,0l-0,2.313l-2.313,0Zm-30.068,2.313l0,-2.313l2.313,0l0,2.313l-2.313,0Zm27.755,2.313l0,-2.313l2.313,0l-0,2.313l-2.313,-0Zm-30.067,4.626l-0,-2.313l2.312,-0l0,2.313l-2.312,-0Zm27.754,-0l0,-2.313l2.313,-0l0,2.313l-2.313,-0Z"/>
                <path style="fill:#9446ff;" d="M215.098,13.877l-2.313,0l0,-6.938l2.313,-0l0,6.938Zm-37.006,4.626l-2.313,0l0,-6.939l2.313,0l0,6.939Zm11.564,9.252l-2.312,-0l-0,-4.626l2.312,-0l0,4.626Zm-13.877,4.625l-2.313,0l0,-6.938l2.313,-0l0,6.938Zm32.381,9.252l-2.313,-0l-0,-6.939l2.313,0l-0,6.939Zm-34.694,6.939l-2.313,-0l0,-6.939l2.313,-0l0,6.939Zm34.694,11.564l-2.313,-0l-0,-6.939l2.313,0l-0,6.939Zm-30.068,-55.509l0,-2.313l2.313,-0l-0,2.313l-2.313,-0Zm-9.252,50.883l0,-2.313l2.313,0l0,2.313l-2.313,0Z"/>
                <path style="fill:#9964ff;" d="M265.982,6.939l2.312,-0l0,2.313l-2.312,-0l-0,-2.313Zm2.312,2.313l2.313,-0l0,2.312l-2.313,0l0,-2.312Zm-2.312,-2.313l-2.313,-0l-0,-2.313l2.313,-0l-0,2.313Zm-34.694,13.877l-2.313,-0l0,-6.939l2.313,0l0,6.939Zm25.442,-2.313l-2.313,0l0,-2.313l2.313,0l0,2.313Zm0,6.939l0,2.313l-2.313,-0l0,-2.313l2.313,-0Zm0,-6.939l2.313,0l-0,6.939l-2.313,-0l0,-6.939Zm-13.877,9.252l9.251,-0l0,2.312l-11.564,0l-0,-6.938l2.313,-0l-0,4.626Zm-13.878,6.938l-2.312,0l-0,-6.938l2.312,-0l0,6.938Zm39.319,2.313l-2.312,0l-0,-2.313l2.312,0l0,2.313Zm0,0l2.313,0l0,2.313l-2.313,0l0,-2.313Zm-41.631,11.565l-2.313,-0l-0,-6.939l2.313,-0l-0,6.939Zm30.067,-4.626l-2.313,-0l0,-2.313l2.313,-0l0,2.313Zm0,6.938l0,2.313l-2.313,0l0,-2.313l2.313,0Zm0,-6.938l2.313,-0l-0,6.938l-2.313,0l0,-6.938Zm16.19,6.938l-2.313,0l0,-9.251l2.313,-0l0,9.251Zm-48.57,11.565l-2.313,-0l-0,-6.939l2.313,0l-0,6.939Zm41.632,-2.313l-0,2.313l-2.313,-0l-0,-2.313l2.313,-0Zm-0,-0l-0,-2.313l2.312,0l0,2.313l-2.312,-0Zm-34.694,-55.509l0,-2.313l30.068,-0l-0,2.313l-30.068,-0Zm39.319,11.564l0,-2.313l2.313,0l0,2.313l-2.313,0Zm-27.754,2.313l-0,-2.313l2.313,0l-0,2.313l-2.313,0Zm27.754,6.939l0,-2.313l2.313,-0l0,2.313l-2.313,-0Zm-2.313,4.625l0,-2.312l2.313,-0l0,2.312l-2.313,0Zm-30.067,13.878l-0,-2.313l2.313,-0l-0,2.313l-2.313,-0Zm-0,11.564l-0,-2.313l13.877,0l0,2.313l-13.877,0Zm16.19,11.565l0,-2.313l2.313,-0l0,2.313l-2.313,-0Z"/>
                <path style="fill:#7c64ff;" d="M360.81,4.626l-0,-2.313l2.313,-0l-0,2.313l-2.313,-0Zm-0,-0l-0,2.313l-2.313,-0l-0,-2.313l2.313,-0Zm-69.387,2.313l0,2.313l-2.313,-0l0,-2.313l2.313,-0Zm0,-0l0,-2.313l2.313,-0l0,2.313l-2.313,-0Zm83.264,-0l0,-2.313l2.313,-0l-0,2.313l-2.313,-0Zm0,-0l0,2.313l-2.313,-0l0,-2.313l2.313,-0Zm-53.196,2.313l2.313,-0l-0,2.312l-2.313,0l-0,-2.312Zm-0,-0l-2.313,-0l-0,-2.313l2.313,-0l-0,2.313Zm-39.319,6.938l-0,-2.313l2.313,0l-0,2.313l-2.313,0Zm-0,0l-0,2.313l-2.313,0l-0,-2.313l2.313,0Zm32.38,4.626l2.313,-0l0,4.626l-2.313,-0l0,-4.626Zm-2.313,-2.313l2.313,0l0,2.313l-2.313,-0l0,-2.313Zm0,0l-2.313,0l0,-2.313l2.313,0l0,2.313Zm18.503,9.252l-2.313,-0l0,-4.626l2.313,-0l0,4.626Zm-53.196,6.938l-2.313,0l0,-6.938l2.313,-0l0,6.938Zm13.877,-2.313l-2.313,0l0,-4.625l2.313,-0l0,4.625Zm67.074,0l-0,2.313l-2.313,0l0,-2.313l2.313,0Zm-0,0l-0,-2.313l2.313,0l-0,2.313l-2.313,0Zm-16.19,9.252l-2.313,-0l-0,-6.939l2.313,0l-0,6.939Zm-11.565,-0l-2.313,-0l0,-4.626l2.313,0l0,4.626Zm-53.196,6.939l-2.313,-0l0,-6.939l2.313,-0l0,6.939Zm76.325,-0l-2.313,-0l0,-6.939l2.313,-0l0,6.939Zm-43.945,2.312l0,2.313l-2.313,0l0,-2.313l2.313,0Zm0,0l0,-2.312l2.313,-0l0,2.312l-2.313,0Zm30.068,4.626l-2.313,0l-0,-6.938l2.313,-0l-0,6.938Zm-20.816,4.626l-0,2.313l-2.313,-0l0,-2.313l2.313,-0Zm2.313,-2.313l-0,-2.313l2.313,0l-0,2.313l-2.313,0Zm-2.313,2.313l-0,-2.313l2.313,0l-0,2.313l-2.313,-0Zm32.38,6.939l-2.313,-0l0,-9.252l2.313,0l0,9.252Zm-13.877,2.313l-2.313,-0l0,-9.252l2.313,-0l-0,9.252Zm-48.571,-4.626l-2.312,-0l-0,-2.313l2.312,-0l0,2.313Zm0,-0l4.626,-0l0,2.313l-4.626,-0l0,-2.313Zm9.252,-60.135l-0,-2.313l4.626,-0l-0,2.313l-4.626,-0Zm9.251,-0l0,-2.313l4.626,-0l0,2.313l-4.626,-0Zm32.381,-0l-0,-2.313l2.313,-0l-0,2.313l-2.313,-0Zm-13.877,2.313l-0,-2.313l2.312,-0l0,2.313l-2.312,-0Zm2.312,4.625l0,-2.312l2.313,-0l0,2.312l-2.313,0Zm13.878,0l-0,-2.312l2.313,-0l-0,2.312l-2.313,0Zm13.877,0l0,-2.312l2.313,-0l-0,2.312l-2.313,0Zm13.877,2.313l0,-2.313l2.313,0l0,2.313l-2.313,0Zm-67.073,2.313l-0,-2.313l4.625,0l0,2.313l-4.625,0Zm27.754,0l0,-2.313l2.313,0l0,2.313l-2.313,0Zm13.878,0l-0,-2.313l2.313,0l-0,2.313l-2.313,0Zm-46.258,2.313l-0,-2.313l2.313,0l-0,2.313l-2.313,0Zm27.755,0l-0,-2.313l2.312,0l0,2.313l-2.312,0Zm25.441,0l0,-2.313l2.313,0l0,2.313l-2.313,0Zm13.878,2.313l-0,-2.313l2.312,0l0,2.313l-2.312,-0Zm-87.89,2.313l0,-2.313l2.313,-0l-0,2.313l-2.313,-0Zm55.509,-0l0,-2.313l2.313,-0l0,2.313l-2.313,-0Zm13.878,-0l-0,-2.313l4.625,-0l0,2.313l-4.625,-0Zm-55.51,2.313l0,-2.313l2.313,-0l0,2.313l-2.313,-0Zm43.945,2.313l0,-2.313l2.313,-0l-0,2.313l-2.313,-0Zm25.442,-0l-0,-2.313l2.313,-0l-0,2.313l-2.313,-0Zm-23.129,4.625l-0,-2.313l2.313,0l-0,2.313l-2.313,0Zm16.19,6.939l0,-2.313l2.313,0l0,2.313l-2.313,0Zm-39.319,2.313l0,-2.313l2.313,0l0,2.313l-2.313,-0Zm-2.313,4.626l0,-2.313l2.313,-0l0,2.313l-2.313,-0Zm-23.129,2.313l0,-2.313l2.313,-0l0,2.313l-2.313,-0Zm37.007,-0l-0,-2.313l2.312,-0l0,2.313l-2.312,-0Zm-48.571,4.625l0,-2.313l2.313,0l-0,2.313l-2.313,0Zm13.877,0l0,-2.313l2.313,0l0,2.313l-2.313,0Zm32.381,0l-0,-2.313l2.313,0l-0,2.313l-2.313,0Zm-27.755,2.313l0,-2.313l2.313,0l-0,2.313l-2.313,0Zm6.939,0l-0,-2.313l2.313,0l-0,2.313l-2.313,0Zm-23.129,2.313l-0,-2.313l2.313,0l-0,2.313l-2.313,0Zm30.067,9.252l0,-2.313l2.313,-0l0,2.313l-2.313,-0Zm-13.877,2.313l0,-2.313l9.252,-0l-0,2.313l-9.252,-0Z"/>
            </g>
            <g id="gb-txt">
                <path style="fill:#f0f;" d="M4.626,27.755l-0,-6.939l2.313,-0l-0,-2.313l2.313,0l-0,-2.313l2.312,0l0,-2.313l2.313,0l0,-2.313l2.313,0l0,-2.312l4.626,-0l-0,-2.313l2.313,-0l-0,-2.313l6.938,-0l0,-2.313l27.755,-0l0,13.877l-4.626,0l0,-2.313l-18.503,0l0,2.313l-6.938,0l-0,2.313l-2.313,0l-0,2.313l-4.626,-0l-0,2.313l-2.313,-0l0,4.626l-2.313,-0l0,4.625l-2.313,0l0,13.878l2.313,-0l0,2.313l2.313,-0l0,2.312l2.313,0l-0,2.313l4.626,0l-0,2.313l11.564,0l0,-9.251l-9.251,-0l-0,-4.626l2.312,-0l0,-6.939l23.129,0l0,6.939l-2.313,-0l0,16.19l-2.312,0l-0,4.626l-4.626,-0l-0,2.313l-6.939,-0l0,2.313l-13.877,-0l-0,-2.313l-6.939,-0l0,-2.313l-4.626,-0l0,-2.313l-2.312,-0l-0,-2.313l-2.313,0l-0,-2.313l-2.313,0l-0,-4.626l-2.313,0l-0,-23.128l2.313,-0Z"/>
                <path style="fill:#de00ff;" d="M48.571,62.448l-0,-4.626l2.312,0l0,-2.313l2.313,0l0,-4.626l2.313,0l0,-6.938l2.313,-0l0,-4.626l2.313,0l-0,-4.626l2.313,0l-0,-4.626l2.313,0l-0,-6.938l2.313,-0l-0,-4.626l2.313,0l-0,-4.626l2.312,0l0,-6.938l2.313,-0l0,-4.626l16.19,-0l0,6.939l2.313,-0l0,13.877l2.313,-0l0,13.877l2.313,0l0,13.877l2.313,0l-0,2.313l-2.313,0l0,6.939l-2.313,-0l0,6.939l-6.938,-0l-0,-6.939l-2.313,-0l-0,-11.564l-2.313,-0l-0,-2.313l-13.877,-0l-0,2.313l-2.313,-0l-0,4.625l-2.313,0l-0,4.626l-2.313,0l-0,4.626l-2.313,-0l-0,4.626l-13.877,-0l-0,-4.626l2.313,-0Zm34.693,-27.755l-0,-2.313l-2.313,0l-0,-9.251l-2.313,-0l0,2.313l-2.313,-0l0,6.938l-2.313,0l0,2.313l9.252,0Z"/>
                <path style="fill:#bd00ff;" d="M97.141,60.135l0,-6.939l2.313,0l-0,-2.313l2.313,0l-0,-6.938l2.313,-0l-0,-6.939l2.313,0l-0,-6.939l2.313,0l-0,-6.938l2.312,-0l0,-6.939l2.313,0l0,-6.938l2.313,-0l0,-6.939l11.565,-0l-0,2.313l2.312,-0l0,11.564l2.313,0l0,11.565l2.313,-0l0,9.251l2.313,0l0,-4.626l2.313,0l0,-4.625l2.313,-0l-0,-4.626l2.313,-0l-0,-6.939l2.313,0l-0,-4.626l2.313,0l-0,-4.625l2.312,-0l0,-4.626l16.191,-0l-0,39.319l2.312,-0l0,25.442l-13.877,-0l0,-39.319l-2.313,-0l0,2.312l-2.313,0l0,6.939l-2.312,0l-0,4.626l-2.313,-0l-0,4.626l-2.313,-0l-0,6.938l-2.313,0l-0,4.626l-2.313,0l0,4.626l-2.313,-0l0,4.626l-9.251,-0l-0,-11.565l-2.313,0l-0,-11.564l-2.313,-0l-0,-11.565l-2.313,0l-0,2.313l-2.313,0l0,6.939l-2.313,-0l0,6.939l-2.313,-0l0,6.938l-2.313,0l0,6.939l-2.312,-0l-0,4.626l-13.878,-0l0,-6.939l2.313,-0Z"/>
                <path style="fill:#9c00ff;" d="M171.153,55.509l0,-6.938l2.313,-0l0,-16.191l2.313,0l0,-13.877l2.313,0l0,-13.877l2.313,-0l-0,-2.313l34.693,-0l0,4.626l-2.313,-0l0,9.251l-23.129,0l0,6.939l-2.312,-0l-0,4.626l20.816,-0l-0,6.938l-2.313,0l-0,6.939l-20.816,-0l-0,11.564l20.816,0l-0,13.878l-37.007,-0l0,-11.565l2.313,0Z"/>
                <path style="fill:#7b00ff;" d="M224.35,62.448l-0,-13.877l2.313,-0l-0,-13.878l2.312,0l0,-13.877l2.313,-0l0,-16.19l32.381,-0l-0,2.313l2.313,-0l-0,2.313l2.312,-0l0,2.312l2.313,0l0,4.626l2.313,0l0,6.939l-2.313,-0l0,4.626l-2.313,-0l0,4.625l-2.312,0l-0,4.626l2.312,0l0,2.313l2.313,0l0,16.19l-2.313,0l0,2.313l-2.312,0l-0,2.313l-2.313,-0l-0,2.313l-2.313,-0l-0,2.313l-6.939,-0l0,2.313l-32.38,-0l-0,-4.626l2.313,-0Zm27.754,-6.939l0,-2.313l4.626,0l0,-2.313l2.313,0l-0,-6.938l-2.313,-0l0,-2.313l-18.503,-0l-0,13.877l13.877,0Zm0,-25.442l0,-2.312l4.626,-0l0,-2.313l2.313,-0l-0,-6.939l-2.313,0l0,-2.313l-13.877,0l-0,6.939l-2.313,-0l-0,6.938l11.564,0Z"/>
                <path style="fill:#5a00ff;" d="M277.546,34.693l0,-11.564l2.313,-0l-0,-4.626l2.313,0l-0,-2.313l2.313,0l-0,-4.626l2.313,0l-0,-2.312l4.625,-0l0,-2.313l2.313,-0l0,-2.313l9.252,-0l-0,-2.313l4.625,-0l0,2.313l9.252,-0l0,2.313l2.313,-0l-0,2.313l2.313,-0l-0,2.312l2.313,0l-0,2.313l2.313,0l-0,4.626l2.312,0l0,9.252l2.313,-0l0,9.251l-2.313,0l0,9.252l-2.312,-0l-0,4.625l-2.313,0l-0,4.626l-2.313,0l-0,2.313l-2.313,0l-0,2.313l-2.313,-0l0,2.313l-2.313,-0l0,2.313l-4.626,-0l0,2.313l-16.19,-0l0,-2.313l-4.626,-0l0,-2.313l-4.625,-0l-0,-2.313l-2.313,-0l-0,-4.626l-2.313,0l-0,-4.626l-2.313,0l0,-9.251l-2.313,-0l0,-6.939l2.313,0Zm11.564,13.878l2.313,-0l0,4.625l4.626,0l0,2.313l9.252,0l-0,-2.313l4.625,0l0,-2.313l2.313,0l0,-4.625l2.313,-0l0,-4.626l2.313,-0l0,-20.816l-2.313,-0l0,-2.313l-2.313,0l0,-2.313l-4.626,0l0,-2.313l-4.625,0l-0,2.313l-4.626,0l-0,2.313l-2.313,0l0,2.313l-2.313,-0l0,2.313l-2.313,-0l0,4.626l-2.313,-0l0,20.816Z"/>
                <path style="fill:#3900ff;" d="M339.994,4.626l2.313,-0l-0,6.938l2.313,0l-0,4.626l2.313,0l-0,6.939l4.625,-0l0,-4.626l2.313,0l0,-4.626l2.313,0l0,-2.313l2.313,0l-0,-4.625l2.313,-0l-0,-2.313l2.313,-0l-0,-2.313l13.877,-0l-0,2.313l-2.313,-0l0,2.313l-2.313,-0l0,4.625l-2.313,0l0,4.626l-2.313,0l0,2.313l-2.312,0l-0,4.626l-2.313,-0l-0,2.313l-2.313,-0l-0,4.625l-2.313,0l-0,2.313l-2.313,0l0,4.626l-2.313,0l0,4.626l-2.313,-0l0,16.19l-2.313,0l0,11.565l-11.564,-0l-0,-13.878l2.313,0l-0,-13.877l2.313,-0l-0,-6.939l-2.313,0l-0,-4.626l-2.313,0l-0,-4.625l-2.313,-0l0,-4.626l-2.313,-0l0,-6.939l-2.313,0l0,-4.625l-2.313,-0l0,-4.626l-2.312,-0l-0,-2.313l13.877,-0l-0,2.313Z"/>
            </g>
        </g>
        <g id="ADVANCE">
            <g id="adv-bg">
                <path style="fill:#bd00ff;" d="M136.46,106.393l0,-4.626l2.313,-0l0,-4.626l2.313,0l-0,-4.626l2.313,0l-0,-4.625l2.313,-0l-0,-4.626l2.313,-0l-0,-4.626l2.312,0l0,-4.626l13.878,0l-0,37.006l-30.068,0l0,-4.625l2.313,-0Z"/>
                <path style="fill:#9c00ff;" d="M148.025,108.706l-0,-4.626l2.312,-0l0,-4.626l2.313,-0l0,-4.626l2.313,0l0,-4.626l2.313,0l0,-4.625l2.313,-0l-0,-4.626l2.313,-0l-0,-4.626l2.313,0l-0,-2.313l50.883,0l0,37.006l-69.386,0l-0,-2.312l2.313,-0Z"/>
                <path style="fill:#7b00ff;" d="M198.908,108.706l-0,-4.626l2.313,-0l-0,-4.626l2.313,-0l-0,-4.626l2.313,0l-0,-4.626l2.313,0l-0,-4.625l2.312,-0l0,-4.626l2.313,-0l0,-4.626l2.313,0l0,-2.313l43.945,0l-0,37.006l-62.448,0l0,-2.312l2.313,-0Z"/>
                <path style="fill:#5a00ff;" d="M242.853,108.706l-0,-4.626l2.313,-0l-0,-4.626l2.313,-0l-0,-4.626l2.312,0l0,-4.626l2.313,0l0,-4.625l2.313,-0l0,-4.626l2.313,-0l0,-4.626l2.313,0l0.005,-2.313l57.817,0l0,37.006l-76.325,0l-0,-2.312l2.313,-0Z"/>
                <path style="fill:#3900ff;" d="M300.675,108.706l-0,-4.626l2.313,-0l-0,-2.313l16.19,-0l-13.877,-0l-0,-4.626l2.312,0l0,-4.626l2.313,0l0,-4.625l2.313,-0l0,-4.626l2.313,-0l0,-4.626l2.313,0l0,-4.626l34.693,0l0,2.313l2.313,0l0,32.381l-2.313,-0l0,2.312l-53.196,0l-0,-2.312l2.313,-0Z"/>
            </g>
            <path id="adv-txt" style="fill:#fff;" d="M148.025,101.767l-0,-4.626l2.312,0l0,-4.626l2.313,0l0,-4.625l2.313,-0l0,-4.626l2.313,-0l0,-2.313l6.939,-0l-0,2.313l2.313,-0l-0,2.313l2.312,-0l0,4.625l2.313,0l0,4.626l2.313,0l0,2.313l2.313,0l0,-16.19l25.442,-0l-0,2.313l2.313,-0l-0,-2.313l6.938,-0l0,2.313l2.313,-0l0,4.626l2.313,-0l0,2.312l2.313,0l0,4.626l4.626,0l-0,-4.626l2.313,0l-0,-2.312l2.313,-0l-0,-4.626l2.312,-0l0,-2.313l6.939,-0l0,2.313l-2.313,-0l0,4.626l-2.313,-0l0,2.312l-2.313,0l0,4.626l-2.312,0l-0,4.626l-2.313,-0l-0,4.626l-9.252,-0l0,-4.626l-2.313,-0l0,-2.313l-2.313,0l0,-4.626l-2.312,0l-0,4.626l-2.313,0l-0,4.626l-2.313,-0l-0,2.313l-32.381,-0l0,-2.313l-2.313,-0l0,-2.313l-2.312,-0l-0,-4.626l-2.313,0l-0,-4.626l-2.313,0l-0,-2.312l-2.313,-0l-0,4.625l-2.313,0l0,2.313l-2.313,0l0,4.626l6.939,-0l-0,4.626l-16.19,-0l-0,-2.313l2.313,-0Zm34.693,-2.313l16.19,-0l-0,-4.626l2.313,0l-0,-4.626l-2.313,0l-0,-2.312l-2.313,-0l0,-2.313l-13.877,-0l-0,13.877Zm46.257,2.313l0,-4.626l2.313,0l0,-2.313l2.313,0l0,-4.626l2.313,0l0,-2.312l2.313,-0l-0,-4.626l2.313,-0l-0,-2.313l6.939,-0l-0,2.313l2.312,-0l0,4.626l2.313,-0l0,4.625l2.313,0l0,2.313l2.313,0l0,4.626l2.313,-0l-0,-18.503l6.939,-0l-0,2.313l2.312,-0l0,2.313l2.313,-0l0,2.313l4.626,-0l0,2.312l2.313,0l0,2.313l2.313,0l-0,2.313l2.313,0l-0,-13.877l6.938,-0l0,23.129l-6.938,-0l-0,-2.313l-4.626,-0l0,-2.313l-2.313,-0l0,-2.313l-2.313,0l0,-2.313l-2.313,0l0,-2.313l-4.625,0l-0,11.565l-13.878,-0l0,-2.313l-2.313,-0l0,-4.626l-2.312,0l-0,-4.626l-2.313,0l-0,-4.625l-2.313,-0l-0,2.312l-2.313,0l-0,4.626l-2.313,0l-0,4.626l4.626,-0l-0,4.626l-16.19,-0l-0,-2.313l2.312,-0Zm120.27,-16.19l-20.816,-0l0,4.625l11.565,0l-0,4.626l-11.565,0l0,4.626l20.816,-0l0,4.626l-27.754,-0l-0,-23.129l27.754,-0l0,4.626Zm-55.509,-2.313l0,-2.313l23.129,-0l0,2.313l2.313,-0l-0,6.938l-6.939,0l0,-4.625l-13.877,-0l-0,13.877l13.877,-0l0,-4.626l6.939,0l-0,6.939l-2.313,-0l0,2.313l-23.129,-0l0,-2.313l-2.313,-0l0,-18.503l2.313,-0Z"/>
        </g>

</svg>
