<svg viewBox="0 0 561 193" xmlns="http://www.w3.org/2000/svg">
    <g id="primary">
        <path style="fill:#3900ff;" d="M473.669,192.811l9.423,-77.282l72.327,0l-0,77.282l-81.75,-0Zm19.416,-159.247c2.115,8.2 2.34,17.355 0.226,26.615c-1.157,5.068 -2.929,9.807 -5.192,14.119l4.966,-40.734Zm3.797,-31.144l9.296,-0l12.009,31.167l19.444,-31.167l22.875,-0l-35.17,55.472l-6.005,40.031l-19.73,0l7.149,-45.178l-12.652,-27.49l2.784,-22.835Z"/>
        <path style="fill:#5a00ff;" d="M392.808,182.294l8.14,-66.765l86.784,0l-9.422,77.282l-71.981,-0l-13.521,-10.517Zm15.047,-123.414c3.975,8.602 1.92,17.205 -2.94,24.114l2.94,-24.114Zm89.912,-25.654l-14.178,-30.806l17.934,-0l-3.756,30.806Zm-32.764,-29.948c21.445,5.147 34.312,30.595 28.308,56.901c-6.005,26.307 -28.594,43.749 -50.325,38.602c-21.732,-5.147 -34.313,-30.595 -28.308,-56.902c6.004,-26.306 28.593,-43.462 50.325,-38.601Zm7.434,56.044c5.433,-15.727 1.43,-32.311 -9.15,-37.172c-10.294,-4.575 -23.161,4.575 -28.308,20.301c-5.147,16.013 -1.143,32.597 9.15,37.172c10.294,4.575 23.161,-4.575 28.308,-20.301Z"/>
        <path style="fill:#7b00ff;" d="M305.833,192.811l9.423,-77.282l57.359,0l21.236,16.639l-0,-16.639l10.779,0l-8.459,69.38l-11.515,-8.956l-0,16.858l-78.823,-0Zm81.395,-189.819c13.153,0.286 37.743,20.301 13.153,46.036c24.019,22.017 -2.574,48.609 -20.588,48.609l-44.034,0l15.154,-94.645l-0.285,-0c-0,-0 26.02,-0.286 36.6,-0Zm-11.438,76.345c17.442,0 17.728,-19.158 2.288,-18.872l-16.299,0l-3.145,18.872l17.156,0Zm2.288,-38.601c13.439,-0 16.012,-17.729 2.001,-17.729l-12.581,0l-3.145,17.729l13.725,-0Z"/>
        <path style="fill:#9c00ff;" d="M248.155,98.209l1.165,-9.559l0.371,9.559l-1.536,0Zm-2.089,17.133l18.398,-0.032l11.822,20.361l10.509,-20.142l32.199,0l-9.423,77.282l-45.763,-0l-8.101,-13.355c-4.064,4.607 -10.141,8.626 -18.802,11.021l9.161,-75.135Zm5.627,-17.419l15.155,-95.503l54.042,-0l-3.145,20.587l-34.313,0l-2.573,16.871l30.023,-0l-3.145,20.587l-29.738,0l-2.859,16.871l34.312,-0l-3.145,20.587l-54.614,0Z"/>
        <path style="fill:#bd00ff;" d="M145.023,98.209l2.928,-24.013l23.393,-71.776l19.444,-0l9.436,52.327l22.303,-52.327l23.447,-0l3.717,95.789l-19.443,0l-2.574,-58.903l-25.448,58.903l-13.153,0l-10.866,-53.184l-16.87,53.184l-16.314,0Zm107.123,-0.286l-0.453,0l1.956,-12.328l-1.503,12.328Zm-109.234,17.598l107.111,-0.186l-8.999,73.814c-6.116,2.275 -13.755,3.662 -23.191,3.662l-84.344,-0l9.423,-77.29Z"/>
        <path style="fill:#de00ff;" d="M81.473,22.934l2.384,-19.553c0.755,0.237 1.514,0.489 2.278,0.755c-1.43,9.435 -3.145,19.443 -3.145,19.443c-0.493,-0.226 -0.999,-0.441 -1.517,-0.645Zm-3.549,29.113l0.159,-1.304l0.046,0l-0.205,1.304Zm-5.628,46.162l2.015,-16.526l34.985,-79.263l24.019,-0l12.867,77.203l11.558,-35.461l-6.59,54.047l-22.982,0l-4.861,-28.594l-22.589,0l-12.867,28.594l-15.555,0Zm67.32,94.602l-43.288,-0l41.596,-77.282l11.117,-0.019l-9.425,77.301Zm-31.178,-142.068l12.009,0l-3.717,-18.586l-8.292,18.586Z"/>
        <path style="fill:#f0f;" d="M72.971,98.209l-5.708,0l2.859,-6.576c0,-0 -0.286,-0 -0.572,0.286c-30.595,17.442 -66.337,-0 -69.197,-27.736c-2.287,-24.019 6.577,-41.747 25.163,-53.185c13.441,-8.12 33.462,-15.692 58.991,-7.41l-2.391,19.608c-13.839,-5.819 -36.871,-3.655 -50.309,8.104c-16.871,14.582 -13.153,30.595 -9.15,37.743c6.29,11.438 21.159,12.582 29.737,8.865l1.716,-9.436l-15.155,-0l2.859,-17.729l36.315,0l-5.433,34.599l2.547,-5.771l-2.272,18.638Z"/>
    </g>
    <g id="shine">
        <path style="fill:#e734ff;" d="M99.241,72.897c-1.148,-5.56 -1.752,-11.319 -1.752,-17.217c0,-20.166 7.054,-38.698 18.826,-53.26l17,-0l12.867,77.203l25.162,-77.203l19.444,-0l9.436,52.327l22.303,-52.327l23.447,-0l3.717,95.789l-19.443,0l-2.574,-58.903l-25.448,58.903l-13.153,0l-10.866,-53.184l-16.87,53.184l-33.169,0l-4.861,-28.594l-22.589,0l-1.477,3.282Zm156.6,25.026l-4.148,0l10.998,-69.308c2.865,8.501 4.417,17.603 4.417,27.065c0,15.376 -4.101,29.802 -11.267,42.243Zm-122.841,26.755l4.924,-9.149l104.62,-0.181c-15.374,15.521 -36.695,25.141 -60.245,25.141c-18.38,0 -35.402,-5.859 -49.299,-15.811Zm-24.562,-73.935l12.009,0l-3.717,-18.586l-8.292,18.586Z"/>
        <path style="fill:#e786ff;" d="M143.79,98.209c-12.172,-10.703 -19.858,-26.388 -19.858,-43.854c-0,-13.389 4.516,-25.731 12.108,-35.585l10.142,60.853l25.162,-77.203l19.444,-0l9.436,52.327l19.328,-45.346c12.915,10.712 21.146,26.88 21.146,44.954c0,12.653 -4.033,24.37 -10.884,33.937l-2.14,-48.986l-25.448,58.903l-13.153,0l-10.866,-53.184l-16.87,53.184l-17.547,0Z"/>
    </g>
    <path id="txtAdvance" style="fill:#fff;" d="M310.22,128.227l-1.313,2.189l-27.804,48.164l-0.438,0.657l-9.852,0l-0.438,-0.657l-20.141,-33.277c0.657,2.409 1.095,5.036 1.095,8.101c-0,17.076 -11.384,25.833 -33.496,25.833l-42.253,0l-0.438,-0.657l-20.798,-36.998l-14.668,26.49l14.668,-0l-0,11.384l-36.123,0l1.313,-2.189l28.68,-48.164l0.438,-0.657l12.916,-0l0.438,0.657l25.177,41.596l-0,-42.472l33.934,0c10.289,0 18.171,2.627 23.425,7.663l-3.284,-5.255l-1.313,-2.189l16.857,-0l0.438,0.657l19.046,32.62l17.734,-32.62l0.437,-0.876l15.763,0Zm-94.795,39.188c15.543,0 21.017,-3.503 21.017,-14.449c-0,-8.976 -5.036,-13.136 -15.325,-13.136l-19.266,0l0,27.585l13.574,0Zm191.123,-39.188l13.574,0l-0,51.229l-10.071,0l-0.438,-0.438l-38.312,-30.431l-0,30.869l-24.958,0l-0.438,-0.876l-20.798,-36.998l-14.668,26.49l14.668,-0l0,11.384l-36.342,0l1.314,-2.408l28.679,-47.945l0.438,-0.876l12.917,0l0.438,0.876l25.176,41.596l0,-42.472l10.071,0l0.438,0.438l38.312,29.993l0,-30.431Zm62.176,0c10.508,0 14.011,3.065 14.011,12.917l0,6.13l-14.887,-0l0,-7.006l-28.679,0l-0,26.928l28.679,0l0,-7.881l14.887,-0l0,7.224c0,9.633 -3.503,12.917 -14.011,12.917l-29.993,0c-10.509,0 -14.012,-3.284 -14.012,-12.917l0,-25.395c0,-9.633 3.503,-12.917 14.012,-12.917l29.993,0Zm33.496,39.188l40.501,0l0,12.041l-55.17,0l0,-51.229l54.513,0l0,11.603l-39.844,0l-0,7.444l23.425,-0l-0,11.165l-23.425,0l-0,8.976Z"/>
</svg>