<svg viewBox="0 0 318 107" xmlns="http://www.w3.org/2000/svg">
    <path id="GAMEBOY" style="fill:#3588ee;" d="M43,40l2,0l0,-5l3,0l0,-5l2,0l0,-5l3,0l0,-5l2,0l0,-5l3,0l0,-5l2,0l0,-5l3,0l0,-5l12,0l0,10l3,0l0,15l2,0l0,20l3,0l0,-5l2,0l0,-10l3,0l0,-5l2,0l0,-10l3,0l0,-10l2,0l0,-5l13,0l0,10l2,0l0,15l3,0l0,5l2,0l0,-5l3,0l0,-5l2,0l0,-5l3,0l0,-5l2,0l0,-5l3,0l0,-5l10,0l0,30l2,0l0,15l3,0l0,-5l2,0l0,-15l3,0l0,-15l2,0l0,-10l30,0l0,10l-20,0l0,10l13,0l0,10l-15,0l0,5l-3,0l0,10l18,0l0,10l-43,0l0,-15l-2,0l0,-15l-3,0l0,10l-2,0l0,5l-3,0l0,5l-2,0l0,5l-3,0l0,5l-7,0l0,-5l-3,0l0,-10l-2,0l0,-10l-3,0l0,-5l-2,0l0,10l-3,0l0,10l-2,0l0,10l-23,0l0,-10l-2,0l0,-5l-13,0l0,5l-2,0l0,5l-3,0l0,5l-10,0l0,-5l-2,0l0,5l-25,0l0,-5l-5,0l0,-5l-5,0l0,-5l-3,0l0,-20l3,0l0,-5l2,0l0,-5l5,0l0,-5l8,0l0,-5l27,0l0,5l5,0l0,10l-10,0l0,-5l-15,0l0,5l-7,0l0,5l-5,0l0,5l-3,0l0,10l3,0l0,5l2,0l0,5l15,0l0,-5l-7,0l0,-10l20,0l0,10l-3,0l0,5l3,0l0,-5Zm20,-20l0,5l-3,0l0,5l8,0l0,-10l-5,0Zm215,-10l0,10l2,0l0,10l-2,0l0,10l-3,0l0,5l-5,0l0,5l-5,0l0,5l-22,0l0,-5l-5,0l0,-5l-3,0l0,-10l-2,0l0,-10l2,0l0,-10l3,0l0,-5l5,0l0,-5l5,0l0,-5l22,0l0,5l5,0l0,5l3,0Zm-3,-5l0,-5l13,0l0,5l2,0l0,5l3,0l0,5l5,0l0,-5l5,0l0,-5l2,0l0,-5l13,0l0,5l-3,0l0,5l-2,0l0,5l-5,0l0,5l-5,0l0,5l-3,0l0,5l-2,0l0,15l-3,0l0,10l-12,0l0,-10l2,0l0,-16l3,0l0,-4l-3,0l0,-5l-2,0l0,-5l-3,0l0,-5l-2,0l0,-5l-3,0Zm-30,35l3,0l0,5l12,0l0,-5l5,0l0,-6l3,0l0,-19l-3,0l0,-5l-12,0l0,5l-5,0l0,5l-3,0l0,20Zm-55,15l0,-10l3,0l0,-15l2,0l0,-15l3,0l0,-15l27,0l0,5l5,0l0,5l3,0l0,10l-3,0l0,5l-2,0l0,5l2,0l0,15l-2,0l0,5l-5,0l0,5l-33,0Zm13,-10l15,0l0,-5l2,0l0,-5l-2,0l0,-5l-13,0l0,10l-2,0l0,5Zm5,-25l12,0l0,-5l-2,0l0,-5l-10,0l0,10Z"/>
    <g id="COLOR">
        <path id="C" style="fill:#c23a44;" d="M170,61l6,0l0,1l1,0l0,1l4,0l0,1l2,0l0,2l1,0l0,8l-1,0l0,1l-7,0l0,-1l-1,0l0,-3l-3,0l0,1l-2,0l0,2l-3,0l0,1l-1,0l0,2l-2,0l0,3l-2,0l0,3l-1,0l0,5l-2,0l0,3l2,0l0,3l1,0l0,2l4,0l0,1l17,0l0,2l1,0l0,6l-3,0l0,2l-19,0l0,-2l-4,0l0,-1l-2,0l0,-2l-1,0l0,-1l-2,0l0,-4l-1,0l0,-3l-2,0l0,-9l2,0l0,-5l1,0l0,-3l2,0l0,-2l1,0l0,-3l2,0l0,-1l1,0l0,-2l2,0l0,-2l1,0l0,-1l2,0l0,-2l3,0l0,-1l3,0l0,-2Z"/>
        <path id="O" style="fill:#45a2d1;" d="M195,69l9,0l0,2l3,0l0,1l3,0l0,2l2,0l0,1l2,0l0,2l1,0l0,3l2,0l0,13l-2,0l0,3l-1,0l0,3l-2,0l0,2l-3,0l0,1l-2,0l0,2l-4,0l0,1l-13,0l0,-1l-3,0l0,-2l-3,0l0,-3l-1,0l0,-2l-2,0l0,-3l-2,0l0,-8l2,0l0,-3l2,0l0,-3l1,0l0,-3l2,0l0,-2l1,0l0,-1l2,0l0,-2l3,0l0,-1l3,0l0,-2Zm3,9l0,2l-3,0l0,2l-2,0l0,1l-1,0l0,2l-2,0l0,6l2,0l0,3l3,0l0,2l8,0l0,-2l1,0l0,-1l2,0l0,-2l1,0l0,-6l-1,0l0,-3l-2,0l0,-2l-1,0l0,-2l-5,0Z"/>
        <path id="L" style="fill:#75cb06;" d="M215,63l6,0l0,1l2,0l0,3l1,0l0,8l2,0l0,19l3,0l0,-1l11,0l0,1l1,0l0,8l-4,0l0,2l-6,0l0,1l-5,0l0,2l-6,0l0,-2l-2,0l0,-4l-1,0l0,-21l-2,0l0,-8l-1,0l0,-8l1,0l0,-1Z"/>
        <path id="O2" style="fill:#d7ac00;" d="M249,71l14,0l0,1l3,0l0,2l3,0l0,3l2,0l0,1l1,0l0,8l2,0l0,7l-2,0l0,1l-1,0l0,3l-2,0l0,2l-3,0l0,2l-1,0l0,1l-3,0l0,2l-5,0l0,1l-11,0l0,-1l-3,0l0,-2l-2,0l0,-8l-1,0l0,-1l-3,0l0,-10l1,0l0,-3l2,0l0,-3l1,0l0,-2l2,0l0,-1l3,0l0,-2l3,0l0,-1Zm2,9l0,2l-3,0l0,3l-2,0l0,5l2,0l0,3l1,0l0,1l3,0l0,1l3,0l0,-1l5,0l0,-1l2,0l0,-2l1,0l0,-3l2,0l0,-5l-2,0l0,-1l-1,0l0,-2l-11,0Z"/>
        <path id="R" style="fill:#00938a;" d="M282,63l6,0l0,1l6,0l0,2l3,0l0,1l2,0l0,2l1,0l0,2l2,0l0,7l-2,0l0,4l-1,0l0,1l-2,0l0,2l-3,0l0,1l-1,0l0,4l1,0l0,1l2,0l0,2l1,0l0,1l3,0l0,2l2,0l0,1l1,0l0,2l2,0l0,6l-2,0l0,2l-6,0l0,-2l-3,0l0,-1l-1,0l0,-2l-2,0l0,-1l-1,0l0,-2l-4,0l0,-2l-1,0l0,-1l-2,0l0,6l-1,0l0,3l-2,0l0,2l-4,0l0,-2l-2,0l0,-1l-2,0l0,-10l2,0l0,-8l-2,0l0,-9l-1,0l0,-8l1,0l0,-2l2,0l0,-1l3,0l0,-2l5,0l0,-1Zm0,11l0,3l1,0l0,3l3,0l0,-2l5,0l0,-1l2,0l0,-2l-2,0l0,-1l-9,0Z"/>
    </g>
</svg>
