<svg width="100%" height="100%" viewBox="0 0 310 64" xmlns="http://www.w3.org/2000/svg">
    <path id="Frame" style="fill:#bec6d5;" d="M0,23l2,-0l0,-2l3,-0l0,-2l114,-0l0,-2l2,-0l0,-5l2,-0l0,-5l2,-0l0,-4l2,-0l0,-3l59,-0l0,3l2,-0l0,4l2,-0l0,5l2,-0l0,5l2,-0l0,2l111,-0l0,2l3,-0l0,2l2,-0l0,37l-2,-0l0,2l-3,-0l0,2l-300,-0l0,-2l-3,-0l0,-2l-2,-0l0,-37Z"/>
    <g id="Gradient">
        <path d="M2,58l306,-0l0,2l-3,-0l0,2l-300,-0l0,-2l-3,-0l0,-2Z" style="fill:#d2d9e3;"/>
        <path d="M0,54l310,-0l0,3l-2,-0l0,1l-306,-0l0,-1l-2,-0l0,-3Z" style="fill:#c6cedb;"/>
        <rect x="0" y="49" width="310" height="5" style="fill:#bbc3d3;"/>
        <rect x="0" y="45" width="310" height="4" style="fill:#afb7ca;"/>
        <rect x="0" y="41" width="310" height="4" style="fill:#a6aec2;"/>
        <rect x="0" y="37" width="310" height="4" style="fill:#9ca4b9;"/>
        <rect x="0" y="33" width="310" height="4" style="fill:#939bb0;"/>
        <rect x="0" y="29" width="310" height="4" style="fill:#9097ae;"/>
        <path d="M2,25l306,-0l0,1l2,-0l0,3l-310,-0l0,-3l2,-0l0,-1Z" style="fill:#8990a6;"/>
        <path d="M5,21l300,-0l0,2l3,-0l0,2l-306,-0l0,-2l3,-0l0,-2Z" style="fill:#8d96aa;"/>
        <rect x="121" y="17" width="71" height="4" style="fill:#9da5b9;"/>
        <rect x="123" y="13" width="67" height="4" style="fill:#abb3c6;"/>
        <path d="M125,9l63,-0l0,3l2,-0l0,1l-67,-0l0,-1l2,-0l0,-3Z" style="fill:#b3bccd;"/>
        <path d="M127,5l59,-0l0,2l2,-0l0,2l-63,-0l0,-2l2,-0l0,-2Z" style="fill:#c4ccda;"/>
        <path d="M129,2l55,-0l0,1l2,-0l0,2l-59,-0l0,-2l2,-0l0,-1Z" style="fill:#cdd4e0;"/>
    </g>
    <path id="GENESIS" style="fill:#231f20;" d="M12,26l34,-0l0,2l-5,-0l0,2l-3,-0l0,4l-23,-0l0,15l21,-0l0,-6l-12,-0l0,-3l5,-0l0,-2l5,-0l0,-2l12,-0l0,13l-2,-0l0,3l-6,-0l0,3l-2,-0l0,2l-31,-0l0,-27l5,-0l0,-2l2,-0l0,-2Zm52,-0l29,-0l0,2l-5,-0l0,2l-4,-0l0,4l-17,-0l0,4l19,-0l0,2l-5,-0l0,3l-2,-0l0,2l-12,-0l0,4l26,-0l0,3l-3,-0l0,3l-4,-0l0,2l-32,-0l0,-23l2,-0l0,-4l3,-0l0,-2l5,-0l0,-2Zm37,-0l15,-0l0,2l2,-0l0,2l4,-0l0,2l2,-0l0,2l3,-0l0,2l6,-0l0,-10l9,-0l0,31l-9,-0l0,-12l-3,-0l0,-2l-5,-0l0,-3l-3,-0l0,-2l-4,-0l0,-2l-5,-0l0,-2l-3,-0l0,23l-9,-0l0,-31Zm58,-0l29,-0l0,2l-5,-0l0,2l-4,-0l0,4l-17,-0l0,4l19,-0l0,2l-5,-0l0,3l-2,-0l0,2l-12,-0l0,4l26,-0l0,3l-3,-0l0,3l-4,-0l0,2l-32,-0l0,-23l2,-0l0,-4l3,-0l0,-2l5,-0l0,-2Zm44,-0l34,-0l0,2l-5,-0l0,2l-3,-0l0,4l-23,-0l0,4l31,-0l0,14l-5,-0l0,3l-5,-0l0,2l-32,-0l0,-2l6,-0l0,-3l5,-0l0,-3l21,-0l0,-4l-32,-0l0,-15l3,-0l0,-2l5,-0l0,-2Zm41,-0l11,-0l0,31l-11,-0l0,-31Zm27,-0l34,-0l0,2l-5,-0l0,2l-3,-0l0,4l-23,-0l0,4l31,-0l0,14l-5,-0l0,3l-5,-0l0,2l-32,-0l0,-2l6,-0l0,-3l5,-0l0,-3l21,-0l0,-4l-32,-0l0,-15l3,-0l0,-2l5,-0l0,-2Z"/>
    <path id="SEGA" style="fill:#175892;" d="M131,14l7,-0l0,-1l-5,-0l0,-1l-1,-0l0,-1l-1,-0l0,-7l1,-0l0,-1l1,-0l0,-1l10,-0l0,2l-9,-0l0,1l-1,-0l0,5l1,-0l0,1l5,-0l0,1l1,-0l0,3l-1,-0l0,1l-8,-0l0,-2Zm0,3l9,-0l0,-1l1,-0l0,-5l-1,-0l0,-1l-5,-0l0,-1l-1,-0l0,-3l1,-0l0,-1l8,-0l0,2l-8,-0l0,1l6,-0l0,1l1,-0l0,1l1,-0l0,7l-1,-0l0,1l-1,-0l0,1l-10,-0l0,-2Zm25,-15l0,2l-9,-0l0,1l-1,-0l0,11l1,-0l0,1l9,-0l0,2l-10,-0l0,-1l-1,-0l0,-1l-1,-0l0,-13l1,-0l0,-1l1,-0l0,-1l10,-0Zm0,3l0,2l-8,-0l0,1l6,-0l0,2l-7,-0l0,-4l1,-0l0,-1l8,-0Zm-2,6l0,2l-6,-0l0,1l8,-0l0,2l-8,-0l0,-1l-1,-0l0,-4l7,-0Zm15,-9l0,2l-9,-0l0,1l-1,-0l0,11l1,-0l0,1l7,-0l0,-7l-4,-0l0,-2l6,-0l0,9l1,-0l0,-2l1,-0l0,-4l1,-0l0,-4l1,-0l0,-3l1,-0l0,-1l1,-0l0,-1l3,-0l0,1l1,-0l0,1l1,-0l0,3l1,-0l0,4l1,-0l0,4l1,-0l0,4l-7,-0l0,-2l5,-0l0,-2l-1,-0l0,-4l-1,-0l0,-4l-1,-0l0,-3l-3,-0l0,3l-1,-0l0,4l-1,-0l0,4l-1,-0l0,4l-13,-0l0,-1l-1,-0l0,-1l-1,-0l0,-13l1,-0l0,-1l1,-0l0,-1l10,-0Zm0,3l0,2l-7,-0l0,7l3,-0l0,-1l-2,-0l0,-2l3,-0l0,5l-5,-0l0,-1l-1,-0l0,-9l1,-0l0,-1l8,-0Zm4,14l0,-3l1,-0l0,-4l1,-0l0,-4l1,-0l0,-3l1,-0l0,3l1,-0l0,4l1,-0l0,4l-4,-0l0,3l-2,-0Zm2,-5l3,-0l0,-1l-1,-0l0,-2l-1,-0l0,2l-1,-0l0,1Z"/>
</svg>
