<svg width="100%" height="100%" viewBox="0 0 358 128" xmlns="http://www.w3.org/2000/svg">
    <path id="EntertainmentSystemShadow" style="fill:#830000;" d="M23.518,75.781l2.613,0l0,5.226l-20.905,0l0,-2.613l18.292,0l0,-2.613Zm-2.613,7.839l2.613,0l0,5.227l-18.292,-0l0,-2.613l15.679,-0l0,-2.614Zm2.613,7.84l2.613,-0l0,5.226l-20.905,0l0,-2.613l18.292,-0l0,-2.613Zm31.358,-13.066l2.613,0l0,18.292l-5.226,0l-0,-2.613l2.613,-0l-0,-15.679Zm-5.226,2.613l-13.066,0l-0,15.679l-5.226,0l-0,-2.613l2.613,-0l-0,-15.679l15.679,0l-0,2.613Zm57.489,-5.226l2.613,0l-0,5.226l-18.292,0l-0,-2.613l15.679,0l-0,-2.613Zm-0,7.839l2.613,0l-0,5.227l-18.292,-0l-0,-2.613l15.679,-0l-0,-2.614Zm-0,7.84l2.613,-0l-0,5.226l-18.292,0l-0,-2.613l15.679,-0l-0,-2.613Zm28.744,-13.066l2.613,0l0,7.84l-2.613,-0l0,2.613l-2.613,-0l0,-5.227l2.613,0l0,-5.226Zm0,13.066l2.613,-0l0,5.226l-5.226,0l0,-2.613l2.613,-0l0,-2.613Zm-5.226,-0l-10.453,-0l0,5.226l-5.226,0l0,-2.613l2.613,-0l0,-5.226l13.066,-0l-0,2.613Zm-0,-10.453l-10.453,0l0,2.613l-2.613,0l0,-5.226l13.066,0l-0,2.613Zm60.102,-2.613l2.613,0l0,18.292l-5.226,0l-0,-2.613l2.613,-0l0,-15.679Zm-5.226,13.066l-10.453,-0l0,5.226l-5.226,0l0,-2.613l2.613,-0l0,-5.226l13.066,-0l-0,2.613Zm-13.066,-13.066l13.066,0l-0,2.613l-10.453,0l0,2.613l-2.613,0l0,-5.226Zm60.102,0l2.613,0l0,18.292l-5.226,0l0,-2.613l2.613,-0l0,-15.679Zm-5.226,2.613l-13.066,0l0,15.679l-5.226,0l0,-2.613l2.613,-0l0,-15.679l15.679,0l0,2.613Zm44.423,-2.613l2.614,0l-0,18.292l-5.227,0l0,-2.613l2.613,-0l0,-15.679Zm-7.839,2.613l-5.226,0l-0,15.679l-5.227,0l0,-2.613l2.614,-0l-0,-15.679l7.839,0l0,2.613Zm-13.066,0l-5.226,0l0,15.679l-5.226,0l-0,-2.613l2.613,-0l-0,-15.679l7.839,0l0,2.613Zm47.037,-5.226l2.613,0l-0,5.226l-18.292,0l-0,-2.613l15.679,0l-0,-2.613Zm-2.613,7.839l2.613,0l-0,5.227l-15.679,-0l-0,-2.613l13.066,-0l-0,-2.614Zm2.613,7.84l2.613,-0l-0,5.226l-18.292,0l-0,-2.613l15.679,-0l-0,-2.613Zm31.357,-13.066l2.614,0l-0,18.292l-5.227,0l0,-2.613l2.613,-0l0,-15.679Zm-5.226,2.613l-13.065,0l-0,15.679l-5.227,0l0,-2.613l2.613,-0l0,-15.679l15.679,0l0,2.613Zm-49.649,28.745l2.613,-0l-0,18.292l-5.227,-0l0,-2.613l2.614,-0l-0,-15.679Zm-7.84,2.613l-5.226,-0l-0,15.679l-5.226,-0l-0,-2.613l2.613,-0l-0,-15.679l7.839,-0l0,2.613Zm-13.066,-0l-5.226,-0l0,15.679l-5.226,-0l-0,-2.613l2.613,-0l0,-15.679l7.839,-0l0,2.613Zm-20.905,-5.226l2.613,-0l0,5.226l-18.291,-0l-0,-2.613l15.678,-0l0,-2.613Zm0,7.839l2.613,0l0,5.226l-18.291,0l-0,-2.613l15.678,0l0,-2.613Zm0,7.84l2.613,-0l0,5.226l-18.291,-0l-0,-2.613l15.678,-0l0,-2.613Zm-101.912,-15.679l2.613,-0l0,5.226l-2.613,-0l-0,-5.226Zm15.679,-0l2.613,-0l-0,10.452l-2.613,0l-0,2.613l-5.227,0l0,7.84l-5.226,-0l0,-2.613l2.613,-0l0,-7.84l5.227,0l-0,-2.613l2.613,0l-0,-7.839Zm-13.066,13.065l-2.613,0l-0,-2.613l2.613,0l0,2.613Zm41.81,-13.065l2.613,-0l0,5.226l-18.292,-0l0,-2.613l15.679,-0l0,-2.613Zm0,10.452l2.613,0l0,7.84l-2.613,-0l0,2.613l-18.292,-0l0,-2.613l15.679,-0l0,-2.613l2.613,-0l0,-5.227Zm-15.679,2.613l0,-2.613l10.453,0l0,2.613l-10.453,0Zm-41.81,-13.065l2.613,-0l0,5.226l-18.292,-0l0,-2.613l15.679,-0l0,-2.613Zm0,10.452l2.613,0l0,7.84l-2.613,-0l0,2.613l-20.905,-0l0,-2.613l18.292,-0l0,-2.613l2.613,-0l0,-5.227Zm-18.292,2.613l0,-2.613l13.066,0l-0,2.613l-13.066,0Zm-18.292,-44.423l2.613,0l0,5.226l-7.839,0l0,15.679l-5.226,0l-0,-2.613l2.613,-0l-0,-15.679l7.839,0l0,-2.613Zm-13.065,5.226l-5.227,0l0,-2.613l5.227,0l-0,2.613Zm94.073,-5.226l2.613,0l-0,5.226l-7.84,0l0,15.679l-5.226,0l0,-2.613l2.613,-0l0,-15.679l7.84,0l-0,-2.613Zm-13.066,5.226l-5.226,0l-0,-2.613l5.226,0l-0,2.613Zm206.438,-5.226l2.613,0l-0,5.226l-7.839,0l-0,15.679l-5.227,0l0,-2.613l2.613,-0l0,-15.679l7.84,0l-0,-2.613Zm-13.066,5.226l-5.226,0l-0,-2.613l5.226,0l0,2.613Zm-138.496,26.132l2.613,-0l-0,5.226l-7.839,-0l-0,15.679l-5.227,-0l0,-2.613l2.613,-0l0,-15.679l7.84,-0l-0,-2.613Zm-13.066,5.226l-5.226,-0l-0,-2.613l5.226,-0l0,2.613Zm10.453,-36.584l2.613,0l-0,20.905l-5.226,0l-0,-2.613l2.613,-0l-0,-18.292Z"/>
    <path id="EntertainmentSystemTxt" style="fill:#f00;" d="M-0,91.46l-0,-18.292l23.518,-0l0,5.226l-18.292,0l0,2.613l15.679,0l0,5.227l-15.679,-0l0,2.613l18.292,-0l0,5.226l-20.905,-0l0,-2.613l-2.613,-0Zm33.971,-13.066l-0,15.679l-5.226,-0l-0,-20.905l23.518,-0l-0,2.613l2.613,0l-0,18.292l-5.226,-0l-0,-15.679l-15.679,0Zm33.971,0l-7.84,0l0,-5.226l20.905,-0l0,5.226l-7.839,0l-0,15.679l-5.226,-0l-0,-15.679Zm18.292,13.066l-0,-18.292l20.905,-0l-0,5.226l-15.679,0l-0,2.613l15.679,0l-0,5.227l-15.679,-0l-0,2.613l15.679,-0l-0,5.226l-18.292,-0l-0,-2.613l-2.613,-0Zm31.357,-2.613l0,5.226l-5.226,-0l-0,-20.905l20.905,-0l0,2.613l2.613,0l0,7.839l-2.613,0l0,5.227l2.613,-0l0,5.226l-5.226,-0l-0,-5.226l-13.066,-0Zm0,-10.453l0,5.226l13.066,0l-0,-5.226l-13.066,0Zm31.358,0l-7.84,0l0,-5.226l20.906,-0l-0,5.226l-7.84,0l0,15.679l-5.226,-0l-0,-15.679Zm23.518,10.453l0,5.226l-5.226,-0l-0,-18.292l2.613,0l0,-2.613l18.292,-0l-0,2.613l2.613,0l0,18.292l-5.226,-0l-0,-5.226l-13.066,-0Zm0,-10.453l0,5.226l13.066,0l-0,-5.226l-13.066,0Zm39.197,0l0,15.679l-5.226,-0l-0,-20.905l23.518,-0l0,2.613l2.613,0l0,18.292l-5.226,-0l0,-15.679l-15.679,0Zm31.358,0l-0,15.679l-5.226,-0l-0,-20.905l31.357,-0l0,2.613l2.613,0l0,18.292l-5.226,-0l0,-13.066l-2.613,0l0,-2.613l-7.839,0l-0,15.679l-5.227,-0l0,-15.679l-7.839,0Zm33.971,13.066l-0,-18.292l20.905,-0l-0,5.226l-15.679,0l-0,2.613l13.066,0l-0,5.227l-13.066,-0l-0,2.613l15.679,-0l-0,5.226l-18.292,-0l-0,-2.613l-2.613,-0Zm31.357,-13.066l0,15.679l-5.226,-0l0,-20.905l23.518,-0l0,2.613l2.613,0l0,18.292l-5.226,-0l0,-15.679l-15.679,0Zm33.971,0l-7.839,0l-0,-5.226l20.905,-0l-0,5.226l-7.84,0l0,15.679l-5.226,-0l0,-15.679Zm-96.686,31.358l0,15.679l-5.226,-0l-0,-20.905l31.357,-0l0,2.613l2.614,-0l-0,18.292l-5.227,-0l0,-13.066l-2.613,-0l0,-2.613l-7.839,-0l-0,15.679l-5.227,-0l0,-15.679l-7.839,-0Zm-33.971,13.066l0,-18.292l20.905,-0l0,5.226l-15.678,-0l-0,2.613l15.678,-0l0,5.226l-15.678,0l-0,2.613l15.678,0l0,5.227l-18.292,-0l0,-2.613l-2.613,-0Zm-20.905,-13.066l-7.839,-0l-0,-5.226l20.905,-0l-0,5.226l-7.84,-0l0,15.679l-5.226,-0l0,-15.679Zm-62.715,5.226l-2.613,0l-0,-10.452l5.226,-0l-0,7.839l10.452,-0l0,-7.839l5.227,-0l-0,10.452l-2.613,0l-0,2.613l-5.227,0l0,7.84l-5.226,-0l0,-7.84l-5.226,0l-0,-2.613Zm28.744,0l-2.613,0l0,-7.839l2.613,-0l0,-2.613l18.292,-0l0,5.226l-15.679,-0l0,2.613l13.066,-0l0,2.613l2.613,0l0,7.84l-2.613,-0l0,2.613l-18.292,-0l0,-5.227l15.679,0l0,-2.613l-13.066,0l0,-2.613Zm-60.102,0l-2.613,0l-0,-7.839l2.613,-0l0,-2.613l20.905,-0l0,5.226l-15.679,-0l0,2.613l13.066,-0l0,2.613l2.613,0l0,7.84l-2.613,-0l0,2.613l-20.905,-0l-0,-5.227l18.292,0l-0,-2.613l-15.679,0l0,-2.613Zm104.526,-41.81l-0,20.905l-5.227,-0l0,-20.905l5.227,-0Z"/>
    <path id="BadgeShadow" style="fill:#830000;" d="M284.832,60.102l0,-2.613l5.226,0l0,2.613l-5.226,0Zm13.066,-13.066l-0,-5.226l2.613,0l-0,5.226l-2.613,0Zm-13.066,13.066l0,5.226l-206.438,0l0,-2.613l203.825,0l-0,-2.613l2.613,0Zm15.679,-18.292l-0,-18.292l2.613,0l0,18.292l-2.613,0Zm-10.453,15.679l0,-2.613l2.614,-0l-0,2.613l-2.614,0Zm2.614,-2.613l-0,-2.613l2.613,-0l-0,2.613l-2.613,-0Zm2.613,-2.613l-0,-5.227l2.613,0l-0,5.227l-2.613,-0Z"/>
    <path id="BadgeBG" style="fill:#f00;" d="M75.781,-0l206.438,-0l-0,2.613l2.613,0l0,2.613l5.226,0l0,2.613l2.614,0l-0,5.227l2.613,-0l-0,2.613l2.613,-0l-0,5.226l2.613,0l-0,20.905l-2.613,0l-0,5.226l-2.613,0l-0,5.227l-2.613,-0l-0,2.613l-2.614,-0l0,2.613l-5.226,0l0,2.613l-2.613,0l-0,2.613l-206.438,0l0,-2.613l-5.226,0l-0,-2.613l-5.227,0l0,-2.613l-2.613,-0l0,-2.613l-2.613,-0l0,-5.227l-2.613,0l0,-5.226l-2.613,0l-0,-20.905l2.613,0l0,-5.226l2.613,-0l0,-2.613l2.613,-0l0,-5.227l2.613,0l0,-2.613l5.227,0l-0,-2.613l5.226,0l0,-2.613Z"/>
    <path id="BadgeFill" style="fill:#fff;" d="M78.394,7.839l198.599,0l-0,2.614l5.226,-0l-0,2.613l5.226,-0l0,5.226l2.613,-0l0,2.613l2.614,0l-0,20.905l-2.614,0l0,2.613l-2.613,0l0,5.227l-5.226,-0l-0,2.613l-5.226,-0l-0,2.613l-198.599,-0l0,-2.613l-5.226,-0l-0,-2.613l-5.226,-0l-0,-5.227l-2.614,0l0,-2.613l-2.613,0l0,-20.905l2.613,0l0,-2.613l2.614,-0l-0,-5.226l5.226,-0l-0,-2.613l5.226,-0l0,-2.614Z"/>
    <path id="BadgeTxt" style="fill:#f00;" d="M135.883,28.745l0,2.613l-2.613,-0l0,15.678l-7.839,0l-0,-20.905l7.839,0l0,2.614l2.613,-0Zm0,-0l0,-2.614l10.453,0l-0,2.614l2.613,-0l-0,18.291l-7.84,0l0,-18.291l-5.226,-0Zm73.168,-0l0,-2.614l10.453,0l-0,2.614l2.613,-0l-0,18.291l-7.84,0l0,-18.291l-5.226,-0Zm0,-0l0,2.613l-2.613,-0l-0,15.678l-7.839,0l-0,-20.905l7.839,0l-0,2.614l2.613,-0Zm33.971,15.678l-0,2.613l-10.453,0l0,-2.613l-2.613,0l0,-2.613l-2.613,0l0,-10.452l2.613,-0l0,-2.613l2.613,-0l0,-2.614l10.453,0l-0,-10.452l7.839,-0l0,31.357l-5.226,0l0,-2.613l-2.613,0l-0,-15.678l-5.226,-0l-0,2.613l-2.614,-0l0,10.452l2.614,0l-0,2.613l5.226,0Zm-164.628,2.613l0,-31.357l7.84,-0l-0,2.613l2.613,-0l-0,5.226l2.613,0l-0,2.613l2.613,0l-0,5.227l2.613,-0l0,2.613l2.613,-0l0,-18.292l7.84,-0l-0,31.357l-7.84,0l0,-2.613l-2.613,0l0,-5.226l-2.613,0l-0,-2.613l-2.613,-0l-0,-5.226l-2.613,-0l-0,-5.227l-2.613,0l-0,20.905l-7.84,0Zm33.971,0l-0,-20.905l7.839,0l0,20.905l-7.839,0Zm-0,-26.131l-0,-5.226l7.839,-0l0,5.226l-7.839,0Zm44.423,26.131l0,-20.905l-5.226,0l0,-2.613l5.226,0l0,-5.226l7.84,-0l-0,5.226l5.226,0l0,2.613l-5.226,0l-0,20.905l-7.84,0Zm13.066,-5.226l0,-10.452l2.613,-0l0,-2.613l2.613,-0l0,-2.614l13.066,0l-0,2.614l2.613,-0l0,2.613l2.613,-0l0,5.226l-15.679,-0l0,5.226l2.614,0l-0,2.613l5.226,0l-0,-2.613l2.613,0l-0,-2.613l5.226,0l0,5.226l-2.613,0l0,2.613l-15.679,0l0,-2.613l-2.613,0l0,-2.613l-2.613,0Zm7.839,-7.839l7.84,-0l-0,-2.613l-2.613,-0l-0,-2.613l-2.613,-0l-0,2.613l-2.614,-0l0,2.613Zm75.781,5.226l0,-5.226l2.614,-0l-0,-5.226l2.613,-0l-0,-2.614l13.065,0l0,2.614l2.614,-0l-0,5.226l2.613,-0l-0,5.226l-2.613,0l-0,5.226l-2.614,0l0,2.613l-13.065,0l-0,-2.613l-2.613,0l-0,-5.226l-2.614,0Zm10.453,-10.452l0,2.613l-2.613,-0l-0,10.452l2.613,0l0,2.613l2.613,0l0,-2.613l2.613,0l0,-10.452l-2.613,-0l0,-2.613l-2.613,-0Z"/>
</svg>
