<svg viewBox="0 0 5609 1796" xmlns="http://www.w3.org/2000/svg">
    <path id="txtTM" d="M5498.37,1722.8l-36.656,0l0,73.311l-36.656,-0l0,-183.277l36.656,-0l0,36.655l36.656,0l0,73.311Zm36.656,0l-0,-73.311l36.656,0l-0,-36.655l36.655,-0l0,183.277l-36.655,-0l-0,-73.311l-36.656,0Zm-36.656,0l36.656,0l-0,73.311l-36.656,-0l0,-73.311Zm-293.246,-109.966l183.279,-0l-0,36.655l-73.312,0l0,146.622l-36.656,-0l0,-146.622l-73.311,0l-0,-36.655Z"/>
    <path id="txtAliasing" style="fill-opacity:0.4;" d="M146.623,1209.63l-36.656,0l0,-36.655l36.656,-0l0,36.655Zm0,0l36.656,0l-0,36.656l-36.656,-0l0,-36.656Zm109.967,146.622l-36.655,0l-0,-36.655l36.655,-0l0,36.655Zm0,0l36.656,0l0,36.655l-36.656,0l0,-36.655Zm916.395,-183.277l-36.656,-0l-0,-36.655l36.656,-0l-0,36.655Zm-0,-0l36.656,-0l-0,36.655l-36.656,0l-0,-36.655Zm-0,293.243l-0,36.656l-36.656,-0l-0,-36.656l36.656,0Zm-0,0l-0,-36.655l36.656,-0l-0,36.655l-36.656,0Zm-293.246,0l-36.656,0l-0,-36.655l36.656,-0l-0,36.655Zm-0,0l36.655,0l0,36.656l-36.655,-0l-0,-36.656Zm-0,-293.243l-0,36.655l-36.656,0l-0,-36.655l36.656,-0Zm-0,-0l-0,-36.655l36.655,-0l0,36.655l-36.655,-0Zm843.082,-0l-36.655,-0l-0,-36.655l36.655,-0l0,36.655Zm0,-0l36.656,-0l0,36.655l-36.656,0l0,-36.655Zm0,293.243l0,36.656l-36.655,-0l-0,-36.656l36.655,0Zm0,0l0,-36.655l36.656,-0l0,36.655l-36.656,0Zm-293.246,0l-36.656,0l0,-36.655l36.656,-0l0,36.655Zm0,0l36.656,0l-0,36.656l-36.656,-0l0,-36.656Zm0,-293.243l0,36.655l-36.656,0l0,-36.655l36.656,-0Zm0,-0l0,-36.655l36.656,-0l-0,36.655l-36.656,-0Zm1172.99,-0l-36.656,-0l0,-36.655l36.656,-0l-0,36.655Zm-0,-0l36.656,-0l-0,36.655l-36.656,0l-0,-36.655Zm-0,293.243l-0,36.656l-36.656,-0l0,-36.656l36.656,0Zm-0,0l-0,-36.655l36.656,-0l-0,36.655l-36.656,0Zm-293.246,0l-36.656,0l-0,-36.655l36.656,-0l-0,36.655Zm-0,0l36.655,0l0,36.656l-36.655,-0l-0,-36.656Zm-0,-293.243l-0,36.655l-36.656,0l-0,-36.655l36.656,-0Zm-0,-0l-0,-36.655l36.655,-0l0,36.655l-36.655,-0Zm1502.89,-0l-36.655,-0l-0,-36.655l36.655,-0l0,36.655Zm0,-0l36.656,-0l0,36.655l-36.656,0l0,-36.655Zm0,293.243l0,36.656l-36.655,-0l-0,-36.656l36.655,0Zm0,0l0,-36.655l36.656,-0l0,36.655l-36.656,0Zm-293.246,0l-36.656,0l0,-36.655l36.656,-0l0,36.655Zm0,0l36.656,0l0,36.656l-36.656,-0l0,-36.656Zm0,-293.243l0,36.655l-36.656,0l0,-36.655l36.656,-0Zm0,-0l0,-36.655l36.656,-0l0,36.655l-36.656,-0Zm843.083,-0l-36.656,-0l0,-36.655l36.656,-0l0,36.655Zm0,-0l36.656,-0l-0,36.655l-36.656,0l0,-36.655Zm0,293.243l0,36.656l-36.656,-0l0,-36.656l36.656,0Zm0,0l0,-36.655l36.656,-0l-0,36.655l-36.656,0Zm-293.246,0l-36.656,0l0,-36.655l36.656,-0l-0,36.655Zm-0,0l36.656,0l-0,36.656l-36.656,-0l-0,-36.656Zm-0,-293.243l-0,36.655l-36.656,0l0,-36.655l36.656,-0Zm-0,-0l-0,-36.655l36.656,-0l-0,36.655l-36.656,-0Zm696.46,-73.311l-0,36.656l-36.656,-0l-0,-36.656l36.656,0Zm-0,0l-0,-36.655l36.655,-0l0,36.655l-36.655,0Zm-219.935,219.933l-0,36.655l-36.656,0l0,-36.655l36.656,-0Zm109.967,-109.967l0,-36.655l36.656,-0l-0,36.655l-36.656,0Zm-36.656,36.656l0,-36.656l36.656,0l0,36.656l-36.656,-0Zm-36.655,36.655l-0,-36.655l36.655,-0l0,36.655l-36.655,0Zm-36.656,36.656l-0,-36.656l36.656,0l-0,36.656l-36.656,-0Zm219.935,219.932l36.655,0l0,36.655l-36.655,0l-0,-36.655Zm-36.656,-36.655l36.656,-0l-0,36.655l-36.656,0l-0,-36.655Zm-109.968,-109.967l-36.655,0l-0,-36.655l36.655,0l0,36.655Zm73.312,73.311l36.656,0l-0,36.656l-36.656,-0l-0,-36.656Zm-36.656,-36.655l36.656,-0l-0,36.655l-36.656,0l0,-36.655Zm-36.656,-36.656l36.656,0l0,36.656l-36.656,-0l0,-36.656Zm-4545.32,-329.898l-0,36.655l-36.656,0l-0,-36.655l36.656,-0Zm-0,73.311l-0,36.655l-36.656,-0l-0,-36.655l36.656,-0Zm73.311,146.621l36.656,0l-0,36.656l-36.656,-0l0,-36.656Zm109.967,146.622l36.656,-0l0,36.655l-36.656,0l0,-36.655Zm73.312,36.655l36.656,0l-0,36.656l-36.656,-0l-0,-36.656Zm-0,73.311l36.656,0l-0,36.655l-36.656,0l-0,-36.655Zm659.804,-439.865l-0,36.656l-36.656,-0l0,-36.656l36.656,0Zm109.967,0l0,36.656l-36.656,-0l0,-36.656l36.656,0Zm146.623,146.622l0,36.655l-36.655,0l-0,-36.655l36.655,-0Zm0,109.966l0,36.655l-36.655,0l-0,-36.655l36.655,0Zm-146.623,146.622l0,36.655l-36.656,0l0,-36.655l36.656,-0Zm-109.967,-0l-0,36.655l-36.656,0l0,-36.655l36.656,-0Zm-146.623,-146.622l-0,36.655l-36.656,0l0,-36.655l36.656,0Zm-0,-109.966l-0,36.655l-36.656,0l0,-36.655l36.656,-0Zm696.459,-146.622l0,36.656l-36.655,-0l-0,-36.656l36.655,0Zm109.968,0l-0,36.656l-36.656,-0l0,-36.656l36.656,0Zm146.623,256.588l-0,36.655l-36.656,0l0,-36.655l36.656,0Zm-146.623,146.622l-0,36.655l-36.656,0l0,-36.655l36.656,-0Zm-109.968,-0l0,36.655l-36.655,0l-0,-36.655l36.655,-0Zm-146.623,-146.622l0,36.655l-36.655,0l-0,-36.655l36.655,0Zm0,-109.966l0,36.655l-36.655,0l-0,-36.655l36.655,-0Zm1026.36,-146.622l0,36.656l-36.656,-0l0,-36.656l36.656,0Zm109.967,0l0,36.656l-36.655,-0l-0,-36.656l36.655,0Zm146.623,146.622l0,36.655l-36.655,0l-0,-36.655l36.655,-0Zm0,109.966l0,36.655l-36.655,0l-0,-36.655l36.655,0Zm-146.623,146.622l0,36.655l-36.655,0l-0,-36.655l36.655,-0Zm-109.967,-0l0,36.655l-36.656,0l0,-36.655l36.656,-0Zm-146.623,-146.622l-0,36.655l-36.656,0l0,-36.655l36.656,0Zm-0,-109.966l-0,36.655l-36.656,0l0,-36.655l36.656,-0Zm1356.26,-146.622l-0,36.656l-36.656,-0l-0,-36.656l36.656,0Zm109.967,0l-0,36.656l-36.656,-0l0,-36.656l36.656,0Zm146.623,146.622l-0,36.655l-36.656,0l0,-36.655l36.656,-0Zm-0,109.966l-0,36.655l-36.656,0l0,-36.655l36.656,0Zm-146.623,146.622l-0,36.655l-36.656,0l0,-36.655l36.656,-0Zm-109.967,-0l-0,36.655l-36.656,0l-0,-36.655l36.656,-0Zm-146.624,-146.622l0,36.655l-36.655,0l-0,-36.655l36.655,0Zm0,-109.966l0,36.655l-36.655,0l-0,-36.655l36.655,-0Zm696.46,-146.622l0,36.656l-36.656,-0l0,-36.656l36.656,0Zm109.967,0l0,36.656l-36.655,-0l-0,-36.656l36.655,0Zm0,403.21l0,36.655l-36.655,0l-0,-36.655l36.655,-0Zm-109.967,-0l0,36.655l-36.656,0l0,-36.655l36.656,-0Zm-146.623,-146.622l0,36.655l-36.656,0l0,-36.655l36.656,0Zm0,-109.966l0,36.655l-36.656,0l0,-36.655l36.656,-0Zm696.324,-110.102l0.271,36.655l-36.655,0.271l-0.271,-36.654l36.655,-0.272Z"/>
    <path id="txt" d="M329.902,1502.87l36.656,-0l-0,-439.865l36.656,-0l-0,513.175l-36.656,0l-0,-36.655l-36.656,0l-0,-36.655Zm-256.59,-366.554l36.655,-0l0,73.31l-36.655,0l-0,-73.31Zm36.655,73.31l36.656,0l0,36.656l-36.656,-0l0,-36.656Zm183.279,219.933l36.656,-0l-0,73.311l-36.656,-0l0,-73.311Zm-219.934,-293.243l-36.656,-0l-0,439.864l-36.656,0l0,-513.175l36.656,-0l-0,36.655l36.656,0l-0,36.656Zm109.967,146.621l36.656,0l-0,73.311l-36.656,0l-0,-73.311Zm-36.656,-36.655l36.656,-0l-0,36.655l-36.656,0l0,-36.655Zm109.967,146.621l36.656,0l0,36.656l-36.656,-0l0,-36.656Zm-36.655,-36.655l36.655,-0l0,36.655l-36.655,0l-0,-36.655Zm989.706,109.966l-0,-73.311l36.655,0l0,73.311l-36.655,0Zm-0,-293.243l-36.656,-0l-0,-36.655l36.656,-0l-0,36.655Zm-329.902,-36.655l-0,-36.656l73.311,0l0,36.656l-73.311,-0Zm-0,366.554l73.311,-0l0,36.655l-73.311,0l-0,-36.655Zm73.311,36.655l146.623,0l0,36.655l-146.623,0l0,-36.655Zm-146.623,-146.622l-36.656,0l0,-146.621l36.656,-0l0,146.621Zm36.656,73.311l36.656,0l-0,36.656l-36.656,-0l-0,-36.656Zm-36.656,-73.311l36.656,0l-0,73.311l-36.656,0l0,-73.311Zm0,-146.621l0,-73.311l36.656,-0l-0,73.311l-36.656,-0Zm366.558,256.588l-0,-36.656l36.656,0l-0,36.656l-36.656,-0Zm-329.902,-329.899l-0,-36.655l36.656,-0l-0,36.655l-36.656,-0Zm256.59,366.554l0,-36.655l73.312,-0l-0,36.655l-73.312,0Zm146.623,-146.622l0,-146.621l36.656,-0l0,146.621l-36.656,0Zm0,-146.621l-36.655,-0l-0,-73.311l36.655,-0l0,73.311Zm-293.246,-146.622l0,-36.655l146.623,-0l0,36.655l-146.623,0Zm806.427,73.311l36.656,-0l-0,36.655l-36.656,0l0,-36.655Zm0,-0l-36.656,-0l0,-36.655l36.656,-0l0,36.655Zm-366.558,293.243l36.656,0l0,36.656l-36.656,-0l0,-36.656Zm-36.655,-73.311l36.655,0l0,73.311l-36.655,0l-0,-73.311Zm366.557,109.967l0,-36.656l36.656,0l0,36.656l-36.656,-0Zm-219.934,-403.21l-0,-36.655l146.623,-0l-0,36.655l-146.623,0Zm293.246,293.243l-0,-36.655l-293.246,-0l-0,-36.655l329.902,-0l-0,73.31l-36.656,0Zm-366.558,-256.587l0,-36.656l73.312,0l-0,36.656l-73.312,-0Zm-36.656,36.655l0,-36.655l36.656,-0l0,36.655l-36.656,-0Zm-36.655,219.932l-36.656,0l-0,-146.621l36.656,-0l-0,146.621Zm73.311,109.967l73.312,-0l-0,36.655l-73.312,0l0,-36.655Zm73.312,36.655l146.623,0l-0,36.655l-146.623,0l-0,-36.655Zm-146.623,-293.243l-0,-73.311l36.655,-0l0,73.311l-36.655,-0Zm403.213,219.932l0,-73.311l36.656,0l-0,73.311l-36.656,0Zm-109.967,73.311l-0,-36.655l73.311,-0l0,36.655l-73.311,0Zm879.738,0l0,-36.655l73.312,-0l-0,36.655l-73.312,0Zm-256.59,-366.554l-0,-36.655l36.656,-0l-0,36.655l-36.656,-0Zm366.558,-0l-36.656,-0l-0,-36.655l36.656,-0l-0,36.655Zm-329.902,329.899l73.311,-0l0,36.655l-73.311,0l-0,-36.655Zm-36.656,-36.656l36.656,0l-0,36.656l-36.656,-0l-0,-36.656Zm403.213,-73.311l0,-146.621l36.656,-0l0,146.621l-36.656,0Zm-293.246,146.622l146.623,0l0,36.655l-146.623,0l0,-36.655Zm-146.623,-146.622l36.656,0l-0,73.311l-36.656,0l0,-73.311Zm403.214,73.311l-0,-73.311l36.655,0l0,73.311l-36.655,0Zm-403.214,-73.311l-36.656,0l0,-146.621l36.656,-0l0,146.621Zm146.623,-293.243l0,-36.655l146.623,-0l0,36.655l-146.623,0Zm-146.623,146.622l0,-73.311l36.656,-0l-0,73.311l-36.656,-0Zm439.869,-0l-36.655,-0l-0,-73.311l36.655,-0l0,73.311Zm-366.557,-109.966l-0,-36.656l73.311,0l0,36.656l-73.311,-0Zm293.246,366.554l-0,-36.656l36.656,0l-0,36.656l-36.656,-0Zm879.738,-36.656l36.656,0l0,36.656l-36.656,-0l0,-36.656Zm-36.655,-73.311l36.655,0l0,73.311l-36.655,0l-0,-73.311Zm366.557,109.967l0,-36.656l36.656,0l0,36.656l-36.656,-0Zm-73.311,36.655l-0,-36.655l73.311,-0l0,36.655l-73.311,0Zm-256.591,-366.554l0,-36.655l36.656,-0l0,36.655l-36.656,-0Zm109.968,366.554l146.623,0l-0,36.655l-146.623,0l-0,-36.655Zm-73.312,-36.655l73.312,-0l-0,36.655l-73.312,0l0,-36.655Zm366.558,-109.967l-0,-146.621l36.656,-0l-0,146.621l-36.656,0Zm-36.656,73.311l0,-73.311l36.656,0l-0,73.311l-36.656,0Zm-256.59,-366.554l-0,-36.655l146.623,-0l-0,36.655l-146.623,0Zm-73.312,36.656l0,-36.656l73.312,0l-0,36.656l-73.312,-0Zm329.902,36.655l-36.656,-0l0,-36.655l36.656,-0l0,36.655Zm36.656,73.311l-36.656,-0l0,-73.311l36.656,-0l-0,73.311Zm-439.869,-0l-0,-73.311l36.655,-0l0,73.311l-36.655,-0Zm-0,146.621l-36.656,0l-0,-146.621l36.656,-0l-0,146.621Zm953.05,-219.932l-36.656,-0l0,-36.655l36.656,-0l-0,36.655Zm-0,-0l36.656,-0l-0,36.655l-36.656,0l-0,-36.655Zm-256.591,-73.311l0,-36.655l146.623,-0l0,36.655l-146.623,0Zm-73.311,36.656l-0,-36.656l73.311,0l0,36.656l-73.311,-0Zm-36.656,36.655l0,-36.655l36.656,-0l-0,36.655l-36.656,-0Zm-36.656,73.311l0,-73.311l36.656,-0l0,73.311l-36.656,-0Zm0,146.621l-36.655,0l-0,-146.621l36.655,-0l0,146.621Zm403.214,73.311l-0,-36.655l36.656,-0l-0,36.655l-36.656,0Zm-36.656,36.656l0,-36.656l36.656,0l-0,36.656l-36.656,-0Zm-73.312,36.655l0,-36.655l73.312,-0l0,36.655l-73.312,0Zm-146.623,0l146.623,0l0,36.655l-146.623,0l0,-36.655Zm-73.311,-36.655l73.311,-0l0,36.655l-73.311,0l-0,-36.655Zm-36.656,-36.656l36.656,0l-0,36.656l-36.656,-0l0,-36.656Zm-36.656,-73.311l36.656,0l0,73.311l-36.656,0l0,-73.311Zm733.116,-219.932l-0,-36.655l36.656,-0l-0,36.655l-36.656,-0Zm-36.656,36.655l-0,-36.655l36.656,-0l-0,36.655l-36.656,0Zm-36.656,36.656l0,-36.656l36.656,0l-0,36.656l-36.656,-0Zm-36.656,36.655l0,-36.655l36.656,-0l0,36.655l-36.656,0Zm183.279,256.588l36.656,0l0,36.655l-36.656,0l0,-36.655Zm-36.655,-36.655l36.655,-0l0,36.655l-36.655,0l-0,-36.655Zm-36.656,-36.656l36.656,0l-0,36.656l-36.656,-0l-0,-36.656Zm-36.656,-36.655l36.656,-0l-0,36.655l-36.656,0l-0,-36.655Zm-146.623,-73.311l-0,36.655l-36.656,0l0,183.277l-36.656,0l0,-513.175l36.656,-0l0,293.243l36.656,-0Zm256.59,-256.588l0,-36.655l36.656,-0l0,36.655l-36.656,0Zm-36.655,36.656l-0,-36.656l36.655,0l0,36.656l-36.655,-0Zm-109.968,256.587l36.656,0l-0,36.656l-36.656,-0l0,-36.656Zm-36.656,-36.655l36.656,-0l0,36.655l-36.656,0l0,-36.655Zm-73.311,-0l-0,-36.655l36.656,-0l-0,-36.656l36.655,0l0,73.311l-73.311,-0Zm-4105.45,-293.243l293.246,-0l0,36.655l-256.59,0l0,183.277l256.59,0l0,36.656l-256.59,-0l0,219.932l256.59,0l0,36.655l-293.246,0l0,-513.175Zm733.69,37.851l-1.187,36.637l-73.273,-2.374l1.187,-36.636l73.273,2.373Zm549.836,0l-1.186,36.637l-73.273,-2.374l1.186,-36.636l73.273,2.373Zm146.049,-37.851l293.247,-0l-0,36.655l-256.591,0l0,183.277l256.591,0l-0,36.656l-256.591,-0l0,219.932l256.591,0l-0,36.655l-293.247,0l0,-513.175Zm733.69,37.851l-1.187,36.637l-73.273,-2.374l1.187,-36.636l73.273,2.373Zm1209.64,0l-1.187,36.637l-73.273,-2.374l1.186,-36.636l73.274,2.373Zm549.836,0l-1.186,36.637l-73.274,-2.374l1.187,-36.636l73.273,2.373Zm512.607,-37.851l293.246,-0l0,36.655l-256.59,0l-0,183.277l256.59,0l0,36.656l-256.59,-0l-0,219.932l256.59,0l0,36.655l-293.246,0l-0,-513.175Zm329.902,-0l403.213,-0l0,36.655l-183.279,0l0,476.52l-36.655,0l-0,-476.52l-183.279,0l-0,-36.655Z"/>
    <path id="logo" style="fill:#797979;" d="M2895.81,1026.35l0,73.311l36.656,0l-0,73.311l36.656,-0l-0,73.311l36.655,-0l0,73.311l36.656,-0l0,73.31l36.656,0l-0,73.311l36.656,0l-0,73.311l36.656,0l-0,73.311l-73.312,-0l-0,36.655l-73.312,0l0,-36.655l-36.655,-0l-0,-73.311l-36.656,0l-0,-73.311l-36.656,0l0,-73.311l-36.656,0l0,-73.31l-36.655,-0l-0,-73.311l-36.656,-0l-0,-73.311l-36.656,-0l0,-73.311l-36.656,0l0,-73.311l-36.656,0l0,-73.31l-36.655,-0l-0,-73.311l-36.656,-0l-0,-73.311l-36.656,-0l0,-73.311l-36.656,0l0,-36.655l73.312,-0l-0,-36.656l73.311,0l0,-36.655l73.312,-0l0,-36.656l73.312,0l-0,-36.655l73.311,0l0,-36.655l109.967,-0l0,-36.656l219.935,0l0,36.656l73.312,-0l-0,36.655l73.311,0l0,36.655l36.656,0l-0,36.656l36.656,-0l-0,73.311l36.655,-0l0,293.243l-36.655,-0l-0,73.311l-36.656,-0l-0,36.655l-36.656,0l0,36.656l-36.656,-0l0,36.655l-36.655,-0l-0,36.655l-73.312,0l0,36.656l-36.656,-0l0,-36.656l-73.311,0l-0,-36.655l-36.656,-0l-0,-36.655l-36.656,-0l0,-36.656l-73.311,0l-0,-36.655l-36.656,-0l-0,-36.656l-36.656,0l0,-183.277l36.656,0l-0,-109.966l109.967,0l0,-36.655l183.279,-0l0,146.621l-146.623,0l-0,73.311l-36.656,0l0,36.656l36.656,-0l-0,36.655l36.656,-0l-0,36.655l73.311,0l0,36.656l36.656,-0l0,-36.656l36.656,0l-0,-36.655l36.656,-0l-0,-73.311l36.655,0l0,-146.621l-36.655,-0l-0,-73.311l-36.656,-0l-0,-36.656l-73.312,0l0,-36.655l-183.279,-0l0,36.655l-73.311,0l-0,36.656l-73.312,-0l0,36.655l-73.311,0l-0,36.656l-36.656,-0l0,36.655l36.656,-0l-0,73.311l36.656,-0l-0,73.311l36.655,-0l0,73.31l36.656,0Zm293.246,-659.797l0,-366.554l183.279,-0l0,109.966l-36.656,0l0,146.622l-36.655,-0l-0,109.966l-109.968,0Zm183.279,36.655l0,-36.655l36.656,0l-0,-73.311l36.656,0l-0,-73.311l36.655,0l0,-73.31l36.656,-0l0,-73.311l109.968,-0l-0,36.655l73.311,0l0,73.311l-36.656,0l0,36.655l-36.655,0l-0,36.656l-36.656,-0l-0,73.311l-36.656,-0l0,36.655l-36.656,0l0,36.655l-36.656,0l0,36.656l-73.311,-0l-0,-36.656l-36.656,0Zm183.279,146.622l0,-36.655l36.656,-0l-0,-36.656l36.656,0l-0,-36.655l36.655,-0l0,-36.656l36.656,0l0,-36.655l36.656,0l-0,-36.655l36.656,-0l-0,-36.656l36.655,0l0,-36.655l36.656,-0l0,36.655l36.656,0l-0,36.656l36.656,-0l-0,109.966l-73.312,-0l0,36.655l-36.656,0l0,36.656l-36.655,-0l-0,36.655l-73.312,0l0,36.655l-36.656,0l0,36.656l-36.655,-0l-0,-36.656l-36.656,0l-0,-36.655l-36.656,0Z"/>
</svg>