<svg viewBox="0 0 1056 421" xmlns="http://www.w3.org/2000/svg">
    <path id="txtNeoGeo" d="M48.311,262.262l6.902,0l0,6.902l-6.902,-0l0,-6.902Zm-27.606,-34.508l6.902,0l-0,6.902l-6.902,-0l-0,-6.902Zm20.705,27.607l6.901,-0l0,6.901l-6.901,0l-0,-6.901Zm-6.902,-13.804l6.902,0l-0,13.804l-6.902,-0l0,-13.804Zm-6.901,-6.901l6.901,-0l0,6.901l-6.901,0l-0,-6.901Zm27.606,34.508l6.902,-0l-0,13.803l-6.902,0l0,-13.803Zm6.902,13.803l6.901,0l0,-82.819l6.902,-0l0,96.622l-6.902,0l0,-6.901l-6.901,-0l-0,-6.902Zm-48.312,-69.016l6.902,-0l-0,13.803l-6.902,0l0,-13.803Zm0,-0l-6.901,-0l-0,82.819l-6.902,0l-0,-96.622l6.902,-0l-0,6.901l6.901,0l0,6.902Zm138.033,48.311l6.902,0l-0,13.804l-6.902,-0l0,-13.804Zm13.803,20.705l13.804,0l-0,6.902l-13.804,-0l0,-6.902Zm-13.803,-20.705l-6.902,0l0,-27.606l6.902,-0l0,27.606Zm27.607,-55.213l-0,-6.901l27.606,-0l0,6.901l-27.606,0Zm55.213,55.213l-0,-27.606l6.901,-0l0,27.606l-6.901,0Zm-6.902,13.804l0,-13.804l6.902,0l-0,13.804l-6.902,-0Zm-75.918,-41.41l0,-13.804l6.902,0l-0,13.804l-6.902,-0Zm27.607,55.213l27.606,-0l0,6.901l-27.606,0l-0,-6.901Zm41.409,-6.902l0,-6.901l6.902,-0l0,6.901l-6.902,0Zm-62.114,-62.115l-0,-6.901l6.901,-0l0,6.901l-6.901,0Zm6.901,-6.901l0,-6.902l13.804,0l-0,6.902l-13.804,-0Zm69.017,20.705l-6.902,-0l0,-13.804l6.902,0l-0,13.804Zm-27.607,55.213l0,-6.902l13.803,0l0,6.902l-13.803,-0Zm-48.311,-13.803l6.901,-0l0,6.901l-6.901,0l-0,-6.901Zm69.016,-55.214l-6.902,0l0,-6.901l6.902,-0l0,6.901Zm103.525,0l-6.902,0l0,-6.901l6.902,-0l-0,6.901Zm-0,0l6.901,0l0,6.902l-6.901,0l-0,-6.902Zm-6.902,62.115l0,-6.901l6.902,-0l-0,6.901l-6.902,0Zm-13.803,6.902l-0,-6.902l13.803,0l0,6.902l-13.803,-0Zm-27.607,-0l27.607,-0l-0,6.901l-27.607,0l0,-6.901Zm-13.803,-6.902l13.803,0l0,6.902l-13.803,-0l-0,-6.902Zm-6.902,-6.901l6.902,-0l-0,6.901l-6.902,0l0,-6.901Zm-6.901,-13.804l6.901,0l0,13.804l-6.901,-0l-0,-13.804Zm13.803,-48.311l-0,-6.902l13.803,0l0,6.902l-13.803,-0Zm-6.902,6.901l0,-6.901l6.902,-0l-0,6.901l-6.902,0Zm20.705,-13.803l0,-6.901l27.607,-0l-0,6.901l-27.607,0Zm55.213,55.213l0,-6.901l-55.213,-0l0,-6.902l62.115,0l-0,13.803l-6.902,0Zm-6.901,13.804l-0,-13.804l6.901,0l0,13.804l-6.901,-0Zm-75.918,-41.41l-0,-13.804l6.901,0l0,13.804l-6.901,-0Zm-0,27.606l-6.902,0l0,-27.606l6.902,-0l-0,27.606Zm179.442,20.705l13.804,0l-0,6.902l-13.804,-0l0,-6.902Zm-6.901,-6.901l6.901,-0l0,6.901l-6.901,0l-0,-6.901Zm-6.902,-13.804l6.902,0l-0,13.804l-6.902,-0l0,-13.804Zm27.607,-55.213l-0,-6.901l27.606,-0l0,6.901l-27.606,0Zm-13.804,6.902l0,-6.902l13.804,0l-0,6.902l-13.804,-0Zm-6.901,6.901l-0,-6.901l6.901,-0l0,6.901l-6.901,0Zm69.016,55.214l0,-13.804l6.902,0l-0,13.804l-6.902,-0Zm-6.902,6.901l0,-6.901l6.902,-0l0,6.901l-6.902,0Zm-13.803,6.902l0,-6.902l13.803,0l0,6.902l-13.803,-0Zm-27.606,-0l27.606,-0l0,6.901l-27.606,0l-0,-6.901Zm-27.607,-55.213l0,-13.804l6.902,0l-0,13.804l-6.902,-0Zm0,27.606l-6.902,0l0,-27.606l6.902,-0l0,27.606Zm75.918,-41.41l-6.902,0l0,-6.901l6.902,-0l0,6.901Zm6.902,13.804l-6.902,-0l0,-13.804l6.902,0l-0,13.804Zm-0,27.606l-0,-27.606l6.901,-0l0,27.606l-6.901,0Zm172.541,-55.213l-0,-6.901l27.606,-0l0,6.901l-27.606,0Zm-13.804,6.902l0,-6.902l13.804,0l-0,6.902l-13.804,-0Zm-6.901,6.901l-0,-6.901l6.901,-0l0,6.901l-6.901,0Zm-6.902,13.804l0,-13.804l6.902,0l-0,13.804l-6.902,-0Zm0,27.606l-6.902,0l0,-27.606l6.902,-0l0,27.606Zm75.918,-41.41l-6.902,0l0,-6.901l6.902,-0l0,6.901Zm6.902,13.804l-6.902,-0l0,-13.804l6.902,0l-0,13.804Zm-0,27.606l-0,-27.606l6.901,-0l0,27.606l-6.901,0Zm-6.902,13.804l0,-13.804l6.902,0l-0,13.804l-6.902,-0Zm-6.902,6.901l0,-6.901l6.902,-0l0,6.901l-6.902,0Zm-13.803,6.902l0,-6.902l13.803,0l0,6.902l-13.803,-0Zm-27.606,-0l27.606,-0l0,6.901l-27.606,0l-0,-6.901Zm-13.804,-6.902l13.804,0l-0,6.902l-13.804,-0l0,-6.902Zm-6.901,-6.901l6.901,-0l0,6.901l-6.901,0l-0,-6.901Zm-6.902,-13.804l6.902,0l-0,13.804l-6.902,-0l0,-13.804Zm179.443,-41.41l-6.902,0l0,-6.901l6.902,-0l-0,6.901Zm-0,0l6.901,0l0,6.902l-6.901,0l-0,-6.902Zm-69.017,0l0,-6.901l6.902,-0l-0,6.901l-6.902,0Zm-6.901,13.804l-0,-13.804l6.901,0l0,13.804l-6.901,-0Zm-0,27.606l-6.902,0l0,-27.606l6.902,-0l-0,27.606Zm27.606,-55.213l0,-6.901l27.607,-0l-0,6.901l-27.607,0Zm-13.803,6.902l-0,-6.902l13.803,0l0,6.902l-13.803,-0Zm62.115,62.115l-0,-6.902l6.901,-0l0,6.902l-6.901,-0Zm-6.902,6.901l0,-6.901l6.902,-0l-0,6.901l-6.902,0Zm-13.803,6.902l-0,-6.902l13.803,0l0,6.902l-13.803,-0Zm-27.607,-0l27.607,-0l-0,6.901l-27.607,0l0,-6.901Zm-13.803,-6.902l13.803,0l0,6.902l-13.803,-0l-0,-6.902Zm-6.902,-6.901l6.902,-0l-0,6.901l-6.902,0l0,-6.901Zm-6.901,-13.804l6.901,0l0,13.804l-6.901,-0l-0,-13.804Zm144.934,-48.311l0,-6.902l6.902,0l-0,6.902l-6.902,-0Zm-6.902,6.901l0,-6.901l6.902,-0l0,6.901l-6.902,0Zm-6.901,6.902l-0,-6.902l6.901,0l0,6.902l-6.901,0Zm-6.902,6.902l0,-6.902l6.902,0l-0,6.902l-6.902,-0Zm-6.901,6.901l-0,-6.901l6.901,-0l0,6.901l-6.901,0Zm34.508,48.312l6.901,-0l0,6.901l-6.901,0l-0,-6.901Zm-6.902,-6.902l6.902,0l-0,6.902l-6.902,-0l0,-6.902Zm-6.902,-6.901l6.902,-0l0,6.901l-6.902,0l0,-6.901Zm-6.901,-6.902l6.901,-0l0,6.902l-6.901,-0l-0,-6.902Zm-6.902,-6.902l6.902,0l-0,6.902l-6.902,-0l0,-6.902Zm-6.901,-6.901l6.901,-0l0,6.901l-6.901,0l-0,-6.901Zm-13.804,-0l0,-6.902l6.902,0l-0,-6.902l6.902,0l-0,13.804l-13.804,-0Zm0,-0l0,6.901l-6.901,0l-0,34.508l-6.902,0l-0,-96.622l6.902,-0l-0,55.213l6.901,-0Zm48.312,-48.312l-0,-6.901l6.901,-0l0,6.901l-6.901,0Zm-821.295,-6.901l55.213,-0l-0,6.901l-48.312,0l0,34.508l48.312,0l-0,6.902l-48.312,0l0,41.41l48.312,-0l-0,6.901l-55.213,0l-0,-96.622Zm138.141,7.126l-0.224,6.898l-13.796,-0.446l0.224,-6.898l13.796,0.446Zm103.524,0l-0.223,6.898l-13.796,-0.446l0.223,-6.898l13.796,0.446Zm27.499,-7.126l55.213,-0l-0,6.901l-48.312,0l0,34.508l48.312,0l-0,6.902l-48.312,0l0,41.41l48.312,-0l-0,6.901l-55.213,0l-0,-96.622Zm138.14,7.126l-0.223,6.898l-13.796,-0.446l0.223,-6.898l13.796,0.446Zm227.755,0l-0.224,6.898l-13.796,-0.446l0.224,-6.898l13.796,0.446Zm103.524,0l-0.223,6.898l-13.796,-0.446l0.223,-6.898l13.796,0.446Zm96.515,-7.126l55.213,-0l0,6.901l-48.311,0l-0,34.508l48.311,0l0,6.902l-48.311,0l-0,41.41l48.311,-0l0,6.901l-55.213,0l0,-96.622Zm62.115,-0l75.918,-0l-0,6.901l-34.508,0l-0,89.721l-6.902,0l-0,-89.721l-34.508,0l-0,-6.901Z"/>
    <path id="txtNeoGeoAliasing" style="fill-opacity:0.5;" d="M27.607,227.754l-6.902,0l-0,-6.902l6.902,0l-0,6.902Zm-0,0l6.901,0l0,6.902l-6.901,-0l-0,-6.902Zm20.704,27.607l-6.901,-0l-0,-6.902l6.901,0l0,6.902Zm0,-0l6.902,-0l0,6.901l-6.902,0l0,-6.901Zm172.541,-34.509l-6.901,0l-0,-6.901l6.901,-0l0,6.901Zm0,0l6.902,0l0,6.902l-6.902,0l0,-6.902Zm0,55.214l0,6.901l-6.901,0l-0,-6.901l6.901,-0Zm0,-0l0,-6.902l6.902,-0l0,6.902l-6.902,-0Zm-55.213,-0l-6.901,-0l-0,-6.902l6.901,-0l0,6.902Zm0,-0l6.902,-0l-0,6.901l-6.902,0l0,-6.901Zm0,-55.214l0,6.902l-6.901,0l-0,-6.902l6.901,0Zm0,0l0,-6.901l6.902,-0l-0,6.901l-6.902,0Zm158.738,0l-6.902,0l0,-6.901l6.902,-0l0,6.901Zm0,0l6.902,0l-0,6.902l-6.902,0l0,-6.902Zm0,55.214l0,6.901l-6.902,0l0,-6.901l6.902,-0Zm0,-0l0,-6.902l6.902,-0l-0,6.902l-6.902,-0Zm-55.213,-0l-6.902,-0l0,-6.902l6.902,-0l-0,6.902Zm-0,-0l6.902,-0l-0,6.901l-6.902,0l-0,-6.901Zm-0,-55.214l-0,6.902l-6.902,0l0,-6.902l6.902,0Zm-0,0l-0,-6.901l6.902,-0l-0,6.901l-6.902,0Zm220.852,0l-6.901,0l-0,-6.901l6.901,-0l0,6.901Zm0,0l6.902,0l0,6.902l-6.902,0l0,-6.902Zm0,55.214l0,6.901l-6.901,0l-0,-6.901l6.901,-0Zm0,-0l0,-6.902l6.902,-0l0,6.902l-6.902,-0Zm-55.213,-0l-6.901,-0l-0,-6.902l6.901,-0l0,6.902Zm0,-0l6.902,-0l-0,6.901l-6.902,0l0,-6.901Zm0,-55.214l0,6.902l-6.901,0l-0,-6.902l6.901,0Zm0,0l0,-6.901l6.902,-0l-0,6.901l-6.902,0Zm282.967,0l-6.901,0l-0,-6.901l6.901,-0l0,6.901Zm0,0l6.902,0l0,6.902l-6.902,0l0,-6.902Zm0,55.214l0,6.901l-6.901,0l-0,-6.901l6.901,-0Zm0,-0l0,-6.902l6.902,-0l0,6.902l-6.902,-0Zm-55.213,-0l-6.901,-0l-0,-6.902l6.901,-0l0,6.902Zm0,-0l6.902,-0l0,6.901l-6.902,0l0,-6.901Zm0,-55.214l0,6.902l-6.901,0l-0,-6.902l6.901,0Zm0,0l0,-6.901l6.902,-0l0,6.901l-6.902,0Zm158.738,0l-6.902,0l0,-6.901l6.902,-0l0,6.901Zm0,0l6.902,0l-0,6.902l-6.902,0l0,-6.902Zm0,55.214l0,6.901l-6.902,0l0,-6.901l6.902,-0Zm0,-0l0,-6.902l6.902,-0l-0,6.902l-6.902,-0Zm-55.213,-0l-6.902,-0l0,-6.902l6.902,-0l-0,6.902Zm-0,-0l6.902,-0l-0,6.901l-6.902,0l-0,-6.901Zm-0,-55.214l-0,6.902l-6.902,0l0,-6.902l6.902,0Zm-0,0l-0,-6.901l6.902,-0l-0,6.901l-6.902,0Zm131.131,-13.803l0,6.902l-6.902,-0l0,-6.902l6.902,0Zm0,0l0,-6.901l6.902,-0l-0,6.901l-6.902,0Zm-41.41,41.41l0,6.902l-6.901,-0l-0,-6.902l6.901,0Zm20.705,-20.705l0,-6.902l6.902,0l-0,6.902l-6.902,0Zm-6.901,6.902l-0,-6.902l6.901,0l0,6.902l-6.901,-0Zm-6.902,6.901l-0,-6.901l6.902,-0l-0,6.901l-6.902,0Zm-6.902,6.902l0,-6.902l6.902,0l-0,6.902l-6.902,0Zm13.804,13.803l-6.902,0l-0,-6.901l6.902,-0l-0,6.901Zm27.606,27.607l6.902,-0l-0,6.901l-6.902,0l0,-6.901Zm-6.902,-6.902l6.902,0l0,6.902l-6.902,-0l0,-6.902Zm-6.901,-6.901l6.901,-0l0,6.901l-6.901,0l-0,-6.901Zm-6.902,-6.902l6.902,-0l-0,6.902l-6.902,-0l0,-6.902Zm-6.901,-6.902l6.901,0l0,6.902l-6.901,-0l-0,-6.902Zm-855.804,-62.114l0,6.901l-6.901,0l-0,-6.901l6.901,-0Zm0,13.803l0,6.901l-6.901,0l-0,-6.901l6.901,-0Zm13.804,27.606l6.901,0l0,6.902l-6.901,0l-0,-6.902Zm20.704,27.607l6.902,-0l0,6.902l-6.902,-0l0,-6.902Zm13.804,6.902l6.901,-0l0,6.901l-6.901,0l-0,-6.901Zm-0,13.803l6.901,-0l0,6.901l-6.901,0l-0,-6.901Zm124.229,-82.82l0,6.902l-6.901,-0l-0,-6.902l6.901,0Zm20.705,0l0,6.902l-6.901,-0l-0,-6.902l6.901,0Zm27.607,27.607l-0,6.901l-6.902,0l0,-6.901l6.902,-0Zm-0,20.705l-0,6.901l-6.902,0l0,-6.901l6.902,-0Zm-27.607,27.606l0,6.902l-6.901,-0l-0,-6.902l6.901,0Zm-20.705,0l0,6.902l-6.901,-0l-0,-6.902l6.901,0Zm-27.606,-27.606l-0,6.901l-6.902,0l0,-6.901l6.902,-0Zm-0,-20.705l-0,6.901l-6.902,0l0,-6.901l6.902,-0Zm131.131,-27.607l-0,6.902l-6.902,-0l0,-6.902l6.902,0Zm20.705,0l-0,6.902l-6.902,-0l0,-6.902l6.902,0Zm27.606,48.312l0,6.901l-6.901,0l-0,-6.901l6.901,-0Zm-27.606,27.606l-0,6.902l-6.902,-0l0,-6.902l6.902,0Zm-20.705,0l-0,6.902l-6.902,-0l0,-6.902l6.902,0Zm-27.607,-27.606l0,6.901l-6.901,0l-0,-6.901l6.901,-0Zm0,-20.705l0,6.901l-6.901,0l-0,-6.901l6.901,-0Zm193.246,-27.607l0,6.902l-6.901,-0l-0,-6.902l6.901,0Zm20.705,0l0,6.902l-6.902,-0l0,-6.902l6.902,0Zm27.607,27.607l-0,6.901l-6.902,0l0,-6.901l6.902,-0Zm-0,20.705l-0,6.901l-6.902,0l0,-6.901l6.902,-0Zm-27.607,27.606l0,6.902l-6.902,-0l0,-6.902l6.902,0Zm-20.705,0l0,6.902l-6.901,-0l-0,-6.902l6.901,0Zm-27.606,-27.606l-0,6.901l-6.902,0l-0,-6.901l6.902,-0Zm-0,-20.705l-0,6.901l-6.902,0l-0,-6.901l6.902,-0Zm255.36,-27.607l0,6.902l-6.901,-0l-0,-6.902l6.901,0Zm20.705,0l0,6.902l-6.901,-0l-0,-6.902l6.901,0Zm27.607,27.607l-0,6.901l-6.902,0l0,-6.901l6.902,-0Zm-0,20.705l-0,6.901l-6.902,0l0,-6.901l6.902,-0Zm-27.607,27.606l0,6.902l-6.901,-0l-0,-6.902l6.901,0Zm-20.705,0l0,6.902l-6.901,-0l-0,-6.902l6.901,0Zm-27.606,-27.606l-0,6.901l-6.902,0l0,-6.901l6.902,-0Zm-0,-20.705l-0,6.901l-6.902,0l0,-6.901l6.902,-0Zm131.131,-27.607l-0,6.902l-6.902,-0l0,-6.902l6.902,0Zm20.705,0l-0,6.902l-6.902,-0l0,-6.902l6.902,0Zm-0,75.918l-0,6.902l-6.902,-0l0,-6.902l6.902,0Zm-20.705,0l-0,6.902l-6.902,-0l0,-6.902l6.902,0Zm-27.607,-27.606l0,6.901l-6.901,0l-0,-6.901l6.901,-0Zm0,-20.705l0,6.901l-6.901,0l-0,-6.901l6.901,-0Zm131.106,-20.731l0.051,6.902l-6.902,0.051l-0.051,-6.902l6.902,-0.051Z"/>
    <path id="txtColor" style="fill:#ff2600;" d="M386.492,345.082l-6.902,-0l0,-6.902l6.902,0l-0,6.902Zm-0,-0l6.901,-0l0,6.902l-6.901,-0l-0,-6.902Zm-69.017,-0l0,-6.902l6.902,0l0,6.902l-6.902,-0Zm20.705,-13.803l0,-6.902l27.607,0l-0,6.902l-27.607,-0Zm-27.606,27.606l-0,-13.803l6.901,-0l0,13.803l-6.901,0Zm-0,27.607l-6.902,-0l0,-27.607l6.902,0l-0,27.607Zm13.803,-48.312l0,-6.901l13.803,-0l0,6.901l-13.803,0Zm62.115,62.115l-0,-6.902l6.901,0l0,6.902l-6.901,0Zm-6.902,6.902l0,-6.902l6.902,0l-0,6.902l-6.902,-0Zm-13.803,6.901l-0,-6.901l13.803,-0l0,6.901l-13.803,0Zm-27.607,0l27.607,0l-0,6.902l-27.607,0l0,-6.902Zm-13.803,-6.901l13.803,-0l0,6.901l-13.803,0l0,-6.901Zm-6.902,-6.902l6.902,0l0,6.902l-6.902,-0l0,-6.902Zm-6.901,-13.803l6.901,-0l0,13.803l-6.901,0l-0,-13.803Zm124.229,-55.213l0,-6.902l27.607,0l-0,6.902l-27.607,-0Zm-13.803,6.901l0,-6.901l13.803,-0l0,6.901l-13.803,0Zm62.115,6.902l-6.902,-0l0,-6.902l6.902,0l-0,6.902Zm6.901,13.803l-6.901,0l-0,-13.803l6.901,-0l0,13.803Zm0,27.607l0,-27.607l6.902,0l0,27.607l-6.902,-0Zm-6.901,13.803l-0,-13.803l6.901,-0l0,13.803l-6.901,0Zm-62.115,6.902l13.803,-0l0,6.901l-13.803,0l0,-6.901Zm-6.902,-6.902l6.902,0l0,6.902l-6.902,-0l0,-6.902Zm-6.901,-13.803l6.901,-0l0,13.803l-6.901,0l-0,-13.803Zm6.901,-41.41l0,-6.902l6.902,0l0,6.902l-6.902,-0Zm-6.901,13.803l-0,-13.803l6.901,-0l0,13.803l-6.901,0Zm-0,27.607l-6.902,-0l0,-27.607l6.902,0l-0,27.607Zm69.016,20.705l0,-6.902l6.902,0l-0,6.902l-6.902,-0Zm-13.803,6.901l-0,-6.901l13.803,-0l0,6.901l-13.803,0Zm-27.607,0l27.607,0l-0,6.902l-27.607,0l0,-6.902Zm179.443,-82.819l-0,-6.902l27.606,0l0,6.902l-27.606,-0Zm-13.803,6.901l-0,-6.901l13.803,-0l-0,6.901l-13.803,0Zm-6.902,6.902l-0,-6.902l6.902,0l-0,6.902l-6.902,-0Zm-6.902,13.803l0,-13.803l6.902,-0l-0,13.803l-6.902,0Zm0,27.607l-6.901,-0l-0,-27.607l6.901,0l0,27.607Zm75.918,-41.41l-6.901,-0l-0,-6.902l6.901,0l0,6.902Zm6.902,13.803l-6.902,0l0,-13.803l6.902,-0l0,13.803Zm0,27.607l0,-27.607l6.902,0l-0,27.607l-6.902,-0Zm-6.902,13.803l0,-13.803l6.902,-0l0,13.803l-6.902,0Zm-6.901,6.902l-0,-6.902l6.901,0l0,6.902l-6.901,-0Zm-13.804,6.901l0,-6.901l13.804,-0l-0,6.901l-13.804,0Zm-27.606,0l27.606,0l0,6.902l-27.606,0l-0,-6.902Zm-13.803,-6.901l13.803,-0l-0,6.901l-13.803,0l-0,-6.901Zm-6.902,-6.902l6.902,0l-0,6.902l-6.902,-0l-0,-6.902Zm-6.902,-13.803l6.902,-0l-0,13.803l-6.902,0l0,-13.803Zm131.131,-0l-6.901,-0l-0,-6.902l-20.705,0l-0,41.41l-6.902,0l0,-96.623l55.213,0l0,6.902l-48.311,-0l-0,41.41l48.311,-0l0,6.901l-20.705,0l0,6.902Zm20.705,-55.213l6.902,-0l0,6.901l-6.902,0l0,-6.901Zm6.902,6.901l6.902,0l-0,27.607l-6.902,-0l0,-27.607Zm0,27.607l0,6.902l-6.902,-0l0,-6.902l6.902,-0Zm-13.803,34.508l6.901,0l0,6.902l-6.901,-0l-0,-6.902Zm-6.902,-6.902l6.902,0l-0,6.902l-6.902,0l0,-6.902Zm-6.902,-6.901l6.902,-0l0,6.901l-6.902,0l0,-6.901Zm27.607,27.606l6.902,0l-0,6.902l-6.902,0l0,-6.902Zm-6.902,-6.901l6.902,-0l0,6.901l-6.902,0l0,-6.901Zm-358.777,-75.693l-0.223,6.898l-13.796,-0.447l0.223,-6.898l13.796,0.447Zm96.623,-0l-0.223,6.898l-13.796,-0.447l0.223,-6.898l13.796,0.447Zm96.515,89.496l-69.016,0l-0,-96.623l6.901,0l0,89.721l62.115,0l0,6.902Zm82.928,-89.496l-0.224,6.898l-13.796,-0.447l0.224,-6.898l13.796,0.447Z"/>
    <path id="txtColorAliasing" style="fill:#ff2600;fill-opacity:0.5;" d="M379.59,345.082l-6.901,-0l-0,-6.902l6.901,0l0,6.902Zm0,-0l6.902,-0l-0,6.902l-6.902,-0l0,-6.902Zm0,55.213l0,6.902l-6.901,-0l-0,-6.902l6.901,0Zm0,0l0,-6.902l6.902,0l-0,6.902l-6.902,0Zm-55.213,0l-6.902,0l0,-6.902l6.902,0l0,6.902Zm0,0l6.902,0l-0,6.902l-6.902,-0l0,-6.902Zm0,-55.213l0,6.902l-6.902,-0l0,-6.902l6.902,-0Zm0,-0l0,-6.902l6.902,0l-0,6.902l-6.902,-0Zm151.836,-0l-6.902,-0l0,-6.902l6.902,0l0,6.902Zm0,-0l6.902,-0l-0,6.902l-6.902,-0l0,-6.902Zm0,55.213l0,-6.902l6.902,0l-0,6.902l-6.902,0Zm0,0l0,6.902l-6.902,-0l0,-6.902l6.902,0Zm-55.213,0l-6.902,0l0,-6.902l6.902,0l0,6.902Zm0,0l6.902,0l-0,6.902l-6.902,-0l0,-6.902Zm0,-55.213l0,6.902l-6.902,-0l0,-6.902l6.902,-0Zm0,-0l0,-6.902l6.902,0l-0,6.902l-6.902,-0Zm234.656,-0l-6.902,-0l0,-6.902l6.902,0l-0,6.902Zm-0,-0l6.901,-0l0,6.902l-6.901,-0l-0,-6.902Zm-0,55.213l-0,6.902l-6.902,-0l0,-6.902l6.902,0Zm-0,0l-0,-6.902l6.901,0l0,6.902l-6.901,0Zm-55.213,0l-6.902,0l-0,-6.902l6.902,0l-0,6.902Zm-0,0l6.901,0l0,6.902l-6.901,-0l-0,-6.902Zm-0,-55.213l-0,6.902l-6.902,-0l-0,-6.902l6.902,-0Zm-0,-0l-0,-6.902l6.901,0l0,6.902l-6.901,-0Zm138.032,-6.902l-6.901,0l-0,-6.901l6.901,-0l0,6.901Zm0,0l6.902,0l0,6.902l-6.902,-0l0,-6.902Zm0,27.607l0,6.902l-6.901,-0l-0,-6.902l6.901,-0Zm0,-0l0,-6.902l6.902,0l0,6.902l-6.902,-0Zm-6.901,41.41l6.901,-0l0,6.901l-6.901,0l-0,-6.901Zm-6.902,-6.902l6.902,0l-0,6.902l-6.902,-0l0,-6.902Zm-6.902,-6.902l6.902,0l0,6.902l-6.902,0l0,-6.902Zm-6.901,-6.901l6.901,-0l0,6.901l-6.901,0l-0,-6.901Zm-0,-0l-6.902,-0l0,-6.902l6.902,0l-0,6.902Zm27.606,27.606l6.902,0l0,6.902l-6.902,0l0,-6.902Zm-393.393,-82.819l-0,6.901l-6.902,0l0,-6.901l6.902,-0Zm20.705,-0l-0,6.901l-6.902,0l0,-6.901l6.902,-0Zm-0,75.918l-0,6.901l-6.902,0l0,-6.901l6.902,-0Zm-20.705,-0l-0,6.901l-6.902,0l0,-6.901l6.902,-0Zm-27.607,-27.607l0,6.902l-6.901,-0l-0,-6.902l6.901,0Zm0,-20.705l0,6.902l-6.901,-0l-0,-6.902l6.901,0Zm124.23,-27.606l-0,6.901l-6.902,0l0,-6.901l6.902,-0Zm20.705,-0l-0,6.901l-6.902,0l0,-6.901l6.902,-0Zm27.606,27.606l0,6.902l-6.901,-0l-0,-6.902l6.901,0Zm0,20.705l0,6.902l-6.901,-0l-0,-6.902l6.901,0Zm-27.606,27.607l-0,6.901l-6.902,0l0,-6.901l6.902,-0Zm-20.705,-0l-0,6.901l-6.902,0l0,-6.901l6.902,-0Zm-27.607,-27.607l0,6.902l-6.901,-0l-0,-6.902l6.901,0Zm0,-20.705l0,6.902l-6.901,-0l-0,-6.902l6.901,0Zm207.05,-27.606l-0,6.901l-6.902,0l-0,-6.901l6.902,-0Zm20.704,-0l0,6.901l-6.901,0l-0,-6.901l6.901,-0Zm27.607,27.606l0,6.902l-6.902,-0l0,-6.902l6.902,0Zm0,20.705l0,6.902l-6.902,-0l0,-6.902l6.902,0Zm-27.607,27.607l0,6.901l-6.901,0l-0,-6.901l6.901,-0Zm-20.704,-0l-0,6.901l-6.902,0l-0,-6.901l6.902,-0Zm-27.607,-27.607l-0,6.902l-6.902,-0l0,-6.902l6.902,0Zm-0,-20.705l-0,6.902l-6.902,-0l0,-6.902l6.902,0Z"/>
    <path id="logoP" style="fill:#ff2600;" d="M545.23,193.246l-0,13.803l6.901,0l0,13.803l6.902,0l-0,13.804l6.901,-0l0,13.803l6.902,0l0,13.803l6.902,0l-0,13.804l6.901,-0l0,13.803l6.902,-0l-0,13.803l-13.803,0l-0,6.902l-13.804,-0l0,-6.902l-6.901,0l-0,-13.803l-6.902,-0l0,-13.803l-6.901,-0l-0,-13.804l-6.902,0l-0,-13.803l-6.902,0l0,-13.803l-6.901,-0l-0,-13.804l-6.902,0l-0,-13.803l-6.902,0l0,-13.803l-6.901,-0l-0,-13.803l-6.902,-0l0,-13.804l-6.902,0l0,-13.803l-6.901,0l-0,-13.803l-6.902,-0l0,-6.902l13.803,0l0,-6.901l13.804,-0l-0,-6.902l13.803,-0l-0,-6.902l13.803,0l0,-6.901l13.804,-0l-0,-6.902l20.704,-0l0,-6.902l41.41,0l0,6.902l13.804,-0l-0,6.902l13.803,-0l-0,6.901l6.901,0l0,6.902l6.902,-0l0,13.803l6.902,0l-0,55.213l-6.902,0l0,13.804l-6.902,-0l0,6.901l-6.901,0l-0,6.902l-6.902,-0l0,6.901l-6.901,0l-0,6.902l-13.804,0l0,6.902l-6.901,-0l-0,-6.902l-13.804,0l0,-6.902l-6.901,0l-0,-6.901l-6.902,-0l0,-6.902l-13.803,0l-0,-6.901l-6.902,-0l0,-6.902l-6.901,-0l-0,-34.508l6.901,-0l0,-20.705l20.705,-0l0,-6.902l34.508,0l0,27.607l-27.606,-0l-0,13.803l-6.902,-0l0,6.902l6.902,-0l-0,6.901l6.901,0l0,6.902l13.804,-0l-0,6.902l6.901,-0l0,-6.902l6.902,-0l-0,-6.902l6.902,0l-0,-13.803l6.901,-0l0,-27.607l-6.901,0l-0,-13.803l-6.902,0l-0,-6.901l-13.803,-0l-0,-6.902l-34.509,-0l0,6.902l-13.803,-0l0,6.901l-13.803,0l-0,6.902l-13.803,-0l-0,6.901l-6.902,0l-0,6.902l6.902,0l-0,13.803l6.901,0l0,13.804l6.902,-0l-0,13.803l6.902,-0Zm55.213,-124.23l-0,-69.016l34.508,0l-0,20.705l-6.902,-0l0,27.606l-6.901,0l-0,20.705l-20.705,0Zm34.508,6.902l-0,-6.902l6.901,0l0,-13.803l6.902,0l0,-13.803l6.902,-0l-0,-13.803l6.901,-0l0,-13.804l20.705,0l0,6.902l13.804,-0l-0,13.803l-6.902,0l-0,6.902l-6.902,-0l0,6.901l-6.901,0l-0,13.804l-6.902,-0l0,6.901l-6.902,0l0,6.902l-6.901,0l-0,6.902l-13.804,-0l0,-6.902l-6.901,0Zm34.508,27.607l0,-6.902l6.902,-0l-0,-6.902l6.901,0l0,-6.901l6.902,-0l-0,-6.902l6.902,0l-0,-6.902l6.901,0l0,-6.901l6.902,-0l-0,-6.902l6.901,0l0,-6.902l6.902,0l0,6.902l6.902,0l-0,6.902l6.901,-0l0,20.705l-13.803,-0l0,6.901l-6.902,0l0,6.902l-6.901,-0l-0,6.902l-13.803,-0l-0,6.901l-6.902,0l-0,6.902l-6.902,-0l0,-6.902l-6.901,0l-0,-6.901l-6.902,-0Z"/>
    <path id="txtTM" d="M1035.25,324.377l-6.902,0l0,13.803l-6.901,0l-0,-34.508l6.901,0l0,6.902l6.902,-0l-0,13.803Zm6.902,0l-0,-13.803l6.901,-0l0,-6.902l6.902,0l-0,34.508l-6.902,0l0,-13.803l-6.901,0Zm-6.902,0l6.902,0l-0,13.803l-6.902,0l-0,-13.803Zm-55.213,-20.705l34.508,0l-0,6.902l-13.803,-0l-0,27.606l-6.902,0l0,-27.606l-13.803,-0l-0,-6.902Z"/>
</svg>