<svg width="100%" height="100%" viewBox="0 0 6963 3646" xmlns="http://www.w3.org/2000/svg">
    <path id="outline" style="fill:#102410;" d="M6302.08,2447.92l-104.166,-0l-0,-312.5l104.166,-0l0,312.5Zm0,-312.5l0,-104.167l104.167,0l0,104.167l-104.167,-0Zm104.167,-104.167l0,-104.167l312.5,0l0,104.167l-312.5,0Zm312.5,0l104.167,0l-0,104.167l-104.167,-0l0,-104.167Zm104.167,104.167l104.166,-0l0,312.5l-104.166,-0l-0,-312.5Zm-0,312.5l-0,104.166l-104.167,0l0,104.167l-312.5,0l0,-104.167l-104.167,0l0,-104.166l104.167,-0l0,-312.5l208.333,-0l0,104.166l-104.166,0l-0,104.167l104.166,0l0,104.167l-104.166,-0l-0,104.166l104.166,0l0,-104.166l208.334,-0Zm-208.334,-208.334l104.167,0l0,104.167l-104.167,0l0,-104.167Zm-520.833,-208.333l-0,312.5l-104.167,0l0,104.167l-416.666,-0l-0,-208.334l-416.667,0l0,-208.333l-104.167,0l0,208.333l-416.666,0l-0,-104.166l-104.167,-0l0,-104.167l-104.167,0l0,104.167l-104.166,-0l-0,-104.167l-312.5,0l-0,-104.167l-312.5,0l-0,-104.166l-208.334,-0l0,312.5l-416.666,-0l-0,-104.167l-208.334,-0l0,-104.167l-104.166,0l-0,208.334l-104.167,-0l0,104.166l-520.833,0l-0,-208.333l-104.167,-0l0,104.167l-416.667,-0l0,-104.167l-104.166,-0l-0,312.5l-104.167,-0l0,104.167l-208.333,-0l-0,104.166l-208.334,0l0,-208.333l-104.166,-0l-0,-104.167l-104.167,0l0,-208.333l-104.167,-0l0,-208.333l-104.166,-0l-0,-208.334l-104.167,0l0,-104.166l-208.333,-0l-0,-208.334l-104.167,0l0,-208.333l-104.167,-0l0,-208.333l104.167,-0l0,-104.167l208.333,-0l0,-104.167l312.5,0l0,104.167l-208.333,-0l0,104.167l-104.167,-0l0,208.333l104.167,-0l0,208.333l104.167,0l-0,-104.166l104.166,-0l0,208.333l104.167,-0l0,208.333l104.167,0l-0,312.5l104.166,0l0,208.334l104.167,-0l0,208.333l104.167,-0l-0,-104.167l208.333,0l0,-208.333l-104.167,-0l0,-208.333l-104.166,-0l-0,-104.167l104.166,-0l0,-104.167l104.167,0l0,-208.333l104.167,-0l-0,312.5l104.166,-0l0,104.167l104.167,-0l0,104.166l416.667,0l-0,-104.166l104.166,-0l0,-104.167l104.167,-0l0,312.5l312.5,-0l0,-416.667l104.167,0l-0,104.167l208.333,-0l0,104.167l208.333,-0l0,104.166l208.334,0l-0,-208.333l-208.334,0l0,-104.167l-104.166,0l-0,-104.166l-104.167,-0l0,-104.167l-104.167,-0l0,-104.167l-104.166,0l-0,-104.166l104.166,-0l0,-104.167l104.167,-0l0,-208.333l104.167,-0l-0,-104.167l-104.167,-0l0,-104.167l-104.167,0l0,104.167l-104.166,-0l-0,104.167l-104.167,-0l0,104.166l-104.167,0l0,-312.5l-312.5,0l0,104.167l-104.166,-0l-0,104.167l104.166,-0l0,312.5l-520.833,-0l0,104.166l-104.167,0l0,104.167l-104.166,-0l-0,-208.333l104.166,-0l0,-208.334l-104.166,0l-0,-208.333l-208.334,-0l0,-104.167l-625,0l0,-104.166l729.167,-0l0,104.166l208.333,0l0,208.334l104.167,-0l0,208.333l312.5,-0l0,-104.167l-104.167,0l0,-312.5l208.334,0l-0,-104.166l208.333,-0l0,-104.167l312.5,-0l0,104.167l208.333,-0l0,-104.167l104.167,-0l0,104.167l104.167,-0l-0,104.166l104.166,0l0,-208.333l104.167,-0l0,-104.167l104.167,0l-0,-104.166l104.166,-0l0,-104.167l104.167,-0l0,-104.167l104.167,0l-0,104.167l104.166,-0l0,104.167l104.167,-0l0,312.5l-208.333,-0l-0,104.166l208.333,0l0,-104.166l416.667,-0l-0,-104.167l520.833,-0l0,312.5l-104.167,-0l0,-208.333l-208.333,-0l0,520.833l-104.167,-0l0,-104.167l-104.166,0l-0,-312.5l-312.5,0l-0,625l104.166,0l0,208.334l-104.166,-0l-0,104.166l-104.167,0l0,104.167l208.333,-0l0,104.167l104.167,-0l0,-416.667l104.167,-0l-0,208.333l104.166,0l0,-104.166l104.167,-0l0,208.333l104.167,-0l-0,312.5l312.5,-0l-0,-104.167l-104.167,0l0,-104.166l-104.167,-0l0,-104.167l-104.166,-0l-0,-416.667l104.166,0l0,312.5l104.167,0l0,104.167l104.167,-0l-0,104.167l416.666,-0l0,-104.167l104.167,-0l0,-104.167l104.167,0l-0,208.334l-104.167,-0l0,104.166l-104.167,0l0,104.167l312.5,-0l0,-312.5l104.167,-0l0,520.833l208.333,0l0,-208.333l104.167,-0Zm-1250,-1250l104.167,-0l-0,208.333l208.333,0l0,-312.5l104.167,0l-0,-104.166l520.833,-0l0,104.166l104.167,0l-0,104.167l520.833,-0l0,104.167l104.167,-0l-0,208.333l-104.167,-0l0,-104.167l-104.167,0l0,-104.166l-208.333,-0l0,104.166l-104.167,0l0,312.5l-104.166,0l-0,-208.333l-104.167,-0l0,-312.5l-104.167,-0l0,-104.167l-312.5,0l0,104.167l104.167,-0l0,312.5l-520.833,-0l-0,104.167l-104.167,-0l0,104.166l-104.167,0l0,-208.333l104.167,-0l0,-312.5Zm1562.5,312.5l0,312.5l-104.167,-0l0,-312.5l104.167,-0Zm-104.167,312.5l0,312.5l-104.166,-0l-0,-312.5l104.166,-0Zm-104.166,312.5l-0,312.5l-104.167,-0l0,-312.5l104.167,-0Zm-4791.67,-312.5l-104.167,-0l0,104.167l-208.333,-0l0,-312.5l-104.167,-0l0,-208.334l312.5,0l0,104.167l-104.166,-0l-0,208.333l104.166,0l0,-208.333l104.167,-0l0,312.5Zm937.5,312.5l0,-416.667l104.167,0l-0,416.667l-104.167,0Zm0,-416.667l-104.167,0l0,-104.166l104.167,-0l0,104.166Zm3229.17,312.5l-0,-416.666l104.166,-0l0,416.666l-104.166,0Zm-0,-416.666l-104.167,-0l0,-104.167l104.167,-0l-0,104.167Zm-2187.5,-625l208.333,-0l0,-104.167l208.333,-0l0,-104.167l-104.166,0l-0,-104.166l-104.167,-0l0,104.166l-104.167,0l0,104.167l-104.166,-0l-0,104.167Zm416.666,729.166l0,104.167l-208.333,0l0,-104.167l104.167,0l-0,-104.166l104.166,-0l0,-104.167l104.167,-0l0,-208.333l-104.167,-0l0,-104.167l-520.833,-0l0,104.167l-104.167,-0l0,104.166l-104.166,0l-0,416.667l104.166,-0l0,104.167l104.167,-0l0,104.166l520.833,0l0,-104.166l104.167,-0l0,-208.334l-104.167,0Zm-416.666,-312.5l-0,-104.166l312.5,-0l-0,208.333l-104.167,-0l0,104.167l-104.167,-0l0,104.166l-208.333,0l0,-312.5l104.167,0l-0,104.167l104.166,-0l0,-104.167l-104.166,0Zm-1250,729.167l-312.5,0l-0,-104.167l-104.167,0l0,-208.333l104.167,-0l-0,-104.167l208.333,0l0,104.167l-104.167,-0l0,104.167l208.334,-0l-0,-104.167l104.166,-0l0,208.333l-104.166,0l-0,104.167Zm3229.17,-104.167l-312.5,0l0,-104.166l-104.166,-0l-0,-208.334l104.166,0l0,-104.166l208.334,-0l-0,104.166l-104.167,0l0,104.167l208.333,-0l0,-104.167l104.167,0l0,208.334l-104.167,-0l0,104.166Zm-3854.17,1250l104.166,0l0,-208.333l208.334,-0l-0,-104.167l312.5,0l-0,-104.166l520.833,-0l0,-104.167l1770.83,-0l0,104.167l520.834,-0l-0,104.166l312.5,0l-0,104.167l208.333,-0l0,208.333l104.167,0l-0,208.334l-104.167,-0l0,208.333l-208.333,0l-0,104.167l-312.5,-0l-0,104.166l-520.834,0l0,104.167l-1770.83,0l0,-104.167l-520.833,0l-0,-104.166l-312.5,-0l-0,-104.167l-208.334,0l0,-208.333l-104.166,-0l-0,-208.334Zm3229.17,0l0,-208.333l-208.333,-0l0,208.333l208.333,0Zm-937.5,416.667l208.334,0l-0,-416.667l104.166,0l0,416.667l208.334,0l-0,-625l-520.834,-0l0,625Zm-1458.33,-625l0,625l208.333,0l0,-416.667l104.167,0l0,416.667l208.333,0l0,-416.667l104.167,0l0,416.667l208.333,0l0,-625l-833.333,-0Zm1041.67,-0l-0,208.333l208.333,0l0,-208.333l-208.333,-0Zm1145.83,625l208.333,0l0,-312.5l-208.333,-0l0,312.5Zm-1145.83,-312.5l-0,312.5l208.333,0l0,-312.5l-208.333,-0Z"/>
    <path id="fill" style="fill:#bedca0;" d="M4635.42,1718.75l-104.167,0l0,-208.333l-104.167,-0l0,104.166l-104.166,0l-0,-208.333l-104.167,0l0,416.667l-104.167,-0l0,-104.167l-208.333,0l0,-104.167l104.167,0l-0,-104.166l104.166,-0l0,-208.334l-104.166,0l-0,-625l312.5,0l-0,312.5l104.166,0l0,104.167l104.167,0l0,-520.833l208.333,-0l0,208.333l104.167,0l0,312.5l-104.167,0l0,208.333l-104.166,0l-0,416.667Zm-0,0l104.166,0l0,104.167l104.167,-0l0,104.166l104.167,0l-0,104.167l-312.5,0l-0,-312.5Zm104.166,-416.667l104.167,0l0,-104.166l104.167,-0l-0,-104.167l520.833,0l0,104.167l104.167,-0l-0,416.666l-104.167,0l0,104.167l-104.167,0l0,104.167l-416.666,-0l-0,-104.167l-104.167,0l0,-104.167l-104.167,0l0,-312.5Zm729.167,-208.333l0,-312.5l-104.167,0l0,-104.167l312.5,0l0,104.167l104.167,0l0,312.5l104.167,0l-0,208.333l104.166,0l0,-312.5l104.167,0l0,-104.166l208.333,-0l0,104.166l104.167,0l0,104.167l-104.167,0l0,312.5l-104.166,0l-0,312.5l-104.167,0l0,312.5l-104.167,0l0,208.333l-208.333,0l0,-520.833l-104.167,0l0,312.5l-312.5,0l0,-104.167l104.167,0l0,-104.166l104.167,-0l-0,-208.334l104.166,0l0,-416.666l-104.166,-0l-0,-104.167l-104.167,0Zm-104.167,520.833l0,-104.166l104.167,-0l0,-208.334l-104.167,0l0,104.167l-208.333,0l0,-104.167l104.167,0l-0,-104.166l-208.334,-0l0,104.166l-104.166,0l-0,208.334l104.166,-0l0,104.166l312.5,0Zm-3854.17,-208.333l104.166,0l0,-104.167l104.167,0l0,-104.166l520.833,-0l0,104.166l104.167,0l0,416.667l-104.167,0l0,104.167l-104.166,-0l-0,104.166l-416.667,0l0,-104.166l-104.167,-0l0,-104.167l-104.166,0l-0,-312.5Zm729.166,-208.333l0,-312.5l-104.166,-0l-0,-104.167l104.166,0l0,-104.167l312.5,0l0,312.5l104.167,0l0,-104.166l104.167,-0l-0,-104.167l104.166,0l0,-104.167l104.167,0l0,104.167l104.167,0l-0,104.167l-104.167,-0l0,208.333l-104.167,0l0,104.167l-104.166,-0l-0,104.166l104.166,0l0,104.167l104.167,0l0,104.167l104.167,-0l-0,104.166l104.166,0l0,104.167l208.334,0l-0,208.333l-208.334,0l0,-104.166l-208.333,-0l0,-104.167l-208.333,0l-0,-104.167l-104.167,0l0,416.667l-312.5,0l0,-312.5l104.167,0l-0,-416.667l-104.167,0l0,-104.166l-104.167,-0Zm-833.333,208.333l0,208.333l-104.167,0l0,104.167l-104.166,0l-0,104.167l104.166,-0l0,208.333l104.167,0l0,208.333l-208.333,0l-0,104.167l-104.167,0l0,-208.333l-104.167,-0l0,-208.334l-104.166,0l-0,-312.5l-104.167,0l0,-208.333l-104.167,0l0,-208.333l-104.166,-0l-0,104.166l-104.167,0l0,-208.333l-104.167,0l0,-208.333l104.167,-0l0,-104.167l208.333,0l0,-104.167l625,0l0,104.167l208.334,0l-0,208.333l104.166,0l0,208.334l-104.166,-0l-0,208.333l-104.167,0l0,-312.5l-104.167,0l0,-104.167l-312.5,0l0,208.334l104.167,-0l0,312.5l208.333,-0l0,-104.167l104.167,0Zm-104.167,-312.5l0,208.333l-104.166,0l-0,-208.333l104.166,0Zm833.334,625l-0,-104.167l104.166,0l0,-208.333l-104.166,0l-0,104.167l-208.334,-0l0,-104.167l104.167,0l0,-104.167l-208.333,0l-0,104.167l-104.167,0l0,208.333l104.167,0l-0,104.167l312.5,0Zm4270.83,416.667l0,-104.167l312.5,0l0,104.167l104.167,-0l-0,312.5l-208.334,-0l0,-104.167l104.167,0l0,-104.167l-104.167,0l0,-104.166l-208.333,-0Zm208.333,208.333l-104.166,0l-0,-104.167l104.166,0l0,104.167Zm-208.333,-208.333l0,312.5l-104.167,-0l0,-312.5l104.167,-0Zm208.333,312.5l0,104.166l-104.166,0l-0,-104.166l104.166,-0Zm-2812.5,-1145.83l104.167,0l0,208.334l-104.167,-0l0,104.166l-520.833,0l0,-104.166l-104.167,-0l0,-104.167l-104.166,0l-0,-416.667l104.166,0l0,-104.166l104.167,-0l0,-104.167l520.833,0l0,104.167l104.167,-0l0,208.333l-104.167,0l0,104.167l-104.166,-0l-0,104.166l-104.167,0l0,104.167l208.333,0l0,-104.167Zm-416.666,-312.5l-104.167,0l0,312.5l208.333,0l0,-104.166l104.167,-0l0,-104.167l104.167,0l-0,-208.333l-312.5,-0l-0,104.166l104.166,0l0,104.167l-104.166,0l-0,-104.167Zm-0,-416.666l-0,-104.167l104.166,0l0,-104.167l104.167,0l0,-104.166l104.167,-0l-0,104.166l104.166,0l0,104.167l-208.333,0l0,104.167l-208.333,-0Zm-1041.67,2708.33l-0,-625l833.333,0l0,625l-208.333,0l-0,-416.667l-104.167,0l0,416.667l-208.333,0l-0,-416.667l-104.167,0l0,416.667l-208.333,0Zm1041.67,0l-0,-312.5l208.333,0l0,312.5l-208.333,0Zm-0,-416.667l-0,-208.333l208.333,0l0,208.333l-208.333,0Zm416.666,416.667l0,-625l520.834,0l-0,625l-208.334,0l0,-416.667l-104.166,0l-0,416.667l-208.334,0Zm729.167,-312.5l208.333,0l0,312.5l-208.333,0l-0,-312.5Zm-0,-104.167l-0,-208.333l208.333,0l0,208.333l-208.333,0Z"/>
</svg>