<svg xmlns="http://www.w3.org/2000/svg" viewBox="0 0 397 85">
    <path d="M137.97 19.7v-5.62h2.81v-2.82h2.82V8.45h2.81V5.63h5.63V2.82h5.63V0h11.27v2.82h5.63v2.81h5.63v2.82h2.8v2.81h2.82v2.82h2.81v5.63h2.82v22.52h-2.81v2.82h-2.82v5.63h-5.63v2.82h-2.82v2.81h-8.44v2.82h-11.27V56.3h-8.44v-2.8h-2.82v-2.82h-2.81v25.34h-8.45V19.71h2.81Zm8.44 5.64h-2.81V36.6h2.81v2.82h2.82v5.63h5.63v2.81h16.9v-2.81h5.62v-5.63h2.82v-5.63h2.8v-8.45h-2.81v-5.63h-2.82v-2.82h-2.81v-2.81h-5.63v-2.82h-11.27v2.82h-5.63v2.81h-2.81v2.82h-2.82v5.63Zm47.87 28.16v-2.82h8.44v8.45h2.82v2.81h2.81v2.82H214v2.81h8.44v-2.81h8.45v-5.63h2.81v-8.45h-2.81v-5.63h-5.63v-2.82h-14.08v-2.81h-5.63V36.6h-2.82v-2.8h-2.81v-2.82h-2.82v-16.9h2.82V8.46h2.81V5.63h2.82V2.82H214V0h8.44v2.82h8.45v2.81h2.81v2.82h2.82v5.63h2.82v5.63h-11.27v-5.63h-5.63v-2.82H214v2.82h-5.64v14.08h2.82v2.81h8.45v2.82h11.26v2.81h5.63v2.82h2.82v2.81h2.81v22.53h-2.81v5.63h-5.64v2.82h-2.81v2.81h-25.34v-2.81h-5.63v-2.82h-2.82v-2.82h-2.81v-8.44h-2.82V53.5h2.82Zm67.57-8.45v-2.82h2.82v-2.81h2.81V36.6h5.63v-2.8h14.08v2.81h5.63v2.82h2.82v2.81h2.81v2.82h2.82v19.7h-2.82v2.82h-2.81v2.82h-2.82v2.82h-2.81v2.81H270.3v-2.81h-2.82V70.4h-5.63v-5.63h-2.82V45.05h2.82Zm5.63 2.81v14.08h2.82v2.82h2.81v2.81h14.08v-2.81h2.82v-2.82h2.81V47.87h-2.81v-2.82h-2.82v-2.82h-14.08v2.82h-2.81v2.81h-2.82Zm42.24-2.81v-2.82h2.81v-2.81h2.82V36.6h5.63v-2.8h14.08v2.81h5.63v2.82h2.81v2.81h2.82v2.82h2.81v30.97h-8.44V47.87h-2.82v-2.82h-2.81v-2.82h-14.08v2.82h-2.82v2.82h-2.81v28.15h-8.45V45.05h2.82Zm47.86 0v-2.82h2.82v-2.81h2.81V36.6h5.63v-2.8h14.08v2.81h5.63v2.82h2.82v2.81h2.81v2.82H397v14.08h-33.79v2.81h2.82v2.82h2.81v2.81h16.9v-2.81h2.81v-2.82h5.63v8.45h-2.81v2.82h-2.82v2.81h-22.52v-2.81h-2.82V70.4h-2.81v-2.82h-2.82v-2.81h-2.81V45.05h2.81Zm5.63 2.81v2.82h25.34v-2.82h-2.81v-2.81h-2.82v-2.82h-14.08v2.82h-2.81v2.81h-2.82Z"/>
    <path fill="#de0029" d="M53.5 2.82h11.26v2.81h8.45v2.82h5.63v2.81h2.81v2.82h2.82v2.81h2.81v5.63h2.82v16.9h-2.82v5.63h-2.81v2.81h-2.82v2.82H70.4v-2.82h-2.82V14.08h-5.63v70.39H53.5v-2.82h-8.45v-2.81h-2.82V0H53.5v2.82Z"/>
    <path fill="#00aa9e" d="M16.9 56.31V53.5h8.44v-2.82h8.45v-2.82h2.81v2.82h5.63v5.63h-2.81v2.82h-8.45v2.81H16.9v-2.81H8.45V56.3h8.44Zm53.49 5.63h2.82v2.82h-8.45v2.81h-2.82v-8.44h8.45v2.81Zm-2.82 11.27v-2.82h8.45v-2.82h8.45v-2.81h5.63v2.81h8.45v2.82h2.81v2.82h-8.44v2.81h-8.45v2.82h-16.9v-2.82h-5.63v-2.81h5.63ZM33.8 67.57v-2.81h8.44v2.81H33.8Z"/>
    <path fill="#326db3" d="M67.57 56.31V53.5h14.08v-2.82h8.45v2.82H107v2.81h2.8v2.82h2.82v8.44H107v2.82h-8.44v-2.82H90.1v-2.81h2.81v-2.82h2.82v-2.81H81.65v2.81H70.4v-2.81h-8.45V56.3h5.63ZM36.6 50.68v-2.82h5.63v2.82H36.6Z"/>
    <path fill="#f3c202" d="M2.82 61.94v-2.81h14.07v2.81h5.63v2.82H16.9v2.81h2.82v2.82h5.63v-2.82h16.9v8.45h-31v-2.81H2.82v-2.82H0v-8.45h2.82Zm64.75 16.9h8.45v2.81h-8.45v2.82h-5.63v-8.45h5.63v2.82Z"/>
</svg>
