<svg xmlns="http://www.w3.org/2000/svg" viewBox="0 0 397 71">
    <path fill="#fff" d="M130.95 12.47h2.08v4.16h-2.08v-4.16Zm2.08 6.24h2.08V29.1h-2.08v4.16h-2.08v2.07h-2.08v2.08H116.4v-2.07h10.4v-2.08h2.07v-2.08h2.08v-4.16h2.08v-8.31Zm-10.4-4.16h-10.39v39.5h-8.31v-2.09h6.23V12.47h12.47v2.08Zm54.05 6.24h2.07v33.25h-8.31v-2.08h6.24V20.78Zm-8.32 29.1v4.15H155.9v-2.08h10.4V49.9h2.07Zm0-24.95h-6.23v2.08h-2.08v4.16h-2.08v12.47h-2.08V29.1h2.08v-4.16h2.08v-2.08h8.31v2.08Zm-10.4 20.79h2.09v2.08h-2.08v-2.08Zm33.27-24.94h2.07v4.15h-2.07V20.8Zm2.07 6.23h2.08v4.16h-2.08v-4.16Zm2.08 6.24h2.08v6.23h-2.08v-6.23Zm16.63-12.47h2.08v6.23H212v4.16h-2.08v4.16h-2.08v6.23h-2.07v6.24h-2.08v4.15h-2.08v4.16h-2.08v6.24h-2.08v6.23h-2.08v2.08h-6.23v-2.08h4.15v-2.08h2.08v-6.23h2.08v-6.24h2.08V49.9h2.08v-4.16h2.08V39.5h2.08v-6.23h2.07V29.1h2.08v-4.16H212V20.8Zm29.1-10.4h2.08v4.16h-14.55v2.08h-2.08v6.23h-2.08v-8.31h2.08v-2.08h14.55V10.4Zm0 20.79h2.08v2.08h-2.08v-2.08Zm2.08 4.16h2.08v10.39h-2.08v4.16h-2.08v2.07h-2.08v2.08h-20.78v-2.08h18.7V49.9h2.08v-2.1h2.08v-4.16h2.08v-8.31Zm-10.4-2.08H222.4v-2.08h10.4v2.08Zm20.8-18.71h2.07v4.16h-2.08v-4.16Zm10.38 6.24h2.08v4.15h-10.39v20.79h-2.08V22.86h10.4V20.8Zm-2.07 29.1h2.07v4.15h-10.39v-2.08h8.32V49.9Zm33.25-29.1h2.08v33.25h-8.31v-2.08h6.23V20.78Zm-8.31 29.1v4.15h-12.47v-2.08h10.39V49.9h2.08Zm0-24.95h-6.24v2.08h-2.08v4.16h-2.07v12.47h-2.08V29.1h2.08v-4.16h2.07v-2.08h8.32v2.08Zm-10.4 20.79h2.08v2.08h-2.07v-2.08Zm31.18-31.18h2.08v4.16h-2.08v-4.16Zm10.4 6.24h2.07v4.15H309.7v20.79h-2.08V22.86h10.4V20.8Zm-2.08 29.1h2.08v4.15h-10.4v-2.08h8.32V49.9Zm45.73-27.03h2.07v2.08h-2.07v-2.08Zm2.07 4.16h2.08v20.79h-2.08v2.08h-2.07v2.07h-2.08v2.08h-16.63v-2.08h14.55V49.9h2.08v-2.1h2.08v-2.08h2.07v-18.7Zm-10.39-2.08h-6.23v2.08h-2.08v18.7h-2.08V24.95h2.08v-2.08h8.31v2.08Zm41.57 0H397v29.1h-8.31v-2.08h6.23V24.94Zm-10.4 0h-6.23v29.1h-8.31v-2.08h6.24v-29.1h8.3v2.08ZM145.5 8.31h2.08v45.73h-8.32v-2.08h6.24V8.31Zm184.99 0h2.08v8.32h-8.32v-2.08h6.24V8.31Zm0 12.48h2.08v33.25h-8.32v-2.08h6.24V20.78Z"/>
    <path d="M101.85 51.96V6.24h22.86V8.3h4.16v2.08h2.08v6.24h2.08v10.4h-2.08v4.15h-2.08v2.08h-2.08v2.08h-12.47v-4.16h6.24V29.1h2.07v-2.08h2.08V14.55h-2.08v-2.08h-12.47v39.5h-8.31Zm35.33 0V6.24h8.32v45.72h-8.32Zm29.1-4.15v4.15h-12.47v-2.08h-2.08v-2.07h-2.08V24.94h2.08v-4.16h4.16v-2.07h20.79v33.25h-8.32v-29.1h-8.31v2.08h-2.08v4.16h-2.08v14.55h2.08v4.16h8.31Zm14.55-29.1h10.4v6.23h2.07v6.24h2.08v8.31h2.08v-2.08h2.08v-6.23h2.08v-4.16h2.08v-6.24h2.08v-2.07H212v6.23h-2.08v4.16h-2.08v4.16h-2.07v6.23h-2.08v6.24h-2.08v4.15h-2.08v4.16h-2.08v6.24h-2.08v6.23h-2.08v2.08h-6.23v-4.16h2.08V58.2h2.08v-4.16h2.07v-4.16h-2.07v-6.23h-2.08v-4.16h-2.08v-6.23h-2.08v-8.32h-2.08v-4.16h-2.08v-2.07Zm60.28-10.4v4.16h-14.55v2.08h-2.08v8.31h2.08v2.08h8.31v2.08h4.16v2.08h2.08v4.16h2.08v10.39h-2.08v4.16h-2.08v2.07h-2.08v2.08h-20.78v-6.23h16.63v-2.08h2.07v-10.4h-2.07v-2.07h-12.48V29.1h-2.07v-4.16h-2.08V14.55h2.08v-4.16h2.07V8.31h20.79Zm6.24 4.16h6.23v6.24h10.4v4.15h-10.4v22.87h2.08v2.08h6.24v4.15h-10.4v-2.08h-2.08v-2.07h-2.07V12.47Zm37.4 35.34v4.15H272.3v-2.08h-2.08v-2.07h-2.08V24.94h2.08v-4.16h4.16v-2.07h20.78v33.25h-8.31v-29.1h-8.32v2.08h-2.08v4.16h-2.07v14.55h2.07v4.16h8.32Zm16.64-35.34h6.23v6.24h10.4v4.15h-10.4v22.87h2.08v2.08h6.24v4.15h-10.4v-2.08h-2.07v-2.07h-2.08V12.47Zm20.78-6.23h8.32v8.31h-8.32V6.24Zm0 12.47h8.32v33.25h-8.32V18.71Zm18.71 0h16.63v2.07h4.15v4.16h2.08v20.79h-2.08v2.08h-2.07v2.07h-2.08v2.08h-16.63V49.9h-2.08v-2.1h-2.08v-2.08h-2.08V24.94h2.08v-2.08h2.08v-2.08h2.08v-2.07Zm4.16 4.15v2.08h-2.08v20.79h2.08v2.08h8.31v-2.08h2.08V24.94h-2.08v-2.08h-8.31Zm31.17 29.1h-8.3V18.71h20.78v2.07h2.07v2.08h4.16v29.1h-8.31V24.94h-2.08v-2.08h-8.32v29.1Z"/>
    <path fill="#e72235" d="M31.18 0h8.31v2.08h8.32v2.08h6.23v2.08h4.16V8.3h2.08v2.08h2.08v2.08h2.08v4.16h2.07V29.1h-2.07v4.16h-2.08v2.07h-2.08v2.08h-8.32v-2.07H49.9V10.39h-4.16v51.97H39.5v-2.08h-6.23V58.2h-2.08V0Z"/>
    <path fill="#f6cb00" d="M2.08 43.65h10.4v2.08h4.15v2.08h-4.16v2.08h2.08v2.07h4.16V49.9h12.47v6.23H8.3v-2.08H2.08v-2.08H0v-6.23h2.08v-2.08Zm43.65 12.47h4.16v2.08h6.23v2.08h-6.23v2.08h-4.16v-6.24Z"/>
    <path fill="#00b6ae" d="M24.94 35.34h2.08v2.07h4.16v4.16H29.1v2.08h-6.24v2.08H12.47v-2.08H6.24v-2.08h6.23V39.5h6.24v-2.08h6.23v-2.08Zm0 12.47h6.24v2.07h-6.24v-2.07Zm20.79 2.07v-6.23h6.23v2.08h2.08v2.08h-6.23v2.08h-2.08Zm0 4.16h4.16v-2.08h6.23V49.9h6.24v-2.1h4.15v2.07h6.24v2.08h2.08v2.08h-6.24v2.08h-6.23v2.08H49.89v-2.08h-4.16v-2.08Z"/>
    <path fill="#3f82c1" d="M31.18 35.34v2.07h-4.16v-2.07h4.16Zm14.55 6.56 4.16-.33V39.5h10.39v-2.08h6.23v2.08h12.47v2.41h2.08v1.75h2.08v6.24h-4.16v2.07h-6.23V49.9H66.5v-2.1h2.08v-2.08h2.08v-2.08h-10.4v2.08h-8.3v-2.08h-6.24V41.9Z"/>
</svg>
