<svg width="100%" height="100%" viewBox="0 0 397 109" xmlns="http://www.w3.org/2000/svg">
    <path id="outline" d="M4.01,32.089l0,-4.011l4.01,-0l0,-4.011l40.101,-0l0,4.011l4.01,-0l0,8.022l172.435,0l-0,-24.067l8.02,0l-0,-4.011l24.06,0l0,4.011l4.011,0l-0,8.023l4.01,-0l-0,4.011l4.01,-0l-0,8.022l4.01,-0l-0,-20.056l4.01,0l-0,-12.033l52.131,0l0,4.011l8.02,0l0,16.045l4.011,-0l-0,16.044l4.01,0l-0,12.033l4.01,0l-0,-8.022l4.01,0l-0,-8.022l4.01,-0l-0,-8.022l4.01,-0l0,-8.023l4.01,0l0,-8.022l32.081,0l-0,68.189l-4.01,0l-0,32.089l-32.081,0l0,-16.044l-4.01,-0l-0,8.022l-4.01,-0l-0,4.011l-28.071,-0l0,-12.033l-4.01,-0l0,8.022l-56.141,-0l-0,-4.011l-4.01,-0l-0,-8.023l-4.011,0l0,-8.022l-4.01,0l0,8.022l-4.01,0l0,4.012l-160.404,-0l0,-4.012l-4.01,0l0,4.012l-32.081,-0l0,-4.012l-8.02,0l0,4.012l-36.091,-0l0,-4.012l-4.01,0l0,-4.011l-4.01,0l-0,-52.144l4.01,-0Zm8.02,4.011l0,4.011l-4.01,0l0,12.033l4.01,0l0,4.012l4.01,-0l0,4.011l4.011,-0l-0,4.011l8.02,-0l-0,8.022l-12.031,0l0,-4.011l-8.02,-0l0,8.022l4.01,0l0,4.011l4.01,0l0,4.011l20.051,0l-0,-4.011l4.01,0l0,-4.011l4.01,0l0,-20.055l-4.01,-0l0,-4.012l-8.02,0l-0,-4.011l-8.02,0l-0,-8.022l8.02,0l-0,4.011l12.03,0l0,-8.022l-4.01,-0l0,-4.011l-24.061,-0l0,4.011l-4.01,-0Zm228.576,48.133l0,-4.011l4.01,0l0,-20.055l-4.01,-0l0,-8.023l-4.01,0l-0,-4.011l-4.01,0l-0,-4.011l-8.02,0l-0,4.011l-8.021,0l0,-4.011l-8.02,0l0,4.011l-4.01,0l0,-4.011l-12.03,0l-0,40.111l12.03,0l0,-28.077l4.01,-0l0,4.011l4.01,-0l0,24.066l12.031,0l-0,-28.077l4.01,-0l-0,4.011l4.01,-0l-0,8.022l-4.01,-0l-0,12.033l4.01,0l-0,4.011l8.02,0Zm-56.141,0l-0,-4.011l4.01,0l-0,-28.078l-4.01,0l-0,-4.011l-8.021,0l0,-4.011l-8.02,0l0,4.011l-8.02,0l0,-4.011l-8.02,0l-0,4.011l-4.01,0l-0,-4.011l-12.031,0l0,40.111l12.031,0l-0,-28.077l4.01,-0l-0,4.011l4.01,-0l-0,24.066l12.03,0l0,-28.077l4.01,-0l0,4.011l4.01,-0l0,8.022l-4.01,-0l0,12.033l4.01,0l0,4.011l8.021,0Zm-56.142,0l0,-40.111l-16.04,0l-0,8.022l4.01,0l-0,16.045l-4.01,-0l-0,4.011l-8.02,0l-0,-28.078l-12.031,0l0,8.022l-4.01,0l0,20.056l4.01,0l0,8.022l4.01,0l0,4.011l16.041,0l-0,-4.011l4.01,0l-0,4.011l12.03,0Zm-52.131,0l-0,-4.011l4.01,0l0,-4.011l4.01,0l0,-8.022l-12.03,-0l-0,4.011l-8.02,0l-0,-16.044l12.03,-0l-0,4.011l8.02,-0l0,-12.034l-8.02,0l-0,-4.011l-16.04,0l-0,4.011l-4.011,0l0,4.011l-4.01,0l0,8.023l-4.01,-0l0,8.022l4.01,-0l0,8.022l4.01,0l0,4.011l4.011,0l-0,4.011l16.04,0Zm188.475,-4.011l4.01,0l-0,8.022l4.01,0l-0,4.012l12.03,-0l0,-4.012l4.01,0l0,-24.066l4.01,-0l0,-24.067l4.01,0l0,-24.067l4.011,0l-0,-8.022l-16.041,0l0,12.034l-4.01,-0l0,28.077l-4.01,0l-0,12.034l-4.01,-0l-0,-4.011l-4.01,-0l-0,-8.023l-4.01,0l-0,-8.022l-4.01,0l-0,-8.022l-4.011,-0l0,-4.011l-4.01,-0l0,-8.022l-4.01,-0l0,-4.012l-8.02,0l0,4.012l-8.02,-0l-0,8.022l4.01,-0l-0,4.011l4.01,-0l0,8.022l4.01,0l0,4.011l4.01,0l0,8.022l4.01,0l0,4.012l4.01,-0l0,8.022l4.011,-0l-0,8.022l4.01,-0l-0,8.022Zm48.121,12.034l-0,-24.067l4.01,-0l-0,-24.067l4.01,0l0,12.034l4.01,-0l0,16.044l4.01,-0l0,12.033l4.01,0l0,12.034l12.031,-0l-0,-4.011l4.01,-0l-0,-8.023l4.01,0l-0,-4.011l4.01,0l-0,-8.022l4.01,-0l0,-8.022l4.01,-0l0,-8.022l4.01,-0l0,44.122l16.041,-0l-0,-32.089l4.01,-0l-0,-52.145l-16.041,0l0,8.023l-4.01,-0l0,8.022l-4.01,-0l0,8.022l-4.01,0l0,8.022l-4.01,0l-0,8.023l-4.01,-0l-0,4.011l-4.01,-0l-0,8.022l-4.01,-0l-0,4.011l-4.01,-0l-0,-12.033l-4.011,-0l0,-16.045l-4.01,0l0,-16.044l-4.01,-0l0,-16.045l-8.02,0l0,-4.011l-12.03,0l-0,20.056l-4.01,-0l-0,28.078l-4.01,-0l-0,24.066l-4.011,0l0,12.034l16.041,-0Z"/>
    <path id="vm" d="M240.606,20.056l0,-4.012l8.02,0l0,4.012l4.01,-0l0,8.022l4.01,-0l0,4.011l4.011,-0l-0,8.022l4.01,0l-0,8.022l4.01,0l-0,8.023l4.01,-0l-0,4.011l4.01,-0l-0,-12.034l4.01,0l0,-28.077l4.01,-0l0,-12.034l16.041,0l-0,8.022l-4.011,0l0,24.067l-4.01,0l0,24.067l-4.01,-0l0,24.066l-4.01,0l0,4.012l-12.03,-0l-0,-4.012l-4.01,0l-0,-8.022l-4.01,0l-0,-8.022l-4.01,0l-0,-8.022l-4.011,-0l0,-8.022l-4.01,-0l0,-4.012l-4.01,0l0,-8.022l-4.01,0l0,-4.011l-4.01,0l0,-8.022l-4.01,-0l-0,-4.011l-4.01,-0l-0,-8.022l8.02,-0Zm60.152,60.166l-0,-24.066l4.01,-0l-0,-28.078l4.01,-0l-0,-20.056l12.03,0l0,4.011l8.02,0l0,16.045l4.01,-0l0,16.044l4.01,0l0,16.045l4.011,-0l-0,12.033l4.01,0l-0,-4.011l4.01,-0l-0,-8.022l4.01,-0l-0,-4.011l4.01,-0l-0,-8.023l4.01,0l0,-8.022l4.01,0l0,-8.022l4.01,-0l0,-8.022l4.01,-0l0,-8.023l16.041,0l-0,52.145l-4.01,-0l-0,32.089l-16.041,-0l0,-44.122l-4.01,-0l0,8.022l-4.01,-0l0,8.022l-4.01,0l-0,8.022l-4.01,0l-0,4.011l-4.01,0l-0,8.023l-4.01,-0l-0,4.011l-12.031,-0l0,-12.034l-4.01,0l0,-12.033l-4.01,0l0,-16.044l-4.01,-0l0,-12.034l-4.01,0l-0,24.067l-4.01,-0l-0,24.067l-16.041,-0l0,-12.034l4.011,0Z" style="fill:#b5b5b5;"/>
    <path id="scumm" d="M12.03,40.111l0,-4.011l4.01,0l0,-4.011l24.061,-0l0,4.011l4.01,0l0,8.022l-12.03,0l-0,-4.011l-8.02,0l-0,8.022l8.02,0l-0,4.011l8.02,0l0,4.012l4.01,-0l0,20.055l-4.01,0l0,4.011l-4.01,0l-0,4.011l-20.051,0l0,-4.011l-4.01,0l0,-4.011l-4.01,0l0,-8.022l8.02,-0l0,4.011l12.031,0l-0,-8.022l-8.02,-0l-0,-4.011l-4.011,-0l0,-4.011l-4.01,-0l0,-4.012l-4.01,0l0,-12.033l4.01,0Zm80.202,12.033l0,-8.022l12.031,0l-0,28.078l8.02,0l-0,-4.011l4.01,-0l-0,-16.045l-4.01,0l-0,-8.022l16.04,0l0,40.111l-12.03,0l-0,-4.011l-4.01,0l-0,4.011l-16.041,0l0,-4.011l-4.01,0l0,-8.022l-4.01,0l0,-20.056l4.01,0Zm56.142,-4.011l4.01,0l-0,-4.011l8.02,0l0,4.011l8.02,0l0,-4.011l8.02,0l0,4.011l8.021,0l-0,4.011l4.01,0l-0,28.078l-4.01,0l-0,4.011l-8.021,0l0,-4.011l-4.01,0l0,-12.033l4.01,-0l0,-8.022l-4.01,-0l0,-4.011l-4.01,-0l0,28.077l-12.03,0l-0,-24.066l-4.01,-0l-0,-4.011l-4.01,-0l-0,28.077l-12.031,0l0,-40.111l12.031,0l-0,4.011Zm56.141,0l4.01,0l0,-4.011l8.02,0l0,4.011l8.021,0l-0,-4.011l8.02,0l-0,4.011l4.01,0l-0,4.011l4.01,0l0,8.023l4.01,-0l0,20.055l-4.01,0l0,4.011l-8.02,0l-0,-4.011l-4.01,0l-0,-12.033l4.01,-0l-0,-8.022l-4.01,-0l-0,-4.011l-4.01,-0l-0,28.077l-12.031,0l0,-24.066l-4.01,-0l0,-4.011l-4.01,-0l0,28.077l-12.03,0l-0,-40.111l12.03,0l0,4.011Zm-152.384,12.034l0,-8.023l4.01,0l0,-4.011l4.011,0l-0,-4.011l16.04,0l-0,4.011l8.02,0l0,12.034l-8.02,-0l-0,-4.011l-12.03,-0l-0,16.044l8.02,0l-0,-4.011l12.03,-0l0,8.022l-4.01,0l0,4.011l-4.01,0l-0,4.011l-16.04,0l-0,-4.011l-4.011,0l0,-4.011l-4.01,0l0,-8.022l-4.01,-0l0,-8.022l4.01,-0Z" style="fill:#5bd014;"/>\
</svg>
