<svg width="100%" height="100%" viewBox="0 0 397 89" xmlns="http://www.w3.org/2000/svg">
    <path id="outline" d="M3.854,73.274l0,-3.857l7.709,0l0,-3.856l3.854,-0l0,-3.857l3.855,0l-0,-3.856l3.854,-0l0,-3.857l-7.709,0l0,-23.139l3.855,0l-0,-3.856l3.854,-0l0,-3.857l3.855,0l-0,-3.856l11.563,-0l-0,-3.857l15.417,0l0,19.283l7.709,-0l-0,-3.857l7.709,0l-0,-3.856l11.563,-0l-0,3.856l11.563,0l-0,15.426l3.854,0l0,-3.856l3.855,-0l-0,-3.857l3.854,0l-0,-3.856l11.563,-0l0,3.856l3.854,0l0,3.857l11.564,-0l-0,-11.57l3.854,0l-0,-3.856l11.563,-0l0,3.856l3.854,0l0,3.857l7.709,-0l0,-3.857l19.272,0l-0,3.857l3.854,-0l0,3.856l7.709,0l0,-3.856l15.418,-0l-0,3.856l3.854,0l-0,-7.713l19.272,0l-0,7.713l7.709,0l-0,-3.856l3.854,-0l-0,-3.857l11.563,0l-0,3.857l7.709,-0l-0,7.713l3.854,-0l0,-3.857l19.272,0l-0,-3.856l-3.854,-0l-0,-11.57l-3.855,0l0,-11.569l3.855,-0l-0,-3.857l19.271,0l0,3.857l3.855,-0l-0,7.713l3.854,-0l0,11.569l3.855,0l-0,-15.426l3.854,0l-0,-3.856l3.854,-0l0,-3.857l3.855,0l-0,-3.856l26.98,-0l0,3.856l3.855,0l-0,7.713l3.854,0l-0,11.57l3.854,-0l0,-3.857l3.855,0l-0,-15.426l7.708,0l0,-3.856l3.855,-0l-0,-3.857l19.272,-0l-0,7.713l3.854,0l-0,77.13l-23.126,0l-0,-7.713l-3.855,0l0,7.713l-26.98,0l-0,3.857l-11.563,-0l-0,-3.857l-7.709,0l-0,-3.856l-3.854,-0l-0,7.713l-23.127,-0l0,-11.57l-3.854,0l0,-7.713l-3.854,0l-0,-11.569l-3.855,-0l0,-11.57l-3.854,0l-0,23.139l3.854,0l0,15.426l-19.272,0l0,-7.713l-3.854,0l0,-11.569l-3.854,-0l-0,11.569l-7.709,0l-0,3.857l-19.272,-0l0,-11.57l3.855,0l-0,-7.713l-3.855,0l0,3.857l-3.854,-0l-0,7.713l-3.855,-0l0,3.856l-15.417,0l-0,7.713l-15.418,0l0,-3.856l-3.854,-0l0,-3.857l-3.854,0l-0,-11.569l-3.855,-0l0,7.713l-3.854,-0l-0,3.856l-3.854,0l-0,3.857l-15.418,-0l0,-23.139l-3.854,-0l-0,3.856l-3.855,0l0,7.713l-3.854,0l0,7.713l-15.417,0l-0,-3.856l-3.855,-0l0,3.856l-3.854,0l-0,3.857l-15.418,-0l0,-3.857l-11.563,0l0,3.857l-19.272,-0l0,3.856l-30.835,0l0,-11.569l-3.854,-0l0,-3.857l-3.854,0l-0,3.857l-3.855,-0l0,3.856l-7.708,0l-0,3.857l-3.855,-0l0,3.856l-3.854,0l-0,3.857l-19.272,-0l0,-15.426l3.854,-0Zm0,3.856l0,7.713l11.563,0l0,-3.856l3.855,-0l-0,-3.857l3.854,0l0,-3.856l7.709,-0l-0,-3.857l3.854,0l0,-3.856l3.855,-0l-0,-3.857l3.854,0l0,-7.713l3.854,0l0,15.426l3.855,0l-0,11.57l11.563,-0l-0,-3.857l7.709,0l-0,3.857l3.854,-0l0,-3.857l19.272,0l-0,-11.569l-11.563,-0l-0,3.856l-7.709,0l0,3.857l-3.854,-0l-0,-7.713l-7.709,-0l-0,-15.426l15.417,-0l0,3.856l3.855,0l-0,-3.856l3.854,-0l0,-3.857l3.854,0l0,-11.569l-11.563,-0l0,-3.857l-3.854,0l0,3.857l-7.709,-0l0,3.856l-7.708,0l-0,11.57l-3.855,-0l0,3.856l-7.709,0l0,-11.569l-3.854,-0l0,-3.857l-11.563,0l-0,-3.856l19.272,-0l-0,-15.426l-7.709,-0l0,3.856l-11.563,0l-0,3.857l-3.854,-0l-0,3.856l-3.855,0l0,3.857l-3.854,-0l-0,15.426l7.709,-0l-0,-3.857l3.854,0l-0,11.57l-3.854,-0l-0,3.856l-3.855,0l0,3.857l-3.854,-0l-0,3.856l-3.855,0l0,3.857l-7.708,-0l-0,3.856l-3.855,0Zm107.923,0l7.708,0l0,-3.856l3.855,-0l-0,-7.713l3.854,-0l0,-11.57l3.855,0l-0,-7.713l-11.564,0l0,7.713l-3.854,0l0,7.713l-3.854,0l-0,-15.426l3.854,0l0,-3.856l-3.854,-0l-0,-3.857l-3.855,0l0,3.857l-3.854,-0l-0,3.856l-3.854,0l-0,3.857l-3.855,-0l0,19.282l3.855,0l-0,3.857l11.563,-0l-0,3.856Zm23.126,-3.856l7.709,-0l-0,-7.713l3.854,-0l0,-7.713l3.854,-0l0,-3.857l7.709,0l0,-3.856l7.709,-0l-0,7.713l-3.855,-0l0,19.282l7.709,0l0,-3.856l3.855,-0l-0,-3.857l3.854,0l-0,-7.713l3.854,0l0,-3.856l3.855,-0l-0,-3.857l7.708,0l0,3.857l-3.854,-0l0,15.426l3.854,-0l0,3.856l3.855,0l-0,3.857l7.709,-0l-0,-11.57l-3.855,0l0,-15.426l3.855,0l-0,-11.569l-3.855,-0l0,-3.857l-7.709,0l0,3.857l-7.708,-0l-0,3.856l-3.855,0l0,7.713l-3.854,0l-0,-15.426l-3.854,0l-0,-3.856l-11.564,-0l0,3.856l-3.854,0l0,3.857l-3.854,-0l-0,3.856l-3.855,0l0,3.857l-3.854,-0l0,-7.713l3.854,-0l0,-3.857l-3.854,0l0,-3.856l-3.854,-0l-0,-3.857l-3.855,0l0,3.857l-3.854,-0l-0,15.426l3.854,-0l0,7.713l-3.854,-0l-0,7.713l-3.854,-0l-0,3.856l3.854,0l-0,3.857Zm84.796,-0l0,-3.857l3.854,0l0,-7.713l3.855,0l-0,-3.856l3.854,-0l0,-3.857l3.855,0l-0,-3.856l7.708,-0l0,7.713l-3.854,-0l-0,15.426l-3.854,-0l-0,3.856l11.563,0l-0,-3.856l7.708,-0l0,-11.57l3.855,0l-0,-3.856l7.708,-0l0,15.426l3.855,-0l-0,7.713l11.563,-0l-0,-7.713l-3.854,-0l-0,-30.852l-11.564,-0l0,3.856l-3.854,0l0,3.857l-3.854,-0l-0,3.856l-3.855,0l0,-15.426l-7.708,0l-0,-3.856l-3.855,-0l0,3.856l-3.854,0l-0,3.857l-7.709,-0l0,3.856l-3.854,0l-0,-3.856l-3.855,-0l0,-7.713l-11.563,-0l0,30.852l-3.854,-0l-0,7.713l11.563,-0Zm69.379,-19.283l3.854,0l0,11.57l3.854,-0l0,7.713l3.855,-0l-0,11.569l15.417,0l0,-11.569l3.855,-0l-0,-19.283l3.854,0l-0,23.139l3.854,0l0,3.857l7.709,-0l0,3.856l3.854,0l0,-3.856l3.855,-0l-0,-7.713l-3.855,-0l0,-23.139l3.855,-0l-0,7.713l3.854,-0l0,15.426l3.855,-0l-0,7.713l15.417,-0l0,-7.713l3.854,-0l0,-15.426l3.855,-0l-0,-11.57l3.854,0l0,34.709l15.418,-0l-0,-69.417l-3.855,-0l0,-7.713l-11.563,-0l0,3.856l-3.854,0l-0,3.857l-7.709,-0l0,15.426l-3.854,-0l-0,11.569l-7.709,0l-0,-7.713l-3.854,0l-0,-11.569l-7.709,-0l-0,-3.857l3.854,0l0,-3.856l-3.854,-0l-0,-3.857l-19.272,0l-0,3.857l-3.854,-0l-0,3.856l-3.855,0l0,3.857l-3.854,-0l-0,19.282l-3.854,0l-0,7.713l-3.855,0l0,-11.569l-3.854,-0l-0,-11.57l-3.855,0l0,-7.713l-3.854,0l0,-3.856l-11.563,-0l-0,3.856l-3.854,0l-0,3.857l3.854,-0l-0,11.569l3.854,0l0,11.57l3.855,-0l-0,11.569Zm-200.428,-3.856l0,3.856l-3.854,0l0,3.857l-11.563,-0l0,-3.857l-7.709,0l0,7.713l7.709,0l0,3.857l3.854,-0l0,-3.857l15.418,0l-0,-11.569l-3.855,-0Zm-38.543,-11.57l-0,7.713l3.854,0l0,-7.713l-3.854,0Zm177.301,7.713l-0,3.857l-3.855,-0l0,-3.857l3.855,0Zm115.631,-26.995l-0,3.856l-3.855,0l0,-3.856l3.855,-0Zm-3.855,3.856l0,7.713l-3.854,0l0,-7.713l3.854,0Zm-3.854,7.713l0,7.713l-3.854,0l-0,-7.713l3.854,0Zm-3.854,7.713l-0,7.713l-3.855,0l0,-7.713l3.855,0Zm-3.855,7.713l0,7.713l-3.854,0l-0,-7.713l3.854,0Zm-123.339,11.57l-0,3.856l3.854,0l-0,-3.856l-3.854,-0Z" style="fill:#131106;"/>
    <path id="vm" d="M281.369,15.426l-0,-3.856l11.563,-0l0,3.856l3.854,0l0,7.713l3.855,0l-0,11.57l3.854,-0l0,11.569l3.855,0l-0,-7.713l3.854,0l-0,-19.282l3.854,-0l0,-3.857l3.855,0l-0,-3.856l3.854,-0l-0,-3.857l19.272,0l-0,3.857l3.854,-0l0,3.856l-3.854,0l-0,3.857l-3.855,-0l0,3.856l-3.854,0l0,7.713l-3.854,0l-0,7.713l-3.855,0l0,7.713l-3.854,0l-0,7.713l-3.854,0l-0,19.283l-3.855,-0l0,11.569l-15.417,0l-0,-11.569l-3.855,-0l0,-7.713l-3.854,-0l0,-11.57l-3.854,0l-0,-11.569l-3.855,-0l0,-11.57l-3.854,0l-0,-11.569l-3.854,-0l-0,-3.857l3.854,0Zm42.398,38.565l3.854,0l0,-7.713l3.855,0l-0,-7.713l3.854,0l0,-7.713l3.854,0l0,-7.713l3.855,0l-0,-3.856l7.709,-0l-0,11.569l3.854,0l-0,7.713l7.709,0l-0,-11.569l3.854,-0l0,-15.426l7.709,-0l-0,-3.857l3.854,0l0,-3.856l11.563,-0l0,7.713l3.855,-0l-0,69.417l-15.418,-0l0,-34.709l-3.854,0l-0,11.57l-3.855,-0l0,15.426l-3.854,-0l0,7.713l-15.417,-0l-0,-7.713l-3.855,-0l0,-15.426l-3.854,-0l-0,-7.713l-3.855,-0l0,23.139l3.855,-0l-0,7.713l-3.855,-0l0,3.856l-3.854,0l0,-3.856l-7.709,-0l0,-3.857l-3.854,0l-0,-23.139Z" style="fill:#cb523a;"/>
    <path id="scumm" d="M134.903,65.561l-0,-7.713l3.854,-0l0,-7.713l-3.854,-0l-0,-15.426l3.854,-0l0,-3.857l3.855,0l-0,3.857l3.854,-0l0,3.856l3.854,0l0,3.857l-3.854,-0l0,7.713l3.854,-0l0,-3.857l3.855,0l-0,-3.856l3.854,-0l0,-3.857l3.854,0l0,-3.856l11.564,-0l-0,3.856l3.854,0l-0,15.426l3.854,0l0,-7.713l3.855,0l-0,-3.856l7.708,-0l0,-3.857l7.709,0l0,3.857l3.855,-0l-0,11.569l-3.855,0l0,15.426l3.855,0l-0,11.57l-7.709,-0l-0,-3.857l-3.855,0l0,-3.856l-3.854,-0l0,-15.426l3.854,-0l0,-3.857l-7.708,0l-0,3.857l-3.855,-0l0,3.856l-3.854,0l-0,7.713l-3.854,0l-0,3.857l-3.855,-0l0,3.856l-7.709,0l0,-19.282l3.855,-0l-0,-7.713l-7.709,-0l0,3.856l-7.709,0l0,3.857l-3.854,-0l0,7.713l-3.854,-0l-0,7.713l-7.709,-0l-0,-3.857l-3.854,0l-0,-3.856l3.854,-0Zm77.087,-0l0,-30.852l11.563,-0l0,7.713l3.855,-0l-0,3.856l-3.855,0l0,3.857l3.855,-0l-0,-3.857l3.854,0l0,-3.856l7.709,-0l-0,-3.857l3.854,0l0,-3.856l3.855,-0l-0,3.856l7.708,0l0,15.426l3.855,0l-0,-3.856l3.854,-0l0,-3.857l3.854,0l0,-3.856l11.564,-0l-0,30.852l3.854,-0l-0,7.713l-11.563,-0l-0,-7.713l-3.855,-0l0,-15.426l-7.708,-0l-0,3.856l-3.855,0l0,11.57l-7.708,-0l-0,3.856l-11.563,0l-0,-3.856l3.854,-0l-0,-15.426l3.854,-0l0,-7.713l-7.708,-0l-0,3.856l-3.855,0l0,3.857l-3.854,-0l-0,3.856l-3.855,0l0,7.713l-3.854,0l0,3.857l-11.563,-0l-0,-7.713l3.854,-0Zm-111.776,-15.426l-0,-3.857l3.854,0l-0,-3.856l3.854,-0l0,-3.857l3.855,0l-0,3.857l3.854,-0l0,3.856l-3.854,0l-0,15.426l3.854,0l0,-7.713l3.854,0l0,-7.713l11.564,0l-0,7.713l-3.855,0l0,11.57l-3.854,-0l-0,7.713l-3.855,-0l0,3.856l-7.708,0l-0,-3.856l-11.563,-0l-0,-3.857l-3.855,0l0,-19.282l3.855,-0Zm-53.962,3.856l7.709,0l0,-3.856l3.855,-0l-0,-11.57l7.708,0l0,-3.856l7.709,-0l0,-3.857l3.854,0l0,3.857l11.563,-0l0,11.569l-3.854,0l0,3.857l-3.854,-0l-0,3.856l-3.855,0l0,-3.856l-15.417,-0l-0,15.426l7.709,-0l-0,7.713l3.854,-0l0,-3.857l7.709,0l-0,-3.856l11.563,-0l-0,11.569l-19.272,0l0,3.857l-3.854,-0l-0,-3.857l-7.709,0l-0,3.857l-11.563,-0l-0,-11.57l-3.855,0l0,-15.426Zm-38.543,23.139l-0,-3.856l7.708,-0l0,-3.857l3.855,0l-0,-3.856l3.854,-0l0,-3.857l3.855,0l-0,-3.856l3.854,-0l-0,-11.57l-3.854,0l-0,3.857l-7.709,-0l-0,-15.426l3.854,-0l0,-3.857l3.855,0l-0,-3.856l3.854,-0l-0,-3.857l11.563,0l0,-3.856l7.709,-0l-0,15.426l-19.272,-0l-0,3.856l11.563,0l0,3.857l3.854,-0l0,11.569l-3.854,0l0,7.713l-3.854,0l-0,3.857l-3.855,-0l0,3.856l-3.854,0l-0,3.857l-7.709,-0l0,3.856l-3.854,0l-0,3.857l-3.855,-0l0,3.856l-11.563,0l0,-7.713l3.855,0Z" style="fill:#fbe63a;"/>
</svg>
