<?xml version="1.0" encoding="UTF-8" standalone="no"?>
<!DOCTYPE svg PUBLIC "-//W3C//DTD SVG 1.1//EN" "http://www.w3.org/Graphics/SVG/1.1/DTD/svg11.dtd">
<svg width="100%" height="100%" viewBox="0 0 157 26" version="1.1" xmlns="http://www.w3.org/2000/svg" xmlns:xlink="http://www.w3.org/1999/xlink" xml:space="preserve" xmlns:serif="http://www.serif.com/" style="fill-rule:evenodd;clip-rule:evenodd;stroke-linejoin:round;stroke-miterlimit:2;">
    <rect id="Super-Famicom" serif:id="Super Famicom" x="-0" y="-0" width="157" height="26" style="fill:none;"/>
    <clipPath id="_clip1">
        <rect x="-0" y="-0" width="157" height="26"/>
    </clipPath>
    <g clip-path="url(#_clip1)">
        <path id="Super-Famicom1" serif:id="Super Famicom" d="M36,7l-0,-1l7,-0l-0,1l-6,-0l-0,2l5,-0l-0,1l1,-0l-0,2l-1,-0l-0,1l-7,-0l-0,-1l6,-0l-0,-2l-5,-0l-0,-1l-1,-0l-0,-2l1,-0Zm11,5l4,-0l-0,-6l2,-0l-0,7l-7,-0l-0,-1l-1,-0l-0,-6l2,-0l-0,6Zm15,-5l1,-0l-0,2l-1,-0l-0,1l-5,-0l-0,3l-2,-0l-0,-7l7,-0l-0,1Zm-5,-0l-0,2l4,-0l-0,-2l-4,-0Zm9,-0l-0,-1l7,-0l-0,1l-5,-0l-0,1l-1,-0l-0,1l6,-0l-0,1l-6,-0l-0,1l1,-0l-0,1l5,-0l-0,1l-7,-0l-0,-1l-1,-0l-0,-5l1,-0Zm16,-0l1,-0l-0,2l-1,-0l-0,1l-1,-0l-0,1l1,-0l-0,1l1,-0l-0,1l-2,-0l-0,-1l-1,-0l-0,-1l-1,-0l-0,-1l-3,-0l-0,3l-2,-0l-0,-7l8,-0l-0,1Zm-6,-0l-0,2l5,-0l-0,-2l-5,-0Zm14,-0l-0,-1l6,-0l-0,1l-5,-0l-0,2l5,-0l-0,1l-5,-0l-0,3l-2,-0l-0,-6l1,-0Zm16,6l-7,-0l-0,-1l-1,-0l-0,-2l1,-0l-0,-1l5,-0l-0,-2l-6,-0l-0,-1l8,-0l-0,7Zm-6,-3l-0,2l4,-0l-0,-2l-4,-0Zm19,-3l1,-0l-0,6l-2,-0l-0,-6l-3,-0l-0,6l-2,-0l-0,-6l-3,-0l-0,6l-2,-0l-0,-7l11,-0l-0,1Zm4,6l-2,-0l-0,-7l2,-0l-0,7Zm3,-6l-0,-1l7,-0l-0,1l-5,-0l-0,1l-1,-0l-0,3l1,-0l-0,1l5,-0l-0,1l-7,-0l-0,-2l-1,-0l-0,-4l1,-0Zm9,-0l-0,-1l7,-0l-0,1l1,-0l-0,5l-1,-0l-0,1l-7,-0l-0,-1l-1,-0l-0,-5l1,-0Zm1,1l-0,3l1,-0l-0,1l3,-0l-0,-1l1,-0l-0,-3l-1,-0l-0,-1l-3,-0l-0,1l-1,-0Zm20,-1l1,-0l-0,6l-2,-0l-0,-6l-3,-0l-0,6l-2,-0l-0,-6l-3,-0l-0,6l-2,-0l-0,-7l11,-0l-0,1Zm-102,11l5,-0l-0,1l-5,-0l-0,-1Zm-1,-2l-0,1l-1,-0l-0,2l1,-0l-0,1l1,-0l-0,1l-2,-0l-0,-1l-1,-0l-0,-4l2,-0Zm-0,1l1,-0l-0,1l-1,-0l-0,-1Zm1,-0l-0,-1l1,-0l-0,1l-1,-0Zm-0,-1l-1,-0l-0,-1l1,-0l-0,1Zm-14,4l-1,-0l-0,1l-4,-0l-0,-1l3,-0l-0,-1l1,-0l-0,-2l-4,-0l-0,-1l5,-0l-0,4Zm-0,-0l1,-0l-0,1l-1,-0l-0,-1Zm8,-0l-0,-1l1,-0l-0,-3l1,-0l-0,4l-1,-0l-0,1l-2,-0l-0,-1l1,-0Zm19,-0l-1,-0l-0,1l-5,-0l-0,-1l4,-0l-0,-1l1,-0l-0,-2l-5,-0l-0,-1l6,-0l-0,4Zm11,-3l-3,-0l-0,-1l3,-0l-0,1Zm-0,4l3,-0l-0,1l-3,-0l-0,-1Zm0,-1l-0,1l-3,-0l-0,-1l3,-0Zm-0,-1l3,-0l-0,1l-3,-0l-0,-1Zm0,-1l-0,1l-3,-0l-0,-1l3,-0Zm-0,-1l3,-0l-0,1l-3,-0l-0,-1Zm11,4l-7,-0l-0,-1l6,-0l-0,-3l-6,-0l-0,-1l7,-0l-0,5Zm6,-1l-0,-1l1,-0l-0,-3l1,-0l-0,4l-1,-0l-0,1l-6,-0l-0,-1l5,-0Zm-24,-0l-0,1l-2,-0l-0,-1l2,-0Zm2,-1l-0,1l-2,-0l-0,-1l2,-0Zm1,-0l-1,-0l-0,-1l-5,-0l-0,-1l6,-0l-0,2Zm16,-2l-0,-1l4,-0l-0,1l-4,-0Zm-49,2l-0,-1l5,-0l-0,1l-5,-0Z"/>
        <g id="Symbol">
            <rect id="Background" x="-0" y="-0" width="33" height="26"/>
            <path id="Blue" d="M11,5l-0,-1l1,-0l-0,-1l5,-0l-0,1l1,-0l-0,1l1,-0l-0,1l1,-0l-0,3l-1,-0l-0,2l-1,-0l-0,1l-3,-0l-0,-2l-1,-0l-0,-1l-1,-0l-0,-1l-2,-0l-0,-1l-1,-0l-0,-2l1,-0Z" style="fill:#43b9e9;"/>
            <path id="Red" d="M22,10l-0,-1l2,-0l-0,-1l3,-0l-0,1l1,-0l-0,1l1,-0l-0,1l1,-0l-0,4l-1,-0l-0,1l-1,-0l-0,1l-3,-0l-0,-2l-1,-0l-0,-1l-1,-0l-0,-1l-2,-0l-0,-3l1,-0Z" style="fill:#ec1d23;"/>
            <path id="Green" d="M3,14l-0,-1l2,-0l-0,-1l6,-0l-0,1l2,-0l-0,1l1,-0l-0,2l-1,-0l-0,1l-2,-0l-0,1l-6,-0l-0,-1l-2,-0l-0,-1l-1,-0l-0,-2l1,-0Z" style="fill:#7bc049;"/>
            <path id="Yellow" d="M14,19l-0,-1l2,-0l-0,-1l5,-0l-0,1l2,-0l-0,1l1,-0l-0,2l-1,-0l-0,1l-2,-0l-0,1l-5,-0l-0,-1l-2,-0l-0,-1l-1,-0l-0,-2l1,-0Z" style="fill:#eee816;"/>
        </g>
    </g>
</svg>
