<svg width="100%" height="100%" viewBox="0 0 294 70" xmlns="http://www.w3.org/2000/svg">
    <path id="ENTERTAINMENTSYSTEM" style="fill:#fb3a2a;" d="M294,53.667l-0,16.333l-294,-0l0,-16.333l294,-0Zm-165.667,7l0,2.333l2.334,-0l-0,4.667l2.333,-0l-0,-11.667l-2.333,-0l-0,4.667l-2.334,-0Zm0,-0l0,-2.334l-2.333,0l-0,-2.333l-2.333,-0l-0,11.667l2.333,-0l-0,-7l2.333,-0Zm18.667,-0l2.333,-0l0,7l2.334,-0l-0,-11.667l-2.334,-0l0,2.333l-2.333,0l-0,2.334Zm-2.333,-0l-0,4.666l2.333,0l-0,-4.666l-2.333,-0Zm-0,-0l-0,-2.334l-2.334,0l0,-2.333l-2.333,-0l-0,11.667l2.333,-0l0,-7l2.334,-0Zm-140,-4.667l-0,11.667l4.666,-0l0,-2.334l-2.333,0l-0,-2.333l2.333,-0l0,-2.333l-2.333,-0l-0,-2.334l2.333,0l0,-2.333l-4.666,-0Zm224,4.667l-0,-4.667l-2.334,-0l0,4.667l2.334,-0Zm2.333,-0l2.333,-0l0,-4.667l-2.333,-0l-0,4.667Zm-2.333,-0l-0,7l2.333,-0l-0,-7l-2.333,-0Zm-205.334,-0l0,-2.334l-2.333,0l0,-2.333l-2.333,-0l-0,11.667l2.333,-0l0,-7l2.333,-0Zm0,-0l0,2.333l2.334,-0l-0,4.667l2.333,-0l-0,-11.667l-2.333,-0l-0,4.667l-2.334,-0Zm11.667,-4.667l0,2.333l2.333,0l0,9.334l2.334,-0l-0,-9.334l2.333,0l0,-2.333l-7,-0Zm179.667,4.667l-0,4.666l-2.334,0l0,2.334l4.667,-0l-0,-7l-2.333,-0Zm-0,-0l-0,-2.334l2.333,0l-0,-2.333l-4.667,-0l0,4.667l2.334,-0Zm-37.334,-0l0,2.333l2.334,-0l-0,4.667l2.333,-0l-0,-11.667l-2.333,-0l-0,4.667l-2.334,-0Zm0,-0l0,-2.334l-2.333,0l-0,-2.333l-2.333,-0l-0,11.667l2.333,-0l-0,-7l2.333,-0Zm-107.333,2.333l-0,-2.333l-2.333,-0l-0,-2.334l2.333,0l-0,2.334l2.333,-0l0,-4.667l-7,-0l0,11.667l2.334,-0l-0,-4.667l2.333,-0Zm-0,-0l-0,4.667l2.333,-0l0,-4.667l-2.333,-0Zm-18.667,-7l0,11.667l4.667,-0l0,-2.334l-2.333,0l-0,-2.333l2.333,-0l0,-2.333l-2.333,-0l-0,-2.334l2.333,0l0,-2.333l-4.667,-0Zm30.334,11.667l2.333,-0l-0,-9.334l2.333,0l0,-2.333l-7,-0l0,2.333l2.334,0l-0,9.334Zm11.666,-0l2.334,-0l-0,-4.667l2.333,-0l-0,4.667l2.333,-0l0,-11.667l-7,-0l0,11.667Zm2.334,-7l-0,-2.334l2.333,0l-0,2.334l-2.333,-0Zm11.666,-4.667l0,2.333l2.334,0l-0,7l-2.334,0l0,2.334l7,-0l0,-2.334l-2.333,0l-0,-7l2.333,0l0,-2.333l-7,-0Zm51.334,-0l-0,11.667l4.666,-0l0,-2.334l-2.333,0l-0,-2.333l2.333,-0l0,-2.333l-2.333,-0l-0,-2.334l2.333,0l0,-2.333l-4.666,-0Zm32.666,11.667l2.334,-0l-0,-9.334l2.333,0l-0,-2.333l-7,-0l-0,2.333l2.333,0l0,9.334Zm63,-11.667l0,2.333l2.334,0l-0,9.334l2.333,-0l-0,-9.334l2.333,0l0,-2.333l-7,-0Zm14,-0l0,11.667l4.667,-0l-0,-2.334l-2.333,0l-0,-2.333l2.333,-0l-0,-2.333l-2.333,-0l-0,-2.334l2.333,0l-0,-2.333l-4.667,-0Zm16.334,4.667l-0,-2.334l-2.334,0l0,-2.333l-2.333,-0l-0,11.667l2.333,-0l0,-7l2.334,-0Zm-0,-0l-0,4.666l2.333,0l-0,-4.666l-2.333,-0Zm2.333,-0l2.333,-0l0,7l2.334,-0l-0,-11.667l-2.334,-0l0,2.333l-2.333,0l-0,2.334Zm-42,-0l-0,4.666l-2.333,0l-0,2.334l4.666,-0l0,-7l-2.333,-0Zm-0,-0l-0,-2.334l2.333,0l0,-2.333l-4.666,-0l-0,4.667l2.333,-0Z"/>
    <g id="SUPERNINTENDO">
        <path id="Text" style="fill:#fb3a2a;" d="M9.333,0l11.667,0l0,2.333l2.333,0l0,2.334l2.334,-0l-0,11.666l-7,0l-0,-11.666l-7,-0l-0,16.333l2.333,-0l-0,2.333l2.333,0l0,4.667l2.334,-0l-0,4.667l2.333,-0l-0,9.333l-2.333,-0l-0,4.667l-2.334,-0l0,2.333l-4.666,-0l-0,2.333l-7,0l-0,-2.333l-2.334,-0l0,-2.333l-2.333,-0l-0,-14l7,-0l-0,14l7,-0l-0,-16.334l-2.333,0l-0,-4.666l-2.334,-0l0,-4.667l-2.333,-0l-0,-4.667l-2.333,0l-0,-9.333l2.333,0l-0,-4.667l2.333,0l0,-2.333Zm21,0l7,0l0,4.667l-2.333,-0l-0,11.666l-2.333,0l-0,14l-2.334,0l0,16.334l7,-0l0,-9.334l2.334,0l-0,-14l2.333,0l-0,-11.666l2.333,-0l0,-11.667l7,0l0,2.333l-2.333,0l-0,11.667l-2.333,-0l-0,11.667l-2.334,-0l0,14l-2.333,-0l-0,7l-2.333,-0l-0,2.333l-2.334,-0l0,2.333l-9.333,0l-0,-2.333l-2.333,-0l-0,-2.333l-2.334,-0l0,-7l2.334,-0l-0,-14l2.333,-0l-0,-14l2.333,-0l0,-11.667Zm23.334,-0l14,-0l-0,2.333l2.333,0l-0,2.334l2.333,-0l0,7l-2.333,-0l-0,11.666l-2.333,0l-0,2.334l-4.667,-0l-0,2.333l-7,-0l-0,2.333l-2.333,0l-0,9.334l-2.334,-0l0,11.666l-7,0l0,-2.333l2.334,-0l-0,-11.667l2.333,0l-0,-14l2.333,0l0,-11.666l2.334,-0l-0,-11.667Zm4.666,4.667l0,9.333l-2.333,-0l-0,9.333l7,0l-0,-2.333l2.333,-0l0,-16.333l-7,-0Zm18.667,-4.667l14,0l0,4.667l-9.333,-0l-0,11.666l-2.334,0l0,4.667l7,-0l0,4.667l-7,-0l0,2.333l-2.333,-0l-0,16.333l7,0l-0,2.334l-2.333,-0l-0,4.666l-14,0l-0,-4.666l2.333,-0l-0,-11.667l2.333,-0l0,-11.667l2.334,0l-0,-11.666l2.333,-0l0,-11.667Zm21,0l11.667,0l-0,2.333l2.333,0l-0,2.334l2.333,-0l0,2.333l-2.333,0l-0,11.667l-2.333,-0l-0,4.666l-2.334,0l0,18.667l-2.333,-0l-0,9.333l-7,0l0,-2.333l2.333,-0l0,-11.667l2.334,0l-0,-9.333l-7,-0l-0,7l-2.334,-0l0,11.667l-2.333,-0l-0,4.666l-4.667,0l0,-9.333l2.334,-0l-0,-11.667l2.333,0l-0,-11.666l2.333,-0l0,-14l2.334,-0l-0,-2.334l2.333,0l0,-2.333Zm9.333,4.667l-7,-0l0,7l-2.333,-0l-0,11.666l7,0l-0,-7l2.333,0l0,-11.666Zm23.334,-4.667l7,0l-0,18.667l2.333,-0l-0,2.333l2.333,-0l0,-9.333l2.334,-0l-0,-11.667l7,0l-0,9.333l-2.334,0l0,11.667l-2.333,-0l-0,11.667l-2.333,-0l-0,11.666l-2.334,0l0,7l-7,0l0,-28l-2.333,0l-0,4.667l-2.333,-0l-0,11.667l-2.334,-0l0,11.666l-7,0l0,-9.333l2.334,-0l-0,-11.667l2.333,0l-0,-14l2.333,0l0,-11.666l2.334,-0l-0,-4.667Zm25.666,0l4.667,0l0,11.667l-2.333,-0l-0,11.666l-2.334,0l0,14l-2.333,0l-0,14l-7,0l-0,-7l2.333,0l0,-14l2.334,0l-0,-11.666l2.333,-0l-0,-11.667l2.333,0l0,-7Zm9.334,0l7,0l-0,9.333l2.333,0l-0,16.334l2.333,-0l0,-9.334l2.334,0l-0,-16.333l7,0l-0,14l-2.334,-0l0,11.667l-2.333,-0l-0,11.666l-2.333,0l-0,14l-7,0l-0,-14l-2.334,0l0,-14l-2.333,0l-0,9.334l-2.333,-0l-0,11.666l-2.334,0l0,7l-7,0l0,-4.666l2.334,-0l-0,-11.667l2.333,-0l-0,-11.667l2.333,0l0,-14l2.334,0l-0,-9.333Zm25.666,0l14,0l0,4.667l-4.666,-0l-0,11.666l-2.334,0l0,14l-2.333,0l-0,11.667l-2.333,-0l-0,9.333l-7,0l-0,-7l2.333,0l-0,-14l2.333,0l0,-11.666l2.334,-0l-0,-14l-2.334,-0l0,-4.667Zm18.667,0l11.667,0l-0,4.667l-7,-0l-0,4.666l-2.334,0l0,11.667l7,-0l0,4.667l-9.333,-0l-0,9.333l-2.333,-0l-0,9.333l7,0l-0,7l-16.334,0l0,-2.333l2.334,-0l-0,-9.333l2.333,-0l-0,-11.667l2.333,-0l0,-11.667l2.334,0l-0,-11.666l2.333,-0l0,-4.667Zm16.333,0l7,0l0,16.333l2.334,0l-0,4.667l2.333,-0l-0,-9.333l2.333,-0l0,-11.667l7,0l0,9.333l-2.333,0l-0,11.667l-2.333,-0l-0,14l-2.334,-0l0,11.667l-2.333,-0l-0,4.666l-7,0l-0,-30.333l-2.333,-0l-0,9.333l-2.334,0l0,11.667l-2.333,-0l-0,9.333l-7,0l-0,-9.333l2.333,-0l0,-11.667l2.334,0l-0,-11.666l2.333,-0l-0,-14l2.333,-0l0,-4.667Zm28,0l14,0l0,2.333l2.334,0l-0,7l-2.334,0l0,11.667l-2.333,-0l-0,11.667l-2.333,-0l-0,11.666l-2.334,0l0,2.334l-2.333,-0l-0,2.333l-2.333,-0l-0,2.333l-14,0l-0,-7l2.333,0l-0,-11.666l2.333,-0l0,-11.667l2.334,-0l-0,-14l2.333,0l-0,-4.667l2.333,0l0,-2.333Zm2.334,4.667l-0,9.333l-2.334,-0l0,11.667l-2.333,-0l-0,11.666l-2.333,0l-0,9.334l7,-0l-0,-7l2.333,-0l-0,-11.667l2.333,-0l0,-11.667l2.334,0l-0,-11.666l-7,-0Zm23.333,-4.667l11.667,0l-0,2.333l2.333,0l-0,11.667l-2.333,-0l-0,14l-2.334,-0l0,11.667l-2.333,-0l-0,7l-2.333,-0l-0,2.333l-2.334,-0l0,2.333l-11.666,0l-0,-2.333l-2.334,-0l0,-16.333l2.334,-0l-0,-14l2.333,-0l-0,-11.667l2.333,-0l0,-2.333l2.334,-0l-0,-2.334l2.333,0l0,-2.333Zm0,4.667l-0,9.333l-2.333,-0l-0,14l-2.334,-0l0,18.667l4.667,-0l0,-4.667l2.333,-0l0,-11.667l2.334,0l-0,-14l2.333,0l0,-11.666l-7,-0Z"/>
        <path id="Aliasing" style="fill:#e31100;fill-opacity:0.8;" d="M23.333,2.333l-2.333,0l0,-2.333l2.333,0l0,2.333Zm0,0l2.334,0l-0,2.334l-2.334,-0l0,-2.334Zm-9.333,18.667l-2.333,-0l-0,-2.333l2.333,-0l0,2.333Zm0,-0l2.333,-0l0,2.333l-2.333,0l0,-2.333Zm-11.667,28l-2.333,-0l0,-2.333l2.333,-0l0,2.333Zm0,-0l2.334,-0l-0,2.333l-2.334,0l0,-2.333Zm23.334,-0l-2.334,-0l0,-2.333l2.334,-0l-0,2.333Zm-0,-0l2.333,-0l0,2.333l-2.333,0l-0,-2.333Zm14,-0l-0,2.333l-2.334,0l0,-2.333l2.334,-0Zm-0,-0l-0,-2.333l2.333,-0l0,2.333l-2.333,-0Zm30.333,-46.667l-2.333,0l-0,-2.333l2.333,0l0,2.333Zm0,0l2.333,0l0,2.334l-2.333,-0l0,-2.334Zm25.667,0l-0,2.334l-2.334,-0l0,-2.334l2.334,0Zm-0,0l-0,-2.333l2.333,0l0,2.333l-2.333,0Zm16.333,0l-2.333,0l-0,-2.333l2.333,0l0,2.333Zm0,0l2.333,0l0,2.334l-2.333,-0l0,-2.334Zm147,46.667l-0,2.333l-2.333,0l-0,-2.333l2.333,-0Zm2.333,-2.333l0,-2.334l2.334,0l-0,2.334l-2.334,-0Zm-2.333,2.333l-0,-2.333l2.333,-0l0,2.333l-2.333,-0Zm16.333,-44.333l0,2.333l-2.333,-0l-0,-2.333l2.333,-0Zm2.334,-2.334l-0,-2.333l2.333,-0l-0,2.333l-2.333,0Zm-2.334,2.334l0,-2.334l2.334,0l-0,2.334l-2.334,-0Zm9.334,44.333l-0,2.333l-2.334,0l0,-2.333l2.334,-0Zm-0,-0l-0,-2.333l2.333,-0l-0,2.333l-2.333,-0Zm-16.334,-0l-2.333,-0l0,-4.667l2.333,0l0,4.667Zm0,-0l2.334,-0l-0,2.333l-2.334,0l0,-2.333Zm-259,-49l0,2.333l-2.333,0l0,-2.333l2.333,0Zm-2.333,4.667l0,2.333l-2.333,0l-0,-2.333l2.333,-0Zm0,11.666l0,2.334l-2.333,-0l-0,-2.334l2.333,0Zm7,-11.666l0,2.333l-2.333,0l-0,-2.333l2.333,-0Zm-4.667,16.333l0,2.333l-2.333,0l0,-2.333l2.333,-0Zm2.334,4.667l-0,2.333l-2.334,-0l0,-2.333l2.334,-0Zm7,-0l-0,2.333l-2.334,-0l0,-2.333l2.334,-0Zm-4.667,4.666l0,2.334l-2.333,-0l-0,-2.334l2.333,0Zm7,0l0,2.334l-2.333,-0l-0,-2.334l2.333,0Zm0,11.667l0,2.333l-2.333,0l-0,-2.333l2.333,-0Zm-7,2.333l0,2.334l-2.333,-0l-0,-2.334l2.333,0Zm4.667,2.334l-0,2.333l-2.334,-0l0,-2.333l2.334,-0Zm-4.667,2.333l-0,2.333l-2.333,0l-0,-2.333l2.333,-0Zm23.333,-44.333l0,2.333l-2.333,-0l0,-2.333l2.333,-0Zm-7,4.666l0,2.334l-2.333,-0l-0,-2.334l2.333,0Zm4.667,7l0,2.334l-2.333,-0l-0,-2.334l2.333,0Zm-7,7l-0,2.334l-2.333,-0l-0,-2.334l2.333,0Zm4.667,7l-0,2.334l-2.334,-0l0,-2.334l2.334,0Zm-7,7l-0,2.334l-2.334,-0l0,-2.334l2.334,0Zm18.666,2.334l0,2.333l-2.333,-0l0,-2.333l2.333,-0Zm-4.666,-4.667l-0,2.333l-2.334,0l0,-2.333l2.334,-0Zm7,-9.333l-0,2.333l-2.334,-0l0,-2.333l2.334,-0Zm-4.667,-4.667l0,2.333l-2.333,0l-0,-2.333l2.333,-0Zm7,-7l-0,2.333l-2.333,0l-0,-2.333l2.333,-0Zm-4.667,-4.667l0,2.334l-2.333,-0l0,-2.334l2.333,0Zm7,-7l0,2.334l-2.333,-0l-0,-2.334l2.333,0Zm9.334,2.334l-0,2.333l-2.334,0l0,-2.333l2.334,-0Zm-7,4.666l-0,2.334l-2.334,-0l0,-2.334l2.334,0Zm4.666,4.667l0,2.333l-2.333,0l-0,-2.333l2.333,-0Zm-7,7l0,2.333l-2.333,0l-0,-2.333l2.333,-0Zm14,-2.333l0,2.333l-2.333,-0l-0,-2.333l2.333,-0Zm7,-7l0,2.333l-2.333,-0l-0,-2.333l2.333,-0Zm-2.333,11.666l-0,2.334l-2.333,-0l-0,-2.334l2.333,0Zm-4.667,2.334l0,2.333l-2.333,-0l-0,-2.333l2.333,-0Zm-9.333,4.666l-0,2.334l-2.333,-0l-0,-2.334l2.333,0Zm-7,4.667l-0,2.333l-2.333,0l-0,-2.333l2.333,-0Zm4.667,4.667l-0,2.333l-2.334,-0l0,-2.333l2.334,-0Zm-7,7l-0,2.333l-2.334,-0l0,-2.333l2.334,-0Zm23.333,-2.334l-0,2.334l-2.333,-0l-0,-2.334l2.333,0Zm2.333,-11.666l0,2.333l-2.333,-0l-0,-2.333l2.333,-0Zm2.334,-11.667l-0,2.333l-2.334,0l0,-2.333l2.334,-0Zm4.666,7l0,2.333l-2.333,0l-0,-2.333l2.333,-0Zm2.334,-11.667l-0,2.334l-2.334,-0l0,-2.334l2.334,0Zm-4.667,-7l-0,2.334l-2.333,-0l-0,-2.334l2.333,0Zm7,-4.666l-0,2.333l-2.333,0l-0,-2.333l2.333,-0Zm9.333,11.666l0,2.334l-2.333,-0l-0,-2.334l2.333,0Zm-2.333,11.667l-0,2.333l-2.333,0l-0,-2.333l2.333,-0Zm-7,18.667l-0,2.333l-2.333,-0l-0,-2.333l2.333,-0Zm4.667,-7l-0,2.333l-2.334,-0l0,-2.333l2.334,-0Zm4.666,7l0,2.333l-2.333,-0l-0,-2.333l2.333,-0Zm7,-0l0,2.333l-2.333,-0l-0,-2.333l2.333,-0Zm7,-4.667l0,2.333l-2.333,0l-0,-2.333l2.333,-0Zm-4.666,-7l-0,2.333l-2.334,0l0,-2.333l2.334,-0Zm-7,-0l-0,2.333l-2.334,0l0,-2.333l2.334,-0Zm14,-11.667l-0,2.334l-2.334,-0l0,-2.334l2.334,0Zm-4.667,-2.333l-0,2.333l-2.333,0l-0,-2.333l2.333,-0Zm7,-2.333l-0,2.333l-2.333,-0l-0,-2.333l2.333,-0Zm-4.667,-4.667l0,2.333l-2.333,0l-0,-2.333l2.333,-0Zm-7,-2.333l0,2.333l-2.333,-0l-0,-2.333l2.333,-0Zm7,-7l0,2.333l-2.333,-0l-0,-2.333l2.333,-0Zm7,2.333l0,2.333l-2.333,0l-0,-2.333l2.333,-0Zm16.334,-4.667l-0,2.334l-2.334,-0l0,-2.334l2.334,0Zm14,7l-0,2.334l-2.334,-0l0,-2.334l2.334,0Zm7,0l-0,2.334l-2.334,-0l0,-2.334l2.334,0Zm-2.334,11.667l0,2.333l-2.333,0l-0,-2.333l2.333,-0Zm-9.333,-4.667l-0,2.334l-2.333,-0l-0,-2.334l2.333,0Zm-11.667,-2.333l0,2.333l-2.333,0l-0,-2.333l2.333,-0Zm18.667,18.667l-0,2.333l-2.333,-0l-0,-2.333l2.333,-0Zm-14,-4.667l-0,2.333l-2.333,0l-0,-2.333l2.333,-0Zm-7,-0l-0,2.333l-2.333,0l-0,-2.333l2.333,-0Zm18.667,16.333l-0,2.334l-2.334,-0l0,-2.334l2.334,0Zm-14,-4.666l-0,2.333l-2.334,-0l0,-2.333l2.334,-0Zm-7,-0l-0,2.333l-2.334,-0l0,-2.333l2.334,-0Zm39.666,-39.667l0,2.333l-2.333,0l-0,-2.333l2.333,0Zm-7,4.667l0,2.333l-2.333,0l-0,-2.333l2.333,-0Zm4.667,7l-0,2.333l-2.333,-0l-0,-2.333l2.333,-0Zm-7,4.666l-0,2.334l-2.333,-0l-0,-2.334l2.333,0Zm4.667,7l-0,2.334l-2.334,-0l0,-2.334l2.334,0Zm-7,4.667l-0,2.333l-2.334,0l0,-2.333l2.334,-0Zm4.666,9.333l0,2.334l-2.333,-0l-0,-2.334l2.333,0Zm-7,4.667l0,2.333l-2.333,0l-0,-2.333l2.333,-0Zm9.334,2.333l-0,2.334l-2.334,-0l0,-2.334l2.334,0Zm7,0l-0,2.334l-2.334,-0l0,-2.334l2.334,0Zm2.333,-11.666l-0,2.333l-2.333,-0l-0,-2.333l2.333,-0Zm-7,-0l-0,2.333l-2.333,-0l-0,-2.333l2.333,-0Zm2.333,-11.667l0,2.333l-2.333,0l-0,-2.333l2.333,-0Zm2.334,-14l-0,2.333l-2.334,0l0,-2.333l2.334,0Zm9.333,0l-0,2.333l-2.333,0l-0,-2.333l2.333,0Zm-2.333,30.333l-0,2.334l-2.334,-0l0,-2.334l2.334,0Zm9.333,0l-0,2.334l-2.333,-0l-0,-2.334l2.333,0Zm2.333,-11.666l0,2.333l-2.333,-0l-0,-2.333l2.333,-0Zm-4.666,-11.667l-0,2.333l-2.334,0l0,-2.333l2.334,-0Zm7,-0l-0,2.333l-2.334,0l0,-2.333l2.334,-0Zm2.333,-14l-0,2.333l-2.333,0l-0,-2.333l2.333,-0Zm-0,42l-0,2.333l-2.333,0l-0,-2.333l2.333,-0Zm7,-0l-0,2.333l-2.333,0l-0,-2.333l2.333,-0Zm2.333,-11.667l0,2.334l-2.333,-0l-0,-2.334l2.333,0Zm-7,-2.333l0,2.333l-2.333,0l-0,-2.333l2.333,-0Zm9.334,-11.667l-0,2.334l-2.334,-0l0,-2.334l2.334,0Zm-7,0l-0,2.334l-2.334,-0l0,-2.334l2.334,0Zm16.333,-14l-0,2.334l-2.333,-0l-0,-2.334l2.333,0Zm4.667,7l-0,2.334l-2.334,-0l0,-2.334l2.334,0Zm-7,4.667l-0,2.333l-2.334,0l0,-2.333l2.334,-0Zm-2.334,11.667l0,2.333l-2.333,-0l-0,-2.333l2.333,-0Zm4.667,9.333l-0,2.333l-2.333,0l-0,-2.333l2.333,-0Zm-7,2.333l-0,2.334l-2.333,-0l-0,-2.334l2.333,0Zm-2.333,9.334l-0,2.333l-2.334,-0l0,-2.333l2.334,-0Zm18.666,-7l0,2.333l-2.333,-0l-0,-2.333l2.333,-0Zm7,2.333l0,2.333l-2.333,0l-0,-2.333l2.333,-0Zm2.334,-11.667l-0,2.334l-2.334,-0l0,-2.334l2.334,0Zm-7,-2.333l-0,2.333l-2.334,0l0,-2.333l2.334,-0Zm2.333,-11.667l-0,2.334l-2.333,-0l-0,-2.334l2.333,0Zm2.333,-14l0,2.334l-2.333,-0l-0,-2.334l2.333,0Zm9.334,11.667l-0,2.333l-2.334,0l0,-2.333l2.334,-0Zm4.666,-4.667l0,2.334l-2.333,-0l-0,-2.334l2.333,0Zm7,0l0,2.334l-2.333,-0l-0,-2.334l2.333,0Zm-2.333,11.667l-0,2.333l-2.333,0l-0,-2.333l2.333,-0Zm-2.333,14l-0,2.333l-2.334,0l0,-2.333l2.334,-0Zm-2.334,11.667l0,2.333l-2.333,-0l-0,-2.333l2.333,-0Zm4.667,-4.667l-0,2.333l-2.333,0l-0,-2.333l2.333,-0Zm7,-4.667l-0,2.334l-2.333,-0l-0,-2.334l2.333,0Zm-4.667,-7l0,2.334l-2.333,-0l-0,-2.334l2.333,0Zm7,-4.666l0,2.333l-2.333,-0l-0,-2.333l2.333,-0Zm2.334,18.666l-0,2.334l-2.334,-0l0,-2.334l2.334,0Zm2.333,-7l-0,2.334l-2.333,-0l-0,-2.334l2.333,0Zm2.333,-11.666l0,2.333l-2.333,-0l-0,-2.333l2.333,-0Zm2.334,-11.667l-0,2.333l-2.334,0l0,-2.333l2.334,-0Zm-7,-0l-0,2.333l-2.334,0l0,-2.333l2.334,-0Zm-7,4.667l-0,2.333l-2.334,-0l0,-2.333l2.334,-0Zm2.333,-14l-0,2.333l-2.333,-0l-0,-2.333l2.333,-0Zm2.333,-4.667l0,2.333l-2.333,0l-0,-2.333l2.333,-0Zm16.334,-0l-0,2.333l-2.334,0l0,-2.333l2.334,-0Zm-0,9.333l-0,2.334l-2.334,-0l0,-2.334l2.334,0Zm-2.334,11.667l0,2.333l-2.333,0l-0,-2.333l2.333,-0Zm-2.333,11.667l-0,2.333l-2.333,-0l-0,-2.333l2.333,-0Zm28,-32.667l-0,2.333l-2.333,0l-0,-2.333l2.333,0Zm-11.667,4.667l0,2.333l-2.333,0l-0,-2.333l2.333,-0Zm11.667,9.333l-0,2.333l-2.333,0l-0,-2.333l2.333,-0Zm-7,-0l-0,2.333l-2.333,0l-0,-2.333l2.333,-0Zm-7,-0l-0,2.333l-2.333,0l-0,-2.333l2.333,-0Zm-7,2.333l-0,2.334l-2.333,-0l-0,-2.334l2.333,0Zm-2.333,14l-0,2.334l-2.334,-0l0,-2.334l2.334,0Zm7,-2.333l-0,2.333l-2.334,0l0,-2.333l2.334,-0Zm7,-0l-0,2.333l-2.334,0l0,-2.333l2.334,-0Zm7,-0l-0,2.333l-2.334,0l0,-2.333l2.334,-0Zm-2.334,11.667l0,2.333l-2.333,-0l-0,-2.333l2.333,-0Zm-7,-0l0,2.333l-2.333,-0l-0,-2.333l2.333,-0Zm-2.333,4.666l-0,2.334l-2.333,-0l-0,-2.334l2.333,0Z"/>
    </g>
</svg>
