<svg width="100%" height="100%" viewBox="0 0 313 60" xmlns="http://www.w3.org/2000/svg">
        <path id="VIRTUALBOY" style="fill:#ff2600;" d="M-0,-0l7.825,-0l-0,7.825l2.608,-0l0,7.825l2.609,-0l-0,7.825l2.608,-0l-0,10.433l2.608,0l0,-10.433l2.609,-0l-0,-7.825l2.608,-0l-0,-7.825l2.608,-0l0,-7.825l7.825,-0l0,7.825l-2.608,-0l-0,7.825l-2.608,-0l-0,7.825l-2.609,-0l0,7.825l-2.608,-0l-0,7.825l-2.608,-0l-0,10.433l-2.609,0l0,7.825l-2.608,0l-0,-7.825l-2.608,0l-0,-10.433l-2.609,-0l0,-7.825l-2.608,-0l-0,-7.825l-2.608,-0l-0,-7.825l-2.609,-0l0,-7.825l-2.608,-0l-0,-7.825Zm39.125,-0l7.825,-0l-0,57.383l-7.825,0l-0,-57.383Zm13.042,-0l15.65,-0l-0,2.608l5.216,0l0,2.609l2.609,-0l-0,23.475l-2.609,-0l0,2.608l-2.608,-0l-0,5.217l2.608,-0l0,5.216l2.609,0l-0,5.217l2.608,-0l-0,5.217l2.608,-0l0,5.216l-7.825,0l0,-5.216l-2.608,-0l-0,-5.217l-2.608,-0l-0,-5.217l-2.609,0l0,-5.216l-2.608,-0l-0,-5.217l-2.608,-0l-0,26.083l-7.825,0l-0,-57.383Zm7.825,7.825l-0,20.867l7.825,-0l-0,-20.867l-7.825,-0Zm20.866,-7.825l23.475,-0l0,7.825l-7.825,-0l0,49.558l-7.825,0l0,-49.558l-7.825,-0l0,-7.825Zm28.692,-0l7.825,-0l-0,49.558l7.825,0l-0,-49.558l7.825,-0l0,52.167l-2.608,-0l-0,2.608l-2.609,-0l0,2.608l-13.041,0l-0,-2.608l-2.609,-0l0,-2.608l-2.608,-0l-0,-52.167Zm41.733,-0l2.609,-0l-0,7.825l2.608,-0l-0,10.433l2.608,0l0,7.825l2.609,0l-0,7.825l2.608,0l-0,7.825l2.608,0l0,7.825l2.609,0l-0,7.825l-7.825,0l-0,-7.825l-18.259,0l0,7.825l-7.825,0l0,-7.825l2.609,0l-0,-7.825l2.608,0l-0,-7.825l2.608,0l0,-7.825l2.609,0l-0,-7.825l2.608,0l-0,-10.433l2.608,-0l0,-7.825Zm0,23.475l0,10.433l-2.608,0l-0,7.825l7.825,0l-0,-7.825l-2.608,0l-0,-10.433l-2.609,-0Zm23.475,-23.475l7.825,-0l0,49.558l10.434,0l-0,7.825l-18.259,0l0,-57.383Zm31.3,-0l15.65,-0l0,2.608l5.217,0l-0,2.609l2.608,-0l0,18.258l-2.608,-0l-0,2.608l-2.608,0l-0,2.609l2.608,-0l-0,2.608l2.608,-0l0,20.867l-2.608,-0l-0,2.608l-5.217,-0l0,2.608l-15.65,0l0,-57.383Zm7.825,31.3l0,18.258l7.825,0l0,-18.258l-7.825,-0Zm0,-23.475l0,15.65l7.825,-0l0,-15.65l-7.825,-0Zm28.692,-7.825l13.042,-0l-0,2.608l2.608,0l-0,2.609l2.608,-0l0,46.95l-2.608,-0l-0,2.608l-2.608,-0l-0,2.608l-13.042,0l-0,-2.608l-2.608,-0l-0,-2.608l-2.609,-0l0,-46.95l2.609,-0l-0,-2.609l2.608,0l-0,-2.608Zm2.608,7.825l0,41.733l7.825,0l0,-41.733l-7.825,-0Zm18.259,-7.825l7.825,-0l-0,7.825l2.608,-0l-0,7.825l2.608,-0l0,7.825l2.609,-0l-0,-7.825l2.608,-0l0,-7.825l2.608,-0l0,-7.825l7.825,-0l0,7.825l-2.608,-0l-0,7.825l-2.608,-0l-0,7.825l-2.609,-0l0,7.825l-2.608,-0l0,26.083l-7.825,0l-0,-26.083l-2.608,-0l-0,-7.825l-2.609,-0l0,-7.825l-2.608,-0l0,-7.825l-2.608,-0l-0,-7.825Z"/>
        <path id="TM" style="fill:#ff2600;" d="M292.133,49.558l10.434,0l-0,2.609l2.608,-0l0,2.608l2.608,-0l0,-2.608l2.609,-0l-0,-2.609l2.608,0l-0,10.434l-2.608,-0l-0,-5.217l-2.609,-0l0,2.608l-2.608,0l0,-2.608l-2.608,-0l-0,5.217l-2.609,-0l0,-7.825l-2.608,-0l-0,7.825l-2.608,-0l-0,-7.825l-2.609,-0l0,-2.609Z"/>
</svg>
