<svg width="100%" height="100%" viewBox="0 0 328 82" xmlns="http://www.w3.org/2000/svg">
        <path id="VIRTUALBOY" style="fill:#ff2600;" d="M87.125,51.25l0,12.812l-2.563,0l0.001,2.563l-2.563,-0l0,2.562l-2.563,0l0.001,2.563l2.562,-0l0,2.562l2.563,0l-0.001,2.563l2.563,-0l0,2.562l2.563,0l-0.001,2.563l-12.812,-0l0,-2.563l-2.563,0l0.001,-2.562l-2.563,-0l0,-2.563l-2.563,0l0.001,-2.562l-2.563,-0l0,10.25l-10.25,-0l0,-38.438l20.5,0l0,2.563l5.125,-0l0,2.562l2.563,0l-0.001,2.563l2.563,-0Zm0,-0l0,-7.688l25.625,0l0,7.688l-7.688,-0l0.001,30.75l-10.251,-0l0.001,-30.75l-7.688,-0Zm-20.5,-0l0,17.937l2.563,0l-0.001,-2.562l5.126,-0l-0.001,-2.563l2.563,0l0,-10.25l-2.563,0l0.001,-2.562l-7.688,-0Zm74.313,25.625l-2.563,-0l0,2.562l-2.563,0l0,2.563l-15.375,-0l0,-2.563l-2.562,0l-0,-2.562l-2.563,-0l0,-33.313l10.25,0l0,33.313l5.125,-0l0,-33.313l10.25,0l0,33.313Zm0,-0l2.563,-0l0,-5.125l2.563,-0l-0,-5.125l2.562,-0l0,-5.125l2.563,-0l-0,-5.125l2.562,-0l0,-5.125l2.563,-0l-0,-5.125l2.562,-0l0,-2.563l5.125,0l0,2.563l2.563,-0l-0,5.125l2.562,-0l0,5.125l2.563,-0l-0,5.125l2.562,-0l0,5.125l2.563,-0l-0,5.125l2.562,-0l0,5.125l2.563,-0l-0,5.125l-10.25,-0l-0,-5.125l-20.5,-0l-0,5.125l-10.25,-0l-0,-5.125Zm17.937,-15.375l0,5.125l-2.563,-0l0,5.125l10.25,-0l0,-5.125l-2.562,-0l0,-5.125l-5.125,-0Zm-158.875,-17.938l10.25,0l0,5.125l2.563,0l-0.001,5.125l2.563,0l-0,5.125l2.562,0l0,5.125l5.125,0l0,-5.125l2.563,0l0,-5.125l2.563,0l-0,-5.125l2.562,0l0,-5.125l10.25,0l0,5.125l-2.563,0l0.001,5.125l-2.563,0l0,5.125l-2.562,0l-0,5.125l-2.563,0l0,5.125l-2.562,0l-0,5.125l-2.563,0l0,5.125l-2.562,0l-0,2.563l-5.125,-0l-0,-2.563l-2.563,0l0,-5.125l-2.562,0l-0,-5.125l-2.563,0l0,-5.125l-2.562,0l-0,-5.125l-2.563,0l0,-5.125l-2.562,0l-0,-5.125l-2.563,0l0,-5.125Zm43.563,0l10.25,0l-0,38.438l-10.25,-0l-0,-38.438Zm140.937,0l10.25,0l0,33.313l12.813,-0l-0,5.125l-23.063,-0l0,-38.438Zm35.875,0l23.063,0l-0,2.563l5.125,-0l-0,2.562l2.562,0l0,10.25l-2.563,0l0,2.563l-2.562,-0l0,2.562l2.563,0l-0,2.563l2.562,-0l0,10.25l-2.563,-0l0,2.562l-5.125,0l0,2.563l-23.062,-0l0,-38.438Zm10.25,23.063l0,7.687l10.25,0l0,-2.562l2.563,-0l-0,-2.563l-2.563,0l0,-2.562l-10.25,-0Zm0,-15.375l0,7.687l10.25,0l0,-2.562l2.563,-0l-0,-2.563l-2.563,0l0,-2.562l-10.25,-0Zm35.875,-7.688l12.813,0l-0,2.563l5.125,-0l-0,2.562l2.562,0l0,2.563l2.563,-0l-0,5.125l2.562,-0l0,12.812l-2.563,0l0,5.125l-2.562,0l0,2.563l-2.563,-0l0,2.562l-5.125,0l0,2.563l-12.812,-0l0,-2.563l-5.125,0l0,-2.562l-2.563,-0l0,-2.563l-2.562,0l0,-5.125l-2.563,0l0,-12.812l2.563,-0l0,-5.125l2.563,-0l-0,-2.563l2.562,0l0,-2.562l5.125,-0l0,-2.563Zm2.563,7.688l-0,2.562l-2.563,0l0,2.563l-2.563,-0l0,12.812l2.563,0l0,2.563l2.563,-0l-0,2.562l7.687,0l0,-2.562l2.563,-0l-0,-2.563l2.562,0l0,-12.812l-2.563,-0l0,-2.563l-2.562,0l0,-2.562l-7.688,-0Zm20.5,-7.688l10.25,0l0,5.125l2.563,0l0,5.125l2.563,0l-0,5.125l2.562,0l0,2.563l2.563,-0l-0,-2.563l2.562,0l0,-5.125l2.563,0l-0,-5.125l2.562,0l0,-5.125l10.25,0l0,5.125l-2.563,0l0,5.125l-2.562,0l0,5.125l-2.563,0l0,5.125l-2.562,0l0,5.125l-2.563,0l0,12.813l-12.812,-0l0,-12.813l-2.563,0l0,-5.125l-2.562,0l0,-5.125l-2.563,0l0,-5.125l-2.562,0l0,-5.125l-2.563,0l0,-5.125Z"/>
        <path id="Border" style="fill:#ff2600;" d="M12.813,-0l128.125,-0l-0,2.562l5.125,0l-0,2.563l2.562,-0l0,2.562l2.563,0l-0,5.125l2.562,0l0,12.813l-2.563,-0l0,5.125l-2.562,-0l0,2.562l-2.563,0l0,2.563l-5.125,-0l0,2.562l-128.125,0l0,-2.562l-5.125,-0l0,-2.563l-2.562,0l-0,-2.562l-2.563,-0l0,-5.125l-2.562,-0l-0,-12.813l2.562,0l0,-5.125l2.563,0l-0,-2.562l2.562,-0l0,-2.563l5.125,0l0,-2.562Zm0,5.125l0,2.562l-2.562,0l-0,2.563l-2.563,-0l0,5.125l-2.562,-0l-0,7.687l2.562,0l0,5.125l2.563,0l-0,2.563l2.562,-0l0,2.562l128.125,0l0,-2.562l2.563,-0l0,-2.563l2.563,0l-0,-5.125l2.562,0l0,-7.687l-2.563,-0l0,-5.125l-2.562,-0l0,-2.563l-2.563,0l0,-2.562l-128.125,-0Z"/>
        <path id="Nintendo" style="fill:#ff2600;" d="M23.063,17.937l-2.563,0l0,10.25l-5.125,0l0,-17.937l5.125,-0l0,2.562l2.563,0l-0,5.125Zm2.562,2.563l2.563,-0l-0,-10.25l5.125,-0l-0.001,17.937l-5.125,0l0,-2.562l-2.562,-0l-0,-5.125Zm-2.563,-2.563l2.563,0l-0,2.563l-2.563,-0l0,-2.563Zm28.188,0l0,2.563l-2.563,-0l0.001,7.687l-5.125,0l-0,-12.812l5.125,-0l-0,2.562l2.562,0Zm0,0l0,-2.562l5.125,-0l0,2.562l2.563,0l-0,10.25l-5.125,0l-0,-10.25l-2.563,0Zm43.563,0l-0,2.563l-2.563,-0l0,7.687l-5.125,0l0,-12.812l5.125,-0l0,2.562l2.563,0Zm-0,0l-0,-2.562l5.125,-0l-0,2.562l2.562,0l0,10.25l-5.125,0l0,-10.25l-2.562,0Zm-58.938,-7.687l5.125,-0l0,2.562l-5.125,0l0,-2.562Zm0,5.125l5.125,-0l0,12.812l-5.125,0l0,-12.812Zm25.625,12.812l0,-12.812l-2.562,-0l-0,-2.563l2.562,0l0,-2.562l5.125,-0l0,2.562l2.563,0l-0,2.563l-2.563,-0l0,12.812l-5.125,0Zm10.25,-12.812l10.25,-0l0,2.562l2.563,0l-0,5.125l-10.25,0l-0,2.563l10.25,-0l-0,2.562l-12.813,0l0,-2.562l-2.562,-0l-0,-7.688l2.562,0l0,-2.562Zm2.563,2.562l-0,2.563l5.125,-0l-0,-2.563l-5.125,0Zm41,-7.687l5.125,-0l-0,17.937l-12.813,0l0,-2.562l-2.562,-0l-0,-7.688l2.562,0l0,-2.562l7.688,-0l-0,-5.125Zm-5.125,7.687l-0,7.688l5.125,-0l-0,-7.688l-5.125,0Zm15.375,-2.562l10.25,-0l-0,2.562l2.562,0l0,7.688l-2.563,-0l0,2.562l-10.25,0l0,-2.562l-2.562,-0l-0,-7.688l2.562,0l0,-2.562Zm2.563,2.562l0,7.688l5.125,-0l0,-7.688l-5.125,0Z"/>
</svg>
